<svg enable-background="new 0 0 274 274" viewBox="0 0 274 274" xmlns="http://www.w3.org/2000/svg"><circle cx="136.2" cy="137" fill="#64c3c4" r="121"/><circle cx="40.8" cy="40.2" fill="#229e98" r="40.5"/><path d="m55.2 40.2h-20.2c-1.2 0-2.2-1-2.2-2.2v-20.3c0-1.2 1-2.2 2.2-2.2h20.2c1.2 0 2.2 1 2.2 2.2v20.2c.1 1.2-1 2.3-2.2 2.3z" fill="#cfe9e7"/><path d="m47.1 31.4h-4l-.7 2h-2.8l4.1-11.3h2.6l4.2 11.3h-2.8zm-.8-2.2-1.2-3.8-1.2 3.8z" fill="#202e5c"/><path d="m36.6 65.1h-20.3c-1.2 0-2.2-1-2.2-2.2v-20.3c0-1.2 1-2.2 2.2-2.2h20.2c1.2 0 2.2 1 2.2 2.2v20.2c.1 1.2-.9 2.3-2.1 2.3z" fill="#64c3c4"/><path d="m21.5 47h3.9c3.6 0 5.9 2.3 5.9 5.7 0 3.3-2.1 5.6-5.8 5.6h-4zm3.8 9c1.9 0 3.2-1.4 3.2-3.3s-1.3-3.3-3-3.3h-1.4v6.6z" fill="#202e5c"/><path d="m65.3 65.1h-20.3c-1.2 0-2.2-1-2.2-2.2v-20.3c0-1.2 1-2.2 2.2-2.2h20.3c1.2 0 2.2 1 2.2 2.2v20.2c0 1.2-1 2.3-2.2 2.3z" fill="#fff"/><path d="m51.3 47h7.4v2.4h-4.8v2.2h3.8v2.3h-3.8v2.1h5.1v2.4h-7.7z" fill="#202e5c"/><circle cx="224.3" cy="68.6" fill="#cfe9e7" r="49.2"/><path d="m199.1 42.6c-1.8 0-3.2 1.6-3.2 3.5v13.1c0 1.9 1.4 3.5 3.2 3.5h35.6v-2-2-12.1-2-2z" fill="#64c3c4"/><path d="m259.2 60.7h-34.1c-.6 0-1.2-.7-1.2-1.5v-13.1c0-.8.5-1.5 1.2-1.5h34.1" fill="#fff"/><path d="m260.7 62.7h-35.6c-1.8 0-3.2-1.6-3.2-3.5v-13.1c0-1.9 1.4-3.5 3.2-3.5h35.6v4h-34.9v12.1h34.9z" fill="#64c3c4"/><path d="m249.1 77.7h-56.4c-1.1 0-1.9-.6-1.9-1.2v-10.7c0-.7.9-1.2 1.9-1.2h56.4" fill="#fff"/><path d="m187.9 62.6h64v4h-64z" fill="#202e5c"/><path d="m187.9 75.7h64v4h-64z" fill="#202e5c"/><path d="m199.1 79.6c-1.8 0-3.2 1.4-3.2 3v8.9c0 1.7 1.4 3 3.2 3h35.6v-2-2-7-2-2z" fill="#64c3c4"/><path d="m259.2 92.6h-34.1c-.6 0-1.2-.5-1.2-1v-8.9c0-.6.5-1 1.2-1h34.1" fill="#fff"/><path d="m260.7 94.6h-35.6c-1.8 0-3.2-1.4-3.2-3v-8.9c0-1.7 1.4-3 3.2-3h35.6v4h-34.9v7h34.9z" fill="#64c3c4"/><path d="m112.6 76.5c-38.2 7.2-26.1 51.9-25.3 62.6s-7.1 19.4-10.2 28.4c-3.1 9.1 5.9 31.5 5.9 31.5l108-8s3-28-6.3-39c-6.2-7.3-15.2-10.4-18.3-20.6-3.1-10.3-9.6-63.3-47.8-56z" fill="#202e5c"/><path d="m194.4 187.2c-3.3-1.6-7.2-2.7-11.7-3.6-4.8 15.7-22.6 27.4-43.7 27.4-21.4 0-39.4-12-43.9-28.1-4.7 2.2-9.1 4.1-9.1 4.1l-.5 4.8-9.5 82.2h142.4c-2.9-29-7.5-68.6-11.4-75-3.3-5.6-7.3-9.3-12.6-11.8z" fill="#f77d11"/><path d="m144.7 167.7s-28.7-3.7-28.8 0-5.9 7.3-10.9 10.3c-2.2 1.3-6.2 3.2-9.9 4.9 4.5 16.1 22.5 28.1 43.9 28.1 21.1 0 38.9-11.7 43.7-27.4-1.2-.2-2.4-.4-3.7-.6-14-2-34.3-15.3-34.3-15.3z" fill="#f7f6f6"/><path d="m139 223c-24.6 0-46.3-11.9-55.3-30.4l3.6-1.8c8.2 16.8 29 28.1 51.8 28.1 25 0 47-13.3 53.5-32.5l3.8 1.3c-7.2 20.8-30.7 35.3-57.4 35.3z" fill="#c54e0b"/><path d="m129.4 174.4c-3.9.7-9-1.8-13.4-4.7v4.5h.1v1.1c0 8.6 5.9 15.7 13 15.7h3c7.1 0 13-7.1 13-15.7v-1.2c0-1.2-.1-2.3-.3-3.4l.1-12.7c-3.3 5.3-9.3 15.2-15.5 16.4z" fill="#f7f6f6"/><path d="m129.4 177.4c9.7.6 13.9-4.4 15.6-9.4l-.2-16-14.5.2-14.5-.2v11.8h.1v4.2c3.1 4 7.1 9 13.5 9.4z" fill="#e2e2e2"/><path d="m147.8 140.6c4.7-.9 6.3-8.2 5.2-13.9s-7.3-2.5-7.3-2.5z" fill="#f2f2f2"/><path d="m101.7 149.3c-4.7.9-8.9-5.3-9.9-11-1.1-5.7 5.9-5 5.9-5z" fill="#f2f2f2"/><path d="m114.7 91.8-20.9 23.6 4.8 25.6s4.7 14.8 8.1 17.1 15.1 12.8 22.6 11.4 14.6-15.5 16.9-18.9 1.3-18.9 1.3-18.9l-4.8-25.6z" fill="#fff"/><path d="m114.8 91.8c2.2 4.8 28.9 21.1 28.9 21.1l2.3 11.1c.5-.2 1.5-.6 2.7-.7 11-15.9-1.1-35.4-1.1-35.4s-14.5-26.1-32.8 3.9" fill="#202e5c"/><path d="m86.9 136.8s44.6-30.1 32.7-61.6c0 0-47.2-1.9-32.7 61.6z" fill="#4e5789"/><path d="m124.4 149c-3.7-.5-6.7 2.5-6.7 2.5s10.3 10.1 15-2.8c0 0-3.9-1.7-7.2.2z" fill="#f77d11"/><ellipse cx="108" cy="131.5" fill="#64c3c4" rx="2.4" ry="2.4" transform="matrix(.9826 -.1859 .1859 .9826 -22.5618 22.3711)"/><ellipse cx="135.7" cy="126.4" fill="#64c3c4" rx="2.4" ry="2.4" transform="matrix(.9826 -.1859 .1859 .9826 -21.132 27.4313)"/><path d="m133.1 114.5c-5.6 1.1-9.6 6-9.5 11.6l-4.8.9c-2.1-5.1-7.5-8.2-13.1-7.2-6.3 1.2-10.5 7.4-9.3 13.8s7.4 10.6 13.7 9.4 10.5-7.3 9.3-13.7l4.4-.8c1.3 6.3 7.4 10.4 13.7 9.2s10.5-7.4 9.3-13.8c-1.2-6.3-7.3-10.6-13.7-9.4zm-23.4 26.2c-5.1 1-10-2.4-11-7.5s2.4-10 7.5-11c4.3-.8 8.5 1.5 10.2 5.3l-.4.1.4 2.3.6-.1c1.1 5-2.2 9.9-7.3 10.9zm27.4-5.3c-5 .9-9.8-2.3-10.9-7.3l.7-.1-.4-2.3-.5.1c.2-4.3 3.2-8 7.6-8.8 5.1-1 10 2.4 11 7.5.9 5-2.5 9.9-7.5 10.9z" fill="#202e5c"/><path d="m78 134s6 2 7 3 0 7 0 7 1 2 1 4-1 8-1 8c-5-1-4-9-4-9-2 0-4-2-4-2-1 3-4 5-4 5s11 7 13 9c1.5 1.5 3 6.2 3.6 8.6 1.6-6.7 2.4-14.6 2.4-14.6 1-6.9-4.8-17.6-5-18-3.4-1-6-2-6-2z" fill="#dbdbdb"/><path d="m89 170c.2-.8.4-1.6.6-2.4-.7-2.4-2.1-7.1-3.6-8.6-2-2-13-9-13-9s3-2 4-5c0 0 2 2 4 2 0 0-1 8 4 9 0 0 1-6 1-8s-1-4-1-4 1-6 0-7-7-3-7-3l3-1s2.6 1.1 6 2c2 0 5-1 5-1s0 0 3 0 4-3 4-3-12-4-14-4-2 1-2 1-2-1-4-1-12 4-13 5 0 12 0 12 0 0-1 2c-1.3 2.5-1 4 0 7s8 18 7 21-3.9 19.5-8 37c-4 17-11 59-10 63h22.1c3.5-8 5.7-23 8.9-46 .5-4 2-51 4-58z" fill="#fff"/></svg>