<svg enable-background="new 0 0 274 274.1" viewBox="0 0 274 274.1" xmlns="http://www.w3.org/2000/svg"><circle cx="136.2" cy="137" fill="#cfe9e7" r="121"/><circle cx="228.6" cy="46.2" fill="#64c3c4" r="44.9"/><path d="m250.4 59h-30.2c-1 0-1.9-.9-1.9-1.9v-9.2c0-1 .9-1.9 1.9-1.9h30.2c1 0 1.9.9 1.9 1.9v9.2c0 1.1-.8 1.9-1.9 1.9z" fill="#cfe9e7"/><circle cx="253.7" cy="70.2" fill="#202e5c" r="6"/><g fill="#229e98"><path d="m212.8 44.5c-1.3 0-2.3-1-2.3-2.3v-21.3h-10.7c-1.3 0-2.3-1-2.3-2.3s1-2.3 2.3-2.3h13c1.3 0 2.3 1 2.3 2.3v23.6c.1 1.2-1 2.3-2.3 2.3z"/><path d="m253.7 71.6c-1.3 0-2.3-1-2.3-2.3v-8.8h-26.5c-1.3 0-2.3-1-2.3-2.3s1-2.3 2.3-2.3h28.8c1.3 0 2.3 1 2.3 2.3v11.2c0 1.1-1 2.2-2.3 2.2z"/><path d="m253.7 35.6h-39.9c-1.3 0-2.3-1-2.3-2.3s1-2.3 2.3-2.3h39.9c1.3 0 2.3 1 2.3 2.3s-1 2.3-2.3 2.3z"/><path d="m245.5 60.4c-1.3 0-2.3-1-2.3-2.3v-24.8c0-1.3 1-2.3 2.3-2.3s2.3 1 2.3 2.3v24.8c0 1.3-1 2.3-2.3 2.3z"/></g><circle cx="219.3" cy="58.6" fill="#202e5c" r="17.7"/><circle cx="219.3" cy="58.6" fill="#64c3c4" r="4.7"/><path d="m127.5 62.5c-38.2 7.3-32.3 50.2-29.5 60.5 3 11-8.8 29.6-11.9 38.7s6 31.4 6 31.4l100.9-8.1s3-28 0-37-9.5-18.4-12.6-28.7c-2.5-8.2-12-64.6-46.8-58z" fill="#202e5c"/><path d="m188.4 221 20.6-11s-7.6-28.4-10.1-33.7c-2.5-4.4-4.6-7.4-6.5-8.8-7.7-5.8-11.9-6.7-22.5-7.7l-65.5.1v-.1c-.4 0-.7.1-1.1.1h-.2c-9.6.9-13.8 2.1-21.1 7.6-1.8 1.4-4 4.4-6.5 8.8-2.5 5.3-10 33.9-10 33.9l20.5 10.8s-3.2 25.6-1.4 53h105.3c1.7-27.4-1.5-53-1.5-53z" fill="#f77d11"/><path d="m89 221-23.4-10.8-.6 2.8s-7.8 38.3-5.2 61h25c-1.2-27.4 4.2-53 4.2-53z" fill="#fff"/><path d="m167.1 221.8h-13.8c-3 0-5.4-2.4-5.4-5.4v-21.1h24.6v21.1c0 2.9-2.4 5.4-5.4 5.4zm-16.2-23.6v18.1c0 1.3 1.1 2.4 2.4 2.4h13.8c1.3 0 2.4-1.1 2.4-2.4v-18.1z" fill="#c54e0b"/><path d="m149.4 201.8h21.6v3h-21.6z" fill="#c54e0b"/><path d="m142.7 164.6c-6.1 1.1-14.8-5.6-19.7-9.5v5.9c0 7.7 6.3 14 14 14h1c7.7 0 14-6.3 14-14v-3.4c-2.8 3.4-6 6.4-9.3 7z" fill="#fff"/><path d="m123 144v11.1c4.9 3.9 13.6 10.6 19.7 9.5 3.3-.6 6.5-3.6 9.3-7v-13.6z" fill="#e2e2e2"/><path d="m161.4 127c4.7-.8 6.4-8.1 5.4-13.8s-7.3-2.6-7.3-2.6z" fill="#f2f2f2"/><path d="m115.2 135.2c-4.7.8-8.8-5.4-9.8-11.1s5.9-5 5.9-5z" fill="#f2f2f2"/><path d="m128.9 77.8-21.2 23.3 4.5 25.6s4.6 14.8 7.9 17.2c3.3 2.3 15 13 22.5 11.7s14.8-15.3 17.1-18.7c2.3-3.3 1.5-18.9 1.5-18.9l-4.5-25.6z" fill="#fff"/><path d="m129 77.8c2.2 4.9 28.7 21.4 28.7 21.4l2.2 11.2c.5-.2 1.6-.6 2.7-.7 11.1-15.8-1.7-34.4-1.7-34.4s-13.3-27.3-31.9 2.5" fill="#202e5c"/><path d="m98.5 125.5s47-32.6 35.4-64.2c.1 0-50.9 1.7-35.4 64.2z" fill="#4e5789"/><path d="m137.9 135.1c-3.7-.5-6.8 2.4-6.8 2.4s10.2 10.2 15.1-2.7c0 0-3.9-1.7-7.2.1z" fill="#f77d11"/><path d="m119 119.9c-.6 0-1-.5-1-1 0-1.7 1.3-3.2 3.1-3.7s3.7 0 4.7 1.4c.3.5.2 1.1-.2 1.4s-1.1.2-1.4-.2c-.5-.7-1.5-.9-2.5-.6s-1.7 1.1-1.7 1.9c0 .3-.4.8-1 .8z" fill="#64c3c4"/><path d="m146 114.9c-.6 0-1-.5-1-1 0-1.7 1.3-3.2 3.1-3.7s3.7 0 4.7 1.4c.3.5.2 1.1-.2 1.4-.5.3-1.1.2-1.4-.2-.5-.7-1.5-.9-2.5-.6s-1.7 1.1-1.7 1.9c0 .3-.4.8-1 .8z" fill="#64c3c4"/><path d="m147.1 100.8c-5.6 1-9.6 5.9-9.7 11.5l-4.8.8c-2-5.1-7.4-8.3-13-7.3-6.4 1.1-10.6 7.2-9.5 13.6s7.2 10.7 13.6 9.6c6.3-1.1 10.6-7.2 9.5-13.6l4.4-.8c1.2 6.3 7.3 10.5 13.5 9.3 6.4-1.1 10.6-7.2 9.5-13.6-1.1-6.3-7.2-10.6-13.5-9.5zm-23.7 25.9c-5.1.9-10-2.5-10.9-7.6s2.5-10 7.6-10.9c4.3-.8 8.4 1.6 10.2 5.4l-.4.1.4 2.3.6-.1c.9 5-2.5 9.9-7.5 10.8zm27.4-5c-5 .9-9.8-2.4-10.8-7.4l.7-.1-.4-2.3-.5.1c.2-4.3 3.3-8 7.7-8.7 5.1-.9 10 2.5 10.9 7.6.9 5-2.5 9.9-7.6 10.8z" fill="#202e5c"/><path d="m86 258s-12.3 2-14 1.2.9-5 13.5-6.6c0 0-8.9.8-12.3.7-3.4 0-6.2 0-6.2-2.6s18.5-3.2 18.5-3.2-12.3-1-14.8-1-4.9-.9-4.5-2.5c.7-3 20.2-1.5 20.2-1.5s-5.9-1.7-9.2-2.6-9.3-.1-10.1-2.6 18.5-2.4 21.9-.7c2.3 1.1 9.6 10.5 14.9 18.8" fill="#e2e2e2"/><path d="m92.1 209.1-23.5-10.3c-.3 1-.5 2-.8 2.9l23.1 10.1z" fill="#c54e0b"/><path d="m209.4 211.5-.6-2.9-23.7 10.9s5.4 26.3 4.1 54.4l25.1.1c2.9-23.1-4.9-62.5-4.9-62.5z" fill="#f2f2f2"/><path d="m183.2 210.3 23.1-10.3c-.3-1-.5-2-.8-3l-23.5 10.5z" fill="#c54e0b"/><path d="m211.7 225.3c-.1-.5-.2-.9-.3-1.4.2.4.2.9.3 1.4z" opacity=".1"/><path d="m188.3 256c.4-.5.7-1 1.1-1.4 8.3-11.1 8.3-11.1 8.3-11.1s11.8 2.6 13.5 1.8-.8-5.1-13.4-6.8c0 0 8.9.9 12.3 1 1.3 0 2.6 0 3.6-.2-.2-1.4-.3-2.7-.5-4-5.3-1.3-15.4-1.8-15.4-1.8s12.4-.1 14.8-.7c.1 0 .1 0 .2-.1-.2-1.2-.3-2.5-.5-3.6-6-.6-15.4-.7-15.4-.7s5.9-1.6 9.3-2.5c1.6-.4 3.7-.4 5.5-.5-.1-.5-.1-1-.2-1.4-.1-.8-.3-1.5-.4-2.3-5.8-.6-14.5-.2-16.6.8-1.3.6-4.2 3.8-7.5 8-5.4 6.8-11.8 16.2-13.4 20.9l-84 12.3-4 10.3h59.2c21.3-6.1 39.6-12.8 43.5-18z" opacity=".1"/><path d="m188.4 249.9c9.3-12.6 9.3-12.6 9.3-12.6s11.8 2.6 13.5 1.8-.8-5.1-13.4-6.8c0 0 8.9.9 12.3.9s6.2 0 6.2-2.5-18.5-3.5-18.5-3.5 12.4-.1 14.8-.7c2.5-.6 4.5-.8 4.5-2.5s-20.2-1.8-20.2-1.8 5.9-1.6 9.3-2.5c3.4-.8 9.3.1 10.1-2.5.9-2.5-18.5-2.6-21.9-1-3.4 1.7-18.2 21.3-20.8 28.9l-93.6 13.8-1.9 15 57.1-.1c25.6-8.3 48.8-18 53.2-23.9z" fill="#fff"/><circle cx="36.8" cy="115.5" fill="#229e98" r="36"/><path d="m33.5 138.2c-.8 0-1.5-.8-1.4-1.6 0-.8.8-1.5 1.6-1.4.8 0 1.5.8 1.4 1.6-.1.8-.7 1.4-1.6 1.4zm3.6-1.5c-.1-.8.4-1.6 1.2-1.7.8-.1 1.6.4 1.7 1.2.1.8-.4 1.6-1.2 1.7-.1 0-.2 0-.2 0-.8 0-1.4-.5-1.5-1.2zm-8.8.6c-.8-.2-1.3-1-1.1-1.8.2-.8 1-1.3 1.8-1.1.8.2 1.3 1 1.1 1.8-.2.7-.8 1.1-1.5 1.1-.1.1-.2.1-.3 0zm13.7-1.7c-.3-.8.1-1.6.9-1.9.8-.3 1.6.1 1.9.9.3.8-.1 1.6-.9 1.9-.2.1-.4.1-.5.1-.6 0-1.2-.4-1.4-1zm-18.7-.1c-.8-.3-1.1-1.2-.7-2 .4-.7 1.3-1.1 2-.7.8.4 1.1 1.2.7 2-.3.5-.8.9-1.4.9-.1-.1-.3-.1-.6-.2zm23.3-1.8c-.4-.7-.2-1.6.5-2.1.7-.4 1.6-.2 2.1.5.4.7.2 1.6-.5 2.1-.2.1-.5.2-.8.2-.5 0-1-.2-1.3-.7zm-27.8-.8c-.7-.5-.9-1.4-.4-2.1.5-.7 1.4-.9 2.1-.4.7.5.9 1.4.4 2.1-.3.4-.8.7-1.2.7-.3-.1-.6-.2-.9-.3zm31.9-2c-.6-.6-.5-1.6.1-2.1.6-.6 1.6-.5 2.1.1.6.6.5 1.5-.1 2.1-.3.3-.7.4-1 .4-.4 0-.8-.1-1.1-.5zm-36-1.2c-.6-.5-.7-1.5-.1-2.1.5-.6 1.5-.7 2.1-.2.6.5.7 1.5.1 2.1-.3.3-.7.5-1.1.5-.3.1-.7-.1-1-.3zm39.5-2.3c-.7-.5-.8-1.4-.3-2.1.5-.7 1.4-.8 2.1-.3.7.5.8 1.4.3 2.1-.3.4-.8.6-1.2.6-.3 0-.6-.1-.9-.3zm-43.2-1.3c-.6-.6-.5-1.6.1-2.1.6-.6 1.6-.5 2.1.1.6.6.5 1.5-.1 2.1-.3.3-.6.4-1 .4-.4 0-.8-.2-1.1-.5zm46-2.9c-.8-.4-1.1-1.3-.7-2 .4-.8 1.3-1.1 2-.7.8.4 1.1 1.2.7 2-.3.5-.8.8-1.4.8-.2.1-.4 0-.6-.1zm-49.3-1c-.5-.7-.4-1.6.3-2.1.6-.5 1.6-.4 2.1.3.5.7.4 1.6-.3 2.1-.3.2-.6.3-.9.3-.5 0-.9-.2-1.2-.6zm51.3-3.6c-.8-.2-1.2-1.1-1-1.9.2-.8 1.1-1.2 1.9-1 .8.2 1.2 1.1 1 1.9-.2.6-.8 1-1.4 1-.2.1-.3.1-.5 0zm-54.3-.7c-.4-.7-.2-1.6.5-2.1.7-.4 1.6-.2 2 .5.4.7.2 1.6-.5 2.1-.2.1-.5.2-.8.2-.4.1-.9-.2-1.2-.7zm55.7-4.1c-.8-.2-1.4-.9-1.2-1.8.2-.8.9-1.4 1.8-1.2.8.2 1.4.9 1.2 1.8-.1.7-.8 1.2-1.5 1.2-.1.1-.2.1-.3 0zm.9-4.9c-.8-.1-1.4-.8-1.4-1.6.1-.8.8-1.4 1.6-1.4.8.1 1.4.8 1.4 1.6-.1.8-.7 1.4-1.6 1.4zm.3-5c-.8 0-1.5-.7-1.5-1.5 0-.8.7-1.5 1.5-1.5.8 0 1.5.7 1.5 1.5 0 .8-.6 1.5-1.5 1.5zm-1.7-6.4c-.1-.8.5-1.5 1.4-1.6.8-.1 1.5.5 1.6 1.4.1.8-.5 1.6-1.4 1.6h-.1c-.7 0-1.4-.6-1.5-1.4z" fill="#64c3c4"/><path d="m3.7 120.8h20.7v3h-20.7z" fill="#202e5c" transform="matrix(.3274 -.9449 .9449 .3274 -106.1508 95.5014)"/><path d="m57.3 94.3h3v20.7h-3z" fill="#202e5c" transform="matrix(.4691 -.8831 .8831 .4691 -61.2213 107.5272)"/><path d="m12 122.6 4.6 1.5 3.8-11.5-2.2-.7-3.1 1.3z" fill="#fff" opacity=".4"/><path d="m19.3 123.3 2.8.9 5-15.2-.8-.2-2.6 1z" fill="#fff" opacity=".4"/><path d="m40.9 111.3 4.6 1.5 3.8-11.5-2.2-.7-3.1 1.2z" fill="#fff" opacity=".4"/><path d="m52.6 98.4-4.4 13.5 2.8 1 5-15.2-.8-.3z" fill="#fff" opacity=".4"/><path d="m19.5 125.8c-5.2 0-10.1-3.1-12.1-8.2l2.8-1.1c2 5.1 7.8 7.7 13 5.6 5.1-2 7.7-7.8 5.6-13l2.8-1.1c2.6 6.7-.7 14.2-7.3 16.8-1.7.7-3.3 1-4.8 1z" fill="#202e5c"/><path d="m48.3 114.4c-1.8 0-3.5-.4-5.2-1.1-3.2-1.4-5.6-3.9-6.9-7.2l2.8-1.1c1 2.5 2.9 4.4 5.3 5.5s5.2 1.1 7.6.1 4.4-2.9 5.5-5.3 1.1-5.2.1-7.6l2.8-1.1c1.3 3.2 1.2 6.8-.2 9.9-1.4 3.2-3.9 5.6-7.2 6.9-1.3.7-3 1-4.6 1z" fill="#202e5c"/><path d="m1.4 104.6h64.3v3h-64.3z" fill="#202e5c" transform="matrix(.9307 -.3658 .3658 .9307 -36.4854 19.6223)"/></svg>