<svg enable-background="new 0 0 274 274" viewBox="0 0 274 274" xmlns="http://www.w3.org/2000/svg"><circle cx="136.2" cy="137" fill="#cfe9e7" r="121"/><circle cx="36.4" cy="90.9" fill="#229e98" r="36"/><path d="m61.4 86.6-2.8-.1-.2-2.8-2.8-.2-.1-2.8-2.8-.1-.2-2.8-2.8-.2-.1-2.8-2.8-.1-.2-2.8-2.8-.2-.1-2.8-2.8-.1-.2-2.8-2.9-.2-26.5 26.5.2 2.9 2.8.2.1 2.8 2.8.1.2 2.8 2.8.2.1 2.8 2.8.1.2 2.8 2.8.2.1 2.8 2.8.1.2 2.8 2.8.2.1 2.8 2.9.1 26.5-26.5z" fill="#fff"/><ellipse cx="36.4" cy="90.9" fill="#e2e2e2" rx="12.9" ry="12.9" transform="matrix(.7071 -.7071 .7071 .7071 -53.6232 52.3928)"/><circle cx="241.3" cy="133.4" fill="#64c3c4" r="32"/><path d="m228.2 138.4c-2.5-1.2-5.4-.2-6.6 2.3s-.2 5.4 2.3 6.6l5.8 2.8 4.3-8.9z" fill="#cfe9e7"/><path d="m239.8 144-5.8-2.8-4.3 8.9 5.8 2.8c2.5 1.2 5.4.2 6.6-2.3 1.2-2.4.2-5.4-2.3-6.6z" fill="#fff"/><path d="m244.9 136.9c-1.6 2.2-1.2 5.3 1 7s5.3 1.2 7-1l3.9-5.2-7.9-6z" fill="#202e5c"/><path d="m252.6 126.6-3.9 5.2 7.9 6 3.9-5.2c1.6-2.2 1.2-5.3-1-7-2.1-1.6-5.2-1.2-6.9 1z" fill="#fff"/><path d="m234.7 131.9c1.5 2.3 4.6 2.9 6.9 1.5s2.9-4.6 1.5-6.9l-3.5-5.4-8.3 5.4z" fill="#cfe9e7"/><path d="m227.6 121.1 3.5 5.4 8.3-5.4-3.5-5.4c-1.5-2.3-4.6-2.9-6.9-1.5-2.2 1.5-2.8 4.6-1.4 6.9z" fill="#fff"/><circle cx="140" cy="36" fill="#64c3c4" r="36"/><path d="m155.4 46.9h3v12h-3z" fill="#202e5c" transform="matrix(.7071 -.7071 .7071 .7071 8.551 126.4341)"/><path d="m126.1 14.3-7.8 7.8c-.3.3-.8.3-1.1 0l-2.2-2.2c-.3-.3-.3-.8 0-1.1l7.8-7.8c.3-.3.8-.3 1.1 0l2.2 2.2c.3.4.3.9 0 1.1z" fill="#202e5c"/><path d="m120.9 15.5h4.8v7.7h-4.8z" fill="#202e5c" transform="matrix(.7071 -.7071 .7071 .7071 22.4544 92.8685)"/><path d="m128.4 15.6 27.6 27.6c2.4 2.4 2.4 6.4 0 8.9-2.4 2.4-6.4 2.4-8.9 0l-27.6-27.6z" fill="#fff"/><path d="m135.8 25.9 18.2 18.3c1.6 1.6 1.6 4.2 0 5.8-1.6 1.6-4.2 1.6-5.8 0l-18.2-18.2z" fill="#64c3c4"/><path d="m146.5 40h5.3v3h-5.3z" fill="#fff" transform="matrix(.7071 -.7071 .7071 .7071 14.3094 117.6408)"/><path d="m142.4 35.6h5.3v3h-5.3z" fill="#fff" transform="matrix(.7071 -.7071 .7071 .7071 16.2441 113.4516)"/><path d="m138.2 31.4h5.3v3h-5.3z" fill="#fff" transform="matrix(.7071 -.7071 .7071 .7071 18.0084 109.1921)"/><path d="m137.2 56c-38.9 0-35.3 46.2-36.5 56.8-1.2 10.7-10.6 17.8-15.3 26s0 32 0 32h109.8s3.5-18.9-1.2-27.2-13-13-14.1-23.7 2.3-63.9-36.6-63.9z" fill="#202e5c"/><path d="m119 160h35v88h-35z" fill="#64c3c4"/><path d="m136.4 160.4c-4.4 0-9.4-4.1-13.5-8.2v5.9h.1v.9c0 7.2 5.9 13 13 13h3c7.1 0 13-5.8 13-13v-1c0-1-.1-1.9-.3-2.8v-4.9c-4.3 4.6-10.2 10.1-15.3 10.1z" fill="#f7f6f6"/><path d="m151.8 149.5v-9.8l-14.5.2-14.5-.2v9.8h.1v2.8c4 4.1 9.1 8.2 13.5 8.2 5.1 0 11-5.5 15.3-10.1v-.9z" fill="#e2e2e2"/><path d="m216.4 257.4c-1.5-21.9-11.3-64-11.3-64l-.1-.4c-2-8-6-16.6-6-16.6s0 0 0-.1c-.2-.4-.4-.7-.6-1.1-1.2-2.2-2.3-4-3.4-5.2-.9-1.1-1.7-1.9-2.4-2.5-7.4-5.6-11.2-6.7-21.3-7.6-.8-2.4-9.3-9.1-11.8-9.9-.1 0-.1 0-.2-.1-.4-.3-.7-.6-1.1-.7-2.3-.7-5.2-.9-6.4-1h-.1l-13.7 98.8-15.1-98.8h-.1c-1.2 0-4.1.2-6.4 1-3 1-12 10.6-12 10.6-10.5 1-14.8 1.9-22.5 7.7-1.8 1.4-4 4.4-6.5 8.8.1.1.2.2.2.4-4.6 9.1-9.8 24.7-15.4 44.4l-.2.9s-5.9 31.7-3.1 52h159.4c.7-3.4.6-8.6.1-16.6z" fill="#f77d11"/><path d="m106.1 241.8h-13.8c-3 0-5.4-2.4-5.4-5.4v-21.1h24.6v21.1c0 2.9-2.4 5.4-5.4 5.4zm-16.2-23.6v18.1c0 1.3 1.1 2.4 2.4 2.4h13.8c1.3 0 2.4-1.1 2.4-2.4v-18.1z" fill="#c54e0b"/><path d="m88.4 221.8h21.6v3h-21.6z" fill="#c54e0b"/><path d="m159.9 125.5c4.8 0 7.7-6.9 7.7-12.7s-6.7-3.9-6.7-3.9z" fill="#f2f2f2"/><path d="m112.9 125.5c-4.8 0-7.7-6.9-7.7-12.7s6.7-3.9 6.7-3.9z" fill="#f2f2f2"/><path d="m136.4 71.4-24.9 19.3v26s1.9 15.4 4.8 18.3 12.5 15.4 20.1 15.4 17.3-12.5 20.1-15.4 4.8-18.3 4.8-18.3v-26z" fill="#fff"/><path d="m136.5 71.4c1.3 5.2 24.5 26.1 24.5 26.1l.2 11.4c.5-.1 1.6-.3 2.8-.2 13.7-13.6 5.5-34.9 5.5-34.9s-9.5-28.4-33-2.4" fill="#202e5c"/><path d="m100.7 110.5s49.5-21.3 43.6-54.5c-.1 0-46-10.6-43.6 54.5z" fill="#4e5789"/><path d="m135.3 129.4c-3.5-1.2-7.1 1.2-7.1 1.2s8.2 11.8 15.3 0c0 0-3.5-2.4-7.1-1.2z" fill="#f77d11"/><ellipse cx="122.4" cy="109.1" fill="#64c3c4" rx="2.4" ry="2.4"/><ellipse cx="150.6" cy="109.3" fill="#64c3c4" rx="2.4" ry="2.4"/><path d="m150.3 97.2c-5.7 0-10.5 4.2-11.5 9.6h-4.9c-1.1-5.4-5.8-9.5-11.5-9.5-6.5 0-11.7 5.3-11.7 11.8s5.3 11.8 11.7 11.8 11.7-5.3 11.7-11.7h4.4c.1 6.4 5.3 11.6 11.7 11.6 6.5 0 11.7-5.3 11.7-11.8s-5.2-11.8-11.6-11.8zm-27.9 21.4c-5.2 0-9.4-4.2-9.4-9.4s4.2-9.4 9.4-9.4c4.4 0 8 3 9.1 7.1h-.4v2.4h.7c-.1 5.1-4.2 9.3-9.4 9.3zm27.9-.2c-5.1 0-9.2-4.1-9.4-9.2h.7v-2.4h-.5c1-4.2 4.7-7.3 9.1-7.3 5.2 0 9.4 4.2 9.4 9.4 0 5.3-4.2 9.5-9.3 9.5z" fill="#202e5c"/><path d="m133.1 234.1-14.2-32.5 3-8.4-5.2 2.3-10.7-26.4 2.8-1.1 9.5 23.5 8.8-3.7-5 13.6 13.8 31.5z" fill="#c54e0b"/><path d="m86 258s-12.3 2-14 1.2.9-5 13.5-6.6c0 0-8.9.8-12.3.7-3.4 0-6.2 0-6.2-2.6s18.5-3.2 18.5-3.2-12.3-1-14.8-1-4.9-.9-4.5-2.5c.7-3 20.2-1.5 20.2-1.5s-5.9-1.7-9.2-2.6-9.3-.1-10.1-2.6 18.5-2.4 21.9-.7c2.3 1.1 9.6 10.5 14.9 18.8" fill="#fff"/><path d="m147.8 226.1-2.8-1.2 9.8-23.4-5-13.7 8.8 3.7 9.5-23.5 2.8 1.1-10.7 26.4-5.2-2.3 3 8.3z" fill="#c54e0b"/><path d="m144.5 196.3-19.2 67.9 9.8 2.8 54.2-22 9.4-33.4z" fill="#e2e2e2"/><path d="m147.9 203.3-16 56.8 12.1 3.4 39-15.6 9.1-32.1z" fill="#f7f6f6"/><path d="m165.6 202.3.9-3c.9-3.3 4.4-5.3 7.7-4.3 3.3.9 5.3 4.4 4.3 7.7l-.9 3" fill="#202e5c"/><path d="m185.2 207.9-1.7 6c-.5 1.7-2.2 2.6-3.9 2.1l-21-6.1c-1.7-.5-2.6-2.2-2.1-3.9l1.7-6" fill="#202e5c"/><ellipse cx="172.8" cy="199.7" fill="#f77d11" rx="2" ry="2" transform="matrix(.2721 -.9623 .9623 .2721 -66.4529 311.6129)"/><g fill="#202e5c"><path d="m157.3 211.5h3v18.5h-3z" transform="matrix(.2722 -.9622 .9622 .2722 -96.8305 313.4178)"/><path d="m162.2 213.9h3v33.5h-3z" transform="matrix(.2721 -.9623 .9623 .2721 -102.8103 325.4793)"/><path d="m160 221.9h3v33.5h-3z" transform="matrix(.2721 -.9623 .9623 .2721 -112.0833 329.0972)"/><path d="m157.7 229.8h3v33.5h-3z" transform="matrix(.2722 -.9623 .9623 .2722 -121.3593 332.7075)"/></g><path d="m188.3 256c9.4-12.6 9.4-12.6 9.4-12.6s11.8 2.6 13.5 1.8-.8-5.1-13.4-6.8c0 0 8.9.9 12.3 1 1.6 0 3.1 0 4.2-.3-.2-1.3-.4-2.5-.6-3.8-5.1-1.4-15.8-2-15.8-2s12.4-.1 14.8-.7c.2 0 .4-.1.5-.1-.2-1.2-.4-2.4-.6-3.5-6-.6-15.5-.7-15.5-.7s5.9-1.6 9.3-2.5c1.6-.4 3.7-.4 5.6-.6-.2-1.3-.5-2.5-.7-3.7-5.8-.6-14.5-.2-16.6.8-3.4 1.7-18.3 21.3-20.8 28.9l-84 12.3-4.3 10.5h59.2c21.3-6.1 39.6-12.8 43.5-18z" fill="#c54e0b"/><path d="m188.3 250c9.4-12.6 9.4-12.6 9.4-12.6s11.8 2.6 13.5 1.8-.8-5.1-13.4-6.8c0 0 8.9.9 12.3 1 3.4 0 6.2 0 6.2-2.5s-18.5-3.5-18.5-3.5 12.4-.1 14.8-.7c2.5-.6 4.5-.8 4.5-2.5s-20.2-1.8-20.2-1.8 5.9-1.6 9.3-2.5c3.4-.8 9.3.1 10.1-2.4.9-2.5-18.5-2.7-21.9-1s-18.3 21.3-20.8 28.9l-84 12.3-5 16.5h49.9c25.5-8.5 49.2-18.1 53.8-24.2z" fill="#fff"/></svg>