<svg viewBox="0 0 274 274" xmlns="http://www.w3.org/2000/svg"><circle cx="136.2" cy="137" fill="#cfe9e7" r="121"/><circle cx="36.4" cy="90.9" fill="#229e98" r="36"/><path d="M61.4 86.6l-2.8-.1-.2-2.8-2.8-.2-.1-2.8-2.8-.1-.2-2.8-2.8-.2-.1-2.8-2.8-.1-.2-2.8-2.8-.2-.1-2.8-2.8-.1-.2-2.8-2.9-.2-26.5 26.5.2 2.9 2.8.2.1 2.8 2.8.1.2 2.8 2.8.2.1 2.8 2.8.1.2 2.8 2.8.2.1 2.8 2.8.1.2 2.8 2.8.2.1 2.8 2.9.1 26.5-26.5z" fill="#fff"/><ellipse cx="36.4" cy="90.9" fill="#e2e2e2" rx="12.9" ry="12.9" transform="rotate(-45.001 36.431 90.926)"/><circle cx="241.3" cy="133.4" fill="#64c3c4" r="32"/><path d="M228.2 138.4c-2.5-1.2-5.4-.2-6.6 2.3s-.2 5.4 2.3 6.6l5.8 2.8 4.3-8.9z" fill="#cfe9e7"/><path d="M239.8 144l-5.8-2.8-4.3 8.9 5.8 2.8c2.5 1.2 5.4.2 6.6-2.3 1.2-2.4.2-5.4-2.3-6.6z" fill="#fff"/><path d="M244.9 136.9c-1.6 2.2-1.2 5.3 1 7s5.3 1.2 7-1l3.9-5.2-7.9-6z" fill="#202e5c"/><path d="M252.6 126.6l-3.9 5.2 7.9 6 3.9-5.2c1.6-2.2 1.2-5.3-1-7-2.1-1.6-5.2-1.2-6.9 1z" fill="#fff"/><path d="M234.7 131.9c1.5 2.3 4.6 2.9 6.9 1.5s2.9-4.6 1.5-6.9l-3.5-5.4-8.3 5.4z" fill="#cfe9e7"/><path d="M227.6 121.1l3.5 5.4 8.3-5.4-3.5-5.4c-1.5-2.3-4.6-2.9-6.9-1.5-2.2 1.5-2.8 4.6-1.4 6.9z" fill="#fff"/><circle cx="140" cy="36" fill="#64c3c4" r="36"/><path d="M151.597 49.714l2.122-2.122 8.485 8.486-2.121 2.121zM126.1 14.3l-7.8 7.8c-.3.3-.8.3-1.1 0l-2.2-2.2c-.3-.3-.3-.8 0-1.1l7.8-7.8c.3-.3.8-.3 1.1 0l2.2 2.2c.3.4.3.9 0 1.1z" fill="#202e5c"/><path d="M118.903 18.34l3.394-3.394 5.445 5.445-3.394 3.394z" fill="#202e5c"/><path d="M128.4 15.6L156 43.2c2.4 2.4 2.4 6.4 0 8.9-2.4 2.4-6.4 2.4-8.9 0l-27.6-27.6z" fill="#fff"/><path d="M135.8 25.9L154 44.2c1.6 1.6 1.6 4.2 0 5.8-1.6 1.6-4.2 1.6-5.8 0L130 31.8z" fill="#64c3c4"/><path d="M146.184 42.335l3.747-3.748 2.121 2.121-3.747 3.748zM142.108 37.933l3.748-3.747 2.12 2.121-3.747 3.748zM137.933 33.674l3.747-3.748 2.121 2.121-3.747 3.748z" fill="#fff"/><path d="M137.2 56c-38.9 0-35.3 46.2-36.5 56.8-1.2 10.7-10.6 17.8-15.3 26s0 32 0 32h109.8s3.5-18.9-1.2-27.2-13-13-14.1-23.7S182.2 56 143.3 56z" fill="#202e5c"/><path d="M119 160h35v88h-35z" fill="#64c3c4"/><path d="M136.4 160.4c-4.4 0-9.4-4.1-13.5-8.2v5.9h.1v.9c0 7.2 5.9 13 13 13h3c7.1 0 13-5.8 13-13v-1c0-1-.1-1.9-.3-2.8v-4.9c-4.3 4.6-10.2 10.1-15.3 10.1z" fill="#f7f6f6"/><path d="M151.8 149.5v-9.8l-14.5.2-14.5-.2v9.8h.1v2.8c4 4.1 9.1 8.2 13.5 8.2 5.1 0 11-5.5 15.3-10.1v-.9z" fill="#e2e2e2"/><path d="M216.4 257.4c-1.5-21.9-11.3-64-11.3-64l-.1-.4c-2-8-6-16.6-6-16.6v-.1c-.2-.4-.4-.7-.6-1.1-1.2-2.2-2.3-4-3.4-5.2-.9-1.1-1.7-1.9-2.4-2.5-7.4-5.6-11.2-6.7-21.3-7.6-.8-2.4-9.3-9.1-11.8-9.9-.1 0-.1 0-.2-.1-.4-.3-.7-.6-1.1-.7-2.3-.7-5.2-.9-6.4-1h-.1L138 247l-15.1-98.8h-.1c-1.2 0-4.1.2-6.4 1-3 1-12 10.6-12 10.6-10.5 1-14.8 1.9-22.5 7.7-1.8 1.4-4 4.4-6.5 8.8.1.1.2.2.2.4-4.6 9.1-9.8 24.7-15.4 44.4l-.2.9s-5.9 31.7-3.1 52h159.4c.7-3.4.6-8.6.1-16.6z" fill="#f77d11"/><path d="M106.1 241.8H92.3c-3 0-5.4-2.4-5.4-5.4v-21.1h24.6v21.1c0 2.9-2.4 5.4-5.4 5.4zm-16.2-23.6v18.1c0 1.3 1.1 2.4 2.4 2.4h13.8c1.3 0 2.4-1.1 2.4-2.4v-18.1z" fill="#c54e0b"/><path d="M88.4 221.8H110v3H88.4z" fill="#c54e0b"/><path d="M159.9 125.5c4.8 0 7.7-6.9 7.7-12.7s-6.7-3.9-6.7-3.9zM112.9 125.5c-4.8 0-7.7-6.9-7.7-12.7s6.7-3.9 6.7-3.9z" fill="#f2f2f2"/><path d="M136.4 71.4l-24.9 19.3v26s1.9 15.4 4.8 18.3 12.5 15.4 20.1 15.4 17.3-12.5 20.1-15.4 4.8-18.3 4.8-18.3v-26z" fill="#fff"/><path d="M136.5 71.4c1.3 5.2 24.5 26.1 24.5 26.1l.2 11.4c.5-.1 1.6-.3 2.8-.2 13.7-13.6 5.5-34.9 5.5-34.9s-9.5-28.4-33-2.4" fill="#202e5c"/><path d="M100.7 110.5s49.5-21.3 43.6-54.5c-.1 0-46-10.6-43.6 54.5z" fill="#4e5789"/><path d="M135.3 129.4c-3.5-1.2-7.1 1.2-7.1 1.2s8.2 11.8 15.3 0c0 0-3.5-2.4-7.1-1.2z" fill="#f77d11"/><ellipse cx="122.4" cy="109.1" fill="#64c3c4" rx="2.4" ry="2.4"/><ellipse cx="150.6" cy="109.3" fill="#64c3c4" rx="2.4" ry="2.4"/><path d="M150.3 97.2c-5.7 0-10.5 4.2-11.5 9.6h-4.9c-1.1-5.4-5.8-9.5-11.5-9.5-6.5 0-11.7 5.3-11.7 11.8s5.3 11.8 11.7 11.8 11.7-5.3 11.7-11.7h4.4c.1 6.4 5.3 11.6 11.7 11.6 6.5 0 11.7-5.3 11.7-11.8s-5.2-11.8-11.6-11.8zm-27.9 21.4c-5.2 0-9.4-4.2-9.4-9.4s4.2-9.4 9.4-9.4c4.4 0 8 3 9.1 7.1h-.4v2.4h.7c-.1 5.1-4.2 9.3-9.4 9.3zm27.9-.2c-5.1 0-9.2-4.1-9.4-9.2h.7v-2.4h-.5c1-4.2 4.7-7.3 9.1-7.3 5.2 0 9.4 4.2 9.4 9.4 0 5.3-4.2 9.5-9.3 9.5z" fill="#202e5c"/><path d="M133.1 234.1l-14.2-32.5 3-8.4-5.2 2.3-10.7-26.4 2.8-1.1 9.5 23.5 8.8-3.7-5 13.6 13.8 31.5z" fill="#c54e0b"/><path d="M86 258s-12.3 2-14 1.2.9-5 13.5-6.6c0 0-8.9.8-12.3.7-3.4 0-6.2 0-6.2-2.6s18.5-3.2 18.5-3.2-12.3-1-14.8-1-4.9-.9-4.5-2.5c.7-3 20.2-1.5 20.2-1.5s-5.9-1.7-9.2-2.6-9.3-.1-10.1-2.6 18.5-2.4 21.9-.7c2.3 1.1 9.6 10.5 14.9 18.8" fill="#fff"/><path d="M147.8 226.1l-2.8-1.2 9.8-23.4-5-13.7 8.8 3.7 9.5-23.5 2.8 1.1-10.7 26.4-5.2-2.3 3 8.3z" fill="#c54e0b"/><path d="M144.5 196.3l-19.2 67.9 9.8 2.8 54.2-22 9.4-33.4z" fill="#e2e2e2"/><path d="M147.9 203.3l-16 56.8 12.1 3.4 39-15.6 9.1-32.1z" fill="#f7f6f6"/><path d="M165.6 202.3l.9-3c.9-3.3 4.4-5.3 7.7-4.3 3.3.9 5.3 4.4 4.3 7.7l-.9 3" fill="#202e5c"/><path d="M185.2 207.9l-1.7 6c-.5 1.7-2.2 2.6-3.9 2.1l-21-6.1c-1.7-.5-2.6-2.2-2.1-3.9l1.7-6" fill="#202e5c"/><ellipse cx="172.8" cy="199.7" fill="#f77d11" rx="2" ry="2" transform="rotate(-74.211 172.74 199.725)"/><g fill="#202e5c"><path d="M149.492 219.634l.816-2.887 17.801 5.036-.816 2.887zM147.16 227.596l.817-2.886 32.237 9.115-.817 2.887zM144.987 235.508l.816-2.887 32.237 9.116-.816 2.887zM142.703 243.504l.817-2.887 32.237 9.12-.817 2.886z"/></g><path d="M188.3 256l9.4-12.6s11.8 2.6 13.5 1.8-.8-5.1-13.4-6.8c0 0 8.9.9 12.3 1 1.6 0 3.1 0 4.2-.3-.2-1.3-.4-2.5-.6-3.8-5.1-1.4-15.8-2-15.8-2s12.4-.1 14.8-.7c.2 0 .4-.1.5-.1-.2-1.2-.4-2.4-.6-3.5-6-.6-15.5-.7-15.5-.7s5.9-1.6 9.3-2.5c1.6-.4 3.7-.4 5.6-.6-.2-1.3-.5-2.5-.7-3.7-5.8-.6-14.5-.2-16.6.8-3.4 1.7-18.3 21.3-20.8 28.9l-84 12.3-4.3 10.5h59.2c21.3-6.1 39.6-12.8 43.5-18z" fill="#c54e0b"/><path d="M188.3 250l9.4-12.6s11.8 2.6 13.5 1.8-.8-5.1-13.4-6.8c0 0 8.9.9 12.3 1 3.4 0 6.2 0 6.2-2.5s-18.5-3.5-18.5-3.5 12.4-.1 14.8-.7c2.5-.6 4.5-.8 4.5-2.5s-20.2-1.8-20.2-1.8 5.9-1.6 9.3-2.5c3.4-.8 9.3.1 10.1-2.4.9-2.5-18.5-2.7-21.9-1s-18.3 21.3-20.8 28.9l-84 12.3-5 16.5h49.9c25.5-8.5 49.2-18.1 53.8-24.2z" fill="#fff"/></svg>