<svg viewBox="0 0 274 274" xmlns="http://www.w3.org/2000/svg"><circle cx="127" cy="153" fill="#64c3c4" r="121"/><path d="M49 109s0 26-7 30-22.8 14.2-13.4 37.6 64.4.4 64.4.4l-9-71z" fill="#202e5c"/><path d="M89.9 165.7L119 179s8-8 8-18-8-16-6-23 9.6-29.9 2.8-47.9c0 0-2.3-7.6-12.6-12.8-10.2-5.3-21.3 88.4-21.3 88.4z" fill="#202e5c"/><path d="M89.9 171.8l11.8-4.1c0-6.2-9.7-11.7-9.7-11.7" fill="#f77d11"/><path d="M67.4 144.5l-2.3 17.1c4.1 6.2 24.8 10.3 24.8 10.3l1.2-7.2c-2.6-1.3-5.6-3.2-9.1-5.8-6.9-5.1-13-9.5-14.6-14.4z" fill="#f7f6f6"/><path d="M70 125l-2.6 19.5c1.6 5 7.7 9.4 14.6 14.4 3.5 2.6 6.5 4.5 9.1 5.8l1.9-11.2z" fill="#e2e2e2"/><path d="M108 89s10 12 10 19-1 9-1 13 .8 7.9-1.6 14.5C113 142 107 157 102 157s-10-2.4-18-8.2S69 138 69 132c0 0-9-3-6-10 1.2-2.9 5-10 5-10s16-30 40-23z" fill="#fff"/><path d="M103.5 137.7c-3.3-1.1-6.6 1.1-6.6 1.1s6.1 9 12 1.1c0 0-1-3.3-4.3-2.2zM118.3 172.8c-4.1-3.1-17.7-5.1-17.7-5.1l-9.4 1.4L66 157l1-10s-10.7 4.9-12.5 18.9c-4.8.3-11.6 1.1-16.8 2.9-17.3 6.1-42.1 78.6-37.1 97.5.9 3.5 2.4 5.5 8.7 6.5C13.9 265.4 23.7 255 38 255l1.2-3.2 74.9 12.6 20.6-1 8.4-58.8c-.1.1-20.6-28.7-24.8-31.8z" fill="#f77d11"/><path d="M38.1 251.4c5.6 0 18.9 1.3 28.9 2.3 1 .1 2.1.2 3.2.2 3.5.1 7.3 0 11.2-.2 6.9-.4 13.9-1.1 19-1.1 8.9 0 23.4 11.5 23.4 11.5l-46 1.5-11.2 1.4-2.9.4s-34.5 8.6-54.3 5.4c4.5-7.4 14.4-21.4 28.7-21.4z" fill="#fff"/><path d="M269.6 185.7h-129c-2.2 0-4.2 1.8-4.4 4l-6.5 72H31.6c-2.2 0-4 1.8-4 4v4c0 2.2 1.8 4 4 4h230c2.2 0 4.2-1.8 4.4-4l7.3-80c.2-2.2-1.5-4-3.7-4z" fill="#e2e2e2"/><circle cx="201.6" cy="229.7" fill="#fff" r="7"/><path d="M95 228.4h-3c0-9.2-2.8-38.7-3.8-48.9l-9 10.5-17.6-14.4 1.9-2.3 15.4 12.6 11.7-13.6.3 3.5c.1 1.7 4.1 41.4 4.1 52.6zM13.3 247.8l-2.5-1.6c4.8-7.6 18.5-8 22.8-8 1.5-7.1 7.8-35.7 9.5-38.9l2.7 1.3c-1.2 2.4-6.3 24.9-9.5 39.4l-.3 1.3-1.3-.1c-.2.1-16.8-.8-21.4 6.6z" fill="#c54e0b"/><path d="M47 129s74-27 65.9-48.3C103.2 54.9 41 52 47 129z" fill="#4e5789"/><path d="M117.9 119c-.4 0-.9-.3-1-.7-.2-.7-.8-1.3-1.5-1.3s-1.3.5-1.5 1.3c-.1.5-.7.9-1.2.7-.5-.1-.9-.7-.7-1.2.4-1.6 1.8-2.7 3.4-2.7s3 1.1 3.4 2.7c.1.5-.2 1.1-.7 1.2h-.2z" fill="#64c3c4"/><g fill="none"><path d="M85.1 114.9c.2-1.5.7-2.8 1.4-4-2.9 1.6-5.8 3.2-8.7 4.6zM102 115.8h.6c-.4-4.5-3.8-7.9-7.8-7.9-4.3 0-7.8 4-7.8 8.9s3.5 8.9 7.8 8.9c4 0 7.3-3.5 7.8-7.9h-.6c-.6 0-1-.4-1-1s.4-1 1-1zM116.4 108.8c-3.1 0-5.6 3.1-6 7.1.4.1.7.5.7.9s-.3.8-.7.9c.3 4 2.9 7.1 6 7.1 3.3 0 6-3.6 6-8 .1-4.4-2.6-8-6-8z"/></g><path d="M116.4 106.8c-4.2 0-7.6 4-8 9h-3.9c-.5-5.5-4.6-9.9-9.7-9.9h-.1c-3.5 0-6.5 2-8.3 5-.7 1.2-1.2 2.6-1.4 4l-7.2.6c-1.6.8-3.3 1.6-4.9 2.4l12-1c.1 6 4.5 10.8 9.8 10.8 5.1 0 9.3-4.4 9.8-9.9h3.9c.4 5.1 3.8 9 8 9 4.4 0 8-4.5 8-10s-3.5-10-8-10zm-14.4 11h.6c-.4 4.5-3.8 7.9-7.8 7.9-4.3 0-7.8-4-7.8-8.9s3.5-8.9 7.8-8.9c4 0 7.3 3.5 7.8 7.9h-.6c-.6 0-1 .4-1 1s.4 1 1 1zm14.4 7c-3.1 0-5.6-3.1-6-7.1.4-.1.7-.5.7-.9s-.3-.8-.7-.9c.3-4 2.9-7.1 6-7.1 3.3 0 6 3.6 6 8 .1 4.4-2.6 8-6 8z" fill="#202e5c"/><path d="M91.6 119c-.1 0-.2 0-.3-.1-.5-.2-.8-.7-.6-1.3.5-1.6 2.2-2.7 4.1-2.7s3.5 1.1 4.1 2.7c.2.5-.1 1.1-.6 1.3s-1.1-.1-1.3-.6c-.3-.8-1.1-1.3-2.2-1.3-1 0-1.9.5-2.2 1.3-.2.4-.6.7-1 .7z" fill="#64c3c4"/><path d="M100 186.1l-11.6-11.5 2.2-2.2 7.4 7.5 1-6.6 3 .4z" fill="#c54e0b"/><circle cx="157.1" cy="36.4" fill="#229e98" r="36"/><path d="M138.1 28.4v-12h16l4 6h18v6" fill="#e2e2e2"/><path d="M170.6 56.4h-27.3c-4.2 0-7.7-3.2-8-7.3l-1.2-20.7h46l-1.5 20.7c-.4 4.1-3.8 7.3-8 7.3z" fill="#fff"/><circle cx="233.1" cy="102.9" fill="#cfe9e7" r="32"/><path d="M237.3 120h18.6V93.2h-28.1z" fill="#64c3c4"/><path d="M239.9 120h-29.7V93.2l14.7-7 15 7z" fill="#fff"/><path d="M255.9 93.2l-14.8-7.4-16.2.4 15.1 7.1z" fill="#202e5c"/><path d="M225.8 109.3h8.9V120h-8.9zM212.9 99.9h8v7.2h-8z" fill="#64c3c4"/></svg>