<?xml version="1.0" encoding="UTF-8" standalone="no"?>
<!-- Created with Inkscape (http://www.inkscape.org/) -->

<svg
   width="297mm"
   height="210mm"
   viewBox="0 0 297 210"
   version="1.1"
   id="svg1"
   inkscape:version="1.3.2 (091e20ef0f, 2023-11-25)"
   sodipodi:docname="outil comparison motifs orgs.svg"
   xmlns:inkscape="http://www.inkscape.org/namespaces/inkscape"
   xmlns:sodipodi="http://sodipodi.sourceforge.net/DTD/sodipodi-0.dtd"
   xmlns="http://www.w3.org/2000/svg"
   xmlns:svg="http://www.w3.org/2000/svg">
  <sodipodi:namedview
     id="namedview1"
     pagecolor="#ffffff"
     bordercolor="#000000"
     borderopacity="0.25"
     inkscape:showpageshadow="2"
     inkscape:pageopacity="0.0"
     inkscape:pagecheckerboard="0"
     inkscape:deskcolor="#d1d1d1"
     inkscape:document-units="mm"
     inkscape:zoom="0.86709683"
     inkscape:cx="566.83404"
     inkscape:cy="461.88613"
     inkscape:window-width="1920"
     inkscape:window-height="1011"
     inkscape:window-x="1504"
     inkscape:window-y="32"
     inkscape:window-maximized="1"
     inkscape:current-layer="layer1" />
  <defs
     id="defs1" />
  <g
     inkscape:label="Layer 1"
     inkscape:groupmode="layer"
     id="layer1">
    <path
       style="fill:#1a1a1a;stroke:none;stroke-width:0.564999;stroke-dasharray:0.564999, 0.564999"
       id="path1"
       d="m 33.012094,44.793397 c -0.03549,1.086487 -0.08688,2.172573 -0.106468,3.259463 -0.168294,9.338746 -0.119994,18.684959 -0.155824,28.024544 -0.06274,16.353637 -0.03505,10.349878 -0.137343,26.687566 -0.217162,15.80038 -0.128775,31.61004 -0.693245,47.40382 -0.11946,3.58839 -0.27894,7.17547 -0.403043,10.76367 -0.02405,0.69536 -0.368503,3.93685 0.511691,4.66557 1.90854,1.58009 4.286906,2.48581 6.43036,3.72872 2.539256,0.51533 5.053996,1.17122 7.617772,1.54599 9.852257,1.44017 22.480738,2.25772 32.061282,2.81379 8.174061,0.47444 16.353546,0.85737 24.534574,1.19069 22.61271,0.92131 37.37483,1.19953 60.21274,1.77452 33.76441,0.71676 67.53131,1.30751 101.29763,1.92515 0,0 -1.80067,-1.31104 -1.80067,-1.31104 v 0 c -33.41458,-0.0574 -66.83004,-0.29862 -100.23534,-1.15366 -24.31895,-0.71474 -36.73007,-0.9438 -60.73679,-2.16276 -8.327025,-0.4228 -16.651198,-0.91502 -24.967338,-1.51499 -9.729322,-0.70192 -22.921068,-1.77963 -32.930112,-3.51102 -2.661278,-0.46036 -5.255141,-1.24932 -7.882713,-1.87398 -0.638532,0.61381 -0.506675,0.58795 -0.854062,-1.82577 -0.12383,-0.86041 0.003,-1.73863 0.01836,-2.60777 0.06375,-3.60501 0.232199,-7.20756 0.313598,-10.81211 0.09443,-5.4293 0.03254,-10.84832 -0.01233,-16.2784 -0.08684,-10.51208 -0.119663,-21.0246 -0.08501,-31.53701 0.08033,-12.837925 0.167273,-25.674807 0.51157,-38.509112 0.131728,-4.910511 0.319831,-10.717594 0.658727,-15.73194 0.07012,-1.037439 0.196284,-2.07033 0.294426,-3.105496 z" />
    <path
       style="fill:#1a1a1a;stroke:none;stroke-width:0.564999;stroke-dasharray:0.564999, 0.564999"
       id="path2"
       d="m 254.31245,48.453108 c -2.03843,8.85707 -3.01399,17.914861 -3.69401,26.964357 -0.3313,4.408704 -0.62993,8.821052 -0.81628,13.238255 -0.20756,4.92004 -0.2435,9.84582 -0.36525,14.76873 -0.0133,24.06793 0.53845,48.13719 1.67499,72.17805 0.30048,6.0599 0.74006,12.11305 1.39505,18.1449 0,0 3.33372,1.64726 3.33372,1.64726 v 0 c -0.84466,-6.09482 -1.44913,-12.22065 -1.87683,-18.35907 -1.55979,-24.113 -2.3931,-48.27986 -2.2552,-72.44529 0.1644,-4.896973 0.22899,-9.798316 0.49319,-14.69092 0.23664,-4.382309 0.59866,-8.757893 1.00899,-13.12736 0.83545,-8.896575 1.99143,-17.830858 4.52547,-26.42472 z" />
    <path
       style="fill:#1a1a1a;stroke:none;stroke-width:0.564999;stroke-dasharray:0.564999, 0.564999"
       id="path3"
       d="m 30.719376,45.415983 c 22.973747,0.255285 45.948965,-0.169146 68.920354,-0.469713 7.73403,-0.05722 15.46796,-0.129741 23.20208,-0.171669 7.92802,-0.04298 15.85623,-0.04207 23.78425,-0.08305 23.66987,-0.122351 47.33931,-0.361947 71.00882,-0.539998 6.82647,-0.04874 13.65295,-0.09731 20.47948,-0.135634 2.0498,-0.01151 4.0901,-0.06802 6.13513,0.0654 3.21087,0.397293 6.39403,0.98816 9.59662,1.450088 1.46627,0.217647 2.93954,0.379701 4.41346,0.534083 0,0 -3.11575,-2.312268 -3.11575,-2.312268 v 0 c -1.45159,-0.142716 -2.90224,-0.295738 -4.34624,-0.50411 -3.22605,-0.465058 -6.42419,-1.131999 -9.66704,-1.456667 -1.97187,-0.0592 -3.93213,0.06505 -5.90424,0.133795 -6.61219,0.230508 -13.22569,0.422307 -19.83956,0.597421 -23.36536,0.574305 -46.73389,1.042604 -70.10647,1.190707 -7.94193,0.05033 -15.88414,0.03396 -23.82621,0.05303 -7.78559,0.01871 -15.57117,0.04018 -23.356756,0.06028 -23.522085,0.09938 -47.067083,0.374012 -70.57161,-0.732031 z" />
    <path
       style="fill:#1a1a1a;stroke:none;stroke-width:0.564999;stroke-dasharray:0.564999, 0.564999"
       id="path4"
       d="m 41.58638,67.771721 c 1.849924,-0.03922 5.729049,-0.12446 6.951456,-0.126196 7.2533,-0.01029 15.08825,0.167577 22.259615,0.276569 37.488409,0.569762 -3.815032,-0.0982 38.415109,0.599054 7.74397,0.08792 15.48775,0.195125 23.23192,0.263747 8.51649,0.07546 17.03354,0.08155 25.54992,0.168516 26.96694,0.275384 53.92953,0.893156 80.89075,1.492115 0,0 -2.10257,-1.532104 -2.10257,-1.532104 v 0 C 210.11821,68.765522 183.45822,68.41147 156.79561,68.080754 148.21789,67.974357 139.63976,67.899949 131.06225,67.777648 123.25744,67.666366 115.4533,67.512556 107.64883,67.380011 95.274153,67.065445 81.105469,66.723471 68.634321,66.342164 65.435876,66.244371 50.30644,65.703507 45.697772,65.582095 43.265301,65.518016 40.831418,65.521117 38.398923,65.4559 Z" />
    <path
       style="fill:#1a1a1a;stroke:none;stroke-width:0.564999;stroke-dasharray:0.564999, 0.564999"
       id="path5"
       d="m 43.645777,91.796422 c 0.919337,0.01818 1.838547,0.04476 2.758012,0.05453 5.411343,0.0575 10.559922,0.02096 16.014998,0.162597 6.784642,0.176181 25.846926,0.985523 31.589821,1.196954 7.008502,0.258027 14.018212,0.482396 21.027312,0.723593 39.30138,1.206659 78.61558,1.923023 117.92672,2.725121 7.88662,0.118351 15.77139,0.395576 23.65928,0.409234 0,0 -2.99017,-2.167758 -2.99017,-2.167758 v 0 c -7.63685,0.174781 -15.2769,0.100896 -22.91513,0.122539 C 191.63146,94.881617 152.54451,94.30155 113.48573,92.798624 106.39018,92.49348 99.293427,92.215405 92.199099,91.883192 81.458251,91.380219 70.72577,90.703785 59.983353,90.235512 53.485499,89.952265 46.975942,89.898002 40.48326,89.489655 Z" />
    <path
       style="fill:#1a1a1a;stroke:none;stroke-width:0.564999;stroke-dasharray:0.564999, 0.564999"
       id="path6"
       d="m 43.657347,116.65175 c 3.454231,0.11405 2.38991,0.0947 7.251962,0.12764 10.562111,0.0715 9.061455,-0.0312 21.220663,0.22428 10.562487,0.22197 25.348139,0.68917 35.659018,0.99658 37.66697,1.1508 75.34563,1.84004 113.02052,2.66958 9.10233,0.15405 18.20623,0.36271 27.31056,0.30302 0.23248,0.005 0.46496,0.0104 0.69744,0.0156 0,0 -3.18342,-2.31039 -3.18342,-2.31039 v 0 c -0.21922,0.008 -0.43844,0.0151 -0.65766,0.0226 -8.79596,0.38553 -17.60769,0.27453 -26.40873,0.33556 -37.49615,-0.21964 -74.99059,-0.86021 -112.46266,-2.26827 -0.67697,-0.026 -33.77136,-1.29893 -36.194734,-1.38504 -4.301041,-0.15284 -8.603039,-0.27729 -12.904558,-0.41593 -2.97104,-0.0821 -5.94266,-0.14536 -8.913124,-0.24621 -4.534625,-0.15396 -4.217625,-0.15369 -7.607247,-0.40981 z" />
    <path
       style="fill:#1a1a1a;stroke:none;stroke-width:0.564999;stroke-dasharray:0.564999, 0.564999"
       id="path7"
       d="m 45.430712,144.04962 c 0.691949,-0.0155 1.383723,-0.047 2.075847,-0.0465 10.723245,0.007 21.450318,0.23974 32.171584,0.39562 21.183337,0.30799 16.090082,0.23247 38.265427,0.50543 33.41188,0.47866 66.82182,1.08086 100.23137,1.69836 7.03791,0.13135 14.07606,0.24985 21.11392,0.38427 0,0 -3.00979,-2.18931 -3.00979,-2.18931 v 0 c -6.83918,0.058 -13.67863,0.0615 -20.51802,0.0473 -33.14954,-0.0989 -66.2976,-0.47952 -99.44112,-1.12401 -17.264636,-0.31354 -21.854058,-0.35778 -38.67737,-0.80799 -4.388646,-0.11745 -20.811926,-0.62234 -26.379804,-0.83232 -2.274756,-0.0858 -4.547653,-0.21639 -6.8223,-0.30496 -0.734245,-0.0286 -1.469274,-0.031 -2.20391,-0.0465 z" />
    <path
       style="fill:#1a1a1a;stroke:none;stroke-width:0.564999;stroke-dasharray:0.564999, 0.564999"
       id="path8"
       d="m 140.18983,47.597562 c -0.1559,0.62516 -0.36479,1.239443 -0.46769,1.875478 -0.91701,5.668084 -0.89291,11.75657 -0.89536,17.461452 -0.003,7.059618 0.16405,12.183904 0.3334,19.278118 0.53838,16.97925 1.46353,33.94435 2.45289,50.90253 0.47305,7.83644 0.89222,15.67637 1.08863,23.52502 0.0815,3.50287 0.0687,7.00686 0.0433,10.51028 -0.0146,1.39008 -0.007,0.72643 -0.0227,1.99096 0,0 3.48418,1.77678 3.48418,1.77678 v 0 c -0.007,-1.27626 -0.004,-0.60666 -0.0106,-2.0088 -0.0147,-3.5246 -0.0372,-7.04957 -0.13918,-10.57293 -0.29462,-7.92136 -0.91394,-15.82468 -1.47185,-23.73071 -1.15747,-16.99279 -2.18935,-33.99923 -2.72384,-51.024321 -0.14351,-7.521173 -0.29556,-11.720169 -0.16311,-19.175256 0.10075,-5.67064 0.23558,-11.523099 1.37779,-17.110226 0.12003,-0.587118 0.34338,-1.148281 0.51507,-1.722424 z" />
    <path
       style="fill:#1a1a1a;stroke:none;stroke-width:0.564999;stroke-dasharray:0.564999, 0.564999"
       id="path9"
       d="m 47.305454,50.286684 c -1.328798,1.388576 -2.605619,2.796566 -3.687024,4.388215 -0.99945,1.497774 -1.646208,2.943474 -1.095767,4.768937 0.106646,0.353679 0.294998,0.677368 0.442495,1.01605 1.39469,2.153799 3.859776,4.096761 6.518579,4.091337 0.976384,-0.0021 1.49561,-0.189026 2.443816,-0.418084 1.927463,-0.563718 3.725436,-1.58538 4.635077,-3.453492 0.18008,-0.36983 0.294714,-0.768086 0.442073,-1.152126 0.495195,-1.808199 0.726438,-3.904138 -0.109913,-5.66389 -0.144383,-0.303789 -0.353221,-0.572513 -0.529831,-0.858769 -1.740865,-1.805485 -4.132651,-2.816939 -6.441278,-3.710236 0,0 3.042407,2.393463 3.042407,2.393463 v 0 c 0.403404,0.16868 1.540171,0.792943 1.210209,0.50604 -0.397166,-0.345337 -3.733776,-2.37744 -1.38774,-0.753102 0.188561,0.258833 0.409388,0.496998 0.565685,0.776499 0.917353,1.640477 0.719915,3.689008 0.25786,5.422537 -0.137626,0.362583 -0.243424,0.738902 -0.412874,1.087747 -0.865153,1.781114 -2.624659,2.689995 -4.456197,3.196495 -0.914342,0.185552 -1.441382,0.363119 -2.376363,0.286512 -0.337537,-0.02765 -1.246884,-0.438423 -0.993193,-0.214067 0.730535,0.646063 1.617813,1.099535 2.489319,1.537201 0.593373,0.297987 -2.187602,-1.642071 -1.352913,-1.462054 -0.161692,-0.310806 -0.363865,-0.603707 -0.485082,-0.93242 -0.636103,-1.724978 0.0249,-3.058973 0.966103,-4.485029 1.067517,-1.580248 2.321213,-2.990392 3.690961,-4.317386 z" />
    <path
       style="fill:#1a1a1a;stroke:none;stroke-width:0.564999;stroke-dasharray:0.564999, 0.564999"
       id="path10"
       d="m 62.410326,54.588915 c -0.855289,2.774796 -1.288706,5.674722 -1.643092,8.552479 -0.01191,0.213336 -0.230304,0.551701 -0.03574,0.640008 1.223682,0.555384 2.535632,1.176727 3.877461,1.103614 0.481399,-0.02622 0.370673,-0.890529 0.534366,-1.344001 0.601831,-1.66723 1.043776,-3.384307 1.497988,-5.095494 0.341731,-1.191186 0.525513,-2.436752 0.939705,-3.608409 0.100227,-0.283524 0.303792,-0.863885 0.658339,-1.005824 0.133022,-0.05325 0.285372,0.02622 0.428059,0.03934 -6.223402,-3.26903 -3.044725,-2.193745 -2.629998,-1.05986 0.222702,0.608875 0.106706,1.549879 -0.25377,2.091576 -0.118398,0.177919 -0.313111,0.290952 -0.469664,0.436428 -0.723512,0.232637 -1.450923,0.146643 -2.180665,-0.0031 -0.202644,-0.04159 -0.397764,-0.115816 -0.600733,-0.155802 -0.06584,-0.01297 -0.200213,-0.0693 -0.201298,-0.0021 -0.004,0.250399 0.126394,0.484653 0.189592,0.72698 2.808971,1.49584 5.100947,3.71231 7.156757,6.106176 1.017241,1.45973 0.553006,0.729985 1.402379,2.18305 0,0 3.542734,1.577708 3.542734,1.577708 v 0 c -0.851662,-1.499346 -0.387099,-0.744059 -1.40317,-2.259994 -2.01422,-2.392757 -4.256371,-4.653537 -7.011588,-6.187482 -0.223737,0.07293 -0.456271,0.122989 -0.671213,0.218789 -0.04025,0.01794 0.08701,0.01413 0.130323,0.02228 0.204536,0.03856 0.406984,0.08956 0.613187,0.117869 0.48118,0.06606 1.095926,0.121052 1.576282,0.014 0.280591,-0.06253 0.538025,-0.202724 0.807037,-0.304086 0.183838,-0.192704 0.407287,-0.354216 0.551514,-0.578115 0.411533,-0.638863 0.534082,-1.644589 0.403852,-2.37645 -0.04383,-0.24634 -0.03352,-0.570386 -0.240432,-0.711078 -1.235038,-0.83979 -2.627178,-1.421342 -3.940765,-2.132015 -0.188561,0.0617 -0.401273,0.07404 -0.565685,0.185084 -0.999633,0.675137 -1.236686,3.77281 -1.596331,4.840332 -0.437473,1.694812 -0.869088,3.396959 -1.500291,5.033306 -0.167476,0.434168 -0.806278,0.885293 -0.55876,1.279356 0.711372,1.132538 1.910021,1.895787 3.020911,2.64051 0.173887,0.11657 -0.01236,-0.418508 -0.01855,-0.627761 0.248619,-2.836812 0.669002,-5.708965 1.616615,-8.401796 z" />
    <path
       style="fill:#1a1a1a;stroke:none;stroke-width:0.564999;stroke-dasharray:0.564999, 0.564999"
       id="path11"
       d="m 91.021412,53.918913 c -1.587614,-1.275577 -3.428524,-2.187189 -5.211858,-3.1549 -0.408815,-0.22184 -1.084622,-0.409995 -1.542531,-0.476938 -0.260903,-0.03814 -0.52624,-0.03428 -0.789358,-0.05142 -1.566518,0.152633 -2.901357,0.991375 -4.173879,1.853822 -1.011475,0.849989 -2.0565,1.745025 -2.821156,2.836812 -0.528222,0.7542 -0.606812,1.054282 -0.97064,1.896049 -0.607378,2.186162 -0.111006,3.783753 1.297654,5.490088 3.09717,2.541482 5.136446,3.460017 8.739396,2.855481 1.917679,-0.403743 2.916534,-1.62175 3.795512,-3.260725 0.109193,-0.210227 0.263996,-0.571642 0.460462,-0.741841 0.484706,-0.419899 2.364936,-0.401005 2.981365,-0.4348 1.378013,-0.03962 0.701487,-0.02614 2.029555,-0.04176 0,0 -3.162371,-2.289535 -3.162371,-2.289535 v 0 c -1.327463,0.02877 -0.649722,0.0093 -2.033191,0.05957 -0.918943,0.05849 -2.519135,-0.01992 -3.222048,0.688464 -0.219493,0.221208 -0.340855,0.533731 -0.472781,0.805677 -0.800627,1.585873 -1.733016,2.632951 -3.567079,2.967922 -1.003564,0.128804 -1.946182,0.183898 -2.950845,-0.0044 -0.299891,-0.0562 -1.123764,-0.422712 -0.885383,-0.23227 0.57761,0.461447 4.035155,2.477347 1.897872,1.147678 -1.478494,-1.528879 -2.031216,-2.983905 -1.510535,-5.100878 0.345546,-0.808244 0.410118,-1.0789 0.91938,-1.798765 0.749249,-1.059098 1.764879,-1.931233 2.772653,-2.730637 1.227812,-0.800209 2.515671,-1.60554 4.027942,-1.628564 0.708338,0.09405 0.817761,0.0692 1.498714,0.320633 0.252212,0.09313 0.962763,0.473591 0.737137,0.327385 -4.97338,-3.222689 -2.603325,-1.546588 -1.517197,-0.785133 z" />
    <path
       style="fill:#1a1a1a;stroke:none;stroke-width:0.564999;stroke-dasharray:0.564999, 0.564999"
       id="path12"
       d="m 109.58422,54.395446 c 1.88187,-0.940244 3.79319,-1.835745 5.60405,-2.909284 0.41984,-0.18329 0.72426,-0.532352 1.10232,-0.774827 1.11362,-0.714246 4.46204,1.125297 -3.11471,-1.846813 -0.12559,-0.04926 0.0242,0.271216 0.005,0.404693 -0.0558,0.379667 -0.15314,0.752042 -0.22971,1.128062 -0.77773,3.873347 -1.91777,7.658801 -2.87846,11.488298 0,0 3.36509,1.81692 3.36509,1.81692 v 0 c 0.90354,-3.840559 2.03378,-7.620439 2.93453,-11.461776 0.0995,-0.376243 0.20194,-0.751723 0.29852,-1.128731 0.0571,-0.222954 0.34379,-0.529241 0.16252,-0.671055 -3.50548,-2.742472 -2.83547,-2.489784 -4.93183,-1.082736 -1.80005,1.080964 -3.69395,2.008664 -5.61235,2.858932 z" />
    <path
       style="fill:#1a1a1a;stroke:none;stroke-width:0.564999;stroke-dasharray:0.564999, 0.564999"
       id="path13"
       d="m 159.71701,48.243124 c -2.00833,1.858846 -4.25851,3.420729 -6.2406,5.312593 -1.5158,1.587643 -2.83346,3.498982 -2.67389,5.802074 0.0273,0.394748 0.14921,0.777195 0.22382,1.165794 0.1547,0.327583 0.26003,0.683411 0.46409,0.98275 0.20411,0.299423 0.43895,0.597908 0.74534,0.791411 1.43765,0.907952 2.91145,1.770303 4.45163,2.490755 1.04662,0.489583 3.50622,0.406898 4.64859,0.357648 2.53315,-0.321024 5.09769,-1.104722 7.07595,-2.787404 0.33119,-0.281704 0.61901,-0.610737 0.92852,-0.916106 0.25605,-0.3444 0.54885,-0.664313 0.76815,-1.033206 1.22433,-2.05945 1.13407,-4.18416 0.71133,-6.441569 -1.1543,-3.639709 -2.80327,-3.832781 -6.2867,-5.720578 -0.54412,-0.0731 -1.03716,0.104929 -1.54572,0.263329 0,0 3.26027,2.234719 3.26027,2.234719 v 0 c 0.47486,-0.118496 0.90931,-0.224833 1.39536,-0.0708 -0.95377,-0.581393 -1.90747,-1.162918 -2.86133,-1.744178 -0.17626,-0.107411 0.36244,0.200093 0.52855,0.322625 1.01307,0.747307 1.64285,1.839412 2.01663,3.023232 0.0868,0.38826 0.20389,0.770967 0.26037,1.16478 0.24258,1.691146 0.0755,3.498033 -0.81295,4.99096 -0.20935,0.351806 -0.4906,0.655513 -0.73591,0.983271 -0.29732,0.290933 -0.57351,0.605166 -0.89198,0.8728 -1.93845,1.629063 -4.45377,2.349751 -6.92724,2.607961 -1.33315,0.02222 -1.77997,0.09701 -3.09135,-0.144204 -0.49837,-0.09167 -1.76035,-0.796094 -1.47212,-0.379317 0.49239,0.711967 1.41758,1.002244 2.1828,1.406938 0.30715,0.162435 -0.57266,-0.406924 -0.79568,-0.673359 -0.22075,-0.263713 -0.34391,-0.595665 -0.51587,-0.893498 -0.0909,-0.361519 -0.23,-0.71424 -0.27283,-1.084554 -0.25449,-2.200471 1.07971,-4.03796 2.5062,-5.548958 1.99808,-1.901536 4.25082,-3.486444 6.33477,-5.28693 z" />
    <path
       style="fill:#1a1a1a;stroke:none;stroke-width:0.564999;stroke-dasharray:0.564999, 0.564999"
       id="path14"
       d="m 180.45128,63.587224 c 0.074,-2.968818 0.0684,-5.938895 0.16598,-8.907004 0.13033,-1.251202 -0.11409,-4.550722 1.22181,-5.295337 0.24457,-0.136318 0.54466,-0.130148 0.81698,-0.195225 0.32856,0.07503 0.67421,0.09634 0.98566,0.225078 0.34533,0.142746 1.30426,0.724009 0.95983,0.57911 -0.84044,-0.353571 -1.56838,-0.992013 -2.45425,-1.207807 -0.31599,-0.07697 0.43615,0.486156 0.61279,0.759237 0.40815,0.631024 0.3245,0.60728 0.31343,1.260036 -0.12775,0.179586 -0.22198,0.388551 -0.38326,0.538755 -1.10332,1.027555 -2.99008,1.424366 -4.40684,1.838704 -0.0893,0.125873 -0.26945,0.223271 -0.26802,0.377621 0.006,0.675502 0.80213,1.317093 1.15241,1.702718 1.19405,1.31454 2.38678,2.627402 3.60472,3.919918 2.37758,2.428952 5.1368,4.444447 7.39404,6.991784 0.51813,0.673457 0.32434,0.373319 0.62125,0.873355 0,0 3.61731,1.620658 3.61731,1.620658 v 0 c -0.30078,-0.591259 -0.10151,-0.251777 -0.65492,-0.982699 -2.25695,-2.58395 -5.03383,-4.613955 -7.45682,-7.032959 -1.20922,-1.276921 -2.36957,-2.589784 -3.55095,-3.891753 -0.27461,-0.302633 -0.5351,-0.620213 -0.83617,-0.896528 -0.13621,-0.125015 -0.35146,-0.155001 -0.46691,-0.299415 -0.04,-0.05 0.0623,-0.111856 0.0934,-0.167783 1.47645,-0.483024 3.416,-0.93685 4.53929,-2.062195 0.20591,-0.206279 0.3305,-0.480171 0.49575,-0.720256 0.0261,-0.247968 0.11458,-0.497216 0.0783,-0.743903 -0.0608,-0.413543 -0.5907,-1.399561 -0.89521,-1.624809 -1.33201,-0.985287 -2.76382,-1.829543 -4.18062,-2.688433 -0.3282,-0.198959 -0.67541,-0.38212 -1.04644,-0.480285 -0.35573,-0.09412 -0.73362,-0.05849 -1.10043,-0.08773 -0.3099,0.120441 -0.65501,0.173993 -0.92969,0.361321 -1.47391,1.005197 -1.14218,4.063759 -1.28142,5.5793 -0.10371,2.944802 -0.0786,5.894459 -0.27666,8.835583 z" />
    <path
       style="fill:#1a1a1a;stroke:none;stroke-width:0.564999;stroke-dasharray:0.564999, 0.564999"
       id="path15"
       d="m 206.95623,47.608519 c -1.83754,0.699957 -3.57341,1.608629 -5.25387,2.623817 -0.8425,0.579739 -1.74574,1.119664 -2.48715,1.834044 -0.38841,0.37425 -0.60137,0.692655 -0.929,1.124865 -1.25755,1.951173 -1.262,4.257702 -1.13935,6.493105 0.21414,1.688788 0.45001,3.681222 1.69112,4.983957 0.15611,0.163859 0.35423,0.281789 0.53134,0.422682 1.36522,0.675349 2.67177,1.485249 4.09566,2.026047 0.26646,0.101203 0.56639,-0.07695 0.84168,-0.150823 1.45333,-0.390001 2.68551,-1.251209 3.86586,-2.145782 1.42064,-1.354709 2.4475,-2.890057 2.52804,-4.887486 -0.0585,-0.302895 -0.0655,-0.863846 -0.35134,-1.091541 -0.0234,-0.01865 -0.072,0.06963 -0.0434,0.07856 0.14612,0.04572 0.3037,0.06013 0.45652,0.05069 0.37097,-0.02291 0.73684,-0.09812 1.10526,-0.147187 2.3889,-0.356108 4.76901,-0.760423 7.14331,-1.203159 0,0 -3.19356,-2.227709 -3.19356,-2.227709 v 0 c -2.35981,0.479388 -4.73202,0.893257 -7.12312,1.184854 -0.20486,0.02387 -2.07103,0.0013 -2.00143,0.703017 0.0157,0.15857 0.61527,0.45063 0.49789,0.862568 0.0703,1.889315 -0.97408,3.345304 -2.30453,4.598945 -1.13555,0.843732 -2.35163,1.699903 -3.77859,1.959266 -0.25653,0.04662 -0.96997,-0.13044 -0.78066,0.04884 0.7832,0.741698 1.80404,1.183021 2.70606,1.774531 -0.19478,-0.10723 -0.41097,-0.182483 -0.58435,-0.321688 -1.29358,-1.038636 -1.6471,-3.259347 -1.84317,-4.782085 -0.13654,-2.138209 -0.16384,-4.357301 1.05435,-6.221494 0.9267,-1.181037 2.03826,-2.064126 3.31987,-2.848158 1.67204,-1.012161 3.40979,-1.899311 5.26087,-2.540574 z" />
    <path
       style="fill:#1a1a1a;stroke:none;stroke-width:0.564999;stroke-dasharray:0.564999, 0.564999"
       id="path16"
       d="m 229.86771,53.092085 c 0.89427,-0.756309 1.79317,-1.683118 2.95017,-2.033606 0.19651,-0.05953 0.40595,-0.06202 0.60892,-0.09303 -0.15945,-0.460105 1.44165,0.635728 1.08077,0.477872 -1.00238,-0.438449 -1.88252,-1.193033 -2.94732,-1.444387 -0.26101,-0.06161 0.15366,0.519562 0.16463,0.787522 0.0377,0.921911 -0.19127,1.718267 -0.37564,2.615626 -0.59407,2.294776 -1.59623,4.447095 -2.76035,6.501272 -0.0746,0.144381 -0.18589,0.275111 -0.22382,0.433139 -0.033,0.137361 -0.10012,0.346289 0.0182,0.423394 1.29104,0.840997 2.63041,1.629286 4.05053,2.227054 0.42796,0.180139 0.92739,0.05031 1.39153,0.06366 2.07829,0.0598 2.27641,0.03124 4.4745,-5.29e-4 0.81854,-0.01921 1.63707,-0.0384 2.4556,-0.0576 0,0 -3.04609,-2.202643 -3.04609,-2.202643 v 0 c -0.81736,0.01767 -1.63472,0.03537 -2.45208,0.05306 -1.76354,2.65e-4 -2.81762,0.03562 -4.5384,-0.08759 -0.46927,-0.0336 -1.68275,-0.5383 -1.40225,-0.160591 0.64425,0.867524 1.76672,1.244878 2.65953,1.853597 0.065,0.04431 -0.17728,-0.08053 -0.17422,-0.159121 0.006,-0.156985 0.13138,-0.285422 0.19706,-0.428133 1.11378,-2.123934 2.11603,-4.312819 2.74729,-6.635316 0.21508,-0.934608 0.45486,-1.750126 0.49049,-2.710526 0.0116,-0.313965 0.15449,-0.725006 -0.075,-0.939551 -1.10544,-1.033323 -2.45388,-1.772889 -3.71743,-2.605482 -0.18415,-0.121346 -0.39713,-0.20451 -0.61329,-0.24819 -0.20781,-0.04199 -0.424,-0.0028 -0.636,-0.0043 -0.21897,0.05728 -0.44495,0.09244 -0.6569,0.171845 -1.16033,0.43467 -2.05742,1.341434 -3.01476,2.087181 z" />
    <text
       xml:space="preserve"
       style="font-weight:bold;font-size:6.35px;font-family:Muli;-inkscape-font-specification:'Muli Bold';fill:#1a1a1a;stroke:none;stroke-width:0.564999;stroke-dasharray:0.564999, 0.564999"
       x="44.207867"
       y="78.623604"
       id="text16"><tspan
         sodipodi:role="line"
         id="tspan16"
         style="font-size:6.35px;stroke:none;stroke-width:0.565"
         x="44.207867"
         y="78.623604">Atelier collectif</tspan></text>
    <text
       xml:space="preserve"
       style="font-weight:bold;font-size:6.35px;font-family:Muli;-inkscape-font-specification:'Muli Bold';fill:#1a1a1a;stroke:none;stroke-width:0.564999;stroke-dasharray:0.564999, 0.564999"
       x="51.201714"
       y="103.91496"
       id="text17"><tspan
         sodipodi:role="line"
         id="tspan17"
         style="stroke-width:0.565;stroke:none"
         x="51.201714"
         y="103.91496" /></text>
    <text
       xml:space="preserve"
       style="font-weight:bold;font-size:6.35px;font-family:Muli;-inkscape-font-specification:'Muli Bold';fill:#1a1a1a;stroke:none;stroke-width:0.564999;stroke-dasharray:0.564999, 0.564999"
       x="41.6101"
       y="101.03656"
       id="text18"><tspan
         sodipodi:role="line"
         id="tspan18"
         style="stroke:none;stroke-width:0.565"
         x="41.6101"
         y="101.03656">Consultation prénatale</tspan></text>
    <text
       xml:space="preserve"
       style="font-weight:bold;font-size:6.35px;font-family:Muli;-inkscape-font-specification:'Muli Bold';fill:#1a1a1a;stroke:none;stroke-width:0.564999;stroke-dasharray:0.564999, 0.564999"
       x="41.877544"
       y="126.21545"
       id="text19"><tspan
         sodipodi:role="line"
         id="tspan19"
         style="stroke:none;stroke-width:0.565"
         x="41.877544"
         y="126.21545">Consultation prénatale</tspan></text>
    <text
       xml:space="preserve"
       style="font-weight:bold;font-size:6.35px;font-family:Muli;-inkscape-font-specification:'Muli Bold';fill:#1a1a1a;stroke:none;stroke-width:0.564999;stroke-dasharray:0.564999, 0.564999"
       x="42.452469"
       y="151.866"
       id="text20"><tspan
         sodipodi:role="line"
         id="tspan20"
         style="stroke:none;stroke-width:0.565"
         x="42.452469"
         y="151.866">Droits sociaux</tspan></text>
    <text
       xml:space="preserve"
       style="font-weight:bold;font-size:6.35px;font-family:Muli;-inkscape-font-specification:'Muli Bold';fill:#1a1a1a;stroke:none;stroke-width:0.564999;stroke-dasharray:0.564999, 0.564999"
       x="147.22781"
       y="102.92644"
       id="text21"><tspan
         sodipodi:role="line"
         id="tspan21"
         style="stroke:none;stroke-width:0.565"
         x="147.22781"
         y="102.92644">CONSULATION PRENATALE</tspan></text>
    <text
       xml:space="preserve"
       style="font-weight:bold;font-size:6.35px;font-family:Muli;-inkscape-font-specification:'Muli Bold';fill:#1a1a1a;stroke:none;stroke-width:0.564999;stroke-dasharray:0.564999, 0.564999"
       x="146.48241"
       y="128.1022"
       id="text22"><tspan
         sodipodi:role="line"
         id="tspan22"
         style="stroke:none;stroke-width:0.565"
         x="146.48241"
         y="128.1022">CONSULATION PRENATALE</tspan></text>
    <text
       xml:space="preserve"
       style="font-weight:bold;font-size:4.96226px;font-family:Muli;-inkscape-font-specification:'Muli Bold';fill:#999999;stroke:none;stroke-width:0.441523;stroke-dasharray:0.441523, 0.441523"
       x="42.04493"
       y="109.40994"
       id="text23"><tspan
         sodipodi:role="line"
         id="tspan23"
         style="stroke-width:0.441524;fill:#999999"
         x="42.04493"
         y="109.40994">PMI</tspan></text>
    <text
       xml:space="preserve"
       style="font-weight:bold;font-size:4.96226px;font-family:Muli;-inkscape-font-specification:'Muli Bold';fill:#999999;stroke:none;stroke-width:0.441523;stroke-dasharray:0.441523, 0.441523"
       x="60.580601"
       y="109.4013"
       id="text24"><tspan
         sodipodi:role="line"
         id="tspan24"
         style="stroke-width:0.441524;fill:#999999"
         x="60.580601"
         y="109.4013">Sur place</tspan></text>
    <text
       xml:space="preserve"
       style="font-weight:bold;font-size:4.96226px;font-family:Muli;-inkscape-font-specification:'Muli Bold';fill:#999999;stroke:none;stroke-width:0.441523;stroke-dasharray:0.441523, 0.441523"
       x="148.6001"
       y="112.2683"
       id="text25"><tspan
         sodipodi:role="line"
         id="tspan25"
         style="fill:#999999;stroke-width:0.441524"
         x="148.6001"
         y="112.2683">PMI</tspan></text>
    <text
       xml:space="preserve"
       style="font-weight:bold;font-size:4.96226px;font-family:Muli;-inkscape-font-specification:'Muli Bold';fill:#999999;stroke:none;stroke-width:0.441523;stroke-dasharray:0.441523, 0.441523"
       x="167.13577"
       y="112.25965"
       id="text26"><tspan
         sodipodi:role="line"
         id="tspan26"
         style="fill:#999999;stroke-width:0.441524"
         x="167.13577"
         y="112.25965">Sur place</tspan></text>
    <text
       xml:space="preserve"
       style="font-weight:bold;font-size:4.96226px;font-family:Muli;-inkscape-font-specification:'Muli Bold';fill:#999999;stroke:none;stroke-width:0.441523;stroke-dasharray:0.441523, 0.441523"
       x="43.454994"
       y="161.83467"
       id="text27"><tspan
         sodipodi:role="line"
         id="tspan27"
         style="fill:#999999;stroke-width:0.441524"
         x="43.454994"
         y="161.83467">PMI</tspan></text>
    <text
       xml:space="preserve"
       style="font-weight:bold;font-size:4.96226px;font-family:Muli;-inkscape-font-specification:'Muli Bold';fill:#999999;stroke:none;stroke-width:0.441523;stroke-dasharray:0.441523, 0.441523"
       x="61.990669"
       y="161.82602"
       id="text28"><tspan
         sodipodi:role="line"
         id="tspan28"
         style="fill:#999999;stroke-width:0.441524"
         x="61.990669"
         y="161.82602">Sur place</tspan></text>
    <text
       xml:space="preserve"
       style="font-weight:bold;font-size:4.96226px;font-family:Muli;-inkscape-font-specification:'Muli Bold';fill:#999999;stroke:none;stroke-width:0.441523;stroke-dasharray:0.441523, 0.441523"
       x="43.330509"
       y="136.56039"
       id="text29"><tspan
         sodipodi:role="line"
         id="tspan29"
         style="fill:#999999;stroke-width:0.441524"
         x="43.330509"
         y="136.56039">PMI</tspan></text>
    <text
       xml:space="preserve"
       style="font-weight:bold;font-size:4.96226px;font-family:Muli;-inkscape-font-specification:'Muli Bold';fill:#999999;stroke:none;stroke-width:0.441523;stroke-dasharray:0.441523, 0.441523"
       x="61.866184"
       y="136.55174"
       id="text30"><tspan
         sodipodi:role="line"
         id="tspan30"
         style="fill:#999999;stroke-width:0.441524"
         x="61.866184"
         y="136.55174">Par téléphone</tspan></text>
    <text
       xml:space="preserve"
       style="font-weight:bold;font-size:4.96226px;font-family:Muli;-inkscape-font-specification:'Muli Bold';fill:#999999;stroke:none;stroke-width:0.441523;stroke-dasharray:0.441523, 0.441523"
       x="147.30341"
       y="138.20587"
       id="text31"><tspan
         sodipodi:role="line"
         id="tspan31"
         style="fill:#999999;stroke-width:0.441524"
         x="147.30341"
         y="138.20587">PMI</tspan></text>
    <text
       xml:space="preserve"
       style="font-weight:bold;font-size:4.96226px;font-family:Muli;-inkscape-font-specification:'Muli Bold';fill:#999999;stroke:none;stroke-width:0.441523;stroke-dasharray:0.441523, 0.441523"
       x="165.83908"
       y="138.19722"
       id="text32"><tspan
         sodipodi:role="line"
         id="tspan32"
         style="fill:#999999;stroke-width:0.441524"
         x="165.83908"
         y="138.19722">Par téléphone</tspan></text>
    <text
       xml:space="preserve"
       style="font-weight:bold;font-size:4.96226px;font-family:Muli;-inkscape-font-specification:'Muli Bold';fill:#999999;stroke:none;stroke-width:0.441523;stroke-dasharray:0.441523, 0.441523"
       x="44.109409"
       y="86.156281"
       id="text33"><tspan
         sodipodi:role="line"
         id="tspan33"
         style="fill:#999999;stroke-width:0.441524"
         x="44.109409"
         y="86.156281">PMI</tspan></text>
    <text
       xml:space="preserve"
       style="font-weight:bold;font-size:4.96226px;font-family:Muli;-inkscape-font-specification:'Muli Bold';fill:#999999;stroke:none;stroke-width:0.441523;stroke-dasharray:0.441523, 0.441523"
       x="62.645081"
       y="86.147636"
       id="text34"><tspan
         sodipodi:role="line"
         id="tspan34"
         style="fill:#999999;stroke-width:0.441524"
         x="62.645081"
         y="86.147636">Sur place</tspan></text>
  </g>
</svg>
