<svg xmlns="http://www.w3.org/2000/svg" version="1.1" id="Calque_2" x="0" y="0" xml:space="preserve" width="130.249" height="68"><style type="text/css" id="style2">.st1{fill:#000091}.st2{fill:#e1000f}</style><g id="g154" transform="translate(-281.6)"><path id="rect6" style="stroke-width:.317758" d="M281.6 0h.222v68h-.222z"/><g id="g152" transform="matrix(.31776 0 0 .31776 192.12 0)"><g id="g150"><path class="st2" id="polygon70" d="m369.1 214 44.3-76.5v-54l-46.8-27.1-46.8 27.1v54l44.3 76.5z"/><path id="polygon72" style="fill:#fff" d="m397.7 92.5-31.1-18-31.2 18v36l31.2 17.9 31.1-17.9v-10.3H380v-15.4h17.7z"/><path class="st1" id="polygon74" d="m366.6 95-13.4 7.8v15.4l13.4 7.7 13.4-7.7v-15.4z"/><g id="g96"><path d="m469 76.6 4.5 3.5c-2.6 3.5-6.8 5.8-12 5.8-9 0-15.1-6.9-15.1-15s6.1-15 15.1-15c5.2 0 9.4 2.3 12 5.8l-4.5 3.5c-1.6-2.3-4.2-3.9-7.4-3.9-5.4 0-9.2 4.2-9.2 9.6 0 5.4 3.8 9.6 9.2 9.6 3.2 0 5.8-1.6 7.4-3.9z" id="path76"/><path d="M505.8 70.9c0 8.1-6.1 15-15.1 15s-15.1-6.9-15.1-15 6.1-15 15.1-15c9-.1 15.1 6.9 15.1 15zm-5.9 0c0-5.4-3.8-9.6-9.1-9.6-5.4 0-9.2 4.2-9.2 9.6 0 5.4 3.8 9.6 9.2 9.6 5.3 0 9.1-4.2 9.1-9.6z" id="path78"/><path d="M510.8 56.7h7.4L530.9 77V56.7h5.8v28.4h-7.4l-12.7-20.4v20.4h-5.8z" id="path80"/><path d="M545.8 77.3c1.7 2.2 4 3.5 6.3 3.5s3.7-1.2 3.7-3.3c0-5.1-13-3.9-13-13.4 0-4.5 3.7-8.2 9.1-8.2 4.3 0 7.6 1.9 10 4.8l-4.2 3.8c-1.7-2.2-3.5-3.5-5.7-3.5-2 0-3.3 1.3-3.3 3 0 5.1 13 3.9 13 13.5-.1 5.3-4.2 8.5-9.4 8.5-4.8 0-8-1.7-10.6-4.8z" id="path82"/><path d="M567.2 56.7h16.6v4.9H573v6.6h9.2v4.9H573v7.1h10.8v4.9h-16.6z" id="path84"/><path d="M589.9 56.7h5.8v28.4h-5.8z" id="path86"/><path d="M603.2 56.7h5.8v23.2h10.8v5.2h-16.6z" id="path88"/><path d="M624.3 56.7h5.8v23.2h10.8v5.2h-16.6z" id="path90"/><path d="M645.5 56.7h16.6v4.9h-10.8v6.6h9.2v4.9h-9.2v7.1h10.8v4.9h-16.6z" id="path92"/><path d="M668.3 56.7h8.7c6.3 0 10.1 3.2 10.1 8.5 0 3.4-1.7 6-4.5 7.4l8.9 12.6h-6.9L677 73.6h-3v11.5h-5.8V56.7zm5.7 4.9v7.1h3.2c2.4 0 3.9-1.3 3.9-3.6 0-2.2-1.4-3.5-3.9-3.5z" id="path94"/></g><g id="g116"><path d="M447.1 97.7h7.4l12.7 20.4V97.7h5.8v28.4h-7.4l-12.7-20.4v20.4h-5.8z" id="path98"/><path d="M496.9 97.7h5.8V115c0 7.5-4.4 11.9-11.5 11.9s-11.5-4.5-11.5-11.9V97.7h5.8v17.8c0 3.8 2.2 6.1 5.8 6.1 3.5 0 5.7-2.2 5.7-6.1V97.7z" id="path100"/><path d="M509.4 97.7h7.3l6.9 11.7 6.9-11.7h7.3v28.4H532v-20.2l-6.3 10.5h-4.1l-6.3-10.5v20.2h-5.8V97.7z" id="path102"/><path d="M545.1 97.7h16.6v4.9h-10.8v6.6h9.2v4.9h-9.2v7.1h10.8v4.9h-16.6zm5.6-2.5 4.6-5.5h5.9l-5.3 5.5z" id="path104"/><path d="M567.9 97.7h8.7c6.3 0 10.1 3.2 10.1 8.5 0 3.4-1.7 6-4.6 7.4l8.9 12.6h-6.9l-7.6-11.5h-3v11.5h-5.8V97.7zm5.7 4.9v7.1h3.2c2.4 0 3.9-1.3 3.9-3.6 0-2.2-1.4-3.5-3.9-3.5z" id="path106"/><path d="M594.2 97.7h5.8v28.4h-5.8z" id="path108"/><path d="M637.2 128.1c.6 0 1.4-.1 2-.3v4.9c-.9.4-1.7.5-3 .5-3.2 0-6.1-1.3-8.9-3.7l-3.4-3a16 16 0 0 1-3.9.5c-9 0-15.1-6.9-15.1-15S611 97 620 97c8.9 0 15.1 6.9 15.1 15 0 4.8-2.1 9.1-5.6 11.9l1.7 1.6c2.2 1.9 4.2 2.6 6 2.6zm-8-16.2c0-5.4-3.8-9.6-9.1-9.6-5.4 0-9.2 4.2-9.2 9.6 0 5.4 3.8 9.6 9.2 9.6 5.3 0 9.1-4.2 9.1-9.6z" id="path110"/><path d="M656.6 97.7h5.8V115c0 7.5-4.4 11.9-11.5 11.9s-11.5-4.5-11.5-11.9V97.7h5.8v17.8c0 3.8 2.2 6.1 5.8 6.1 3.5 0 5.7-2.2 5.7-6.1V97.7z" id="path112"/><path d="M669 97.7h16.6v4.9h-10.8v6.6h9.2v4.9h-9.2v7.1h10.8v4.9H669z" id="path114"/></g><g id="g130"><path class="st1" d="M447.3 143.5h16.6v4.9H453v6.6h9.2v4.9H453v12h-5.8v-28.4z" id="path118"/><path class="st1" d="M467.3 151.4h5.2v2c1.3-1.4 3.1-2.4 5.4-2.4.7 0 1.3.1 1.8.3v5.4c-.6-.2-1.3-.3-2.3-.3-2.5 0-4.1 1.4-4.9 2.6v12.8h-5.2z" id="path120"/><path class="st1" d="M481.9 166.5c0-3.1 2.4-5.5 6.8-6.3l6.2-1.1v-.5c0-2.2-1.6-3.5-3.9-3.5-2 0-3.7.9-4.6 2.4l-3.8-2.9c1.8-2.5 4.9-4.1 8.6-4.1 5.9 0 9 3.5 9 8v13.2H495V170c-1.3 1.6-3.7 2.7-6.1 2.7-4.2 0-7-2.4-7-6.2zm7.9 2.1c2.3 0 4-1.2 5-2.9v-2.8l-4.8.9c-2.2.4-3 1.3-3 2.6 0 1.2 1.1 2.2 2.8 2.2z" id="path122"/><path class="st1" d="M505.1 151.4h5.2v1.6c1.4-1.4 3.3-2.4 6.1-2.4 4.4 0 8 3 8 9.1v12.2H519v-12c0-2.7-1.5-4.4-4-4.4-2.6 0-4 1.7-4.8 3v13.4H505v-20.5z" id="path124"/><path class="st1" d="m543.6 165.4 4.1 3.1c-1.9 2.5-4.9 4.1-8.7 4.1-7.1 0-11.3-5.1-11.3-11 0-6 4.2-11.1 11.3-11.1 3.7 0 6.7 1.6 8.7 4.1l-4.1 3.1c-1-1.4-2.5-2.4-4.6-2.4-3.4 0-5.8 2.6-5.8 6.2s2.5 6.2 5.9 6.2c1.9.1 3.5-.8 4.5-2.3z" id="path126"/><path class="st1" d="M560.6 172.7c-7.3 0-11.4-5.1-11.4-11 0-6.1 3.8-11.1 10.5-11.1 5.7 0 9.4 3.8 9.4 9.2 0 1.1-.2 2.2-.3 2.9h-14.3c.3 3.4 2.7 5.4 6.2 5.4 2.2 0 4.1-1 5.2-2.4l3.7 2.9c-2 2.5-5.2 4.1-9 4.1zm-5.8-13.9h9.2c-.1-2-1.6-3.9-4.3-3.9-2.5 0-4.2 1.2-4.9 3.9z" id="path128"/></g><g id="g148"><path class="st2" d="M449 207c1.3 1.6 2.8 2.7 4.7 2.7 1.6 0 2.5-.9 2.5-2.1 0-3.6-9.5-2.1-9.5-9.5 0-3.6 3-6.3 7.3-6.3 3.2 0 6 1.5 7.5 3.5l-3.5 3.1c-1.1-1.3-2.4-2.4-4-2.4-1.5 0-2.4.7-2.4 1.9 0 3.5 9.5 2.1 9.5 9.3-.1 4.3-3.5 6.7-7.4 6.7-3.7 0-6.3-1.5-8.2-3.8z" id="path132"/><path class="st2" d="M475 214c-7.3 0-11.4-5.1-11.4-11 0-6.1 3.8-11.1 10.5-11.1 5.7 0 9.4 3.8 9.4 9.2 0 1.1-.2 2.2-.3 2.9h-14.3c.3 3.4 2.7 5.4 6.2 5.4 2.2 0 4.1-1 5.2-2.4l3.7 2.9c-2 2.5-5.2 4.1-9 4.1zm-5.8-13.9h9.2c-.1-2-1.6-3.9-4.3-3.9-2.5 0-4.2 1.2-4.9 3.9z" id="path134"/><path class="st2" d="M487.7 192.7h5.2v2c1.3-1.4 3.1-2.4 5.4-2.4.7 0 1.3.1 1.8.3v5.4c-.6-.2-1.3-.3-2.3-.3-2.5 0-4.1 1.4-4.9 2.6v12.8h-5.2z" id="path136"/><path class="st2" d="m506.4 192.7 5.3 14.6 5.3-14.6h5.6l-7.5 20.5h-6.8l-7.4-20.5z" id="path138"/><path class="st2" d="M524.1 185.7c0-1.8 1.5-3.4 3.4-3.4 1.8 0 3.3 1.5 3.3 3.4s-1.5 3.4-3.3 3.4c-1.8 0-3.4-1.5-3.4-3.4zm.8 7h5.2v20.5h-5.2z" id="path140"/><path class="st2" d="m549.7 206.7 4.1 3.1c-1.9 2.5-4.9 4.1-8.7 4.1-7.1 0-11.3-5.1-11.3-11 0-6 4.2-11.1 11.3-11.1 3.7 0 6.7 1.6 8.7 4.1l-4.1 3.1c-1-1.4-2.5-2.4-4.6-2.4-3.4 0-5.8 2.6-5.8 6.2s2.5 6.2 5.9 6.2c2 .1 3.5-.9 4.5-2.3z" id="path142"/><path class="st2" d="M566.7 214c-7.3 0-11.4-5.1-11.4-11 0-6.1 3.8-11.1 10.5-11.1 5.7 0 9.4 3.8 9.4 9.2 0 1.1-.2 2.2-.3 2.9h-14.3c.3 3.4 2.7 5.4 6.2 5.4 2.2 0 4.1-1 5.2-2.4l3.7 2.9c-2 2.5-5.1 4.1-9 4.1zm-5.8-13.9h9.2c-.1-2-1.6-3.9-4.3-3.9-2.5 0-4.2 1.2-4.9 3.9z" id="path144"/><path class="st2" d="M581 207c1.3 1.6 2.8 2.7 4.7 2.7 1.6 0 2.5-.9 2.5-2.1 0-3.6-9.5-2.1-9.5-9.5 0-3.6 3-6.3 7.3-6.3 3.2 0 6 1.5 7.5 3.5l-3.5 3.1c-1.1-1.3-2.4-2.4-4-2.4-1.5 0-2.4.7-2.4 1.9 0 3.5 9.5 2.1 9.5 9.3-.1 4.3-3.5 6.7-7.4 6.7-3.7 0-6.3-1.5-8.2-3.8z" id="path146"/></g></g></g></g></svg>
