<svg width="80" height="80" viewBox="0 0 80 80" xmlns="http://www.w3.org/2000/svg" xmlns:xlink="http://www.w3.org/1999/xlink"><title>illu</title><defs><path id="a" d="M0 80h80V0H0z"/></defs><g fill="none" fill-rule="evenodd"><path d="M80 40c0 22.092-17.908 40-40 40S0 62.092 0 40 17.908 0 40 0s40 17.908 40 40" fill="#CEF3EF"/><path d="M14.475 55.215h15.27V33.29l-15.27 21.924zm39.738 0v11.844h-9.494v12.723H29.745V67.059H.479V55.705l32.006-45.611h12.234v45.12h9.494z" fill="#222E5C"/><path fill="#FFF" d="M78.382 49.208h.377v30.53h-35.81L29.76 66.483V49.208h.313z"/><path fill="#66D9CE" d="M78.759 40.602v8.606H29.759v-8.606z"/><mask id="b" fill="#fff"><use xlink:href="#a"/></mask><path fill="#46B7A9" mask="url(#b)" d="M63.537 44.747h5v-9.549h-5zM51.79 44.747h5v-9.549h-5zM40.5 44.747h5v-9.549h-5z"/><path fill="#CEF3EF" mask="url(#b)" d="M64.335 62.5h10v-10h-10zM49.259 62.5h10v-10h-10zM34.182 62.5h10v-10h-10z"/><path fill="#FF7D00" mask="url(#b)" d="M64.346 76.32h10v-10h-10z"/><path fill="#CEF3EF" mask="url(#b)" d="M49.269 76.32h10v-10h-10z"/><path fill="#66D9CE" mask="url(#b)" d="M42.95 79.802V66.735H30.01z"/><path d="M78.954 20.944c-2.412 6.395-9.55 9.624-15.945 7.212-6.396-2.41-9.624-9.55-7.213-15.945 2.412-6.395 9.551-9.624 15.945-7.213 6.396 2.412 9.624 9.55 7.213 15.946" fill="#FF7D00" mask="url(#b)"/><path d="M72.556 22.438l-.453 1.202-12.942-4.881.454-1.201a3.4 3.4 0 0 1 1.718-1.85l1.74-.789a3.258 3.258 0 0 0 1.718-1.85l.559-1.48a3.612 3.612 0 0 1 4.667-2.11 3.612 3.612 0 0 1 2.11 4.668l-.568 1.51a3.397 3.397 0 0 0 .068 2.523l.787 1.74c.408.788.445 1.716.142 2.517" fill="#FFF" mask="url(#b)"/><path d="M63.783 20.502l-.232.616a1.98 1.98 0 0 0 1.151 2.546 1.981 1.981 0 0 0 2.546-1.151l.232-.616" fill="#FFF" mask="url(#b)"/></g></svg>