<svg width="80" height="80" viewBox="0 0 80 80" xmlns="http://www.w3.org/2000/svg"><title>illu</title><g fill="none" fill-rule="evenodd"><path d="M80 40c0 22.092-17.908 40-40 40C17.909 80 0 62.092 0 40S17.909 0 40 0c22.092 0 40 17.908 40 40" fill="#CEF3EF"/><path d="M21.387 26.686L12.803 10.68C6.553 16.479 2.169 24.247.623 33h16.89l3.874-6.314zM37.712.07a39.753 39.753 0 0 0-19.298 6.262l7.21 13.444L37.713.07zM76.767 24.23a39.949 39.949 0 0 0-3.862-6.966l-3.88 11.119 7.742-4.152zM.623 47a39.653 39.653 0 0 0 2.744 9.063L8.926 47H.623zM79.377 33a39.161 39.161 0 0 0-.408-2.007L75.227 33h4.15zM62.53 47l-8.79 25.193-2.125 6.088a39.596 39.596 0 0 0 4.494-1.669C68.121 71.319 77.03 60.295 79.377 47H62.53z" fill="#66D9CE"/><path d="M7.305 63.031l1.411-2.3-2.182 1.17c.25.381.508.757.771 1.13M24.774 33l.444.827.507-.827z" fill="#71C3DA"/><path fill="#66D9CE" d="M33.7 20l-4.245 6.919L32.717 33h19.87l4.535-13zM59.215 14l2.62-7.508A39.74 39.74 0 0 0 45.713.413L37.38 14h21.835zM15.486 49.693L8.716 60.73l-1.411 2.301a40.165 40.165 0 0 0 3.642 4.446C17.432 74.332 26.31 78.894 36.25 79.82l4.007-11.484-24.772-18.642zM42.333 62.388l2.423-6.943 2.618-7.505.327-.94H21.885z"/><path fill="#222E5C" d="M15.403 79.548V27.125L1.31 35.444v-13.41l20.456-11.94h8.907v69.454z"/><path d="M70.305 4.95c-6.664-6.588-17.183-6.39-23.702.206l-.068.068c-6.52 6.596-6.063 14.517.138 23.703l11.99 17.963 11.849-18.17c5.757-8.573 6.458-17.184-.207-23.77" fill="#FF7D00"/><path d="M58.6 24.4c-3.87.021-7.035-3.154-7.059-7.026-.021-3.87 3.107-6.988 6.978-7.01a7.023 7.023 0 0 1 7.059 6.976A7.024 7.024 0 0 1 58.6 24.4" fill="#FFF"/></g></svg>