<svg width="80" height="80" viewBox="0 0 80 80" xmlns="http://www.w3.org/2000/svg" xmlns:xlink="http://www.w3.org/1999/xlink"><title>illu</title><defs><path id="a" d="M0 80h80V0H0z"/></defs><g fill="none" fill-rule="evenodd"><path d="M80 40c0 22.092-17.908 40-40 40S0 62.092 0 40 17.908 0 40 0s40 17.908 40 40" fill="#CEF3EF"/><mask id="b" fill="#fff"><use xlink:href="#a"/></mask><path fill="#46B7A9" mask="url(#b)" d="M32.327 80H54V25.714H32.327z"/><path fill="#66D9CE" mask="url(#b)" d="M5 80h28.27V25.714H5z"/><path fill="#46B7A9" mask="url(#b)" d="M10.48 38.23h6v-6h-6zM22 38h6v-6h-6zM10.48 48.23h6v-6h-6zM22 48h6v-6h-6zM10.48 59.23h6v-6h-6z"/><path fill="#35A8C7" mask="url(#b)" d="M22 59h6v-6h-6zM10.48 69.23h6v-6h-6zM22 69h6v-6h-6z"/><path d="M50.473 67.548v12.234H2.612V68.527L25.808 43.86c4.828-5.218 7.243-9.982 7.243-14.29 0-2.74-.801-4.811-2.398-6.214-1.6-1.403-3.932-2.105-6.998-2.105-5.938 0-12.105 2.252-18.498 6.754L.262 17.043c2.805-2.412 6.395-4.321 10.767-5.724a43.279 43.279 0 0 1 13.31-2.106c7.243 0 13 1.747 17.276 5.236 4.273 3.493 6.41 8.174 6.41 14.046 0 4.046-.831 7.782-2.494 11.206-1.664 3.426-4.454 7.229-8.37 11.404L21.404 67.548h29.069z" fill="#222E5C" mask="url(#b)"/><path fill="#66D9CE" mask="url(#b)" d="M54.945 80h20.88V49.934h-31.57z"/><path fill="#FFF" mask="url(#b)" d="M57.868 80H24.462V49.934L41 42l16.868 7.934z"/><path fill="#66D9CE" mask="url(#b)" d="M30.725 80h20.879V65.802H30.725z"/><path fill="#FF7D00" mask="url(#b)" d="M28.219 61.297H54.11v-6.682H28.219z"/><path fill="#222E5C" mask="url(#b)" d="M75.868 49.934l-16.703-8.352L41 42l17 8z"/><path fill="#FFF" mask="url(#b)" d="M68.07 80h1.945V61.514H68.07z"/><path d="M68.573 70.27c15.567 0 .973-26.27.973-26.27s-15.568 26.27-.973 26.27" fill="#46B7A9" mask="url(#b)"/><path fill="#FFF" mask="url(#b)" d="M44 80h2V66h-2z"/><path fill="#222E5C" mask="url(#b)" d="M51.605 65.802h-20.88l-4 5.198h20.88z"/><path d="M77.536 27.588h-2.42v-.213c0-1.911-1.488-3.44-3.314-3.44-1.02 0-1.912.466-2.506 1.189C68.616 23.85 67.3 23 65.812 23c-2.209 0-3.993 1.869-3.993 4.12 0 .17 0 .298.043.468h-.68c-1.359 0-2.42 1.146-2.42 2.506 0 1.4 1.103 2.506 2.42 2.506H77.58c1.36 0 2.421-1.147 2.421-2.506 0-1.36-1.105-2.506-2.464-2.506" fill="#FFF" mask="url(#b)"/></g></svg>