<?xml version="1.0" encoding="UTF-8"?>
<svg width="550" height="231" version="1.1" viewBox="0 0 550 231" xmlns="http://www.w3.org/2000/svg">
 <g fill="#000091">
  <path d="m37.01 36.604c0.0139 0 0.0277-0.0205 0.0277-0.0205 0.1106-0.0816 0.2213-0.1836 0.3181-0.3061-0.0138 0-0.0276 0-0.0415-0.0204-0.0968 0.102-0.2074 0.2245-0.3043 0.347z"/>
  <path d="m52.338 31.445-0.2421 0.2082c0.1383-0.0347 0.2421-0.0694 0.2421-0.2082z"/>
  <path d="m47.382 36.715c0.444-0.4461 0.8879-0.9192 1.3319-1.4058h-0.0135c0.8341-0.9463 1.6413-1.852 2.61-2.6766 0.2959-0.2703 0.5784-0.5001 0.8475-0.6894 0.0395-0.0397 0.0597-0.0989 0.0795-0.1568 0.0206-0.0605 0.0407-0.1196 0.082-0.1541-0.1918 0.0731-0.3446 0.1887-0.4983 0.3049-0.159 0.1203-0.319 0.2413-0.5242 0.3169-0.0807 0-0.1614-0.0811-0.0807-0.1622 0.2825-0.2028 0.565-0.4191 0.8341-0.6353h-0.0538c-0.0807 0-0.0807-0.0811-0.0807-0.1623-1.0016-0.1589-1.7708 0.5254-2.4594 1.1379l-0.043 0.0382c-0.1071 0.0539-0.2084 4e-4 -0.288-0.0415-0.0403-0.0213-0.075-0.0396-0.1021-0.0396-0.6092 0.2041-1.1346 0.5803-1.6635 0.9589-0.4871 0.3488-0.9772 0.6997-1.5384 0.9201v-0.1622c-0.1905 0.0656-0.3789 0.1512-0.5677 0.237-0.2778 0.1262-0.5565 0.2528-0.8449 0.3172-0.5265 0.1221-1.0149 0.1063-1.4882 0.0911-0.1554-5e-3 -0.3095-0.01-0.4625-0.01-0.8616 0.0854-1.7123 0.2697-2.5619 0.4538l-0.2767 0.0599c-0.0135 0.0067-0.0269 0.0101-0.0404 0.0135-0.0134 0.0034-0.0269 0.0068-0.0403 0.0135-0.5113 0.1352-0.9821 0.3245-1.453 0.5948l-0.0538 0.027c-0.0185 0.0248-0.037 0.0468-0.0542 0.0672-0.0203 0.0241-0.0388 0.0461-0.0534 0.068-0.1615 0.1893-0.3094 0.3515-0.5381 0.4732-0.3378 0.1697-0.6298 0.4314-0.917 0.6889-0.1245 0.1116-0.2485 0.2228-0.3746 0.3249-0.0269 0.027-0.0807 0.0406-0.121 0.0406-0.417 0.4054-0.8342 0.8111-1.2646 1.203-0.0269 0.0271-0.148 0.0406-0.2422 0.0271 0 0 0.0135 0 0.0135-0.0135l0.0403-0.0811 0.2018-0.3245c0.0404-0.0608 0.0774-0.1216 0.1144-0.1825 0.037-0.0608 0.074-0.1216 0.1143-0.1825 0.1075-0.162 0.2154-0.3245 0.3363-0.4731 0.027-0.0405 0.027-0.0811 0-0.1081-0.0269-0.0271-0.0672-0.0406-0.1076-0.0406 0.3902-0.3785 0.8476-0.7029 1.3184-0.9868v-0.0135c-0.0538 0.0135-0.1345-0.027-0.0941-0.0811 0.0394-0.0496 0.0717-0.1064 0.102-0.1599l0.0325-0.0564c0.0067-0.0135 0.0101-0.0237 0.0134-0.0338 0.0034-0.0101 0.0068-0.0203 0.0135-0.0338-0.0067-0.0135-0.0168-0.0236-0.0269-0.0338-0.0101-0.0101-0.0202-0.0203-0.0269-0.0338l-0.0816 0.0538c-0.0975 0.0637-0.1977 0.1293-0.2816 0.2031-0.0594 0.0511-0.1148 0.1211-0.1717 0.193-0.1234 0.1559-0.2538 0.3206-0.4472 0.3206-0.0134 0-0.0807 0-0.1211-0.0135-0.0403 0-0.0672-0.0135-0.0807-0.027 0-0.0068 0-0.0102 0.0017-0.0118 0.0017-0.0017 5e-3 -0.0017 0.0118-0.0017 0 0 0.0134-0.0135 0.0134-0.0271 0 0 0-0.0135 0.0135-0.0135 0.0067-0.0135 0.0134-0.0236 0.0201-0.0338 0.0068-0.0101 0.0135-0.0203 0.0202-0.0338 0.0068-0.0135 0.0135-0.0236 0.0202-0.0338 0.0067-0.0101 0.0135-0.0202 0.0202-0.0338 0.0067-0.0067 0.0101-0.0169 0.0134-0.027 0.0034-0.0101 0.0068-0.0203 0.0135-0.027l0.0152-0.0279c0.0133-0.0237 0.0292-0.052 0.0386-0.0803 0.0067-0.0135 0.0135-0.0236 0.0202-0.0338 0.0067-0.0101 0.0134-0.0203 0.0202-0.0338 0.0201-0.027 0.037-0.0574 0.0538-0.0878 0.0168-0.0305 0.0336-0.0609 0.0538-0.0879 0.0134-0.027 0.0269-0.0541 0.0538-0.0811 0.0135-0.027 0.0269-0.0507 0.0404-0.0744 0.0134-0.0236 0.0269-0.0473 0.0403-0.0743 0.0404-0.0676 0-0.1217-0.0538-0.1352 0.148-0.1892 0.3229-0.3514 0.5381-0.4731h-0.0269c0.1858-0.0933 0.3768-0.2026 0.5665-0.3112 0.112-0.064 0.2252-0.1289 0.3349-0.189 0.0404-0.0405 0.0807-0.0811 0.1345-0.1081-0.4439 0.1487-0.8475 0.3515-1.2377 0.6218 0 0-0.1076 0.0406-0.1345 0.0676 0 0-0.0807 0.027-0.1883-0.0676-0.0135-0.0135-0.0135-0.027-0.0135-0.0541 0.0468-0.0939 0.1432-0.1562 0.2475-0.2234 0.0757-0.0489 0.1555-0.1003 0.2234-0.1686 0.0807 0 0.148 0 0.148 0.0811 1.5494-1.2137 3.4598-1.4944 5.3769-1.7762 1.1789-0.1732 2.3604-0.3469 3.4618-0.7381 0.1144-0.0811 0.2321-0.1588 0.3498-0.2366 0.1177-0.0777 0.2354-0.1554 0.3498-0.2365 0.1962-0.0816 0.372-0.2213 0.5582-0.3693 0.184-0.1462 0.3782-0.3005 0.6122-0.4148 0.6189-0.4731 1.0897-1.0138 1.3319-1.8114 0-0.0811-0.0807-0.1622-0.0807-0.1622-1.0225 1.095-2.1929 1.9601-3.444 2.5955-1.1931 0.6288-2.4714 0.722-3.7369 0.8142-0.4754 0.0347-0.9491 0.0692-1.4157 0.132 0.0807-0.1622 0.2421-0.1622 0.3901-0.1622 0-0.192 0.0921-0.2745 0.2102-0.3805 0.0316-0.0283 0.0652-0.0584 0.0992-0.0926h0.2287c0.0404 0 0.0606-0.0406 0.0808-0.0811 0.0201-0.0406 0.0403-0.0811 0.0807-0.0811 0.1614 0 0.3901-0.0812 0.3094-0.0812-0.1234-0.1584-0.3027-0.0957-0.5006-0.0265-0.1903 0.0666-0.3978 0.1392-0.5891 0.0265 0.0711-0.0779 0.0925-0.1715 0.112-0.2567 0.021-0.092 0.0398-0.1743 0.1167-0.2164h0.3094c0-0.1622 0.1615-0.3109 0.1615-0.3109 0.7016-0.4214 1.3791-0.7893 2.0439-1.1504 0.4441-0.2412 0.883-0.4796 1.3194-0.7286-0.0883 0-0.1666 0.0363-0.2425 0.0714-0.1209 0.056-0.2359 0.1093-0.3764 0.0097 0.0807 0 0.0807-0.0574 0.0807-0.1149 0-0.0574 0-0.1149 0.0808-0.1149 0.5047-0.1347 0.9539-0.353 1.4127-0.576 0.3239-0.1574 0.6525-0.3171 1.0088-0.4513-0.1057 0-0.2036 0.0284-0.299 0.0561-0.1838 0.0533-0.3583 0.104-0.562-0.0561 0.0535-0.0269 0.0966-0.0612 0.1392-0.095 0.086-0.0683 0.1697-0.1348 0.3317-0.1348v-0.2299c0-0.0811 0.0807-0.0811 0.1614-0.0811-0.0807 0-0.1614-0.0811-0.1614-0.0811 0.0427-0.0858 0.1269-0.1035 0.2207-0.1232 0.0833-0.0175 0.1742-0.0366 0.2502-0.1066-0.0808 0-0.2287 0-0.2287-0.0811 0.2287-0.3109 0.6188-0.392 1.0089-0.4731-0.0403-0.0811-0.1177-0.0811-0.1849-0.0811-0.0673 0-0.1245 0-0.1245-0.0811s0.0807-0.0811 0.1615-0.0811h-0.1615c-0.1267-0.0637-0.1042-0.1773-0.0887-0.2559 0.0043-0.0216 8e-3 -0.0405 8e-3 -0.055 0.316-0.372 0.42-0.811 0.5233-1.2475 0.0506-0.2138 0.1011-0.4271 0.1763-0.6315-0.0807 0-0.1615 0-0.1615-0.0811-0.7564 0.8387-1.9554 1.1565-3.0944 1.4584l-0.1074 0.0285h-0.3902c-0.3901 0.1622-0.9417 0.1623-1.3319-0.0811-0.1855-0.0972-0.3178-0.2188-0.4607-0.3501-0.0955-0.0876-0.1956-0.1797-0.3195-0.2717-0.6323-0.392-1.2512-0.7029-1.9508-0.9462-1.9507-0.6219-3.9821-0.9463-6.0136-0.8652 0.5673-0.3117 1.1697-0.4357 1.7801-0.5613 0.316-0.065 0.6343-0.1305 0.9509-0.2227 0.1998-0.0588 0.3977-0.1194 0.5946-0.1797 1.1159-0.3418 2.1984-0.6733 3.3876-0.6044-0.1557-0.0552-0.355-0.0352-0.5385-0.0169-0.0861 0.0087-0.1687 0.0169-0.2418 0.0169-0.8992-0.0669-1.8077 0.1331-2.7555 0.3418-0.2007 0.0442-0.4032 0.0888-0.6078 0.1314-0.3712 0.0771-0.7242 0.188-1.0777 0.299-0.3895 0.1223-0.7798 0.2448-1.1959 0.3228-0.1805 0.0622-0.3254 0.168-0.4665 0.2712-0.2271 0.1659-0.4445 0.3247-0.7846 0.283v-0.2433c0.7802-0.9463 1.722-1.879 2.9731-1.9601 1.2094-0.1968 2.3498-0.0566 3.5393 0.0896 0.1999 0.0245 0.4011 0.0493 0.6043 0.0726 0.9752 0.0784 1.8876 0.2957 2.8707 0.5298l0.1025 0.0244c0.2152 0 0.3363 0.1893 0.4536 0.3727 0.0952 0.1489 0.188 0.2939 0.3267 0.3303 0.1915 0.066 0.3831 0.0783 0.5746 0.0906 0.2793 0.0179 0.5586 0.0358 0.838 0.2203 0-0.0546-0.0092-0.1076-0.0182-0.1602-0.0179-0.1036-0.0354-0.2053 0.0182-0.3129 0.1735-0.1745 0.3725-0.1277 0.5684-0.0816 0.1533 0.0361 0.3047 0.0717 0.4406 5e-4 0.4266-0.2645 0.0264-0.6706-0.3741-1.077-0.1931-0.1959-0.3863-0.3919-0.4869-0.5722 0-0.0811 0.0807-0.1622 0.0807-0.1622 0.1766 0.1582 0.3413 0.3219 0.5044 0.4842 0.4085 0.4063 0.808 0.8037 1.3656 1.0838 0.3901 0.1622 1.3318 0.392 1.1704-0.0811-0.2763-0.6127-0.7484-1.1441-1.2249-1.6806-0.1963-0.2209-0.3934-0.4428-0.5778-0.6715v-0.3109c-0.1227 0-0.1521-0.0468-0.1887-0.1048-0.0116-0.0184-0.0239-0.0379-0.04-0.0574v-0.3109c-0.1973-0.1034-0.2414-0.2672-0.2859-0.4319-0.0253-0.0937-0.0506-0.1877-0.1043-0.2711-0.1348-0.2183-0.1445-0.4869-0.1545-0.7638-8e-3 -0.2203-0.0161-0.4459-0.0876-0.6555-0.1615-0.4732-0.2287-0.8652-0.3095-1.3383-0.0875-0.484-0.1839-0.9469-0.2783-1.4-0.1665-0.7996-0.3268-1.5691-0.4212-2.3715-0.1245-1.147 0.4553-2.117 1.048-3.1086 0.1757-0.29395 0.3526-0.58983 0.5126-0.89276 0.5515-0.94625 1.1704-1.879 2.1928-2.5143 0.2231-0.9229 0.8301-1.6915 1.4341-2.4563l0.0458-0.05804c0.5961-0.74218 1.5916-1.1959 2.3253-1.5303l0.0828-0.037792c1.0897-0.48664 2.0718-0.79756 2.0853-0.79756h-54.042v41.622h38.342c1.0255-0.7426 2.0446-1.2111 3.2577-1.7688 0.5535-0.2545 1.1474-0.5275 1.8008-0.8537 0.1383-0.0695 0.3027-0.1503 0.4852-0.24 1.095-0.5382 2.8396-1.3956 3.4969-2.0445zm-12.166-5.6154c-0.1522 0.0153-0.3134 0.0315-0.2526-0.0906 0.0565-0.2736 0.337-0.3556 0.6108-0.4357 0.1173-0.0343 0.2334-0.0683 0.3301-0.1168l0.0442-0.0228 0.0323-0.0171c0.1517-0.0805 0.3374-0.179 0.4745-0.1218 0.0925 0.1314 0.207 0.1653 0.3184 0.1982 0.0828 0.0245 0.1639 0.0485 0.2327 0.1118-0.2908 0.2914-0.6301 0.3202-0.9741 0.3493-0.2286 0.0194-0.4592 0.0389-0.6791 0.1357-0.0395 0-0.0879 0.0049-0.1372 0.0098zm-11.902-1.9009c0 0.0811 0.0808 0.1622 0.0808 0.1622 1.8834-2.1223 3.592-3.9337 6.0136-5.4342 0.0648-0.0271 0.0407 0.0068 0.0086 0.0518-0.0477 0.0671-0.1131 0.159 0.0721 0.1104 0.8017-0.1826 1.1617-0.8686 1.512-1.5361 0.0906-0.1726 0.1805-0.344 0.2773-0.5051 0.3673-0.5969 0.8891-0.9793 1.4149-1.3647 0.3792-0.2779 0.7604-0.5573 1.0874-0.9198 0 0.0811 0 0.1622-0.0808 0.2433 0.0808 0.0811 0.1615 0.0811 0.2422 0.0811 0.1419-0.1069 0.2969-0.1512 0.4453-0.1936 0.1894-0.0541 0.3683-0.1052 0.4964-0.2795-0.6188-0.2433-1.4126-0.3244-2.0314-0.0811-1.6413 0.784-3.0404 2.0412-4.3723 3.4606-0.8072 0.8516-1.6413 1.6492-2.6638 2.2034-0.6995 1.4059-1.4798 2.663-2.5023 4.0013zm6.5679-5.0275c-0.0421 0.0845-0.0843 0.1285-0.1245 0.1706-0.0367 0.0383-0.0719 0.075-0.104 0.1393-0.0806 0.1617-0.1613 0.2291-0.3091 0.3099-0.0807 0-0.1613 0-0.1613-0.0808 0.0806-0.3099 0.3091-0.6199 0.6183-0.7007 0.0806 0.0135 0.0806 0.0943 0.0806 0.1617zm3.4402 12.005c0.0672-0.0676 0.1479-0.1487 0.1882-0.2298 0.0672-0.1622-0.3495-0.1217-0.4167-0.0811-0.0609 0.049-0.0998 0.0981-0.1466 0.1573l-0.0146 0.0184c-0.0561 0.0644-0.1217 0.1241-0.1883 0.1846-0.0452 0.0411-0.0909 0.0826-0.1343 0.1263-0.1882 0.1893-0.3764 0.3785-0.578 0.5542-0.1344 0.1217 0.2957 0.1758 0.3898 0.0947 0.1075-0.0811 0.2016-0.1758 0.2957-0.2704 0.0358 0 0.0717-6e-3 0.0956-0.01l0.0164-0.0026 9e-3 -9e-4c0.2228-0.0747 0.3886-0.2297 0.5499-0.3804l0.0415-0.0387c0.0537-0.054-0.0135-0.1081-0.1076-0.1216zm-1.2163-0.8791c-0.0015 3e-4 -0.0026 7e-4 -0.0033 0.0014-0.0017 0.0017-0.0017 0.0051-0.0017 0.0118-0.0825 0.0566-0.164 0.1142-0.2453 0.1716-0.2103 0.1487-0.4195 0.2965-0.6426 0.4232-0.2134 0.1201-0.4323 0.2239-0.6531 0.3286-0.1271 0.0603-0.255 0.1209-0.3828 0.1851 0 0 0-0.0135-0.0135-0.0135-0.0269-0.0406-0.0807-0.0541-0.1345-0.027-0.296 0.1622-0.5516 0.3785-0.7803 0.6083-0.0404 0.027-0.0807 0.0676-0.1076 0.1081l-0.1211 0.1217v0.0135c-0.0538 0.0541-0.1076 0.1081-0.1749 0.1892-0.014 0.0141-0.0247 0.0281-0.0351 0.0416-0.0194 0.0255-0.0374 0.0489-0.0725 0.0666-0.0539 0.027-0.1884 0.027-0.1749-0.0541v-0.0135c-0.0404 0.027-0.0942 0.0541-0.1346 0.0676-0.0201 0.0135-0.0403 0.0236-0.0605 0.0338-0.0202 0.0101-0.0404 0.0203-0.0605 0.0338-0.0135-0.0135-0.0404-0.0135-0.0539-0.0135-0.0134 0-0.0403 0-0.0538 0.0135-0.0314 0.027-0.0628 0.0525-0.0941 0.0781-0.0628 0.051-0.1256 0.1021-0.1884 0.1652-0.1614 0.1487-0.3094 0.3109-0.4574 0.4866 0 0 0 0.0136-0.0134 0.0136 0 0.0067-0.0034 0.0101-0.0068 0.0135-0.0033 0.0034-0.0067 0.0067-0.0067 0.0135l-0.0269 0.027c-0.0051 0.0052-0.0083 0.0104-0.011 0.0148-0.0044 0.0071-0.0076 0.0123-0.0159 0.0123l-0.0135 0.0135c-0.0134 0.027-0.0269 0.0541-0.0538 0.0811-0.0134 0.0135-0.0403 0.027-0.0672 0.027-0.0135-0.0135-0.027-0.027-0.027-0.0405-0.0067-0.0068-0.01-0.0135-0.0134-0.0203s-0.0067-0.0135-0.0135-0.0203c-0.0134-0.0203-0.0235-0.0405-0.0336-0.0608s-0.0202-0.0406-0.0336-0.0608v-0.0136c0-0.0067-0.0034-0.0135-0.0068-0.0202-0.0033-0.0068-0.0067-0.0136-0.0067-0.0203l0.2422-0.2839 0.0134-0.0135c0.0135-0.0135 0.0269-0.0304 0.0404-0.0473 0.0134-0.0169 0.0269-0.0338 0.0404-0.0473 0.0201-0.0271 0.0437-0.0541 0.0672-0.0811 0.0235-0.0271 0.0471-0.0541 0.0673-0.0812 0.0067-0.0135 0.0134-0.0236 0.0202-0.0337 0.0067-0.0102 0.0134-0.0203 0.0201-0.0338 0.0808-0.1082 0.1615-0.2163 0.2422-0.338v-0.0135c0.0135-0.0135 0.0269-0.027 0.0269-0.0541 0.0403-0.054 0.0807-0.1081 0.1076-0.1622l0.0808-0.1622v-0.0135l0.0134-0.0135c0-0.0068 0.0034-0.0102 0.0067-0.0136 0.0034-0.0033 0.0068-0.0067 0.0068-0.0135 0.0134-0.0338 0.0268-0.0641 0.0403-0.0945 0.0134-0.0304 0.0269-0.0609 0.0404-0.0947v-0.0135l0.0134-0.0541c0.0068-0.0135 0.0101-0.0271 0.0135-0.0406 0.0033-0.0135 0.0067-0.027 0.0134-0.0405v-0.0135c0.0068-0.0203 0.0101-0.0406 0.0135-0.0609s0.0067-0.0405 0.0134-0.0608c0-0.0135 0-0.0406-0.0134-0.0541 0.0807-0.1487 0.1883-0.2839 0.3094-0.419-0.0067 0-0.0134 0.0033-0.0202 0.0067-0.0038 2e-3 -0.0077 0.0039-0.0115 0.0052-0.0029 1e-3 -0.0058 0.0016-0.0086 0.0016-0.0599 0.0376-0.1115 0.0877-0.164 0.1388-0.0418 0.0407-0.0843 0.082-0.132 0.118-0.0807 0.0676-0.2422-0.0405-0.1345-0.1216 0.0672-0.0541 0.121-0.1082 0.1748-0.1622 0 0 0-0.0136 0.0135-0.0136 0.0536-0.0485 0.1051-0.1034 0.157-0.1588 0.0783-0.0835 0.1576-0.1682 0.2466-0.2332 0.0942-0.0676 0.1614-0.1216 0.2422-0.1892 0.0134-0.0136 0.0269-0.0271 0.0403-0.0271 0.0538-0.0676 0.1076-0.1352 0.1749-0.2027 0 0 0.0135 0 0.0135-0.0136 0.462-0.4476 1.1111-0.6055 1.7738-0.7666 0.4179-0.1017 0.8412-0.2046 1.2262-0.3824 0.2175-0.0904 0.4601-0.0548 0.6997-0.0197 0.1903 0.028 0.3788 0.0556 0.5515 0.0197 0.2287 0 0.4708 0 0.6996 0.1622-0.532 0.283-1.0397 0.6066-1.5419 0.9267-0.1455 0.0927-0.2908 0.1854-0.4358 0.2764-0.0037 0-0.0064 0-0.0084 3e-4zm1.6811-5.5095c-0.0629 0.0072-0.1037 0.0119-0.0688 0.047 0.2287 0.2298 0.6996 0.1487 1.0225-0.027 0.2287-0.1622 0.4708-0.1622 0.7803-0.1622 0.0807 0 0.0807-0.1487 0.0807-0.2298 0.2287 0.0811 0.3901 0.0811 0.6188 0.0811 1.87-0.392 3.6728-0.784 5.3948-1.6492-1.7424-1.3449-3.8905-1.944-5.9945-2.5308-0.3491-0.0974-0.697-0.1944-1.0416-0.2944 0.0758 0 0.1515 0.0252 0.2278 0.0505 0.1539 0.0513 0.3099 0.1032 0.4718-0.0505-0.2134-0.1701-0.4511-0.2027-0.6864-0.2349-0.1948-0.0266-0.3881-0.0531-0.5647-0.1572 0.0184 0 0.0403 0.0043 0.0642 0.0089 0.0805 0.0155 0.1829 0.0352 0.2452-0.09-0.4087-0.2053-0.8173-0.275-1.2299-0.3454-0.2121-0.0362-0.4254-0.0726-0.6401-0.1277 0.3901-0.0811 0.6323-0.392 0.6323-0.784 0-0.0811-0.1614-0.0811-0.2422-0.0811-0.9282 0.4731-1.5605 1.3382-1.9507 2.3521 0.3517 0.2069 0.7308 0.1829 1.1024 0.1594 0.2111-0.0134 0.4198-0.0266 0.6196 0.0028-0.1764 0.1674-0.4313 0.2129-0.6764 0.2566-0.0913 0.0162-0.1813 0.0323-0.2653 0.0543-0.2422 0.0541-0.4709 0.2298-0.3901 0.392 0.0538 0.0676 0.1076 0.0947 0.1748 0.1082-0.1748 0.054-0.3363 0.1352-0.4843 0.2838 0.2215 0.1742 0.4499 0.1406 0.6753 0.1074 0.0895-0.0131 0.1785-0.0262 0.2665-0.0262 0 0.0981 0.0645 0.1315 0.1315 0.1662 0.0345 0.0178 0.0697 0.036 0.0972 0.0636-0.3902 0.1487-0.6996 0.4731-0.7803 0.7029-0.0965 0.2342-0.2745 0.3863-0.451 0.5372-0.119 0.1017-0.2372 0.2027-0.3293 0.3279v0.2434c-0.2599 0.2301-0.527 0.4356-0.7905 0.6384-0.5411 0.4164-1.0669 0.8209-1.4831 1.4028 0.0807 0 0.0807 0.0811 0.0807 0.1622-0.0744 0.1122-0.1803 0.1899-0.2808 0.2636-0.1173 0.0861-0.2273 0.1668-0.2708 0.2906 0 0.0811 0 0.1622 0.0807 0.1622 0.4937-0.163 0.9209-0.4374 1.3396-0.7064 0.38-0.2442 0.7531-0.4839 1.1627-0.6318 0.3348-0.0805 0.6263-0.2321 0.9107-0.3801 0.2413-0.1255 0.4775-0.2484 0.7306-0.3229 0.1951-0.0405 0.4104-0.098 0.6256-0.1554 0.2153-0.0575 0.4305-0.1149 0.6256-0.1555 0 0.0811 0 0.1622 0.0807 0.1622h0.6189c-0.0382 0.0919-0.1583 0.1057-0.2407 0.1152z" clip-rule="evenodd" fill-rule="evenodd"/>
 </g>
 <path d="m114.58 0h-44.815s0.0813 0.013531 0.42 0.18944c0.3657 0.18944 0.8399 0.44653 1.1244 0.59537 0.5826 0.29769 1.138 0.67656 1.5038 1.2584 0.1626 0.23003 0.3929 0.70362 0.2439 1.0148-0.1626 0.3924-0.2439 1.0284-0.6368 1.1772-0.4741 0.24356-1.0973 0.24356-1.6528 0.16237-0.3116 0-0.6232-0.08118-0.9483-0.16237 1.1786 0.47359 2.2895 1.0284 3.0753 2.1244 0.0813 0.16237 0.3929 0.23003 0.7045 0.23003 0.0813 0 0.0813 0.16237 0.0813 0.23003-0.1626 0.16237-0.3116 0.24356-0.2303 0.47358h0.2303c0.3928-0.16237 0.3116-0.94717 0.867-0.70361 0.3929 0.23003 0.5555 0.7848 0.3116 1.1772-0.3116 0.31122-0.6232 0.55478-0.9483 0.78481-0.0813 0.16237-0.0813 0.3924 0 0.55477 0.2303 0.31121 0.3116 0.62243 0.3929 0.94718 0.2438 0.5548 0.3116 1.1772 0.5554 1.732 0.3116 1.1772 0.6232 2.3544 0.5555 3.5451 0 0.6224-0.3116 1.1772-0.0813 1.8132 0.1626 0.6224 0.5554 1.096 0.867 1.6508 0.3116 0.4736 0.6232 0.7848 0.8671 1.2584 0.4742 0.7848 1.3412 1.5696 0.9483 2.5167-0.2303 0.5548-1.0973 0.4736-1.6528 0.7849-0.4742 0.3924-0.0813 1.0283 0.1626 1.4207 0.3929 0.7036-0.4742 1.1772-1.0296 1.4208 0.1625 0.2435 0.4741 0.1624 0.5554 0.3112 0.0813 0.3924 0.4742 0.6224 0.2303 1.0284-0.3116 0.4735-1.2599 0.7036-0.7857 1.4207 0.3115 0.5548 0.1083 1.1637-0.0813 1.732-0.2303 0.7036-0.8671 1.0148-1.4225 1.1772-0.4742 0.1624-1.0297 0.1624-1.4903 0.0812-0.1626-0.0812-0.3116-0.1624-0.4742-0.1624-1.3412-0.1624-2.6824-0.5412-4.0101-0.5412-0.3929 0.0812-0.7857 0.1488-1.0973 0.3112-0.3523 0.2571-0.6774 0.5412-0.9484 0.8389l-0.0135 0.0136c-0.0542 0.0676-0.1219 0.1217-0.1761 0.1894-0.0271 0.0406-0.0678 0.0812-0.0949 0.1218-0.0271 0.027-0.0406 0.0541-0.0677 0.0811-0.2303 0.2842-0.4335 0.5954-0.6232 0.9066-0.0135 0.0271-0.0271 0.0406-0.0406 0.0542-0.0136 0.0406-0.0407 0.0676-0.0678 0.1082-0.2574 0.4736-0.4471 0.9607-0.5961 1.4478-0.5419 1.7997-0.298 3.3422 0.0813 3.7211 0.1084 0.1082 2.6012 0.8795 4.3353 1.6508 0.8128 0.3653 1.3818 0.6359 1.856 0.9336h44.003v-41.622h0.013z" fill="#E1000F"/>
 <path d="m72.43 15.181c0.3117 0.0811 0.786 0.0811 0.786 0.2433-0.1626 0.6216-1.0976 0.7838-1.5719 1.4189h-0.2439c-0.2303 0.1621-0.1626 0.554-0.3929 0.554-0.2304-0.081-0.4743 0-0.7047 0.0811 0.3117 0.3108 0.7047 0.5541 1.1789 0.473 0.0813 0 0.2304 0.1621 0.2304 0.3108 0 0 0.0813 0 0.1626-0.0811 0.0813 0 0.1626 0 0.1626 0.0811v0.3108c-0.2304 0.3108-0.6369 0.1622-0.9485 0.2297 0.6368 0.1622 1.2601 0.1622 1.8157 0 0.4743-0.1621 0-0.9459 0.3117-1.3378-0.1626 0 0-0.2432-0.1626-0.2432 0.1626-0.1622 0.3116-0.3919 0.4742-0.473 0.1626 0 0.393-0.0811 0.4743-0.2432 0-0.1622-0.3117-0.2298-0.2439-0.3919 0.4742-0.3108 0.8672-0.7838 0.7046-1.2568-0.0813-0.2432-0.7046-0.2432-1.0976-0.3919-0.3929-0.1486-0.8672 0-1.3415 0.0811-0.3929 0-0.7859 0.2432-1.1789 0.3108-0.5555 0.1622-1.0298 0.473-1.4905 0.7838 0.5556-0.2297 1.0976-0.3108 1.7345-0.473 0.4742 0.0135 0.8672-0.0946 1.3414 0.0135" fill="#808080"/>
 <g fill="#161616">
  <path d="m4.2918 93.649h5.9166v-11.779h3.7083c6.4167 0 10.333-3.2881 10.333-8.6572 0-5.4109-3.9167-8.699-10.333-8.699h-9.625v29.135zm9.875-24.224c2.5 0 4 1.4984 4 3.7043 0 2.3724-1.5 3.8292-4 3.8292h-3.9583v-7.5335h3.9583z"/>
  <path d="m29.769 93.649h5.9167v-11.779h3.0417l7.7916 11.779h6.9584l-9.125-12.903c3-1.3735 4.7083-3.9957 4.7083-7.5335 0-5.4109-3.9583-8.699-10.375-8.699h-8.9167v29.135zm9.25-24.224c2.5 0 3.9584 1.4984 3.9584 3.7043 0 2.3724-1.4584 3.8292-3.9584 3.8292h-3.3333v-7.5335h3.3333z"/>
  <path d="m57.85 93.649h17v-4.9114h-11.083v-7.4919h9.4166v-4.9113h-9.4166v-6.9092h11.083v-4.9114h-17v29.135z"/>
  <path d="m82.35 93.649h5.9167v-20.894l6.5 10.905h4.1666l6.4997-10.905v20.894h5.917v-29.135h-7.375l-7.125 12.237-7.125-12.237h-7.375v29.135z"/>
  <path d="m120.12 93.649h5.917v-29.135h-5.917v29.135z"/>
  <path d="m134.81 93.649h17v-4.9114h-11.083v-7.4919h9.417v-4.9113h-9.417v-6.9092h11.083v-4.9114h-17z"/>
  <path d="m159.31 93.649h5.916v-11.779h3.042l7.792 11.779h6.958l-9.125-12.903c3-1.3735 4.708-3.9957 4.708-7.5335 0-5.4109-3.958-8.699-10.375-8.699h-8.916v29.135zm9.25-24.224c2.5 0 3.958 1.4984 3.958 3.7043 0 2.3724-1.458 3.8292-3.958 3.8292h-3.334v-7.5335h3.334z"/>
  <path d="m4.2918 137.35h5.9166v-20.894l6.5 10.905h4.1667l6.5-10.905v20.894h5.9166v-29.135h-7.375l-7.125 12.237-7.125-12.237h-7.375v29.135z"/>
  <path d="m42.057 137.35h5.9167v-29.135h-5.9167v29.135z"/>
  <path d="m56.751 137.35h5.9166v-21.06l13.042 21.06h7.5833v-29.135h-5.9166v21.061l-13.042-21.061h-7.5833v29.135z"/>
  <path d="m92.075 137.35h5.9167v-29.135h-5.9167v29.135z"/>
  <path d="m104.14 133.31c2.583 3.08 5.875 4.87 10.792 4.87 5.375 0 9.625-3.288 9.708-8.782 0-9.99-13.25-8.491-13.25-13.777 0-1.748 1.375-3.08 3.458-3.08 2.209 0 4.125 1.457 5.834 3.662l4.333-3.912c-2.5-2.955-5.833-4.911-10.208-4.911-5.584 0-9.417 3.829-9.417 8.449 0 9.864 13.25 8.407 13.25 13.777 0 2.081-1.417 3.329-3.75 3.329-2.375 0-4.708-1.332-6.458-3.579l-4.292 3.954z"/>
  <path d="m128.27 113.58h9v23.766h5.917v-23.766h9v-5.369h-23.917v5.369z"/>
  <path d="m158.01 137.35h5.916v-11.779h3.042l7.792 11.779h6.958l-9.125-12.902c3-1.374 4.708-3.996 4.708-7.534 0-5.411-3.958-8.699-10.375-8.699h-8.916v29.135zm9.25-24.224c2.5 0 3.958 1.499 3.958 3.705 0 2.372-1.458 3.829-3.958 3.829h-3.334v-7.534h3.334z"/>
  <path d="m186.09 137.35h17v-4.911h-11.084v-7.492h9.417v-4.911h-9.417v-6.91h11.084v-4.911h-17v29.135z"/>
 </g>
 <g clip-rule="evenodd" fill-rule="evenodd">
  <path d="m108.25 211.65-3.875 3.538h-1l2.292-4.038h2.583v0.5zm-2.792 13.691h-0.833c-1.042 1.249-2.208 2.248-3.333 2.248-1.167 0-1.7504-0.708-1.7504-2.248 0-0.624 0.0833-1.29 0.2083-1.873l6.7921-2.247c1.333-3.163-0.25-4.536-2.125-4.536-3.209 0-6.8754 5.618-6.8754 10.113 0 2.123 1 3.288 2.5834 3.288 1.833-0.042 3.75-1.831 5.333-4.745zm-2.33-6.824c0.916 0 1.708 0.707 1.291 2.331l-4.208 1.123c0.667-1.997 1.917-3.454 2.917-3.454zm-13.249 0.082h2.25l-3.5833 9.822c-0.3334 0.833 0.125 1.665 1 1.665 2.5417 0 5.5834-2.164 6.7501-5.244h-0.625c-0.9167 1.29-2.9167 2.705-4.4168 2.955l3.2918-9.198h3.375l0.4167-1.415h-3.2917l1.25-3.538h-1.2917l-2.3334 3.538-2.7917 0.375v1.04zm-3.1273-1.87c0.4583 0 1.0833 0.499 0.7916 1.415l-4.0417 9.78c1.0417-0.166 2.125-1.165 2.7501-2.081h0.6666c-0.9583 2.456-3.125 4.245-5.0001 4.245-0.4583 0-1.125-0.499-0.7916-1.415l3.75-9.78c-1.0416 0.166-2.125 1.165-2.75 2.081h-0.625c0.9583-2.497 3.2917-4.245 5.2501-4.245zm1.1694-2.499c0.8334 0 1.5417-0.666 1.5417-1.54 0-0.832-0.7083-1.54-1.5417-1.54-0.875 0-1.5417 0.708-1.5417 1.54 0 0.833 0.7084 1.54 1.5417 1.54zm-18.209 8.117c0.9167-1.998 0.5833-2.913 0-2.913-0.5 0-1.0834 0.541-1.6667 1.54h-0.625c0.9583-2.123 2.2084-4.245 3.5834-4.245 1.1667 0 1.5833 1.165 1.5833 2.455v1.831c0.1876-0.218 0.3702-0.432 0.5485-0.641l0.0033-4e-3 0.0026-3e-3c1.7604-2.063 3.1043-3.638 4.6541-3.638 1.2083 0 1.8333 0.749 1.8333 1.872 0 0.666-0.2083 1.499-0.6666 2.373l-3.4584 6.95c1.0416-0.166 2.125-1.165 2.75-2.081h0.625c-0.9583 2.497-3.2917 4.245-5.2501 4.245-0.875 0-1.375-0.915-1-1.664l4.0001-7.7c0.4583-0.874 0.5417-1.457-0.1667-1.457-0.9583 0-3.2084 1.582-4.4167 3.039l-2.6251 6.908c-0.2916 0.708-0.5833 0.874-1.25 0.874-1.0833 0-1.625-0.707-1.125-1.831l2.6667-5.91zm-2.7115-2.666c0.4584-1.581 0.2084-2.996-1-2.996-1.5069 0-1.9788 0.994-3.4391 4.07l-0.1026 0.216v-1.831c0-1.29-0.4167-2.455-1.5834-2.455-1.375 0-2.625 2.122-3.5834 4.245h0.6251c0.6666-0.958 1.2916-1.54 1.7917-1.54 0.5833 0 0.9166 0.915 0 2.913l-2.6668 5.91c-0.5 1.124 0.0417 1.831 1.1251 1.831 0.6666 0 0.9583-0.166 1.25-0.874l2.625-6.909c0.75-0.915 1.4167-1.706 2.2501-2.58h2.7083zm-13.166 1.167c0.4167-1.624-0.375-2.331-1.2917-2.331-1 0-2.25 1.457-2.9167 3.454l4.2084-1.123zm1.0391 4.493h-0.8333c-1.0417 1.249-2.2084 2.248-3.3334 2.248-1.1667 0-1.75-0.708-1.75-2.248 0-0.624 0.0833-1.29 0.2083-1.873l6.7918-2.247c1.3333-3.163-0.25-4.536-2.1251-4.536-3.2084 0-6.8751 5.618-6.8751 10.113 0 2.123 1 3.288 2.5834 3.288 1.8334-0.042 3.7501-1.831 5.3334-4.745zm-13.329-6.742h-2.25v-1.04l2.7917-0.375 2.3333-3.538h1.2917l-1.25 3.538h3.2917l-0.4166 1.415h-3.3751l-3.2917 9.198c1.5-0.25 3.5-1.665 4.4167-2.955h0.625c-1.1667 3.08-4.2084 5.244-6.7501 5.244-0.875 0-1.3333-0.832-1-1.665l3.5834-9.822zm-14.165 7.617c0-3.038 3.375-7.117 5.2501-7.117 0.4167 0 0.8333 0.042 1.1667 0.167l-1.9584 5.244c-1.125 1.373-2.8751 3.038-3.7084 3.038-0.4583 0-0.75-0.416-0.75-1.332zm9.2929-10.155 1.0416 0.084-3.625 8.323c-0.875 1.998-0.5 2.914 0 2.914s1.125-0.583 1.7917-1.54h0.625c-0.9584 2.122-2.2084 4.245-3.5834 4.245-1.1667 0-1.875-1.249-1.6667-3.496l0.0833-0.791-0.2269 0.317c-1.4925 2.084-2.8431 3.97-4.2315 3.97-1.2083 0-1.8333-0.749-1.8333-1.873 0-4.828 5.2917-10.987 10.25-10.987h0.2084l1.1667-1.166zm-9.5445 3.62c0.4584-1.581 0.2084-2.996-1-2.996-1.507 0-1.9788 0.994-3.4392 4.07l-0.1025 0.216v-1.831c0-1.29-0.4167-2.455-1.5834-2.455-1.375 0-2.625 2.122-3.5834 4.245h0.625c0.6667-0.958 1.2917-1.54 1.7501-1.54 0.5833 0 0.9167 0.915 0 2.913l-2.6667 5.952c-0.5 1.123 0.0416 1.831 1.125 1.831 0.6667 0 0.9583-0.167 1.25-0.874l2.625-6.909c0.7501-0.916 1.4167-1.706 2.2501-2.58h2.75v-0.042zm-17.17 9.154-0.25001 0.749h-9.7085l0.25-0.791c3-0.541 3.5001-0.791 4.7501-4.162l2.7084-7.241c1.2084-3.372 0.95835-3.621-1.6667-4.162l0.25-0.75h12.625l-0.75 4.038h-0.9167c0-2.414-0.25-3.039-2.5417-3.039h-0.5834c-2.25 0-2.5417 0.333-3.1667 2.081l-1.7917 4.87h2.6251c1.75 0 2.4167-1.082 3.2083-2.497h0.9167l-2.1667 5.909h-0.9167c0.2084-1.789 0.2084-2.497-1.4166-2.497h-2.6251l-1.2084 3.33c-1.3062 3.465-0.93293 3.536 2.1774 4.124 0.06469 0.013 0.13056 0.025 0.19762 0.038z"/>
  <path d="m18.208 179.8-3.875 2.789v0.042h-1l2.2917-3.33h2.5833v0.499zm27.087 19.52 6.2083-16.482-0.2083-0.249-4.2917 0.499v0.5l0.8334 0.624c0.7114 0.553 0.523 1.068-0.0673 2.683l-0.0994 0.272-4.75 12.653c-0.375 0.749 0.125 1.665 1 1.665 1.9583 0 4.0417-1.79 5-4.246h-0.625c-0.6667 0.916-2 1.915-3 2.081zm28.455-12.694 3.875-3.538v-0.499h-2.5833l-2.2917 4.037h1zm0.2473 10.114h0.8333c-1.5416 2.955-3.4583 4.745-5.2916 4.745-1.5833 0-2.5833-1.166-2.5833-3.288 0-4.495 3.6666-10.114 6.8749-10.114 1.8334 0 3.4583 1.373 2.125 4.536l-6.8333 2.248c-0.125 0.583-0.2083 1.249-0.2083 1.873 0 1.54 0.5833 2.247 1.75 2.247 1.125 0 2.2916-0.998 3.3333-2.247zm-0.2103-4.495c0.4166-1.582-0.375-2.289-1.2917-2.289-0.9583 0-2.2083 1.457-2.9167 3.413l4.2084-1.124zm-12.25-2.207h-2.25v-1.041l2.7917-0.374 2.3333-3.538h1.2917l-1.25 3.538h3.2916l-0.4166 1.415h-3.375l-3.2917 9.198c1.5-0.249 3.5-1.665 4.4167-2.955h0.625c-1.1667 3.08-4.2083 5.244-6.75 5.244-0.875 0-1.3333-0.832-1-1.664l3.5833-9.823zm-4.5836-0.5c0.25-0.915-0.3333-1.415-0.8333-1.415-1.9583 0-4.2916 1.79-5.25 4.246h0.625c0.625-0.916 1.7084-1.915 2.75-2.081l-3.75 9.781c-0.3333 0.915 0.3334 1.415 0.7917 1.415 1.875 0 4.0416-1.79 5-4.246h-0.625c-0.625 0.916-1.7083 1.915-2.75 2.081l4.0416-9.781zm1.9198-5.409c0 0.832-0.7083 1.54-1.5417 1.54-0.8333 0-1.5416-0.708-1.5416-1.54 0-0.833 0.6666-1.54 1.5416-1.54 0.8334 0 1.5417 0.707 1.5417 1.54zm-21.037 6.409c-1.875 0-5.25 4.079-5.25 7.118 0 0.915 0.2916 1.331 0.7916 1.331 0.7917 0 2.5417-1.664 3.6667-3.038l1.9583-5.244c-0.375-0.125-0.75-0.167-1.1666-0.167zm5.0843-2.955-1.0416-0.083-1.1667 1.165h-0.2083c-4.9584 0-10.25 6.16-10.25 10.989 0 1.123 0.625 1.872 1.8333 1.872 1.3883 0 2.7389-1.886 4.2314-3.97l0.2269-0.317-0.0833 0.791c-0.2083 2.248 0.5 3.496 1.6667 3.496 1.375 0 2.625-2.122 3.5833-4.245h-0.625c-0.6667 0.957-1.2917 1.54-1.7917 1.54s-0.875-0.916 0-2.913l3.625-8.325zm-21.002 13.486c-1.7916 0.708-3.0416 1.54-3.0416 2.83 0 1.207 1.125 1.707 3.4583 1.707 3.125 0 4.8333-0.916 4.8333-2.123 0-0.541-0.7083-0.791-2.5833-1.415-1.2083-0.375-2.0833-0.708-2.6667-0.999zm2.0806-5.12c-0.8333 0-1.125-0.707-1.125-1.456 0-2.414 1.1667-5.411 3.0417-5.411 0.8333 0 1.125 0.707 1.125 1.457-0.0417 2.455-1.2083 5.41-3.0417 5.41zm1.5876 3.913c2.2916 0.707 3.7083 1.248 3.7083 2.83 0 2.039-3.75 4.453-8.2917 4.412-2.6249 0-4.8749-0.708-4.8749-2.414 0-1.624 1.5-2.956 5.1666-4.038-0.5-0.333-0.7083-0.749-0.7083-1.332 0-0.998 0.9166-1.789 2.5-2.538-1.5417-0.209-2.5417-1.374-2.5417-3.08 0-2.623 2.1667-5.619 5.5833-5.619 0.7084 0 1.3334 0.166 1.8334 0.499h3.7499l-0.4166 1.415h-2.2083c0.1249 0.375 0.2083 0.791 0.2083 1.249 0 2.539-2.0417 5.452-5.2917 5.619-0.8333 0.458-1.25 1.082-1.25 1.581 0 0.588 0.6816 0.787 2.188 1.226 0.2004 0.058 0.4154 0.121 0.6454 0.19zm-13.211-7.117c1.6249 0 1.6666 0.707 1.4166 2.497h0.9167l2.1666-5.91h-0.9166c-0.7917 1.415-1.4584 2.497-3.2083 2.497h-3.5834l1.75-4.87c0.625-1.748 0.9167-2.081 3.1667-2.081h1.5833c2.2917 0 2.5417 0.624 2.5417 3.038h0.9166l0.75-4.037h-13.583l-0.25 0.749c2.625 0.541 2.875 0.791 1.6667 4.163l-2.7083 7.283c-1.25 3.372-1.75 3.621-4.7916 4.162l-0.20833 0.791h15.083l2.7083-4.287h-1.0417c-1.75 1.707-3.4999 3.288-6.9166 3.288-3.7581 0-3.6911-0.183-2.5635-3.278 0.07258-0.199 0.14959-0.41 0.23021-0.634l1.25-3.33h3.625v-0.041z"/>
  <path d="m24.83 157.08c0.8333 0 1.5417-0.708 1.5417-1.54s-0.7084-1.54-1.5417-1.54c-0.875 0-1.5416 0.708-1.5416 1.54 0 0.874 0.6666 1.54 1.5416 1.54zm12.338 5.243c0-1.998-0.5-2.747-1.9166-2.747-1.75 0-3.375 1.873-4.9999 4.12l3.4999-9.364-0.2083-0.291-4.2916 0.499v0.499l0.8333 0.625c0.7255 0.563 0.5152 1.127-0.1028 2.783l-0.0639 0.172-3.7916 9.905c-0.3333 0.832-0.7083 1.831-0.7083 2.081 0 1.165 1.5833 2.289 3.0416 2.289 3.25 0.041 8.7082-5.952 8.7082-10.571zm36.124-4.245 3.875-3.538v-0.499h-2.5833l-2.2917 4.037h1zm0.251 10.113h0.8333c-1.5833 2.955-3.5 4.744-5.3333 4.703-1.5833 0-2.5833-1.124-2.5833-3.247 0-4.494 3.6667-10.113 6.8749-10.113 1.8334 0 3.4583 1.374 2.125 4.537l-6.7916 2.247c-0.125 0.583-0.2083 1.249-0.2083 1.873 0 1.54 0.5833 2.247 1.75 2.247 1.125 0 2.2916-0.999 3.3333-2.247zm-0.2124-4.495c0.4167-1.581-0.375-2.289-1.2916-2.289-1 0-2.25 1.457-2.9167 3.413l4.2083-1.124zm-12.296-2.203h-2.25v-1.041l2.7916-0.374 2.3333-3.538h1.2917l-1.25 3.538h3.2916l-0.4166 1.415h-3.375l-3.2916 9.197c1.5-0.249 3.4999-1.664 4.4166-2.954h0.625c-1.1667 3.079-4.2083 5.243-6.7499 5.243-0.875 0-1.3333-0.832-1-1.664l3.5833-9.822zm-3.4088 1.082c0.4584-1.582 0.2084-2.997-0.9999-2.997-1.507 0-1.9788 0.994-3.4391 4.071l-0.1026 0.216v-1.831c0-1.29-0.4166-2.456-1.5833-2.456-1.375 0-2.6249 2.123-3.5833 4.245h0.625c0.6667-0.957 1.2917-1.54 1.75-1.54 0.5833 0 0.9167 0.916 0 2.914l-2.6666 5.91c-0.5 1.123 0.0416 1.831 1.125 1.831 0.6666 0 0.9583-0.167 1.2499-0.874l2.625-6.909c0.75-0.915 1.4167-1.706 2.25-2.58h2.7499zm-13.207 1.121c0.4166-1.581-0.375-2.289-1.2917-2.289-1 0-2.2083 1.457-2.9166 3.413l4.2083-1.124zm1.039 4.495h-0.8333c-1.0417 1.248-2.2083 2.247-3.3333 2.247-1.1666 0-1.75-0.707-1.75-2.247 0-0.624 0.0834-1.29 0.2084-1.873l6.7915-2.247c1.3334-3.163-0.25-4.537-2.1249-4.537-3.2083 0-6.8749 5.619-6.8749 10.113 0 2.123 1 3.247 2.5833 3.247 1.8333 0.041 3.7499-1.748 5.3332-4.703zm-17.497 1.583c0 0.541 0.9583 1.165 1.6249 1.165 2.7083 0 5.25-4.869 5.2083-7.574 0-0.916-0.4583-1.291-1.0833-1.291-1 0-2.8333 1.499-4 2.914l-1.0833 2.913c-0.375 0.957-0.6666 1.706-0.6666 1.873zm-4.3742-10.196c0.5 0 1.0833 0.5 0.8333 1.415l-3.9999 9.781c1.0416-0.167 2.1249-1.166 2.7499-2.081h0.625c-0.9583 2.455-3.1249 4.245-4.9999 4.245-0.5 0-1.1667-0.5-0.8333-1.415l3.7499-9.781c-1.0416 0.167-2.125 1.166-2.75 2.081h-0.625c0.9584-2.455 3.2917-4.245 5.25-4.245zm-17.295-4.328h8.9582l-0.25 0.791c-3.0416 0.541-3.5416 0.79-4.7916 4.161l-2.6666 7.325c-1.2916 3.496-0.95832 3.912 1.3333 3.912 2.8313 0 4.6878-2.055 6.3089-3.85 0.1204-0.133 0.2395-0.265 0.3576-0.395h1.0417l-2.9583 5.244h-13.625l0.25-0.749c3-0.541 3.5-0.791 4.7499-4.162l2.7083-7.366c1.2083-3.371 0.95831-3.621-1.6666-4.162l0.25-0.749z"/>
 </g>
 <g fill="#161616">
  <rect x="329.17" y="64.514" width="4.1667" height="72.838"/>
  <path d="m346.32 83.243h6.875c5.55 0 9.3-4.0207 9.3-8.7406s-3.75-8.7405-9.3-8.7405h-6.875v17.481zm6.925-14.26c3.25 0 5.6 2.3974 5.6 5.519 0 3.0967-2.35 5.519-5.6 5.519h-3.375v-11.038h3.375z"/>
  <path d="m367.1 68.459c1.125 0 2.05-0.949 2.05-2.0728s-0.925-2.0728-2.05-2.0728-2.075 0.949-2.075 2.0728 0.95 2.0728 2.075 2.0728zm-1.6 14.784h3.175v-12.586h-3.175v12.586z"/>
  <path d="m372.48 83.243h3.175v-8.0663c0.475-0.7991 1.475-1.6482 3.025-1.6482 0.575 0 1 0.0749 1.4 0.1748v-3.1216c-0.3-0.0999-0.675-0.1749-1.1-0.1749-1.425 0-2.5 0.6493-3.325 1.4984v-1.2486h-3.175v12.586z"/>
  <path d="m393.7 81.196-2.275-1.7981c-0.675 0.899-1.875 1.4984-3.25 1.4984-1.975 0-3.425-0.949-3.725-3.2964h8.825c0.1-0.4246 0.2-1.0739 0.2-1.7731 0-3.2964-2.3-5.6689-5.8-5.6689-4.125 0-6.475 3.0717-6.475 6.7927 0 3.671 2.525 6.7926 7 6.7926 2.375 0 4.325-0.9739 5.5-2.5472zm-6.1-8.4409c1.775 0 2.7 1.2736 2.75 2.5473h-5.8c0.35-1.6483 1.425-2.5473 3.05-2.5473z"/>
  <path d="m402.53 80.746c-2.125 0-3.65-1.5733-3.65-3.7959 0-2.1977 1.525-3.7959 3.6-3.7959 1.3 0 2.3 0.5744 2.9 1.4484l2.475-1.8979c-1.175-1.5484-3.025-2.5473-5.325-2.5473-4.35 0-6.95 3.1216-6.95 6.7927 0 3.671 2.6 6.7926 6.95 6.7926 2.3 0 4.15-0.9989 5.325-2.5472l-2.475-1.898c-0.6 0.8741-1.6 1.4485-2.85 1.4485z"/>
  <path d="m411.15 78.648c0 3.0717 1.5 4.8448 4.65 4.8448 1.05 0 1.8-0.1249 2.425-0.3996v-2.772c-0.425 0.1748-1 0.2747-1.875 0.2747-1.25 0-2-0.5494-2-1.9479v-5.1444h3.85v-2.8469h-3.85v-3.1466h-3.2v3.1466h-2.35v2.8469h2.35v5.1444z"/>
  <path d="m422.64 68.459c1.125 0 2.05-0.949 2.05-2.0728s-0.925-2.0728-2.05-2.0728-2.075 0.949-2.075 2.0728 0.95 2.0728 2.075 2.0728zm-1.6 14.784h3.175v-12.586h-3.175v12.586z"/>
  <path d="m434.02 70.158c-4.1 0-6.9 3.0217-6.9 6.7927 0 3.7709 2.8 6.7926 6.9 6.7926s6.9-3.0217 6.9-6.7926c0-3.771-2.8-6.7927-6.9-6.7927zm0.05 10.589c-2.1 0-3.65-1.5983-3.65-3.7959 0-2.1977 1.55-3.7959 3.65-3.7959 2.025 0 3.55 1.5982 3.55 3.7959 0 2.1726-1.525 3.7959-3.55 3.7959z"/>
  <path d="m443.82 83.243h3.175v-8.2162c0.475-0.7991 1.325-1.8729 2.925-1.8729 1.55 0 2.5 1.0488 2.5 2.722v7.3671h3.2v-7.4919c0-3.721-2.175-5.594-4.9-5.594-1.675 0-2.85 0.6493-3.725 1.4984v-0.9989h-3.175v12.586z"/>
  <path d="m347.25 93.432c1.125 0 2.05-0.9489 2.05-2.0727s-0.925-2.0728-2.05-2.0728-2.075 0.949-2.075 2.0728 0.95 2.0727 2.075 2.0727zm-1.6 14.784h3.175v-12.586h-3.175v12.586z"/>
  <path d="m352.63 108.22h3.175v-8.216c0.475-0.7989 1.325-1.8727 2.925-1.8727 1.55 0 2.5 1.0488 2.5 2.7217v7.367h3.2v-7.492c0-3.7205-2.175-5.5935-4.9-5.5935-1.675 0-2.85 0.6493-3.725 1.4984v-0.9989h-3.175v12.586z"/>
  <path d="m368.84 103.62c0 3.072 1.5 4.845 4.65 4.845 1.05 0 1.8-0.125 2.425-0.4v-2.772c-0.425 0.175-1 0.275-1.875 0.275-1.25 0-2-0.549-2-1.948v-5.1441h3.85v-2.8469h-3.85v-3.1466h-3.2v3.1466h-2.35v2.8469h2.35v5.1441z"/>
  <path d="m390.09 106.17-2.275-1.799c-0.675 0.9-1.875 1.499-3.25 1.499-1.975 0-3.425-0.949-3.725-3.297h8.825c0.1-0.424 0.2-1.073 0.2-1.773 0-3.2961-2.3-5.6685-5.8-5.6685-4.125 0-6.475 3.0717-6.475 6.7925 0 3.671 2.525 6.793 7 6.793 2.375 0 4.325-0.974 5.5-2.547zm-6.1-8.4413c1.775 0 2.7 1.2736 2.75 2.5473h-5.8c0.35-1.6483 1.425-2.5473 3.05-2.5473z"/>
  <path d="m392.96 108.22h3.175v-8.066c0.475-0.7991 1.475-1.6482 3.025-1.6482 0.575 0 1 0.075 1.4 0.1749v-3.1217c-0.3-0.0999-0.675-0.1748-1.1-0.1748-1.425 0-2.5 0.6493-3.325 1.4984v-1.2486h-3.175v12.586z"/>
  <path d="m403.12 108.22h3.175v-8.216c0.475-0.7989 1.225-1.8727 2.675-1.8727 1.425 0 2.25 0.9489 2.25 2.4727v7.616h3.2v-7.741c0-0.2 0-0.375-0.025-0.5497 0.5-0.8491 1.25-1.798 2.625-1.798 1.425 0 2.25 0.9489 2.25 2.4727v7.616h3.2v-7.741c0-3.5465-2.05-5.3445-4.65-5.3445-2.125 0-3.325 0.949-4.225 2.0478-0.825-1.3486-2.225-2.0478-3.825-2.0478-1.55 0-2.625 0.6243-3.475 1.4484v-0.9489h-3.175v12.586z"/>
  <path d="m427.69 93.432c1.125 0 2.05-0.9489 2.05-2.0727s-0.925-2.0728-2.05-2.0728-2.075 0.949-2.075 2.0728 0.95 2.0727 2.075 2.0727zm-1.6 14.784h3.175v-12.586h-3.175v12.586z"/>
  <path d="m433.08 108.22h3.175v-8.216c0.475-0.7989 1.325-1.8727 2.925-1.8727 1.55 0 2.5 1.0488 2.5 2.7217v7.367h3.2v-7.492c0-3.7205-2.175-5.5935-4.9-5.5935-1.675 0-2.85 0.6493-3.725 1.4984v-0.9989h-3.175v12.586z"/>
  <path d="m450.08 93.432c1.125 0 2.05-0.9489 2.05-2.0727s-0.925-2.0728-2.05-2.0728-2.075 0.949-2.075 2.0728 0.95 2.0727 2.075 2.0727zm-1.6 14.784h3.175v-12.586h-3.175v12.586z"/>
  <path d="m454.19 106.39c1.2 1.424 2.8 2.323 5.05 2.323 2.375 0 4.5-1.449 4.55-4.096 0-4.345-6.025-3.596-6.025-5.7436 0-0.6493 0.475-1.1987 1.475-1.1987 0.975 0 1.8 0.6493 2.45 1.4485l2.1-1.848c-0.9-1.2237-2.65-2.1477-4.575-2.1477-2.625 0-4.5 1.6732-4.5 3.8958 0 4.4197 6.025 3.5957 6.025 5.7937 0 0.749-0.525 1.349-1.55 1.349-1.2 0-2.125-0.7-2.9-1.674l-2.1 1.898z"/>
  <path d="m467.72 103.62c0 3.072 1.5 4.845 4.65 4.845 1.05 0 1.8-0.125 2.425-0.4v-2.772c-0.425 0.175-1 0.275-1.875 0.275-1.25 0-2-0.549-2-1.948v-5.1441h3.85v-2.8469h-3.85v-3.1466h-3.2v3.1466h-2.35v2.8469h2.35v5.1441z"/>
  <path d="m484.69 93.632 3-4.1455h-3.45l-2.6 4.1455h3.05zm4.275 12.537-2.275-1.799c-0.675 0.9-1.875 1.499-3.25 1.499-1.975 0-3.425-0.949-3.725-3.297h8.825c0.1-0.424 0.2-1.073 0.2-1.773 0-3.2961-2.3-5.6685-5.8-5.6685-4.125 0-6.475 3.0717-6.475 6.7925 0 3.671 2.525 6.793 7 6.793 2.375 0 4.325-0.974 5.5-2.547zm-6.1-8.4413c1.775 0 2.7 1.2736 2.75 2.5473h-5.8c0.35-1.6483 1.425-2.5473 3.05-2.5473z"/>
  <path d="m491.84 108.22h3.175v-8.066c0.475-0.7991 1.475-1.6482 3.025-1.6482 0.575 0 1 0.075 1.4 0.1749v-3.1217c-0.3-0.0999-0.675-0.1748-1.1-0.1748-1.425 0-2.5 0.6493-3.325 1.4984v-1.2486h-3.175v12.586z"/>
  <path d="m503.6 93.432c1.125 0 2.05-0.9489 2.05-2.0727s-0.925-2.0728-2.05-2.0728-2.075 0.949-2.075 2.0728 0.95 2.0727 2.075 2.0727zm-1.6 14.784h3.175v-12.586h-3.175v12.586z"/>
  <path d="m520.58 106.17-2.275-1.799c-0.675 0.9-1.875 1.499-3.25 1.499-1.975 0-3.425-0.949-3.725-3.297h8.825c0.1-0.424 0.2-1.073 0.2-1.773 0-3.2961-2.3-5.6685-5.8-5.6685-4.125 0-6.475 3.0717-6.475 6.7925 0 3.671 2.525 6.793 7 6.793 2.375 0 4.325-0.974 5.5-2.547zm-6.1-8.4413c1.775 0 2.7 1.2736 2.75 2.5473h-5.8c0.35-1.6483 1.425-2.5473 3.05-2.5473z"/>
  <path d="m523.46 108.22h3.175v-18.729h-3.175v18.729z"/>
  <path d="m530.44 108.22h3.175v-18.729h-3.175v18.729z"/>
  <path d="m549.02 106.17-2.275-1.799c-0.675 0.9-1.875 1.499-3.25 1.499-1.975 0-3.425-0.949-3.725-3.297h8.825c0.1-0.424 0.2-1.073 0.2-1.773 0-3.2961-2.3-5.6685-5.8-5.6685-4.125 0-6.475 3.0717-6.475 6.7925 0 3.671 2.525 6.793 7 6.793 2.375 0 4.325-0.974 5.5-2.547zm-6.1-8.4413c1.775 0 2.7 1.2736 2.75 2.5473h-5.8c0.35-1.6483 1.425-2.5473 3.05-2.5473z"/>
  <path d="m344.75 126.9c0 3.671 2.425 6.793 6.4 6.793 1.7 0 2.925-0.525 3.9-1.499v0.999h3.2v-18.729h-3.2v7.142c-0.975-0.974-2.2-1.499-3.9-1.499-3.975 0-6.4 3.122-6.4 6.793zm3.325 0c0-2.198 1.375-3.796 3.525-3.796 1.425 0 2.6 0.6 3.45 1.748v4.096c-0.85 1.149-2.025 1.748-3.45 1.748-2.15 0-3.525-1.598-3.525-3.796z"/>
  <path d="m370.36 127.74c0 1.823-0.95 2.947-2.675 2.947-1.75 0-2.7-1.124-2.7-2.947v-7.142h-3.2v6.992c0 3.771 2.175 6.094 5.875 6.094s5.9-2.323 5.9-6.094v-6.992h-3.2v7.142z"/>
  <path d="m383.81 133.19h3.175v-8.216c0.475-0.799 1.325-1.873 2.925-1.873 1.55 0 2.5 1.049 2.5 2.722v7.367h3.2v-7.492c0-3.721-2.175-5.594-4.9-5.594-1.675 0-2.85 0.65-3.725 1.499v-0.999h-3.175v12.586z"/>
  <path d="m407.51 127.74c0 1.823-0.95 2.947-2.675 2.947-1.75 0-2.7-1.124-2.7-2.947v-7.142h-3.2v6.992c0 3.771 2.175 6.094 5.875 6.094s5.9-2.323 5.9-6.094v-6.992h-3.2v7.142z"/>
  <path d="m414.23 133.19h3.175v-8.216c0.475-0.799 1.225-1.873 2.675-1.873 1.425 0 2.25 0.949 2.25 2.473v7.616h3.2v-7.741c0-0.2 0-0.375-0.025-0.55 0.5-0.849 1.25-1.798 2.625-1.798 1.425 0 2.25 0.949 2.25 2.473v7.616h3.2v-7.741c0-3.546-2.05-5.345-4.65-5.345-2.125 0-3.325 0.949-4.225 2.048-0.825-1.348-2.225-2.048-3.825-2.048-1.55 0-2.625 0.625-3.475 1.449v-0.949h-3.175v12.586z"/>
  <path d="m444.53 118.6 3-4.145h-3.45l-2.6 4.145h3.05zm4.275 12.537-2.275-1.799c-0.675 0.899-1.875 1.499-3.25 1.499-1.975 0-3.425-0.949-3.725-3.297h8.825c0.1-0.424 0.2-1.073 0.2-1.773 0-3.296-2.3-5.669-5.8-5.669-4.125 0-6.475 3.072-6.475 6.793 0 3.671 2.525 6.793 7 6.793 2.375 0 4.325-0.974 5.5-2.547zm-6.1-8.441c1.775 0 2.7 1.273 2.75 2.547h-5.8c0.35-1.648 1.425-2.547 3.05-2.547z"/>
  <path d="m451.68 133.19h3.175v-8.066c0.475-0.799 1.475-1.648 3.025-1.648 0.575 0 1 0.075 1.4 0.175v-3.122c-0.3-0.1-0.675-0.175-1.1-0.175-1.425 0-2.5 0.649-3.325 1.499v-1.249h-3.175v12.586z"/>
  <path d="m463.44 118.4c1.125 0 2.05-0.949 2.05-2.072 0-1.124-0.925-2.073-2.05-2.073s-2.075 0.949-2.075 2.073c0 1.123 0.95 2.072 2.075 2.072zm-1.6 14.784h3.175v-12.586h-3.175v12.586z"/>
  <path d="m467.92 126.9c0 3.671 2.4 6.793 6.4 6.793 1.7 0 2.925-0.55 3.9-1.524v7.168h3.2v-18.73h-3.2v1.024c-0.975-0.974-2.2-1.524-3.9-1.524-4 0-6.4 3.122-6.4 6.793zm3.3 0c0-2.198 1.375-3.796 3.525-3.796 1.425 0 2.625 0.625 3.475 1.798v3.996c-0.775 1.149-2 1.798-3.475 1.798-2.15 0-3.525-1.598-3.525-3.796z"/>
  <path d="m493.52 127.74c0 1.823-0.95 2.947-2.675 2.947-1.75 0-2.7-1.124-2.7-2.947v-7.142h-3.2v6.992c0 3.771 2.175 6.094 5.875 6.094s5.9-2.323 5.9-6.094v-6.992h-3.2v7.142z"/>
  <path d="m511.84 131.14-2.275-1.799c-0.675 0.899-1.875 1.499-3.25 1.499-1.975 0-3.425-0.949-3.725-3.297h8.825c0.1-0.424 0.2-1.073 0.2-1.773 0-3.296-2.3-5.669-5.8-5.669-4.125 0-6.475 3.072-6.475 6.793 0 3.671 2.525 6.793 7 6.793 2.375 0 4.325-0.974 5.5-2.547zm-6.1-8.441c1.775 0 2.7 1.273 2.75 2.547h-5.8c0.35-1.648 1.425-2.547 3.05-2.547z"/>
 </g>
</svg>
