<svg xmlns="http://www.w3.org/2000/svg" viewBox="0 0 43 43"><path fill="#FFF" d="M33.5 2.6H33V0h-3v2.6h-7V0h-3v2.6h-7V0h-3v2.6h-.5C4.3 2.6 0 6.8 0 12v21.7C0 38.8 4.3 43 9.5 43h24c5.2 0 9.5-4.2 9.5-9.4V12c0-5.2-4.3-9.4-9.5-9.4zm-24 3h.5v2.3h3V5.6h7v2.3h3V5.6h7v2.3h3V5.6h.5c3.6 0 6.5 2.9 6.5 6.4v3.2H3V12c0-3.5 2.9-6.4 6.5-6.4zm24 34.4h-24C5.9 40 3 37.2 3 33.6V18.2h37v15.5c0 3.5-2.9 6.3-6.5 6.3z"/><path fill="#FFF" d="M21.5 30.6c-2 0-3.8-1.2-4.6-2.9L14.1 29c1.3 2.8 4.2 4.6 7.4 4.6 3.1 0 6-1.8 7.4-4.6l-2.7-1.3c-.9 1.8-2.7 2.9-4.7 2.9z"/></svg>