<?xml version="1.0" encoding="UTF-8" standalone="no"?>
<svg
   viewBox="0 0 174.8 43.1"
   version="1.1"
   id="svg858"
   sodipodi:docname="logo_inclusion_numerique.svg"
   inkscape:version="1.2.1 (9c6d41e410, 2022-07-14)"
   width="174.8"
   height="43.099998"
   xmlns:inkscape="http://www.inkscape.org/namespaces/inkscape"
   xmlns:sodipodi="http://sodipodi.sourceforge.net/DTD/sodipodi-0.dtd"
   xmlns="http://www.w3.org/2000/svg"
   xmlns:svg="http://www.w3.org/2000/svg"
   xmlns:rdf="http://www.w3.org/1999/02/22-rdf-syntax-ns#"
   xmlns:cc="http://creativecommons.org/ns#"
   xmlns:dc="http://purl.org/dc/elements/1.1/">
  <metadata
     id="metadata864">
    <rdf:RDF>
      <cc:Work
         rdf:about="">
        <dc:format>image/svg+xml</dc:format>
        <dc:type
           rdf:resource="http://purl.org/dc/dcmitype/StillImage" />
      </cc:Work>
    </rdf:RDF>
  </metadata>
  <defs
     id="defs862" />
  <sodipodi:namedview
     pagecolor="#ffffff"
     bordercolor="#666666"
     borderopacity="1"
     objecttolerance="10"
     gridtolerance="10"
     guidetolerance="10"
     inkscape:pageopacity="0"
     inkscape:pageshadow="2"
     inkscape:window-width="1500"
     inkscape:window-height="931"
     id="namedview860"
     showgrid="false"
     inkscape:zoom="3.4432718"
     inkscape:cx="78.849425"
     inkscape:cy="69.120306"
     inkscape:window-x="0"
     inkscape:window-y="32"
     inkscape:window-maximized="1"
     inkscape:current-layer="g705"
     inkscape:showpageshadow="2"
     inkscape:pagecheckerboard="0"
     inkscape:deskcolor="#d1d1d1" />
  <g
     id="g705"
     transform="matrix(1.0250759,0,0,1.0250759,-7.9882345,1.1744306)">
    <path
       id="path854-5"
       class="st0"
       d="m 40.474197,1.3826574 h -0.468215 v -2.5283585 h -2.996573 v 2.5283585 h -6.835932 v -2.5283585 h -2.90293 v 2.5283585 h -6.835932 v -2.5283585 h -2.90293 V 1.3826574 H 17.06347 c -5.056717,0 -9.2706475,4.1202879 -9.2706475,9.1770046 v 21.25694 c 0,4.963074 4.2139305,9.083362 9.2706475,9.083362 h 23.50437 c 5.056717,0 9.270648,-4.120288 9.270648,-9.177005 V 10.653305 C 49.744845,5.5029453 45.530914,1.3826574 40.474197,1.3826574 Z m -23.50437,2.9029301 h 0.468215 v 2.2474298 h 2.90293 V 4.2855875 h 6.835932 v 2.2474298 h 2.90293 V 4.2855875 h 6.835932 v 2.2474298 h 2.90293 V 4.2855875 h 0.468215 c 3.55843,0 6.367718,2.8092872 6.367718,6.2740745 v 3.090216 H 10.508467 v -3.090216 c 0.09364,-3.3711444 2.996573,-6.2740745 6.46136,-6.2740745 z m 23.50437,33.7114465 h -23.50437 c -3.55843,0 -6.367717,-2.715644 -6.367717,-6.274075 V 16.646451 h 36.146162 v 15.170151 c 0.09364,3.371145 -2.809288,6.180432 -6.274075,6.180432 z"
       style="fill:#ffffff;stroke-width:0.936429" />
    <path
       id="path856-6"
       class="st0"
       d="m 28.768833,28.726386 c -1.966501,0 -3.745716,-1.217357 -4.494859,-2.809287 L 21.55833,27.2281 c 1.311,2.715644 4.120288,4.494859 7.210503,4.494859 2.996573,0 5.899504,-1.779215 7.210504,-4.494859 l -2.622001,-1.311001 c -0.936429,1.779215 -2.715644,2.809287 -4.588503,2.809287 z"
       style="fill:#ffffff;stroke-width:0.936429" />
    <g
       aria-label="RDV"
       id="text7"
       style="font-weight:bold;font-size:15.9193px;font-family:Lato-Bold;-inkscape-font-specification:'Lato-Bold Bold';fill:#ffffff;stroke-width:0.936429"
       class="st0 st1 st2">
      <path
         d="m 60.818793,5.7056127 h 1.888862 q 2.114282,0 2.114282,-1.6401232 0,-0.893906 -0.443066,-1.2048298 -0.443067,-0.318697 -1.461342,-0.318697 H 60.818793 Z M 58.867746,12.165055 V 0.84742787 h 4.080875 q 0.932772,0 1.609031,0.13991573 0.684032,0.1399157 1.235922,0.4819319 0.55189,0.3342432 0.831721,0.9638639 0.279832,0.6218477 0.279832,1.539073 0,0.9560907 -0.567436,1.6945348 -0.567436,0.730671 -1.710081,0.9871832 1.018275,0.567436 1.500207,1.7722658 l 1.5313,3.7388588 H 65.521516 L 64.223409,8.7993048 Q 63.904712,7.9675836 63.531603,7.6722059 63.158495,7.3768283 62.404504,7.3768283 h -1.562392 v 4.7882267 z"
         style="font-family:Muli;-inkscape-font-specification:'Muli Bold'"
         id="path2563" />
      <path
         d="M 69.656803,12.165055 V 0.84742787 h 3.155877 q 3.396842,0 5.075831,1.44579583 1.678989,1.4380227 1.678989,4.14306 0,2.8060876 -1.647897,4.2674293 -1.640123,1.461342 -4.788227,1.461342 z m 1.974366,-1.694535 h 1.601258 q 2.052097,0 3.148103,-1.0260482 1.096007,-1.0260487 1.096007,-3.0159612 0,-1.8888622 -1.111553,-2.8838185 -1.103779,-1.0027294 -3.373523,-1.0027294 h -1.360292 z"
         style="font-family:Muli;-inkscape-font-specification:'Muli Bold'"
         id="path2565" />
      <path
         d="M 84.829887,12.165055 80.523592,0.84742787 h 2.215332 q 0.171008,0.48193193 1.321426,3.75440523 1.158191,3.2724733 1.795585,4.9747813 0.67626,-1.8577699 3.155877,-8.72918653 h 2.075417 L 86.788707,12.165055 Z"
         style="font-family:Muli;-inkscape-font-specification:'Muli Bold'"
         id="path2567" />
    </g>
    <g
       aria-label="Inclusion"
       id="text9"
       style="font-weight:bold;font-size:13.6282px;font-family:Lato-Bold;-inkscape-font-specification:'Lato-Bold Bold';fill:#ffffff;stroke-width:0.936429"
       class="st0 st1 st3">
      <path
         d="m 58.455561,25.673836 v -9.688798 h 1.690216 v 9.688798 z"
         style="font-family:Muli;-inkscape-font-specification:'Muli Bold'"
         id="path2544" />
      <path
         d="m 62.341727,25.673836 v -4.225541 q 0,-0.725329 -0.03327,-1.370805 -0.03327,-0.652131 -0.06654,-0.938269 l -0.03327,-0.292794 h 1.750106 v 0.911652 q 0.352683,-0.532351 0.93827,-0.805182 0.592241,-0.279484 1.144555,-0.279484 0.592241,0 1.038086,0.159705 0.445844,0.153051 0.785218,0.505734 0.346029,0.346029 0.525698,0.958233 0.179668,0.612204 0.179668,1.48393 v 3.892821 H 66.91995 V 21.66789 q 0,-0.904997 -0.286139,-1.277643 -0.279484,-0.379301 -0.931615,-0.379301 -0.239558,0 -0.525697,0.10647 -0.286139,0.106471 -0.558969,0.299448 -0.266176,0.186323 -0.445844,0.49908 -0.179669,0.306102 -0.179669,0.672094 v 4.085798 z"
         style="font-family:Muli;-inkscape-font-specification:'Muli Bold'"
         id="path2546" />
      <path
         d="m 73.720741,25.826887 q -0.831799,0 -1.523856,-0.292794 -0.685403,-0.292793 -1.124593,-0.791872 -0.43919,-0.49908 -0.678748,-1.137902 -0.239558,-0.645476 -0.239558,-1.350842 0,-1.011468 0.412572,-1.81665 0.419227,-0.811836 1.231063,-1.284298 0.818491,-0.479116 1.903157,-0.479116 1.610364,0 2.475435,0.918306 l -0.592241,1.064703 q -0.738638,-0.65213 -1.71018,-0.65213 -0.971541,0 -1.490584,0.612204 -0.519043,0.612204 -0.519043,1.643635 0,1.004814 0.552315,1.623673 0.552315,0.612204 1.510547,0.612204 0.133088,0 0.266176,-0.01331 0.133088,-0.01331 0.239558,-0.03327 0.106471,-0.01996 0.219595,-0.05324 0.11978,-0.03993 0.199632,-0.06654 0.07985,-0.03327 0.179669,-0.08651 0.09982,-0.05324 0.153051,-0.07985 0.05989,-0.03327 0.146397,-0.09316 0.08651,-0.05989 0.113124,-0.07985 0.03327,-0.01996 0.106471,-0.0732 0.07985,-0.05989 0.08651,-0.06654 l 0.499079,1.211099 q -0.572278,0.399264 -1.144555,0.585587 -0.572278,0.179669 -1.27099,0.179669 z"
         style="font-family:Muli;-inkscape-font-specification:'Muli Bold'"
         id="path2548" />
      <path
         d="m 77.507092,25.673836 v -9.695453 h 1.630327 v 9.695453 z"
         style="font-family:Muli;-inkscape-font-specification:'Muli Bold'"
         id="path2550" />
      <path
         d="m 83.549282,25.826887 q -1.237717,0 -1.929774,-0.705366 -0.692057,-0.71202 -0.692057,-1.949738 v -4.325356 h 1.636981 v 4.298739 q 0,0.678748 0.352683,1.018122 0.352683,0.33272 0.971542,0.33272 0.738637,0 1.09132,-0.365992 0.359338,-0.372646 0.359338,-1.191136 v -4.092453 h 1.650289 v 4.990796 l 0.07985,1.836613 h -1.703525 l -0.02662,-1.011468 q -0.03327,0.146396 -0.153052,0.326065 -0.113124,0.173014 -0.31941,0.372646 -0.199632,0.199632 -0.552315,0.33272 -0.346029,0.133088 -0.765256,0.133088 z"
         style="font-family:Muli;-inkscape-font-specification:'Muli Bold'"
         id="path2552" />
      <path
         d="m 91.507937,25.826887 q -0.898343,0 -1.65029,-0.252867 -0.751946,-0.252867 -1.197791,-0.60555 l 0.412573,-1.184482 q 0.419227,0.326065 1.058049,0.539006 0.638821,0.206286 1.231063,0.206286 0.552314,0 0.831799,-0.186323 0.286139,-0.186323 0.286139,-0.60555 v -0.119779 q 0,-0.212941 -0.16636,-0.359337 -0.16636,-0.153051 -0.765255,-0.346029 l -0.971542,-0.312756 q -0.372646,-0.11978 -0.618859,-0.219595 -0.246212,-0.106471 -0.505734,-0.266176 -0.252867,-0.159706 -0.399263,-0.346029 -0.139743,-0.192977 -0.232904,-0.465807 -0.08651,-0.279485 -0.08651,-0.638822 0,-0.519043 0.199632,-0.911652 0.206286,-0.392609 0.565623,-0.618859 0.359337,-0.226249 0.798527,-0.33272 0.43919,-0.113124 0.964888,-0.113124 0.65213,0 1.304261,0.16636 0.652131,0.166359 1.144556,0.492425 l -0.425881,1.131247 q -0.399264,-0.212941 -0.93827,-0.359338 -0.532352,-0.146396 -0.964887,-0.146396 -0.565624,0 -0.818491,0.139742 -0.252867,0.139742 -0.252867,0.459153 0,0.212941 0.07985,0.33272 0.07985,0.119779 0.33272,0.246213 0.252867,0.126433 0.811836,0.312756 l 0.885034,0.299448 q 0.532352,0.179669 0.851763,0.392609 0.326065,0.212941 0.519042,0.60555 0.199632,0.392609 0.199632,0.98485 0,0.452499 -0.153051,0.818491 -0.146396,0.365992 -0.392609,0.598895 -0.239558,0.232904 -0.572278,0.385955 -0.326065,0.153051 -0.665439,0.212941 -0.339374,0.06654 -0.698712,0.06654 z"
         style="font-family:Muli;-inkscape-font-specification:'Muli Bold'"
         id="path2554" />
      <path
         d="m 95.473958,17.435696 v -1.450658 h 1.597054 v 1.450658 z m 0.0067,8.23814 v -6.827409 h 1.5904 v 6.827409 z"
         style="font-family:Muli;-inkscape-font-specification:'Muli Bold'"
         id="path2556" />
      <path
         d="m 102.32798,25.826887 q -0.89169,0 -1.5904,-0.286139 -0.69871,-0.292793 -1.131246,-0.785219 -0.425881,-0.499079 -0.65213,-1.131247 -0.219595,-0.638822 -0.219595,-1.364151 0,-0.738637 0.226249,-1.377459 0.226249,-0.645476 0.658785,-1.137902 0.439187,-0.499079 1.131247,-0.785218 0.69871,-0.286139 1.57044,-0.286139 0.89169,0 1.58374,0.286139 0.69206,0.279484 1.11129,0.778564 0.41922,0.492425 0.62551,1.137901 0.21294,0.638822 0.21294,1.397423 0,0.71202 -0.21959,1.344188 -0.2196,0.625513 -0.64548,1.124593 -0.41923,0.499079 -1.11128,0.791872 -0.68541,0.292794 -1.55048,0.292794 z m -0.0333,-1.330879 q 0.48577,0 0.85176,-0.179669 0.36599,-0.186323 0.57228,-0.505734 0.21294,-0.326065 0.31276,-0.718674 0.10647,-0.39261 0.10647,-0.851763 0,-0.978196 -0.46581,-1.603709 -0.45915,-0.625513 -1.37081,-0.625513 -0.61885,0 -1.04474,0.312757 -0.42588,0.306102 -0.61885,0.798527 -0.18633,0.492425 -0.18633,1.117938 0,0.618859 0.17302,1.111284 0.17967,0.492425 0.60555,0.818491 0.43253,0.326065 1.0647,0.326065 z"
         style="font-family:Muli;-inkscape-font-specification:'Muli Bold'"
         id="path2558" />
      <path
         d="m 107.62488,25.673836 v -4.225541 q 0,-0.725329 -0.0333,-1.370805 -0.0333,-0.652131 -0.0666,-0.938269 l -0.0333,-0.292794 h 1.75011 v 0.911652 q 0.35268,-0.532351 0.93827,-0.805182 0.59224,-0.279484 1.14455,-0.279484 0.59224,0 1.03809,0.159705 0.44584,0.153051 0.78522,0.505734 0.34603,0.346029 0.5257,0.958233 0.17966,0.612204 0.17966,1.48393 v 3.892821 H 112.2031 V 21.66789 q 0,-0.904997 -0.28614,-1.277643 -0.27948,-0.379301 -0.93161,-0.379301 -0.23956,0 -0.5257,0.10647 -0.28614,0.106471 -0.55897,0.299448 -0.26617,0.186323 -0.44584,0.49908 -0.17967,0.306102 -0.17967,0.672094 v 4.085798 z"
         style="font-family:Muli;-inkscape-font-specification:'Muli Bold'"
         id="path2560" />
    </g>
    <g
       aria-label="Numérique"
       id="text11"
       style="font-weight:bold;font-size:13.6282px;font-family:Lato-Bold;-inkscape-font-specification:'Lato-Bold Bold';fill:#ffffff;stroke-width:0.936429"
       class="st0 st1 st3">
      <path
         d="m 58.655193,39.227482 v -9.688798 h 1.790032 q 4.618149,6.69432 4.917597,7.13351 v -7.13351 h 1.610364 v 9.688798 H 65.176499 Q 60.7114,32.779374 60.218975,32.080662 v 7.14682 z"
         style="font-family:Muli;-inkscape-font-specification:'Muli Bold'"
         id="path2525" />
      <path
         d="m 71.724423,39.380533 q -1.237718,0 -1.929775,-0.705366 -0.692057,-0.71202 -0.692057,-1.949737 v -4.325357 h 1.636981 v 4.298739 q 0,0.678748 0.352683,1.018122 0.352683,0.33272 0.971542,0.33272 0.738638,0 1.091321,-0.365992 0.359337,-0.372646 0.359337,-1.191136 v -4.092453 h 1.65029 v 4.990796 l 0.07985,1.836613 h -1.703525 l -0.02662,-1.011468 q -0.03327,0.146397 -0.153051,0.326065 -0.113125,0.173014 -0.319411,0.372646 -0.199632,0.199632 -0.552315,0.33272 -0.346028,0.133088 -0.765255,0.133088 z"
         style="font-family:Muli;-inkscape-font-specification:'Muli Bold'"
         id="path2527" />
      <path
         d="m 77.194334,39.227482 v -4.631459 q 0,-0.705365 -0.06654,-1.450658 l -0.05989,-0.745292 h 1.736797 v 0.891689 q 0.252867,-0.465807 0.771909,-0.765255 0.525697,-0.299448 1.137902,-0.299448 0.658785,0 1.204445,0.319411 0.54566,0.319411 0.838454,0.944924 0.87838,-1.264335 2.215913,-1.264335 1.251026,0 1.876539,0.751947 0.632168,0.751946 0.632168,2.062862 v 4.185614 h -1.65029 v -4.085798 q 0,-0.27283 -0.04658,-0.525697 -0.04658,-0.252867 -0.153051,-0.49908 -0.09982,-0.252867 -0.306102,-0.399264 -0.199632,-0.153051 -0.479116,-0.153051 -0.731984,0 -1.204446,0.558969 -0.472462,0.55897 -0.472462,1.237718 v 3.866203 h -1.65029 v -4.172305 q 0,-0.199632 -0.02662,-0.379301 -0.01996,-0.186323 -0.08651,-0.392609 -0.06654,-0.212941 -0.179669,-0.365992 -0.10647,-0.153051 -0.306102,-0.252867 -0.192977,-0.09982 -0.445844,-0.09982 -0.698712,0 -1.164519,0.459153 -0.465808,0.452499 -0.465808,1.058049 v 4.145688 z"
         style="font-family:Muli;-inkscape-font-specification:'Muli Bold'"
         id="path2529" />
      <path
         d="m 90.849153,34.995287 h 3.393741 q -0.119779,-0.725329 -0.539006,-1.111284 -0.419227,-0.385955 -1.024777,-0.385955 -0.71202,0 -1.191137,0.399264 -0.479116,0.399264 -0.638821,1.097975 z m 1.949737,4.385246 q -1.723488,0 -2.721647,-0.98485 -0.991505,-0.984851 -0.991505,-2.575251 0,-0.718675 0.239558,-1.364151 0.239559,-0.645476 0.672094,-1.144556 0.43919,-0.499079 1.10463,-0.791873 0.672093,-0.292793 1.48393,-0.292793 0.811836,0 1.417386,0.279485 0.605549,0.279484 0.958232,0.785218 0.352683,0.49908 0.519043,1.124593 0.173014,0.625513 0.173014,1.384114 0,0.192977 -0.03327,0.292793 h -4.791164 q 0.03993,0.998159 0.60555,1.477276 0.572278,0.479116 1.517202,0.479116 1.10463,0 2.156024,-0.731983 l 0.445844,1.197791 q -0.645476,0.445844 -1.304261,0.658785 -0.652131,0.206286 -1.450658,0.206286 z m -0.652131,-7.912075 1.756761,-1.929774 h 2.116097 l -2.355656,1.929774 z"
         style="font-family:Muli;-inkscape-font-specification:'Muli Bold'"
         id="path2531" />
      <path
         d="m 97.470273,39.227482 v -5.097266 q 0,-0.399264 -0.03327,-0.8318 -0.03327,-0.432535 -0.06654,-0.665439 l -0.03327,-0.232904 h 1.756761 v 0.898343 q 0.405918,-0.532351 0.805181,-0.798527 0.405923,-0.27283 0.911653,-0.27283 0.29945,0 0.67875,0.09982 v 1.444003 q -0.44585,-0.146396 -0.82515,-0.146396 -0.6854,0 -1.117936,0.445844 -0.432535,0.445845 -0.432535,1.290953 v 3.866203 z"
         style="font-family:Muli;-inkscape-font-specification:'Muli Bold'"
         id="path2533" />
      <path
         d="m 102.52762,30.989342 v -1.450658 h 1.59705 v 1.450658 z m 0.007,8.23814 v -6.827409 h 1.5904 v 6.827409 z"
         style="font-family:Muli;-inkscape-font-specification:'Muli Bold'"
         id="path2535" />
      <path
         d="m 109.20863,38.049654 q 0.59889,0 0.99816,-0.319411 0.39926,-0.326065 0.56562,-0.805182 0.16636,-0.48577 0.16636,-1.097975 0,-0.991504 -0.43919,-1.623672 -0.43919,-0.638822 -1.30426,-0.638822 -0.57893,0 -0.9782,0.312757 -0.39261,0.312756 -0.56562,0.798527 -0.16636,0.485771 -0.16636,1.117938 0,0.459154 0.0932,0.851763 0.0998,0.392609 0.2928,0.718674 0.19963,0.319411 0.539,0.505734 0.34603,0.179669 0.79853,0.179669 z m 1.63698,3.806314 v -3.174146 q -0.87838,0.698711 -1.86989,0.698711 -0.63882,0 -1.17117,-0.199632 -0.53235,-0.206286 -0.905,-0.552315 -0.37264,-0.352683 -0.63216,-0.825145 -0.25953,-0.472462 -0.3793,-0.998159 -0.11978,-0.525697 -0.11978,-1.09132 0,-0.692057 0.21294,-1.31757 0.21294,-0.625514 0.60555,-1.111284 0.39926,-0.485771 1.01812,-0.77191 0.61886,-0.286139 1.38411,-0.286139 0.47912,0 0.9782,0.226249 0.49908,0.22625 0.89169,0.678749 v -0.731984 h 1.68356 q -0.0665,0.898343 -0.0665,1.969701 v 7.486194 z"
         style="font-family:Muli;-inkscape-font-specification:'Muli Bold'"
         id="path2537" />
      <path
         d="m 116.87449,39.380533 q -1.23772,0 -1.92977,-0.705366 -0.69206,-0.71202 -0.69206,-1.949737 v -4.325357 h 1.63698 v 4.298739 q 0,0.678748 0.35268,1.018122 0.35269,0.33272 0.97155,0.33272 0.73863,0 1.09132,-0.365992 0.35933,-0.372646 0.35933,-1.191136 v -4.092453 h 1.65029 v 4.990796 l 0.0799,1.836613 h -1.70353 l -0.0266,-1.011468 q -0.0333,0.146397 -0.15305,0.326065 -0.11312,0.173014 -0.31941,0.372646 -0.19963,0.199632 -0.55231,0.33272 -0.34603,0.133088 -0.76526,0.133088 z"
         style="font-family:Muli;-inkscape-font-specification:'Muli Bold'"
         id="path2539" />
      <path
         d="m 123.76179,34.995287 h 3.39374 q -0.11978,-0.725329 -0.53901,-1.111284 -0.41923,-0.385955 -1.02478,-0.385955 -0.71202,0 -1.19113,0.399264 -0.47912,0.399264 -0.63882,1.097975 z m 1.94973,4.385246 q -1.72348,0 -2.72164,-0.98485 -0.99151,-0.984851 -0.99151,-2.575251 0,-0.718675 0.23956,-1.364151 0.23956,-0.645476 0.67209,-1.144556 0.43919,-0.499079 1.10463,-0.791873 0.6721,-0.292793 1.48393,-0.292793 0.81184,0 1.41739,0.279485 0.60555,0.279484 0.95823,0.785218 0.35269,0.49908 0.51904,1.124593 0.17302,0.625513 0.17302,1.384114 0,0.192977 -0.0333,0.292793 h -4.79117 q 0.0399,0.998159 0.60555,1.477276 0.57228,0.479116 1.51721,0.479116 1.10462,0 2.15602,-0.731983 l 0.44584,1.197791 q -0.64547,0.445844 -1.30426,0.658785 -0.65213,0.206286 -1.45066,0.206286 z"
         style="font-family:Muli;-inkscape-font-specification:'Muli Bold'"
         id="path2541" />
    </g>
  </g>
</svg>
