<svg xmlns="http://www.w3.org/2000/svg" id="Calque_1" viewBox="70.93 59.17 1204.79 365"><defs><style>.cls-1{fill:#ec4c4c;}.cls-2{fill:#083b66;}</style></defs><path d="m511.13,339.08h3.54v-17.82h6.86c7.36,0,11.9-4.15,11.9-10.4s-4.54-10.51-11.9-10.51h-10.4v38.73Zm10.46-35.63c5.09,0,8.13,2.77,8.13,7.3s-3.04,7.41-8.13,7.41h-6.92v-14.72h6.92Zm19.29,35.63h3.26v-41.5h-3.26v41.5Zm21.57.77c3.87,0,7.64-1.66,10.01-4.81v4.04h3.21v-19.09c0-6.14-4.2-9.9-10.62-9.9-4.81,0-8.63,2.05-11.01,5.31l2.49,1.94c1.88-2.66,4.81-4.26,8.41-4.26,4.37,0,7.52,2.43,7.52,6.92v2.6l-9.96,1.66c-5.86,1-9.07,3.87-9.07,8.08,0,4.59,3.6,7.52,9.02,7.52Zm-5.7-7.58c0-2.77,2.05-4.81,6.47-5.59l9.24-1.55v6.36c-2.1,3.6-5.59,5.53-9.63,5.53-3.76,0-6.09-2.05-6.09-4.76Zm30.79-1.99c0,6.81,3.65,9.35,9.35,9.35,1.77,0,3.15-.22,4.43-.66v-2.99c-1.11.39-2.32.61-4.09.61-3.76,0-6.36-1.22-6.36-6.31v-16.16h10.46v-2.93h-10.46v-6.97h-3.32v6.97h-5.26v2.93h5.26v16.16Zm45.16,4.2l-2.49-1.99c-2.05,2.88-5.31,4.7-9.24,4.7-6.86,0-11.67-5.15-11.67-12.23v-.66h22.52c.17-.66.22-1.49.22-2.32,0-6.58-4.76-11.9-12.23-11.9-8.35,0-13.89,6.42-13.89,15.05,0,8.13,5.92,15.05,15.05,15.05,5.09,0,9.18-2.21,11.73-5.7Zm-12.95-21.52c5.42,0,8.8,3.87,8.96,8.74h-19.09c1.05-5.48,4.92-8.74,10.12-8.74Zm17.21-1.77v2.93h5.26v24.95h3.32v-24.95h10.46v-2.93h-10.46v-3.76c0-4.37,2.49-6.86,6.09-6.86,1.77,0,3.15.5,4.37,1.38l1.44-2.77c-1.33-.83-3.37-1.6-5.92-1.6-5.53,0-9.3,3.93-9.3,9.9v3.71h-5.26Zm35.77-1.11c-8.91,0-14.94,7.08-14.94,15.05s6.03,15.05,14.94,15.05,14.99-7.08,14.99-15.05-6.03-15.05-14.99-15.05Zm.06,27c-6.81,0-11.62-5.59-11.62-11.95s4.81-11.95,11.62-11.95,11.45,5.53,11.45,11.95-4.87,11.95-11.45,11.95Zm23.21,1.99h3.26v-19.97c2.1-3.49,4.59-5.37,8.41-5.37,1,0,1.72.17,2.55.39v-3.15c-.72-.22-1.55-.33-2.32-.33-3.76,0-6.36,1.66-8.63,4.54v-3.98h-3.26v27.89Zm21.61,0h3.26v-20.03c1.88-3.54,4.76-5.86,8.96-5.86,4.54,0,7.58,2.93,7.58,8.35v17.54h3.26v-17.65c0-.77-.06-1.55-.17-2.27,2.32-4.04,5.2-5.98,9.07-5.98,4.54,0,7.64,2.93,7.64,8.35v17.54h3.21v-17.65c0-7.36-4.32-11.34-10.4-11.34-4.81,0-7.97,2.32-10.35,5.98-1.6-3.93-5.09-5.98-9.41-5.98s-7.14,1.88-9.41,4.81v-3.71h-3.26v27.89Zm77.34-4.59l-2.49-1.99c-2.05,2.88-5.31,4.7-9.24,4.7-6.86,0-11.67-5.15-11.67-12.23v-.66h22.52c.17-.66.22-1.49.22-2.32,0-6.58-4.76-11.9-12.23-11.9-8.35,0-13.89,6.42-13.89,15.05,0,8.13,5.92,15.05,15.05,15.05,5.09,0,9.18-2.21,11.73-5.7Zm-12.95-21.52c5.42,0,8.8,3.87,8.96,8.74h-19.09c1.05-5.48,4.92-8.74,10.12-8.74Zm33.34,12.17c0,8.13,5.7,15.05,14.39,15.05,4.37,0,8.08-1.83,10.68-5.09v3.98h3.26v-41.5h-3.26v17.59c-2.6-3.26-6.31-5.09-10.68-5.09-8.69,0-14.39,6.92-14.39,15.05Zm3.43,0c0-6.58,4.65-11.95,11.23-11.95,4.26,0,8.08,1.99,10.4,5.81v12.28c-2.27,3.76-6.09,5.81-10.4,5.81-6.58,0-11.23-5.37-11.23-11.95Zm59.93,9.35l-2.49-1.99c-2.05,2.88-5.31,4.7-9.24,4.7-6.86,0-11.67-5.15-11.67-12.23v-.66h22.52c.17-.66.22-1.49.22-2.32,0-6.58-4.76-11.9-12.23-11.9-8.35,0-13.89,6.42-13.89,15.05,0,8.13,5.92,15.05,15.05,15.05,5.09,0,9.18-2.21,11.73-5.7Zm-12.95-21.52c5.42,0,8.8,3.87,8.96,8.74h-19.09c1.05-5.48,4.92-8.74,10.12-8.74Zm35.94,26.11h3.26v-41.5h-3.26v41.5Zm15.2-24.57l5.26-14.16h-3.76l-4.48,14.16h2.99Zm15.8-12.12c1.38,0,2.49-1.05,2.49-2.49,0-1.33-1.11-2.43-2.49-2.43s-2.55,1.11-2.55,2.43c0,1.44,1.16,2.49,2.55,2.49Zm-1.66,36.68h3.26v-27.89h-3.26v27.89Zm14.21,0h3.26v-20.03c2.16-3.6,5.09-5.86,9.52-5.86,4.87,0,8.13,3.15,8.13,8.91v16.99h3.26v-17.1c0-7.69-4.59-11.9-10.95-11.9-4.37,0-7.52,1.88-9.96,4.92v-3.82h-3.26v27.89Zm46.97-1.99c-6.86,0-11.67-5.37-11.67-11.95s4.81-11.95,11.62-11.95c3.87,0,7.08,1.83,9.07,4.65l2.6-2.05c-2.55-3.43-6.64-5.7-11.67-5.7-9.02,0-14.99,6.92-14.99,15.05s5.98,15.05,14.99,15.05c5.03,0,9.13-2.27,11.67-5.7l-2.6-2.05c-1.99,2.82-5.15,4.65-9.02,4.65Zm18.95,1.99h3.26v-41.5h-3.26v41.5Zm34.24-11.84c0,6.31-3.54,9.85-8.69,9.85s-8.74-3.54-8.74-9.85v-16.04h-3.26v15.99c0,8.3,4.81,13,12.01,13s11.9-4.7,11.9-13v-15.99h-3.21v16.04Zm10.15,8.19c2.43,3.1,5.86,4.76,10.01,4.76,5.09,0,8.91-3.32,8.91-8.13,0-9.41-14.33-7.19-14.33-14.44,0-2.55,1.94-4.7,5.42-4.7,2.55,0,4.81,1.27,6.36,3.6l2.43-1.94c-1.94-2.66-5.09-4.48-8.85-4.48-5.15,0-8.58,3.49-8.58,7.52,0,9.85,14.33,7.47,14.33,14.55,0,2.88-2.1,5.2-5.75,5.2-2.99,0-5.42-1.27-7.52-3.93l-2.43,1.99Zm29.02-33.03c1.38,0,2.49-1.05,2.49-2.49,0-1.33-1.11-2.43-2.49-2.43s-2.54,1.11-2.54,2.43c0,1.44,1.16,2.49,2.54,2.49Zm-1.66,36.68h3.26v-27.89h-3.26v27.89Zm26.55-28.99c-8.91,0-14.94,7.08-14.94,15.05s6.03,15.05,14.94,15.05,14.99-7.08,14.99-15.05-6.03-15.05-14.99-15.05Zm.06,27c-6.81,0-11.62-5.59-11.62-11.95s4.81-11.95,11.62-11.95,11.45,5.53,11.45,11.95-4.87,11.95-11.45,11.95Zm23.21,1.99h3.26v-20.03c2.16-3.6,5.09-5.86,9.52-5.86,4.87,0,8.13,3.15,8.13,8.91v16.99h3.26v-17.1c0-7.69-4.59-11.9-10.95-11.9-4.37,0-7.52,1.88-9.96,4.92v-3.82h-3.26v27.89Z"/><g><path d="m511.13,171.22h16.02v6.31c4.16-4.29,9.59-7.57,16.78-7.57,2.14,0,4.04.38,5.55.88v15.77c-2.02-.5-4.16-.88-7.06-.88-7.82,0-12.87,4.29-15.26,8.32v40.74h-16.02v-63.57Z"/><path d="m587.44,168.7c8.58,0,14.76,2.65,19.68,7.57v-36.07h16.14v94.6h-16.14v-5.04c-4.92,4.92-11.1,7.57-19.68,7.57-20.05,0-32.29-15.77-32.29-34.31s12.23-34.31,32.29-34.31Zm2.27,53.48c7.19,0,13.12-3.03,17.41-8.83v-20.69c-4.29-5.8-10.22-8.83-17.41-8.83-10.85,0-17.78,8.07-17.78,19.17s6.94,19.17,17.78,19.17Z"/><path d="m650.5,171.22l16.52,45.41,16.4-45.41h17.28l-23.21,63.57h-21.06l-23.08-63.57h17.15Z"/><path d="m736.52,194.81v15.51h-34.05v-15.51h34.05Z"/><path d="m746.24,149.66c0-5.68,4.79-10.47,10.47-10.47s10.34,4.79,10.34,10.47-4.67,10.47-10.34,10.47-10.47-4.79-10.47-10.47Zm2.4,21.57h16.02v63.57h-16.02v-63.57Z"/><path d="m783.82,171.22h16.02v5.05c4.41-4.29,10.34-7.57,18.79-7.57,13.75,0,24.72,9.46,24.72,28.25v37.84h-16.14v-37.21c0-8.45-4.79-13.75-12.61-13.75s-12.36,5.42-14.76,9.46v41.5h-16.02v-63.57Z"/><path d="m866.56,216c3.91,4.92,8.58,8.45,14.63,8.45,5.17,0,7.82-3.03,7.82-6.81,0-11.1-30.4-6.94-30.4-29.26,0-11.23,9.46-19.68,22.7-19.68,9.71,0,18.54,4.67,23.08,10.85l-10.59,9.33c-3.28-4.04-7.44-7.32-12.36-7.32s-7.44,2.77-7.44,6.05c0,10.85,30.4,7.06,30.4,29.01-.25,13.37-10.97,20.69-22.96,20.69-11.35,0-19.42-4.54-25.48-11.73l10.6-9.59Z"/><path d="m949.68,237.32c-22.58,0-35.32-15.77-35.32-34.31s11.86-34.31,32.67-34.31c17.66,0,29.26,11.98,29.26,28.63,0,3.53-.5,6.81-1.01,8.96h-44.52c1.51,11.86,8.83,16.65,18.79,16.65,6.94,0,12.99-3.03,16.4-7.57l11.48,9.08c-5.93,7.95-15.77,12.87-27.75,12.87Zm-18.41-42.63h29.26c-.25-6.43-4.92-12.87-13.88-12.87-8.2,0-13.62,4.54-15.39,12.87Z"/><path d="m991.93,171.22h16.02v6.31c4.16-4.29,9.59-7.57,16.77-7.57,2.14,0,4.04.38,5.55.88v15.77c-2.02-.5-4.16-.88-7.06-.88-7.82,0-12.87,4.29-15.26,8.32v40.74h-16.02v-63.57Z"/><path d="m1051.34,185.6h-11.86v-14.38h11.86v-15.89h16.14v15.89h19.42v14.38h-19.42v25.98c0,7.06,3.78,9.84,10.09,9.84,4.41,0,7.31-.5,9.46-1.39v14c-3.15,1.39-6.94,2.02-12.23,2.02-15.89,0-23.46-8.96-23.46-24.47v-25.98Z"/><path d="m1098.89,149.66c0-5.68,4.79-10.47,10.47-10.47s10.34,4.79,10.34,10.47-4.67,10.47-10.34,10.47-10.47-4.79-10.47-10.47Zm2.4,21.57h16.02v63.57h-16.02v-63.57Z"/><path d="m1201.56,203.01c0,19.05-14.12,34.31-34.81,34.31s-34.81-15.26-34.81-34.31,14.13-34.31,34.81-34.31,34.81,15.26,34.81,34.31Zm-16.65,0c0-11.1-7.69-19.17-17.91-19.17s-18.41,8.07-18.41,19.17,7.82,19.17,18.41,19.17,17.91-8.2,17.91-19.17Z"/><path d="m1216.19,171.22h16.02v5.05c4.41-4.29,10.34-7.57,18.79-7.57,13.75,0,24.72,9.46,24.72,28.25v37.84h-16.14v-37.21c0-8.45-4.79-13.75-12.61-13.75s-12.36,5.42-14.76,9.46v41.5h-16.02v-63.57Z"/></g><g><path class="cls-2" d="m193.97,411.39l8.03-1.97s19.16-7.69,24.54-36.71c5.38-29.01,30.53-48.56,58.66-40.27,20.24-2.88,5.42-33.97-25.66-25.54-25.68,6.97-38.64,12.96-48.7,10.08-3.31-.96-5.81-3.67-6.51-7.04-8.38-40.7-25.17-121.96-27.17-128.96-2.4-8.36-7.93-10.8-13.92-9.63-7.03.89-7.48,8.19-7.63,12.91,0,6.06,4.09,54.18,6.28,79.47-1.92-7.97-6.39-15.89-16.6-15.01-10.48.88-12.35,13.81-12.11,24.25-2.12-8.22-7.44-16.49-20.66-12.49-4.64,1.39-6.78,8.15-7.51,16.76l-.32-.47-27.04-41.23c-12.42-18.95-7.14-44.37,11.81-56.8l173.01-113.46c15.43-10.13,35.59-7.31,47.73,5.79l-4.88,1.2s-19.21,7.72-24.61,36.87c-5.39,29.13-30.6,48.76-58.79,40.43-20.29,2.9-5.44,34.12,25.71,25.66,25.76-7.01,38.75-13.03,48.85-10.11,3.3.95,5.8,3.66,6.5,7.04,8.39,40.86,25.23,122.49,27.23,129.51,2.41,8.41,7.95,10.86,13.96,9.67,7.05-.9,7.5-8.22,7.64-12.97,0-6.08-4.1-54.4-6.29-79.8,1.93,8.01,6.4,15.95,16.64,15.08,10.51-.89,12.38-13.87,12.14-24.36,2.12,8.25,7.46,16.56,20.72,12.55,3.71-1.12,5.82-5.67,6.9-11.85l.41.63,6.22,9.48h0s18.96,28.91,18.96,28.91c12.43,18.94,7.14,44.37-11.81,56.8l-170.39,111.74c-15.87,10.41-36.36,8.19-49.65-4.19-.66-.61-1.3-1.25-1.92-1.91l.23-.06Z"/><g><path class="cls-1" d="m252.32,238.69l-39.04-30.36h81.08l-39.04,30.36c-.88.69-2.12.69-3,0Z"/><path class="cls-1" d="m299.97,213.46v49.94c0,6.4-5.19,11.59-11.59,11.59h-69.13c-6.4,0-11.59-5.19-11.59-11.59v-49.94c0-.24.02-.48.05-.72l42.13,32.77c2.33,1.81,5.6,1.81,7.93,0l42.13-32.77c.04.24.05.48.05.73Z"/></g></g></svg>