<?xml version="1.0" encoding="UTF-8" standalone="no"?>
<svg
        viewBox="0 0 154.85983 43.1"
        version="1.1"
        id="svg858"
        sodipodi:docname="logo_sombre_mairie.svg"
        inkscape:version="1.2.2 (b0a8486541, 2022-12-01)"
        width="154.85983"
        height="43.099998"
        inkscape:export-filename="../../../../public/logo_mairie.png"
        inkscape:export-xdpi="634.7934"
        inkscape:export-ydpi="634.7934"
        xmlns:inkscape="http://www.inkscape.org/namespaces/inkscape"
        xmlns:sodipodi="http://sodipodi.sourceforge.net/DTD/sodipodi-0.dtd"
        xmlns="http://www.w3.org/2000/svg"
        xmlns:svg="http://www.w3.org/2000/svg"
        xmlns:rdf="http://www.w3.org/1999/02/22-rdf-syntax-ns#"
        xmlns:cc="http://creativecommons.org/ns#"
        xmlns:dc="http://purl.org/dc/elements/1.1/">
  <metadata
          id="metadata864">
    <rdf:RDF>
      <cc:Work
              rdf:about="">
        <dc:format>image/svg+xml</dc:format>
        <dc:type
                rdf:resource="http://purl.org/dc/dcmitype/StillImage"/>
      </cc:Work>
    </rdf:RDF>
  </metadata>
  <defs
          id="defs862"/>
  <sodipodi:namedview
          pagecolor="#ffffff"
          bordercolor="#666666"
          borderopacity="1"
          objecttolerance="10"
          gridtolerance="10"
          guidetolerance="10"
          inkscape:pageopacity="0"
          inkscape:pageshadow="2"
          inkscape:window-width="1500"
          inkscape:window-height="931"
          id="namedview860"
          showgrid="false"
          inkscape:zoom="4.8021521"
          inkscape:cx="48.624032"
          inkscape:cy="51.018792"
          inkscape:window-x="0"
          inkscape:window-y="32"
          inkscape:window-maximized="1"
          inkscape:current-layer="g705"
          inkscape:showpageshadow="2"
          inkscape:pagecheckerboard="0"
          inkscape:deskcolor="#d1d1d1"/>
  <g
          id="g705"
          transform="matrix(1.0250759,0,0,1.0250759,-7.9882345,1.1744306)">
    <g
            id="g767"
            transform="matrix(0.80593465,0,0,0.80593465,-5.0820173,3.0446544)">
      <path
              d="m 55.937314,-2.0430839 h -0.595609 v -3.15629 h -3.577997 v 3.15629 H 43.41215 v -3.15629 h -3.577997 v 3.15629 h -8.351559 v -3.15629 h -3.577997 v 3.15629 h -0.595608 c -6.20389,0 -11.333947,5.09528 -11.333947,11.40351 V 35.688926 c 0,6.18649 5.130057,11.28177 11.333947,11.28177 h 28.628325 c 6.203892,0 11.333942,-5.09528 11.333942,-11.4035 V 9.3604261 c 0,-6.30823 -5.13005,-11.40351 -11.333942,-11.40351 z m -28.628325,3.63887 h 0.595608 v 2.79109 h 3.577997 v -2.79109 h 8.351559 v 2.79109 h 3.577997 v -2.79109 h 8.351558 v 2.79109 h 3.577997 v -2.79109 h 0.595609 c 4.295335,0 7.755952,3.51713 7.755952,7.76464 V 13.242746 H 19.553039 V 9.3604261 c 0,-4.24751 3.460614,-7.76464 7.75595,-7.76464 z M 55.937314,43.331836 H 27.308989 c -4.295336,0 -7.75595,-3.3954 -7.75595,-7.76464 v -18.68559 h 44.135877 v 18.80732 c 0,4.24751 -3.460614,7.64291 -7.75595,7.64291 z"
              fill="#2f4077"
              id="path78"
              style="stroke-width:0.434751"/>
      <path
              d="m 41.607979,32.984816 c -2.660674,0 -5.051802,-1.62162 -6.116941,-3.92145 l -3.725812,1.75639 c 1.730307,3.78668 5.586544,6.22128 9.842753,6.22128 4.256208,0 7.977672,-2.4346 9.842752,-6.22128 l -3.591039,-1.75639 c -1.195564,2.4346 -3.59104,3.92145 -6.251713,3.92145 z"
              fill="#2f4077"
              id="path80"
              style="stroke-width:0.434751"/>
      <path
              d="m 86.604616,21.020486 h -2.81718 c -0.52605,0 -0.90863,-0.20434 -1.1434,-0.61735 l -2.86935,-4.72574 c -0.11738,-0.18259 -0.24781,-0.31737 -0.39127,-0.40432 -0.14347,-0.087 -0.35215,-0.12607 -0.63039,-0.12607 h -1.06079 v 5.86913 h -3.12151 V 5.6129161 h 4.74313 c 1.05209,0 1.95637,0.11304 2.70414,0.33476 0.74777,0.22173 1.36077,0.53475 1.84335,0.93037 0.47822,0.39562 0.83037,0.8695 1.05209,1.41729 0.22173,0.54778 0.33476,1.15208 0.33476,1.8085599 0,0.50866 -0.0696,0.99123 -0.21303,1.44772 -0.14346,0.45648 -0.3478,0.87385 -0.61734,1.24773 -0.26955,0.37389 -0.60431,0.70864 -0.99993,0.99993 -0.39562,0.29128 -0.84776,0.5217 -1.35207,0.69994 0.19998,0.11304 0.38692,0.24781 0.56082,0.40867 0.1739,0.16086 0.33042,0.3478 0.46954,0.56952 l 3.51713,5.54308 z m -7.3125,-8.11245 c 0.50431,0 0.94341,-0.0652 1.31294,-0.19564 0.36954,-0.13043 0.66952,-0.31302 0.90429,-0.54344 0.23476,-0.23041 0.40866,-0.49996 0.5217,-0.81298 0.10868,-0.31302 0.1652,-0.65213 0.1652,-1.01732 0,-0.7303799 -0.23911,-1.2955499 -0.71299,-1.6998699 -0.47388,-0.40432 -1.19991,-0.6043 -2.1694,-0.6043 h -1.62162 v 4.8735499 h 1.60423 z"
              fill="#2f4077"
              id="path82"
              style="stroke-width:0.434751"/>
      <path
              d="m 101.61656,13.312356 c 0,1.126 -0.18694,2.16071 -0.55648,3.10412 -0.36954,0.9434 -0.89559,1.75639 -1.569454,2.4346 -0.67821,0.67821 -1.4912,1.20861 -2.43895,1.59118 -0.95211,0.38259 -2.0042,0.57388 -3.16064,0.57388 h -5.80392 V 5.6129161 h 5.80392 c 1.15644,0 2.21288,0.19129 3.16064,0.57387 0.94775,0.38259 1.76509,0.91298 2.43895,1.59989 0.678214,0.68256 1.199914,1.49554 1.569454,2.4345999 0.36954,0.94341 0.55648,1.96942 0.55648,3.09108 z m -3.204114,0 c 0,-0.80864 -0.10434,-1.53032 -0.31302,-2.17811 -0.20868,-0.64777 -0.50431,-1.1912099 -0.89559,-1.6346599 -0.38693,-0.44779 -0.8608,-0.78689 -1.42163,-1.03035 -0.55648,-0.23912 -1.19122,-0.36085 -1.89986,-0.36085 h -2.66502 V 18.525016 h 2.66502 c 0.70864,0 1.33903,-0.11739 1.89986,-0.3565 0.55648,-0.23911 1.03036,-0.57822 1.42163,-1.03036 0.39128,-0.45214 0.68691,-0.99558 0.89559,-1.63901 0.20868,-0.64343 0.31302,-1.37381 0.31302,-2.18679 z"
              fill="#2f4077"
              id="path84"
              style="stroke-width:0.434751"/>
      <path
              d="M 116.58937,5.6129161 110.5159,21.016136 h -2.83022 L 101.60786,5.6129161 h 2.51721 c 0.26955,0 0.49127,0.0652 0.66082,0.19564 0.16955,0.13043 0.29563,0.29998 0.37823,0.50431 l 3.26498,8.8776099 c 0.12608,0.33476 0.24781,0.6956 0.36954,1.08687 0.12173,0.39128 0.23477,0.8043 0.33911,1.2347 0.0913,-0.4304 0.18694,-0.84342 0.29562,-1.2347 0.10869,-0.39127 0.22173,-0.75646 0.3478,-1.08687 l 3.24759,-8.8776099 c 0.0696,-0.17824 0.19129,-0.3391 0.36954,-0.48257 0.17825,-0.14347 0.39562,-0.21738 0.66082,-0.21738 z"
              fill="#2f4077"
              id="path86"
              style="stroke-width:0.434751"/>
      <path
              d="m 74.666366,41.730216 v -16.03769 h 4.11492 l 3.97536,6.73581 3.97535,-6.73581 h 4.11448 v 16.03769 h -3.30106 v -11.50133 l -3.62669,6.00269 h -2.32461 l -3.62669,-6.00269 v 11.50133 z"
              fill="#2f4077"
              id="path88"
              style="stroke-width:0.434751"/>
      <path
              d="m 98.135506,42.074106 c -2.34809,0 -3.95232,-1.32903 -3.95232,-3.45975 0,-1.74126 1.37164,-3.04721 3.88233,-3.45961 l 3.580174,-0.59565 v -0.29785 c 0,-1.21431 -0.92993,-1.99329 -2.278104,-1.99329 -1.13904,0 -2.02245,0.52696 -2.65023,1.37468 l -2.16202,-1.6267 c 1.04601,-1.42047 2.76632,-2.2911 4.90529,-2.2911 3.394104,0 5.137454,1.99329 5.137454,4.53641 v 7.46897 h -2.95239 v -1.12253 c -0.74386,0.89342 -2.138544,1.46642 -3.510184,1.46642 z m -1.02297,-3.59713 c 0,0.77907 0.62778,1.28295 1.62727,1.28295 1.348604,0 2.324624,-0.61865 2.905884,-1.5351 v -1.62667 l -2.789364,0.45823 c -1.23252,0.2062 -1.74379,0.71025 -1.74379,1.42059 z"
              fill="#2f4077"
              id="path90"
              style="stroke-width:0.434751"/>
      <path
              d="m 109.46685,28.166906 c -1.04601,0 -1.92942,-0.87063 -1.92942,-1.90164 0,-1.03097 0.88341,-1.9016 1.92942,-1.9016 1.04645,0 1.90638,0.87063 1.90638,1.9016 0,1.03101 -0.85993,1.90164 -1.90638,1.90164 z m -1.48771,13.56331 v -11.54715 h 2.95238 v 11.54715 z"
              fill="#2f4077"
              id="path92"
              style="stroke-width:0.434751"/>
      <path
              d="m 114.47213,41.730216 v -11.54715 h 2.9524 v 1.14557 c 0.76733,-0.77899 1.76682,-1.37468 3.09194,-1.37468 0.39519,0 0.74386,0.0687 1.02297,0.16038 v 2.86387 c -0.37215,-0.0916 -0.76734,-0.16038 -1.30208,-0.16038 -1.4412,0 -2.37113,0.77899 -2.81283,1.51215 v 7.40024 z"
              fill="#2f4077"
              id="path94"
              style="stroke-width:0.434751"/>
      <path
              d="m 125.40437,28.166906 c -1.04644,0 -1.92985,-0.87063 -1.92985,-1.90164 0,-1.03097 0.88341,-1.9016 1.92985,-1.9016 1.04601,0 1.90595,0.87063 1.90595,1.9016 0,1.03101 -0.85994,1.90164 -1.90595,1.90164 z m -1.48815,13.56331 v -11.54715 h 2.95239 v 11.54715 z"
              fill="#2f4077"
              id="path96"
              style="stroke-width:0.434751"/>
      <path
              d="m 141.19625,39.851656 c -1.09253,1.44337 -2.90587,2.33679 -5.1144,2.33679 -4.16144,0 -6.50952,-2.8637 -6.50952,-6.23181 0,-3.41374 2.18549,-6.2318 6.02129,-6.2318 3.25454,0 5.39352,2.17654 5.39352,5.20079 0,0.64152 -0.093,1.23722 -0.18608,1.62671 h -8.20635 c 0.27868,2.15376 1.62727,3.02412 3.46366,3.02412 1.2786,0 2.3946,-0.54952 3.02239,-1.37454 z m -5.67262,-7.74408 c -1.51076,0 -2.51069,0.82481 -2.83588,2.33696 h 5.39308 c -0.0465,-1.16848 -0.90646,-2.33696 -2.5572,-2.33696 z"
              fill="#2f4077"
              id="path98"
              style="stroke-width:0.434751"/>
    </g>
  </g>
</svg>
