<svg enable-background="new 0 0 82.1 22" viewBox="0 0 82.1 22" xmlns="http://www.w3.org/2000/svg"><g fill="#fff"><path d="m31.4 10.3h-1.6l-1.1-2.8c-.1-.3-.2-.4-.4-.6-.2-.1-.5-.2-.8-.2h-1.5v3.5h-1.5v-8.4h3.5c1 0 1.7.2 2.2.6s.8 1 .8 1.8c0 .6-.1 1-.4 1.4s-.7.7-1.3.8c.5.1.9.5 1.1 1.1zm-3.6-4.7c.6 0 1-.1 1.3-.3s.4-.5.4-1c0-.4-.1-.8-.4-1s-.7-.3-1.3-.3h-1.9v2.6z"/><path d="m32.8 1.8h3.1c1.4 0 2.5.4 3.3 1.1s1.2 1.8 1.2 3.1c0 1.4-.4 2.4-1.2 3.2-.8.7-1.9 1.1-3.3 1.1h-3.1zm3 7.3c2 0 2.9-1 2.9-3s-1-3-2.9-3h-1.5v6z"/><path d="m47.9 1.8h1.6l-3.8 8.5h-1.3l-3.8-8.5h1.6l2.8 6.6z"/><path d="m23.9 21.3.4-1.1c.6.5 1.4.7 2.2.7.4 0 .6-.1.8-.2s.3-.3.3-.5-.1-.3-.2-.4-.4-.2-.7-.3l-1-.2c-1.1-.2-1.7-.8-1.7-1.7 0-.4.1-.7.3-1s.5-.5.9-.7.8-.2 1.3-.2c.4 0 .8.1 1.2.2s.8.3 1.1.6l-.4 1c-.6-.4-1.2-.7-1.9-.7-.3 0-.6.1-.8.2s-.3.3-.3.5.1.3.2.4.3.2.6.3l1 .2c.6.1 1 .3 1.3.6s.4.7.4 1.1c0 .6-.2 1-.7 1.3-.4.3-1.1.5-1.8.5-1 .1-1.9-.1-2.5-.6z"/><path d="m31.4 21.7c-.5-.3-.8-.6-1.1-1.1s-.4-1-.4-1.7.1-1.2.4-1.7.6-.8 1.1-1.1 1-.4 1.6-.4 1.1.1 1.6.4.8.6 1.1 1.1.4 1 .4 1.7-.1 1.2-.4 1.7-.6.8-1.1 1.1-1 .4-1.6.4c-.6-.1-1.2-.2-1.6-.4zm2.8-1.3c.3-.3.4-.8.4-1.5 0-.6-.1-1.1-.4-1.5s-.7-.5-1.2-.5-.9.2-1.2.5-.4.8-.4 1.5.1 1.1.4 1.5c.3.3.7.5 1.2.5s.9-.2 1.2-.5z"/><path d="m37.4 22v-8.8h1.5v8.8z"/><path d="m40.4 13.2h1.7v1.5h-1.7zm.1 8.8v-6.1h1.5v6.1z"/><path d="m49.4 13.1v8.9h-1.5v-1c-.2.3-.4.6-.8.8s-.7.2-1.1.2c-.5 0-1-.1-1.4-.4s-.7-.6-1-1.1c-.2-.5-.3-1-.3-1.7s.1-1.2.3-1.6c.2-.5.5-.8.9-1.1s.9-.4 1.4-.4c.4 0 .8.1 1.2.3.3.2.6.4.8.8v-3.6h1.5zm-1.9 7.3c.3-.3.4-.8.4-1.5 0-.6-.1-1.1-.4-1.5-.3-.3-.7-.5-1.2-.5s-.9.2-1.2.5-.4.8-.4 1.4.1 1.1.4 1.5.7.5 1.2.5c.6.1.9-.1 1.2-.4z"/><path d="m56.8 15.9v6.1h-1.5v-1c-.2.3-.4.6-.8.8s-.7.2-1.1.2c-.5 0-1-.1-1.4-.4s-.7-.6-.9-1.1-.3-1-.3-1.6.1-1.2.3-1.7.5-.9 1-1.1c.4-.3.9-.4 1.4-.4.4 0 .8.1 1.2.3.3.2.6.4.8.8v-.9zm-1.9 4.5c.3-.3.4-.8.4-1.5 0-.6-.1-1.1-.4-1.5-.3-.3-.7-.5-1.2-.5s-.9.2-1.2.5c-.3.4-.4.8-.4 1.5 0 .6.1 1.1.4 1.4s.7.5 1.2.5c.6.1 1-.1 1.2-.4z"/><path d="m62.3 15.8v1.4c-.3-.1-.5-.2-.8-.2-.5 0-.9.1-1.2.4s-.4.7-.4 1.2v3.4h-1.5v-4.3c0-.6 0-1.2-.1-1.7h1.4l.1 1.1c.2-.4.4-.7.7-.9s.7-.3 1.1-.3c.3-.1.5-.1.7-.1z"/><path d="m63.1 13.2h1.7v1.5h-1.7zm.1 8.8v-6.1h1.5v6.1z"/><path d="m68.2 17v2.7c0 .7.3 1.1 1 1.1.2 0 .4 0 .6-.1v1.2c-.3.1-.6.1-1 .1-.7 0-1.2-.2-1.6-.6s-.6-.9-.6-1.7v-2.7h-1.2v-1.1h1.2v-1.5l1.5-.5v2h1.6v1.1z"/><path d="m76.1 19h-4.1c0 .6.2 1.1.5 1.4s.7.5 1.3.5c.7 0 1.3-.2 1.8-.6l.4 1c-.3.2-.6.4-1.1.6-.4.1-.8.1-1.2.1-1 0-1.8-.3-2.3-.8s-.9-1.3-.9-2.3c0-.6.1-1.2.4-1.6.2-.5.6-.9 1-1.1.4-.3 1-.4 1.5-.4.8 0 1.5.3 2 .8s.7 1.3.7 2.2zm-3.6-1.8c-.3.2-.4.6-.5 1h2.8c0-.5-.2-.8-.4-1s-.5-.3-.9-.3-.8 0-1 .3zm1.4-2.1h-1l1.2-2.5h1.5z"/><path d="m77 21.3.4-1.1c.6.5 1.4.7 2.2.7.4 0 .6-.1.8-.2s.3-.3.3-.5-.1-.3-.2-.4-.4-.2-.7-.3l-1-.2c-1.1-.2-1.7-.8-1.7-1.7 0-.4.1-.7.3-1s.5-.5.9-.7.8-.2 1.3-.2c.4 0 .8.1 1.2.2s.8.3 1.1.6l-.4 1c-.6-.4-1.2-.7-1.9-.7-.3 0-.6.1-.8.2s-.3.3-.3.5.1.3.2.4.3.2.6.3l1 .2c.6.1 1 .3 1.3.6s.4.7.4 1.1c0 .6-.2 1-.7 1.3-.3.5-.9.6-1.7.6-1.1 0-1.9-.2-2.6-.7z"/><path d="m16 1.6h-.2v-1.6h-1.5v1.6h-3.4v-1.6h-1.4v1.6h-3.4v-1.6h-1.5v1.6h-.2c-2.4 0-4.4 2-4.4 4.4v11.6c0 2.4 2 4.4 4.4 4.4h11.6c2.4 0 4.4-2 4.4-4.4v-11.6c0-2.4-2-4.4-4.4-4.4zm-11.6 1.4h.2v1.1h1.5v-1.1h3.4v1.1h1.5v-1.1h3.4v1.1h1.5v-1.1h.1c1.6 0 3 1.3 3 3v1.6h-17.5v-1.6c0-1.6 1.3-3 2.9-3zm11.6 17.5h-11.6c-1.6 0-3-1.3-3-3v-8.5h17.5v8.5c0 1.7-1.3 3-2.9 3z"/><path d="m10.2 15.9c-1 0-1.8-.6-2.3-1.4l-1.3.6c.7 1.4 2.1 2.3 3.6 2.3s2.9-.9 3.6-2.3l-1.3-.6c-.4.8-1.3 1.4-2.3 1.4z"/></g></svg>