<?xml version="1.0" encoding="utf-8"?>
<!-- Generator: Adobe Illustrator 21.1.0, SVG Export Plug-In . SVG Version: 6.00 Build 0)  -->
<svg version="1.1" id="Calque_1" xmlns="http://www.w3.org/2000/svg" xmlns:xlink="http://www.w3.org/1999/xlink" x="0px" y="0px"
	 viewBox="0 0 174.8 43.1" enable-background="new 0 0 174.8 43.1" xml:space="preserve">
<g>
	<path fill="#FFFFFF" d="M65,17.7h-3.4l-2.3-5.9c-0.2-0.5-0.5-0.9-0.9-1.1c-0.4-0.2-1-0.3-1.6-0.3h-3.2v7.4h-3.2V0H58
		c2,0,3.5,0.4,4.6,1.3c1,0.9,1.6,2.1,1.6,3.8c0,1.2-0.3,2.2-0.9,3c-0.6,0.8-1.5,1.4-2.7,1.8c1,0.2,1.8,0.9,2.3,2.2L65,17.7z
		 M57.6,7.8c1.2,0,2.1-0.2,2.7-0.7s0.9-1.1,0.9-2c0-0.9-0.3-1.6-0.9-2c-0.6-0.4-1.5-0.7-2.7-0.7h-4v5.4H57.6z"/>
	<path fill="#FFFFFF" d="M67.9,0h6.5c2.9,0,5.2,0.8,6.8,2.3c1.6,1.5,2.4,3.7,2.4,6.5s-0.8,5-2.4,6.6s-3.9,2.3-6.8,2.3h-6.5V0z
		 M74.3,15.1c4.1,0,6.1-2.1,6.1-6.3s-2-6.2-6.1-6.2h-3.1v12.5H74.3z"/>
	<path fill="#FFFFFF" d="M99.4,0h3.3l-7.9,17.7h-2.6L84.3,0h3.3l5.9,13.7L99.4,0z"/>
</g>
<g>
	<path fill="#FFFFFF" d="M69.4,42.2c-1-0.5-1.7-1.3-2.2-2.3s-0.8-2.1-0.8-3.5c0-1.3,0.3-2.5,0.8-3.5c0.5-1,1.3-1.7,2.2-2.3
		c1-0.5,2.1-0.8,3.4-0.8s2.4,0.3,3.3,0.8c1,0.5,1.7,1.3,2.2,2.3c0.5,1,0.8,2.1,0.8,3.5c0,1.3-0.3,2.5-0.8,3.5s-1.3,1.7-2.2,2.3
		c-1,0.5-2.1,0.8-3.3,0.8C71.5,43,70.3,42.8,69.4,42.2z M75.1,39.6c0.6-0.7,0.8-1.7,0.8-3.1c0-1.3-0.3-2.4-0.8-3.1
		c-0.6-0.7-1.4-1.1-2.4-1.1s-1.9,0.4-2.4,1.1c-0.6,0.7-0.8,1.7-0.8,3.1s0.3,2.4,0.8,3.1c0.6,0.7,1.4,1,2.4,1
		C73.8,40.6,74.6,40.2,75.1,39.6z"/>
	<path fill="#FFFFFF" d="M81.8,42.8V24.5h3.1v18.3H81.8z"/>
	<path fill="#FFFFFF" d="M88.1,24.5h3.5v3.1h-3.5V24.5z M88.3,42.8V30.3h3.1v12.6h-3.1V42.8z"/>
	<path fill="#FFFFFF" d="M106.8,24.5v18.3h-3.1v-2c-0.4,0.7-0.9,1.2-1.6,1.6c-0.7,0.4-1.5,0.6-2.4,0.6c-1.1,0-2-0.3-2.9-0.8
		c-0.8-0.5-1.5-1.3-2-2.3s-0.7-2.2-0.7-3.5s0.2-2.4,0.7-3.4s1.1-1.7,2-2.3c0.8-0.5,1.8-0.8,2.9-0.8c0.9,0,1.7,0.2,2.4,0.6
		c0.7,0.4,1.3,0.9,1.6,1.6v-7.6H106.8z M102.9,39.5c0.6-0.7,0.9-1.7,0.9-3s-0.3-2.3-0.8-3c-0.6-0.7-1.4-1.1-2.4-1.1
		s-1.9,0.4-2.4,1.1c-0.6,0.7-0.9,1.7-0.9,3s0.3,2.3,0.9,3.1c0.6,0.7,1.4,1.1,2.4,1.1C101.5,40.6,102.3,40.2,102.9,39.5z"/>
	<path fill="#FFFFFF" d="M122.2,30.3v12.6h-3.1v-2c-0.4,0.7-0.9,1.2-1.6,1.6c-0.7,0.4-1.5,0.6-2.4,0.6c-1.1,0-2.1-0.3-2.9-0.8
		s-1.5-1.3-2-2.3s-0.7-2.1-0.7-3.4c0-1.3,0.2-2.4,0.7-3.5c0.5-1.1,1.1-1.8,2-2.3c0.8-0.6,1.8-0.8,2.9-0.8c0.9,0,1.7,0.2,2.4,0.6
		c0.7,0.4,1.3,0.9,1.6,1.6v-1.9H122.2z M118.3,39.5c0.6-0.7,0.8-1.7,0.8-3s-0.3-2.3-0.8-3.1c-0.6-0.7-1.4-1.1-2.4-1.1
		s-1.8,0.4-2.4,1.1s-0.9,1.8-0.9,3.1s0.3,2.3,0.9,3s1.4,1,2.4,1C117,40.6,117.8,40.2,118.3,39.5z"/>
	<path fill="#FFFFFF" d="M133.7,30.2V33c-0.5-0.2-1.1-0.3-1.6-0.3c-1.1,0-1.9,0.3-2.4,0.9c-0.6,0.6-0.8,1.4-0.8,2.4v6.8h-3.1v-9
		c0-1.3-0.1-2.5-0.2-3.6h2.9l0.2,2.2c0.3-0.8,0.8-1.4,1.5-1.9c0.7-0.4,1.5-0.6,2.3-0.6C132.9,30,133.3,30,133.7,30.2z"/>
	<path fill="#FFFFFF" d="M135.2,24.5h3.5v3.1h-3.5V24.5z M135.4,42.8V30.3h3.1v12.6h-3.1V42.8z"/>
	<path fill="#FFFFFF" d="M145.9,32.6v5.6c0,1.5,0.7,2.2,2.1,2.2c0.4,0,0.8-0.1,1.2-0.2v2.5c-0.5,0.2-1.2,0.3-2,0.3
		c-1.4,0-2.5-0.4-3.3-1.2s-1.1-1.9-1.1-3.4v-5.8h-2.4v-2.3h2.4v-3.1l3.1-1v4.1h3.3v2.3C149.2,32.6,145.9,32.6,145.9,32.6z"/>
	<path fill="#FFFFFF" d="M162.4,36.7h-8.7c0.1,1.3,0.4,2.3,1,3c0.6,0.6,1.5,1,2.7,1c1.4,0,2.7-0.4,3.8-1.3l0.9,2.1
		c-0.6,0.5-1.3,0.9-2.2,1.2s-1.8,0.4-2.7,0.4c-2.1,0-3.7-0.6-4.9-1.7s-1.8-2.8-1.8-4.8c0-1.3,0.3-2.4,0.8-3.4s1.2-1.8,2.2-2.3
		c0.9-0.6,2-0.8,3.2-0.8c1.7,0,3.1,0.6,4.1,1.7c1,1.1,1.5,2.7,1.5,4.6L162.4,36.7L162.4,36.7z M154.8,32.9c-0.5,0.5-0.9,1.2-1,2.1
		h5.9c-0.1-0.9-0.4-1.7-0.9-2.1c-0.5-0.5-1.1-0.7-2-0.7S155.3,32.4,154.8,32.9z M157.7,28.6h-2l2.5-5.1h3.2L157.7,28.6z"/>
	<path fill="#FFFFFF" d="M164.2,41.4l0.9-2.2c1.3,1,2.9,1.5,4.6,1.5c0.7,0,1.3-0.1,1.7-0.4c0.4-0.2,0.6-0.6,0.6-1s-0.1-0.7-0.4-0.9
		c-0.3-0.2-0.8-0.4-1.4-0.6l-2.1-0.5c-2.3-0.5-3.4-1.7-3.4-3.5c0-0.8,0.2-1.4,0.6-2c0.4-0.6,1-1,1.8-1.4c0.8-0.3,1.7-0.5,2.7-0.5
		c0.9,0,1.8,0.1,2.6,0.4s1.6,0.7,2.2,1.2l-0.9,2.1c-1.3-0.9-2.6-1.4-3.9-1.4c-0.7,0-1.3,0.1-1.7,0.4s-0.6,0.6-0.6,1.1
		c0,0.4,0.1,0.7,0.4,0.9c0.2,0.2,0.7,0.4,1.2,0.5l2.1,0.5c1.2,0.3,2.2,0.7,2.7,1.3c0.6,0.6,0.9,1.4,0.9,2.3c0,1.2-0.5,2.1-1.4,2.8
		s-2.2,1-3.8,1C167.3,43,165.5,42.5,164.2,41.4z"/>
	<g>
		<path fill="#FFFFFF" d="M53.4,42.4c-1.1-0.4-2.1-0.9-2.9-1.6l1.1-2.4c0.8,0.7,1.7,1.1,2.6,1.5s1.9,0.5,3,0.5
			c1.2,0,2.1-0.2,2.7-0.7c0.6-0.4,1-1.1,1-1.8c0-0.7-0.3-1.2-0.9-1.6c-0.6-0.4-1.6-0.7-3-1c-2.1-0.5-3.7-1.1-4.7-1.9
			c-1-0.8-1.5-1.9-1.5-3.4c0-1.1,0.3-2,0.8-2.8c0.5-0.8,1.3-1.5,2.3-1.9c1-0.5,2.2-0.7,3.5-0.7c1.2,0,2.3,0.2,3.4,0.6
			c1.1,0.4,2,0.9,2.7,1.6l-1,2.4c-1.5-1.3-3.2-1.9-5-1.9c-1.1,0-2,0.2-2.6,0.7s-1,1.1-1,2c0,0.7,0.3,1.2,0.9,1.6
			c0.6,0.4,1.5,0.7,2.9,1c1.4,0.4,2.6,0.7,3.5,1.1c0.9,0.4,1.6,0.9,2.1,1.6c0.5,0.6,0.7,1.5,0.7,2.4c0,1.1-0.3,2-0.8,2.8
			c-0.5,0.8-1.3,1.4-2.4,1.9c-1,0.4-2.2,0.7-3.6,0.7C55.7,43,54.5,42.8,53.4,42.4z"/>
	</g>
</g>
<path fill="#FFFFFF" d="M33.5,2.7H33V0.1h-3v2.6h-7V0.1h-3v2.6h-7V0.1h-3v2.6H9.5C4.3,2.7,0,6.9,0,12.1v21.7c0,5.1,4.3,9.3,9.5,9.3
	h24c5.2,0,9.5-4.2,9.5-9.4V12.1C43,6.9,38.7,2.7,33.5,2.7z M9.5,5.7H10V8h3V5.7h7V8h3V5.7h7V8h3V5.7h0.5c3.6,0,6.5,2.9,6.5,6.4v3.2
	H3v-3.2C3,8.6,5.9,5.7,9.5,5.7z M33.5,40.1h-24c-3.6,0-6.5-2.8-6.5-6.4V18.3h37v15.5C40,37.3,37.1,40.1,33.5,40.1z"/>
<path fill="#FFFFFF" d="M21.5,30.7c-2,0-3.8-1.2-4.6-2.9l-2.8,1.3c1.3,2.8,4.2,4.6,7.4,4.6c3.1,0,6-1.8,7.4-4.6l-2.7-1.3
	C25.3,29.6,23.5,30.7,21.5,30.7z"/>
</svg>
