<svg width="1205" height="365" viewBox="0 0 1205 365" fill="none" xmlns="http://www.w3.org/2000/svg">
<g clip-path="url(#clip0_486_2)">
<path d="M440.2 279.91H443.74V262.09H450.6C457.96 262.09 462.5 257.94 462.5 251.69C462.5 245.44 457.96 241.18 450.6 241.18H440.2V279.91ZM450.66 244.28C455.75 244.28 458.79 247.05 458.79 251.58C458.79 256.11 455.75 258.99 450.66 258.99H443.74V244.27H450.66V244.28ZM469.95 279.91H473.21V238.41H469.95V279.91ZM491.52 280.68C495.39 280.68 499.16 279.02 501.53 275.87V279.91H504.74V260.82C504.74 254.68 500.54 250.92 494.12 250.92C489.31 250.92 485.49 252.97 483.11 256.23L485.6 258.17C487.48 255.51 490.41 253.91 494.01 253.91C498.38 253.91 501.53 256.34 501.53 260.83V263.43L491.57 265.09C485.71 266.09 482.5 268.96 482.5 273.17C482.5 277.76 486.1 280.69 491.52 280.69V280.68ZM485.82 273.1C485.82 270.33 487.87 268.29 492.29 267.51L501.53 265.96V272.32C499.43 275.92 495.94 277.85 491.9 277.85C488.14 277.85 485.81 275.8 485.81 273.09L485.82 273.1ZM516.61 271.11C516.61 277.92 520.26 280.46 525.96 280.46C527.73 280.46 529.11 280.24 530.39 279.8V276.81C529.28 277.2 528.07 277.42 526.3 277.42C522.54 277.42 519.94 276.2 519.94 271.11V254.95H530.4V252.02H519.94V245.05H516.62V252.02H511.36V254.95H516.62V271.11H516.61ZM561.77 275.31L559.28 273.32C557.23 276.2 553.97 278.02 550.04 278.02C543.18 278.02 538.37 272.87 538.37 265.79V265.13H560.89C561.06 264.47 561.11 263.64 561.11 262.81C561.11 256.23 556.35 250.91 548.88 250.91C540.53 250.91 534.99 257.33 534.99 265.96C534.99 274.09 540.91 281.01 550.04 281.01C555.13 281.01 559.22 278.8 561.77 275.31ZM548.82 253.79C554.24 253.79 557.62 257.66 557.78 262.53H538.69C539.74 257.05 543.61 253.79 548.81 253.79H548.82ZM566.03 252.02V254.95H571.29V279.9H574.61V254.95H585.07V252.02H574.61V248.26C574.61 243.89 577.1 241.4 580.7 241.4C582.47 241.4 583.85 241.9 585.07 242.78L586.51 240.01C585.18 239.18 583.14 238.41 580.59 238.41C575.06 238.41 571.29 242.34 571.29 248.31V252.02H566.03ZM601.8 250.91C592.89 250.91 586.86 257.99 586.86 265.96C586.86 273.93 592.89 281.01 601.8 281.01C610.71 281.01 616.79 273.93 616.79 265.96C616.79 257.99 610.76 250.91 601.8 250.91ZM601.86 277.91C595.05 277.91 590.24 272.32 590.24 265.96C590.24 259.6 595.05 254.01 601.86 254.01C608.67 254.01 613.31 259.54 613.31 265.96C613.31 272.38 608.44 277.91 601.86 277.91ZM625.07 279.9H628.33V259.93C630.43 256.44 632.92 254.56 636.74 254.56C637.74 254.56 638.46 254.73 639.29 254.95V251.8C638.57 251.58 637.74 251.47 636.97 251.47C633.21 251.47 630.61 253.13 628.34 256.01V252.03H625.08V279.92L625.07 279.9ZM646.68 279.9H649.94V259.87C651.82 256.33 654.7 254.01 658.9 254.01C663.44 254.01 666.48 256.94 666.48 262.36V279.9H669.74V262.25C669.74 261.48 669.68 260.7 669.57 259.98C671.89 255.94 674.77 254 678.64 254C683.18 254 686.28 256.93 686.28 262.35V279.89H689.49V262.24C689.49 254.88 685.17 250.9 679.09 250.9C674.28 250.9 671.12 253.22 668.74 256.88C667.14 252.95 663.65 250.9 659.33 250.9C655.01 250.9 652.19 252.78 649.92 255.71V252H646.66V279.89L646.68 279.9ZM724.02 275.31L721.53 273.32C719.48 276.2 716.22 278.02 712.29 278.02C705.43 278.02 700.62 272.87 700.62 265.79V265.13H723.14C723.31 264.47 723.36 263.64 723.36 262.81C723.36 256.23 718.6 250.91 711.13 250.91C702.78 250.91 697.24 257.33 697.24 265.96C697.24 274.09 703.16 281.01 712.29 281.01C717.38 281.01 721.47 278.8 724.02 275.31ZM711.07 253.79C716.49 253.79 719.87 257.66 720.03 262.53H700.94C701.99 257.05 705.86 253.79 711.06 253.79H711.07ZM744.41 265.96C744.41 274.09 750.11 281.01 758.8 281.01C763.17 281.01 766.88 279.18 769.48 275.92V279.9H772.74V238.4H769.48V255.99C766.88 252.73 763.17 250.9 758.8 250.9C750.11 250.9 744.41 257.82 744.41 265.95V265.96ZM747.84 265.96C747.84 259.38 752.49 254.01 759.07 254.01C763.33 254.01 767.15 256 769.47 259.82V272.1C767.2 275.86 763.38 277.91 759.07 277.91C752.49 277.91 747.84 272.54 747.84 265.96ZM807.77 275.31L805.28 273.32C803.23 276.2 799.97 278.02 796.04 278.02C789.18 278.02 784.37 272.87 784.37 265.79V265.13H806.89C807.06 264.47 807.11 263.64 807.11 262.81C807.11 256.23 802.35 250.91 794.88 250.91C786.53 250.91 780.99 257.33 780.99 265.96C780.99 274.09 786.91 281.01 796.04 281.01C801.13 281.01 805.22 278.8 807.77 275.31ZM794.82 253.79C800.24 253.79 803.62 257.66 803.78 262.53H784.69C785.74 257.05 789.61 253.79 794.81 253.79H794.82ZM830.76 279.9H834.02V238.4H830.76V279.9ZM845.96 255.33L851.22 241.17H847.46L842.98 255.33H845.97H845.96ZM861.76 243.21C863.14 243.21 864.25 242.16 864.25 240.72C864.25 239.39 863.14 238.29 861.76 238.29C860.38 238.29 859.21 239.4 859.21 240.72C859.21 242.16 860.37 243.21 861.76 243.21ZM860.1 279.89H863.36V252H860.1V279.89ZM874.31 279.89H877.57V259.86C879.73 256.26 882.66 254 887.09 254C891.96 254 895.22 257.15 895.22 262.91V279.9H898.48V262.8C898.48 255.11 893.89 250.9 887.53 250.9C883.16 250.9 880.01 252.78 877.57 255.82V252H874.31V279.89ZM921.28 277.9C914.42 277.9 909.61 272.53 909.61 265.95C909.61 259.37 914.42 254 921.23 254C925.1 254 928.31 255.83 930.3 258.65L932.9 256.6C930.35 253.17 926.26 250.9 921.23 250.9C912.21 250.9 906.24 257.82 906.24 265.95C906.24 274.08 912.22 281 921.23 281C926.26 281 930.36 278.73 932.9 275.3L930.3 273.25C928.31 276.07 925.15 277.9 921.28 277.9ZM940.23 279.89H943.49V238.39H940.23V279.89ZM974.47 268.05C974.47 274.36 970.93 277.9 965.78 277.9C960.63 277.9 957.04 274.36 957.04 268.05V252.01H953.78V268C953.78 276.3 958.59 281 965.79 281C972.99 281 977.69 276.3 977.69 268V252.01H974.48V268.05H974.47ZM984.62 276.24C987.05 279.34 990.48 281 994.63 281C999.72 281 1003.54 277.68 1003.54 272.87C1003.54 263.46 989.21 265.68 989.21 258.43C989.21 255.88 991.15 253.73 994.63 253.73C997.18 253.73 999.44 255 1000.99 257.33L1003.42 255.39C1001.48 252.73 998.33 250.91 994.57 250.91C989.42 250.91 985.99 254.4 985.99 258.43C985.99 268.28 1000.32 265.9 1000.32 272.98C1000.32 275.86 998.22 278.18 994.57 278.18C991.58 278.18 989.15 276.91 987.05 274.25L984.62 276.24ZM1013.64 243.21C1015.02 243.21 1016.13 242.16 1016.13 240.72C1016.13 239.39 1015.02 238.29 1013.64 238.29C1012.26 238.29 1011.1 239.4 1011.1 240.72C1011.1 242.16 1012.26 243.21 1013.64 243.21ZM1011.98 279.89H1015.24V252H1011.98V279.89ZM1038.53 250.9C1029.62 250.9 1023.59 257.98 1023.59 265.95C1023.59 273.92 1029.62 281 1038.53 281C1047.44 281 1053.52 273.92 1053.52 265.95C1053.52 257.98 1047.49 250.9 1038.53 250.9ZM1038.59 277.9C1031.78 277.9 1026.97 272.31 1026.97 265.95C1026.97 259.59 1031.78 254 1038.59 254C1045.4 254 1050.04 259.53 1050.04 265.95C1050.04 272.37 1045.17 277.9 1038.59 277.9ZM1061.8 279.89H1065.06V259.86C1067.22 256.26 1070.15 254 1074.58 254C1079.45 254 1082.71 257.15 1082.71 262.91V279.9H1085.97V262.8C1085.97 255.11 1081.38 250.9 1075.02 250.9C1070.65 250.9 1067.5 252.78 1065.06 255.82V252H1061.8V279.89Z" fill="white"/>
<path d="M440.2 112.05H456.22V118.36C460.38 114.07 465.81 110.79 473 110.79C475.14 110.79 477.04 111.17 478.55 111.67V127.44C476.53 126.94 474.39 126.56 471.49 126.56C463.67 126.56 458.62 130.85 456.23 134.88V175.62H440.21V112.05H440.2Z" fill="white"/>
<path d="M516.51 109.53C525.09 109.53 531.27 112.18 536.19 117.1V81.03H552.33V175.63H536.19V170.59C531.27 175.51 525.09 178.16 516.51 178.16C496.46 178.16 484.22 162.39 484.22 143.85C484.22 125.31 496.45 109.54 516.51 109.54V109.53ZM518.78 163.01C525.97 163.01 531.9 159.98 536.19 154.18V133.49C531.9 127.69 525.97 124.66 518.78 124.66C507.93 124.66 501 132.73 501 143.83C501 154.93 507.94 163 518.78 163V163.01Z" fill="white"/>
<path d="M579.57 112.05L596.09 157.46L612.49 112.05H629.77L606.56 175.62H585.5L562.42 112.05H579.57Z" fill="white"/>
<path d="M665.59 135.64V151.15H631.54V135.64H665.59Z" fill="white"/>
<path d="M675.31 90.49C675.31 84.81 680.1 80.02 685.78 80.02C691.46 80.02 696.12 84.81 696.12 90.49C696.12 96.17 691.45 100.96 685.78 100.96C680.11 100.96 675.31 96.17 675.31 90.49ZM677.71 112.06H693.73V175.63H677.71V112.06Z" fill="white"/>
<path d="M712.89 112.05H728.91V117.1C733.32 112.81 739.25 109.53 747.7 109.53C761.45 109.53 772.42 118.99 772.42 137.78V175.62H756.28V138.41C756.28 129.96 751.49 124.66 743.67 124.66C735.85 124.66 731.31 130.08 728.91 134.12V175.62H712.89V112.05Z" fill="white"/>
<path d="M795.63 156.83C799.54 161.75 804.21 165.28 810.26 165.28C815.43 165.28 818.08 162.25 818.08 158.47C818.08 147.37 787.68 151.53 787.68 129.21C787.68 117.98 797.14 109.53 810.38 109.53C820.09 109.53 828.92 114.2 833.46 120.38L822.87 129.71C819.59 125.67 815.43 122.39 810.51 122.39C805.59 122.39 803.07 125.16 803.07 128.44C803.07 139.29 833.47 135.5 833.47 157.45C833.22 170.82 822.5 178.14 810.51 178.14C799.16 178.14 791.09 173.6 785.03 166.41L795.63 156.82V156.83Z" fill="white"/>
<path d="M878.75 178.15C856.17 178.15 843.43 162.38 843.43 143.84C843.43 125.3 855.29 109.53 876.1 109.53C893.76 109.53 905.36 121.51 905.36 138.16C905.36 141.69 904.86 144.97 904.35 147.12H859.83C861.34 158.98 868.66 163.77 878.62 163.77C885.56 163.77 891.61 160.74 895.02 156.2L906.5 165.28C900.57 173.23 890.73 178.15 878.75 178.15ZM860.34 135.52H889.6C889.35 129.09 884.68 122.65 875.72 122.65C867.52 122.65 862.1 127.19 860.33 135.52H860.34Z" fill="white"/>
<path d="M921 112.05H937.02V118.36C941.18 114.07 946.61 110.79 953.79 110.79C955.93 110.79 957.83 111.17 959.34 111.67V127.44C957.32 126.94 955.18 126.56 952.28 126.56C944.46 126.56 939.41 130.85 937.02 134.88V175.62H921V112.05Z" fill="white"/>
<path d="M980.41 126.43H968.55V112.05H980.41V96.16H996.55V112.05H1015.97V126.43H996.55V152.41C996.55 159.47 1000.33 162.25 1006.64 162.25C1011.05 162.25 1013.95 161.75 1016.1 160.86V174.86C1012.95 176.25 1009.16 176.88 1003.87 176.88C987.98 176.88 980.41 167.92 980.41 152.41V126.43Z" fill="white"/>
<path d="M1027.96 90.49C1027.96 84.81 1032.75 80.02 1038.43 80.02C1044.11 80.02 1048.77 84.81 1048.77 90.49C1048.77 96.17 1044.1 100.96 1038.43 100.96C1032.76 100.96 1027.96 96.17 1027.96 90.49ZM1030.36 112.06H1046.38V175.63H1030.36V112.06Z" fill="white"/>
<path d="M1130.63 143.84C1130.63 162.89 1116.51 178.15 1095.82 178.15C1075.13 178.15 1061.01 162.89 1061.01 143.84C1061.01 124.79 1075.14 109.53 1095.82 109.53C1116.5 109.53 1130.63 124.79 1130.63 143.84ZM1113.98 143.84C1113.98 132.74 1106.29 124.67 1096.07 124.67C1085.85 124.67 1077.66 132.74 1077.66 143.84C1077.66 154.94 1085.48 163.01 1096.07 163.01C1106.66 163.01 1113.98 154.81 1113.98 143.84Z" fill="white"/>
<path d="M1145.26 112.05H1161.28V117.1C1165.69 112.81 1171.62 109.53 1180.07 109.53C1193.82 109.53 1204.79 118.99 1204.79 137.78V175.62H1188.65V138.41C1188.65 129.96 1183.86 124.66 1176.04 124.66C1168.22 124.66 1163.68 130.08 1161.28 134.12V175.62H1145.26V112.05Z" fill="white"/>
<path fill-rule="evenodd" clip-rule="evenodd" d="M123.04 352.22L131.07 350.25C131.07 350.25 150.23 342.56 155.61 313.54C160.99 284.53 186.14 264.98 214.27 273.27C234.51 270.39 219.69 239.3 188.61 247.73C181.879 249.557 176.022 251.317 170.862 252.867C156.335 257.231 147.333 259.935 139.91 257.81C136.6 256.85 134.1 254.14 133.4 250.77C125.02 210.07 108.23 128.81 106.23 121.81C103.83 113.45 98.3 111.01 92.31 112.18C85.28 113.07 84.83 120.37 84.68 125.09C84.68 131.15 88.77 179.27 90.96 204.56C89.04 196.59 84.57 188.67 74.36 189.55C63.88 190.43 62.01 203.36 62.25 213.8C60.13 205.58 54.81 197.31 41.59 201.31C36.95 202.7 34.81 209.46 34.08 218.07L33.76 217.6L6.72 176.37C-5.7 157.42 -0.420002 132 18.53 119.57L191.54 6.11001C206.97 -4.01999 227.13 -1.19999 239.27 11.9L234.39 13.1C234.39 13.1 215.18 20.82 209.78 49.97C204.39 79.1 179.18 98.73 150.99 90.4C130.7 93.3 145.55 124.52 176.7 116.06C183.432 114.228 189.291 112.464 194.455 110.909C209.052 106.514 218.089 103.793 225.55 105.95C228.85 106.9 231.35 109.61 232.05 112.99C240.44 153.85 257.28 235.48 259.28 242.5C261.69 250.91 267.23 253.36 273.24 252.17C280.29 251.27 280.74 243.95 280.88 239.2C280.88 233.12 276.78 184.8 274.59 159.4C276.52 167.41 280.99 175.35 291.23 174.48C301.74 173.59 303.61 160.61 303.37 150.12C305.49 158.37 310.83 166.68 324.09 162.67C327.8 161.55 329.91 157 330.99 150.82L331.4 151.45L337.62 160.93L356.58 189.84C369.01 208.78 363.72 234.21 344.77 246.64L174.38 358.38C158.51 368.79 138.02 366.57 124.73 354.19C124.07 353.58 123.43 352.94 122.81 352.28L123.04 352.22ZM181.39 179.52L142.35 149.16H223.43L184.39 179.52C183.51 180.21 182.27 180.21 181.39 179.52ZM229.04 204.23V154.29L229.02 154.3C229.02 154.05 229.01 153.81 228.97 153.57L186.84 186.34C184.51 188.15 181.24 188.15 178.91 186.34L136.78 153.57C136.75 153.81 136.73 154.05 136.73 154.29V204.23C136.73 210.63 141.92 215.82 148.32 215.82H217.45C223.85 215.82 229.04 210.63 229.04 204.23Z" fill="white"/>
</g>
<defs>
<clipPath id="clip0_486_2">
<rect width="1204.79" height="365" fill="white"/>
</clipPath>
</defs>
</svg>
