<?xml version="1.0" encoding="UTF-8" standalone="no"?>
<svg
   xmlns:dc="http://purl.org/dc/elements/1.1/"
   xmlns:cc="http://creativecommons.org/ns#"
   xmlns:rdf="http://www.w3.org/1999/02/22-rdf-syntax-ns#"
   xmlns:svg="http://www.w3.org/2000/svg"
   xmlns="http://www.w3.org/2000/svg"
   xmlns:sodipodi="http://sodipodi.sourceforge.net/DTD/sodipodi-0.dtd"
   xmlns:inkscape="http://www.inkscape.org/namespaces/inkscape"
   viewBox="0 0 118.5 117.2"
   role="img"
   title="Logo Incubateur des Territoires"
   class="logo-icon"
   version="1.1"
   id="svg28"
   sodipodi:docname="logo-incub-territoire.svg"
   inkscape:version="0.92.4 (5da689c313, 2019-01-14)">
  <metadata
     id="metadata34">
    <rdf:RDF>
      <cc:Work
         rdf:about="">
        <dc:format>image/svg+xml</dc:format>
        <dc:type
           rdf:resource="http://purl.org/dc/dcmitype/StillImage" />
        <dc:title></dc:title>
      </cc:Work>
    </rdf:RDF>
  </metadata>
  <defs
     id="defs32" />
  <sodipodi:namedview
     pagecolor="#ffffff"
     bordercolor="#666666"
     borderopacity="1"
     objecttolerance="10"
     gridtolerance="10"
     guidetolerance="10"
     inkscape:pageopacity="0"
     inkscape:pageshadow="2"
     inkscape:window-width="900"
     inkscape:window-height="480"
     id="namedview30"
     showgrid="false"
     inkscape:zoom="2.0136519"
     inkscape:cx="60.24322"
     inkscape:cy="56.613558"
     inkscape:window-x="0"
     inkscape:window-y="27"
     inkscape:window-maximized="0"
     inkscape:current-layer="svg28" />
  <path
     d="M33.4 79.6l25.1 21.2c.9.7 1 2 .3 2.9L49 115.5c-.6.8-1.8 1-2.6.5l-27.6-15.6c-1.1-.6-1.4-2-.7-3L30.3 80c.7-1 2.1-1.2 3.1-.4z"
     fill="#ffe000"
     id="path2" />
  <path
     d="M59.2 97.8L34 76.8c-.5-.4-.7-1-.7-1.6v-16c0-1.2.9-2.1 2.1-2.1h54.3c1.7 0 2.7 2 1.6 3.4l-29.1 37c-.8 1-2.1 1.1-3 .3z"
     fill="#009f79"
     id="path4" />
  <linearGradient
     id="a"
     gradientUnits="userSpaceOnUse"
     x1="64.08"
     y1="81.306"
     x2="111.477"
     y2="81.306">
    <stop
       offset="0"
       stop-color="#3b5fa9"
       id="stop6" />
    <stop
       offset="1"
       stop-color="#3b5fa9"
       id="stop8" />
  </linearGradient>
  <path
     d="M66.2 102.2h37c.7 0 1.4-.4 1.8-1l6.2-10c.4-.6.4-1.4.1-2L98.1 61.6c-.7-1.4-2.6-1.6-3.5-.4l-30 37.6c-1.2 1.4-.2 3.4 1.6 3.4z"
     fill="url(#a)"
     id="path11" />
  <path
     d="M40.4 54.8h51.7c1.5 0 2.5-1.6 1.9-3L80.2 22.3c-.6-1.2-2.1-1.6-3.2-.8L39.1 51c-1.6 1.2-.7 3.8 1.3 3.8z"
     fill="#273475"
     id="path13" />
  <path
     d="M29.2 53.7L2.6 31.5c-.4-.3-.7-.8-.7-1.3L1.3 27c-.2-1.3.8-2.4 2.1-2.4H31c.4 0 .9.1 1.2.4L49 37.2c1.1.8 1.1 2.5 0 3.3L31.8 53.7c-.8.6-1.9.6-2.6 0z"
     fill="#009f79"
     id="path15" />
  <path
     d="M52 31.2l-.7-11c0-.7-.5-1.4-1.1-1.7l-13.8-7.4c-1.4-.7-3.1.3-3.1 1.8v9c0 .7.4 1.4 1 1.8l14.5 9.4c1.4.9 3.3-.2 3.2-1.9z"
     fill="#ffe000"
     id="path17" />
  <linearGradient
     id="b"
     gradientUnits="userSpaceOnUse"
     x1="53.743"
     y1="17.179"
     x2="77.429"
     y2="17.179">
    <stop
       offset="0"
       stop-color="#3b5fa9"
       id="stop19" />
    <stop
       offset="1"
       stop-color="#3b5fa9"
       id="stop21" />
  </linearGradient>
  <path
     d="M55 31.5l-1.2-13c0-.4 0-.7.2-1l6.5-15.1c.3-.9 1-1.4 1.9-1.4h6.8c.8 0 1.5.5 1.9 1.2l6.2 13.2c.4.9.2 1.9-.6 2.5l-18.3 15c-1.3 1-3.3.2-3.4-1.4z"
     fill="url(#b)"
     id="path24" />
  <path
     d="M84.9 18.9h30.3c1.2 0 2.1.9 2.1 2.1v7.6c0 .5-.2 1-.5 1.3L99.9 50.4c-1 1.2-2.8 1-3.5-.4L83 21.9c-.7-1.4.4-3 1.9-3z"
     fill="#ffe000"
     id="path26" />
</svg>