<?xml version="1.0" encoding="UTF-8" standalone="no"?>
<svg
        viewBox="0 0 154.85983 43.1"
        version="1.1"
        id="svg858"
        sodipodi:docname="logo_mairie.svg"
        inkscape:version="1.2.2 (b0a8486541, 2022-12-01)"
        width="154.85983"
        height="43.099998"
        xmlns:inkscape="http://www.inkscape.org/namespaces/inkscape"
        xmlns:sodipodi="http://sodipodi.sourceforge.net/DTD/sodipodi-0.dtd"
        xmlns="http://www.w3.org/2000/svg"
        xmlns:svg="http://www.w3.org/2000/svg"
        xmlns:rdf="http://www.w3.org/1999/02/22-rdf-syntax-ns#"
        xmlns:cc="http://creativecommons.org/ns#"
        xmlns:dc="http://purl.org/dc/elements/1.1/">
  <metadata
          id="metadata864">
    <rdf:RDF>
      <cc:Work
              rdf:about="">
        <dc:format>image/svg+xml</dc:format>
        <dc:type
                rdf:resource="http://purl.org/dc/dcmitype/StillImage"/>
      </cc:Work>
    </rdf:RDF>
  </metadata>
  <defs
          id="defs862"/>
  <sodipodi:namedview
          pagecolor="#ffffff"
          bordercolor="#666666"
          borderopacity="1"
          objecttolerance="10"
          gridtolerance="10"
          guidetolerance="10"
          inkscape:pageopacity="0"
          inkscape:pageshadow="2"
          inkscape:window-width="1500"
          inkscape:window-height="931"
          id="namedview860"
          showgrid="false"
          inkscape:zoom="3.0920971"
          inkscape:cx="86.02576"
          inkscape:cy="66.944859"
          inkscape:window-x="0"
          inkscape:window-y="32"
          inkscape:window-maximized="1"
          inkscape:current-layer="g705"
          inkscape:showpageshadow="2"
          inkscape:pagecheckerboard="0"
          inkscape:deskcolor="#d1d1d1"/>
  <g
          id="g705"
          transform="matrix(1.0250759,0,0,1.0250759,-7.9882345,1.1744306)">
    <g
            id="g483"
            transform="matrix(0.35038056,0,0,0.35038056,7.7928225,-1.1457011)">
      <path
              d="M 91.92,7.26 H 90.55 V 0 H 82.32 V 7.26 H 63.11 V 0 H 54.88 V 7.26 H 35.67 V 0 H 27.44 V 7.26 H 26.07 C 11.8,7.26 0,18.98 0,33.49 V 94.05 C 0,108.28 11.8,120 26.07,120 h 65.85 c 14.27,0 26.07,-11.72 26.07,-26.23 V 33.49 c 0,-14.51 -11.8,-26.23 -26.07,-26.23 z m -65.85,8.37 h 1.37 v 6.42 h 8.23 v -6.42 h 19.21 v 6.42 h 8.23 v -6.42 h 19.21 v 6.42 h 8.23 v -6.42 h 1.37 c 9.88,0 17.84,8.09 17.84,17.86 v 8.93 H 8.23 v -8.93 c 0,-9.77 7.96,-17.86 17.84,-17.86 z m 65.85,96 H 26.07 c -9.88,0 -17.84,-7.81 -17.84,-17.86 V 50.79 h 101.52 v 43.26 c 0,9.77 -7.96,17.58 -17.84,17.58 z"
              fill="#f4f6fe"
              id="path28"/>
      <path
              d="m 58.9601,87.8301 c -6.12,0 -11.62,-3.73 -14.07,-9.02 l -8.57,4.04 c 3.98,8.71 12.85,14.31 22.64,14.31 9.79,0 18.35,-5.6 22.64,-14.31 l -8.26,-4.04 c -2.75,5.6 -8.26,9.02 -14.38,9.02 z"
              fill="#f4f6fe"
              id="path30"/>
      <path
              d="m 162.46,60.3101 h -6.48 c -1.21,0 -2.09,-0.47 -2.63,-1.42 l -6.6,-10.87 c -0.27,-0.42 -0.57,-0.73 -0.9,-0.93 -0.33,-0.2 -0.81,-0.29 -1.45,-0.29 h -2.44 v 13.5 h -7.18 v -35.43 h 10.91 c 2.42,0 4.5,0.26 6.22,0.77 1.72,0.51 3.13,1.23 4.24,2.14 1.1,0.91 1.91,2 2.42,3.26 0.51,1.26 0.77,2.65 0.77,4.16 0,1.17 -0.16,2.28 -0.49,3.33 -0.33,1.05 -0.8,2.01 -1.42,2.87 -0.62,0.86 -1.39,1.63 -2.3,2.3 -0.91,0.67 -1.95,1.2 -3.11,1.61 0.46,0.26 0.89,0.57 1.29,0.94 0.4,0.37 0.76,0.8 1.08,1.31 l 8.09,12.75 z m -16.82,-18.66 c 1.16,0 2.17,-0.15 3.02,-0.45 0.85,-0.3 1.54,-0.72 2.08,-1.25 0.54,-0.53 0.94,-1.15 1.2,-1.87 0.25,-0.72 0.38,-1.5 0.38,-2.34 0,-1.68 -0.55,-2.98 -1.64,-3.91 -1.09,-0.93 -2.76,-1.39 -4.99,-1.39 h -3.73 v 11.21 h 3.69 z"
              fill="#f4f6fe"
              id="path32"/>
      <path
              d="m 196.99,42.5801 c 0,2.59 -0.43,4.97 -1.28,7.14 -0.85,2.17 -2.06,4.04 -3.61,5.6 -1.56,1.56 -3.43,2.78 -5.61,3.66 -2.19,0.88 -4.61,1.32 -7.27,1.32 h -13.35 v -35.43 h 13.35 c 2.66,0 5.09,0.44 7.27,1.32 2.18,0.88 4.06,2.1 5.61,3.68 1.56,1.57 2.76,3.44 3.61,5.6 0.85,2.17 1.28,4.53 1.28,7.11 z m -7.37,0 c 0,-1.86 -0.24,-3.52 -0.72,-5.01 -0.48,-1.49 -1.16,-2.74 -2.06,-3.76 -0.89,-1.03 -1.98,-1.81 -3.27,-2.37 -1.28,-0.55 -2.74,-0.83 -4.37,-0.83 h -6.13 v 23.96 h 6.13 c 1.63,0 3.08,-0.27 4.37,-0.82 1.28,-0.55 2.37,-1.33 3.27,-2.37 0.9,-1.04 1.58,-2.29 2.06,-3.77 0.48,-1.48 0.72,-3.16 0.72,-5.03 z"
              fill="#f4f6fe"
              id="path34"/>
      <path
              d="m 231.43,24.8701 -13.97,35.43 h -6.51 l -13.98,-35.43 h 5.79 c 0.62,0 1.13,0.15 1.52,0.45 0.39,0.3 0.68,0.69 0.87,1.16 l 7.51,20.42 c 0.29,0.77 0.57,1.6 0.85,2.5 0.28,0.9 0.54,1.85 0.78,2.84 0.21,-0.99 0.43,-1.94 0.68,-2.84 0.25,-0.9 0.51,-1.74 0.8,-2.5 l 7.47,-20.42 c 0.16,-0.41 0.44,-0.78 0.85,-1.11 0.41,-0.33 0.91,-0.5 1.52,-0.5 z"
              fill="#f4f6fe"
              id="path36"/>
      <path
              d="M 135,107.946 V 71.0566 h 9.465 l 9.144,15.4935 9.144,-15.4935 h 9.464 v 36.8894 h -7.593 V 81.491 l -8.342,13.8072 h -5.347 L 142.593,81.491 v 26.455 z"
              fill="#f4f6fe"
              id="path38"/>
      <path
              d="m 188.983,108.737 c -5.401,0 -9.091,-3.057 -9.091,-7.958 0,-4.0052 3.155,-7.0091 8.93,-7.9577 l 8.235,-1.3701 v -0.6851 c 0,-2.7931 -2.139,-4.5849 -5.24,-4.5849 -2.62,0 -4.652,1.2121 -6.096,3.162 l -4.973,-3.7417 c 2.406,-3.2673 6.363,-5.2699 11.283,-5.2699 7.807,0 11.817,4.5849 11.817,10.4345 v 17.1799 h -6.791 v -2.582 c -1.711,2.055 -4.919,3.373 -8.074,3.373 z m -2.353,-8.274 c 0,1.792 1.444,2.951 3.743,2.951 3.102,0 5.347,-1.423 6.684,-3.531 v -3.7416 l -6.416,1.054 c -2.835,0.4743 -4.011,1.6337 -4.011,3.2676 z"
              fill="#f4f6fe"
              id="path40"/>
      <path
              d="m 215.047,76.7481 c -2.406,0 -4.438,-2.0026 -4.438,-4.3741 0,-2.3714 2.032,-4.374 4.438,-4.374 2.407,0 4.385,2.0026 4.385,4.374 0,2.3715 -1.978,4.3741 -4.385,4.3741 z m -3.422,31.1979 V 81.3856 h 6.791 v 26.5604 z"
              fill="#f4f6fe"
              id="path42"/>
      <path
              d="M 226.56,107.946 V 81.3856 h 6.791 v 2.635 c 1.765,-1.7918 4.064,-3.162 7.112,-3.162 0.909,0 1.711,0.1581 2.353,0.3689 v 6.5874 c -0.856,-0.2108 -1.765,-0.3689 -2.995,-0.3689 -3.315,0 -5.454,1.7918 -6.47,3.4782 v 17.0218 z"
              fill="#f4f6fe"
              id="path44"/>
      <path
              d="m 251.706,76.7481 c -2.407,0 -4.439,-2.0026 -4.439,-4.3741 0,-2.3714 2.032,-4.374 4.439,-4.374 2.406,0 4.384,2.0026 4.384,4.374 0,2.3715 -1.978,4.3741 -4.384,4.3741 z m -3.423,31.1979 V 81.3856 h 6.791 v 26.5604 z"
              fill="#f4f6fe"
              id="path46"/>
      <path
              d="m 288.03,103.625 c -2.513,3.32 -6.684,5.375 -11.764,5.375 -9.572,0 -14.973,-6.587 -14.973,-14.3342 0,-7.8522 5.027,-14.3342 13.85,-14.3342 7.486,0 12.406,5.0064 12.406,11.9627 0,1.4756 -0.214,2.8458 -0.428,3.7417 h -18.876 c 0.641,4.954 3.743,6.956 7.967,6.956 2.941,0 5.508,-1.264 6.952,-3.1617 z M 274.982,85.8123 c -3.475,0 -5.775,1.8972 -6.523,5.3754 h 12.405 c -0.107,-2.6877 -2.085,-5.3754 -5.882,-5.3754 z"
              fill="#f4f6fe"
              id="path48"/>
    </g>
  </g>
</svg>
