<?xml version="1.0" encoding="UTF-8" standalone="no"?>
<svg
   viewBox="0 0 154.85983 43.099996"
   version="1.1"
   id="svg858"
   sodipodi:docname="logo_aide_numerique.svg"
   inkscape:version="1.2.1 (9c6d41e410, 2022-07-14)"
   width="154.85983"
   height="43.099995"
   xmlns:inkscape="http://www.inkscape.org/namespaces/inkscape"
   xmlns:sodipodi="http://sodipodi.sourceforge.net/DTD/sodipodi-0.dtd"
   xmlns="http://www.w3.org/2000/svg"
   xmlns:svg="http://www.w3.org/2000/svg"
   xmlns:rdf="http://www.w3.org/1999/02/22-rdf-syntax-ns#"
   xmlns:cc="http://creativecommons.org/ns#"
   xmlns:dc="http://purl.org/dc/elements/1.1/">
  <metadata
     id="metadata864">
    <rdf:RDF>
      <cc:Work
         rdf:about="">
        <dc:format>image/svg+xml</dc:format>
        <dc:type
           rdf:resource="http://purl.org/dc/dcmitype/StillImage" />
      </cc:Work>
    </rdf:RDF>
  </metadata>
  <defs
     id="defs862" />
  <sodipodi:namedview
     pagecolor="#ffffff"
     bordercolor="#666666"
     borderopacity="1"
     objecttolerance="10"
     gridtolerance="10"
     guidetolerance="10"
     inkscape:pageopacity="0"
     inkscape:pageshadow="2"
     inkscape:window-width="1500"
     inkscape:window-height="931"
     id="namedview860"
     showgrid="false"
     inkscape:zoom="1.9914389"
     inkscape:cx="41.678407"
     inkscape:cy="92.395504"
     inkscape:window-x="0"
     inkscape:window-y="32"
     inkscape:window-maximized="1"
     inkscape:current-layer="g705"
     inkscape:showpageshadow="2"
     inkscape:pagecheckerboard="0"
     inkscape:deskcolor="#d1d1d1" />
  <g
     id="g705"
     transform="matrix(1.0250759,0,0,1.0250759,-7.9882345,1.1744306)">
    <path
       id="path854-5"
       class="st0"
       d="m 40.474197,1.3826569 h -0.468215 v -2.528358 h -2.996573 v 2.528358 h -6.835932 v -2.528358 h -2.90293 v 2.528358 h -6.835932 v -2.528358 h -2.90293 v 2.528358 H 17.06347 c -5.056717,0 -9.2706475,4.120288 -9.2706475,9.1770051 v 21.25694 c 0,4.963078 4.2139305,9.083358 9.2706475,9.083358 h 23.50437 c 5.056717,0 9.270648,-4.12028 9.270648,-9.177001 V 10.653305 C 49.744848,5.5029449 45.530914,1.3826569 40.474197,1.3826569 Z m -23.50437,2.90293 h 0.468215 v 2.24743 h 2.90293 v -2.24743 h 6.835932 v 2.24743 h 2.90293 v -2.24743 h 6.835932 v 2.24743 h 2.90293 v -2.24743 h 0.468215 c 3.55843,0 6.367718,2.809288 6.367718,6.2740751 v 3.090216 H 10.508467 v -3.090216 c 0.09364,-3.3711451 2.996573,-6.2740751 6.46136,-6.2740751 z M 40.474197,37.99703 h -23.50437 c -3.55843,0 -6.367717,-2.71564 -6.367717,-6.274071 V 16.646451 h 36.146162 v 15.170151 c 0.09364,3.371145 -2.809288,6.180428 -6.274075,6.180428 z"
       style="fill:#ffffff;stroke-width:0.936429" />
    <path
       id="path856-6"
       class="st0"
       d="m 28.768833,28.726386 c -1.966501,0 -3.745716,-1.217357 -4.494859,-2.809287 L 21.55833,27.2281 c 1.311,2.715644 4.120288,4.494859 7.210503,4.494859 2.996573,0 5.899504,-1.779215 7.210504,-4.494859 l -2.622001,-1.311001 c -0.936429,1.779215 -2.715644,2.809287 -4.588503,2.809287 z"
       style="fill:#ffffff;stroke-width:0.936429" />
    <g
       id="g33"
       transform="matrix(0.90469774,0,0,0.90469774,-755.20985,-801.66991)"
       style="fill:#ffffff">
      <g
         aria-label="RDV Aide"
         transform="translate(895.4658,906.5983)"
         id="text29"
         style="font-size:22px;font-family:Muli-Bold;fill:#ffffff"
         class="st0 st1 st5">
        <path
           d="m 4.7373047,-8.9267578 h 2.6103515 q 2.9218748,0 2.9218748,-2.2666012 0,-1.235352 -0.6123044,-1.665039 -0.6123047,-0.44043 -2.0195313,-0.44043 H 4.7373047 Z M 2.0410156,0 v -15.640625 h 5.6396485 q 1.2890625,0 2.2236328,0.193359 0.9453121,0.19336 1.7080081,0.666016 0.762695,0.461914 1.149414,1.332031 0.386719,0.859375 0.386719,2.126953 0,1.321289 -0.78418,2.3417972 -0.78418,1.0097657 -2.363281,1.3642579 1.407226,0.7841797 2.073242,2.4492187 L 14.19043,0 H 11.236328 L 9.4423828,-4.6513672 Q 9.0019531,-5.8007812 8.4863281,-6.2089844 7.9707031,-6.6171875 6.9287109,-6.6171875 H 4.7695312 V 0 Z"
           style="font-weight:bold;font-family:Muli;-inkscape-font-specification:'Muli Bold';fill:#ffffff"
           id="path473" />
        <path
           d="M 16.951172,0 V -15.640625 H 21.3125 q 4.694336,0 7.014648,1.998047 2.320313,1.987305 2.320313,5.7255858 0,3.8779297 -2.277344,5.8974609 Q 26.103516,0 21.75293,0 Z m 2.728515,-2.3417969 h 2.212891 q 2.835938,0 4.350586,-1.4179687 1.514648,-1.4179688 1.514648,-4.1679688 0,-2.6103516 -1.536132,-3.9853516 -1.525391,-1.385742 -4.66211,-1.385742 h -1.879883 z"
           style="font-weight:bold;font-family:Muli;-inkscape-font-specification:'Muli Bold';fill:#ffffff"
           id="path475" />
        <path
           d="M 37.919922,0 31.96875,-15.640625 h 3.061523 q 0.236329,0.666016 1.826172,5.188477 1.600586,4.5224605 2.481446,6.8749996 0.93457,-2.5673828 4.361328,-12.0634766 h 2.868164 L 40.626953,0 Z"
           style="font-weight:bold;font-family:Muli;-inkscape-font-specification:'Muli Bold';fill:#ffffff"
           id="path477" />
        <path
           d="m 58.834961,-6.359375 h 4.189453 q -1.235352,-3.663086 -2.073242,-6.09082 -0.698242,2.030273 -2.116211,6.09082 z m -5.5,6.359375 6.28418,-15.640625 h 2.771484 L 68.728516,0 H 65.645508 L 64.130859,-3.8134766 H 57.814453 L 56.332031,0 Z"
           style="font-weight:bold;font-family:Muli;-inkscape-font-specification:'Muli Bold';fill:#ffffff"
           id="path479" />
        <path
           d="m 70.393555,-13.298828 v -2.341797 h 2.578125 v 2.341797 z M 70.404297,0 V -11.021484 H 72.97168 V 0 Z"
           style="font-weight:bold;font-family:Muli;-inkscape-font-specification:'Muli Bold';fill:#ffffff"
           id="path481" />
        <path
           d="m 81.232422,-1.9013672 q 0.730469,0 1.27832,-0.2900391 0.547852,-0.3007812 0.859375,-0.8164062 0.322266,-0.5263672 0.472656,-1.1494141 0.161133,-0.6230468 0.161133,-1.3427734 0,-1.6113281 -0.698242,-2.6210938 -0.698242,-1.0205078 -2.094727,-1.0205078 -0.93457,0 -1.579101,0.5048828 -0.633789,0.5048829 -0.913086,1.2890626 -0.268555,0.7841796 -0.268555,1.8046875 0,0.7412109 0.150391,1.375 0.161133,0.633789 0.472656,1.1601562 0.322266,0.515625 0.870117,0.8164062 0.558594,0.2900391 1.289063,0.2900391 z M 80.68457,0.24707031 q -2.137695,0 -3.58789,-1.56835941 -1.439453,-1.5683593 -1.439453,-4.1357421 0,-1.1708985 0.333007,-2.2128907 0.333008,-1.0419922 0.956055,-1.8583984 0.633789,-0.8164067 1.654297,-1.2890627 1.020508,-0.483398 2.288086,-0.483398 1.138672,0 1.922851,0.472656 0.794922,0.461914 1.106446,0.9667969 v -5.7900389 h 2.642578 v 12.7080076 q 0,0.064453 0.09668,2.9433594 h -2.728516 l -0.02148,-1.4072266 q -0.09668,0.2470704 -0.322266,0.50488285 -0.225586,0.2578125 -0.601563,0.53710937 -0.375976,0.26855469 -0.977539,0.44042969 -0.601562,0.171875 -1.321289,0.171875 z"
           style="font-weight:bold;font-family:Muli;-inkscape-font-specification:'Muli Bold';fill:#ffffff"
           id="path483" />
        <path
           d="m 92.114258,-6.8320312 h 5.478515 q -0.193359,-1.1708985 -0.870117,-1.7939454 -0.676758,-0.6230468 -1.654297,-0.6230468 -1.149414,0 -1.922851,0.6445312 -0.773438,0.6445313 -1.03125,1.772461 z m 3.147461,7.07910151 q -2.782227,0 -4.393555,-1.58984371 Q 89.267578,-2.9326172 89.267578,-5.5 q 0,-1.1601562 0.386719,-2.2021484 0.386719,-1.0419922 1.084961,-1.8476563 0.708984,-0.8056643 1.783203,-1.2783203 1.084961,-0.472656 2.395508,-0.472656 1.310547,0 2.288086,0.451172 0.977539,0.451171 1.546875,1.2675777 0.569336,0.8056641 0.83789,1.8154297 0.279297,1.0097657 0.279297,2.234375 0,0.3115235 -0.05371,0.4726563 h -7.734375 q 0.06445,1.6113281 0.977539,2.3847656 0.923828,0.7734375 2.449219,0.7734375 1.783203,0 3.480469,-1.1816406 l 0.719726,1.9335937 q -1.041992,0.7197266 -2.105468,1.0634766 -1.052735,0.33300781 -2.341797,0.33300781 z"
           style="font-weight:bold;font-family:Muli;-inkscape-font-specification:'Muli Bold';fill:#ffffff"
           id="path485" />
      </g>
      <g
         aria-label="Numérique"
         transform="translate(895.4658,926.5983)"
         id="text31"
         style="font-size:22px;font-family:Muli-Bold;fill:#ffffff"
         class="st0 st1 st5">
        <path
           d="M 2.0410156,0 V -15.640625 H 4.9306641 Q 12.385742,-4.8339844 12.869141,-4.125 V -15.640625 H 15.46875 V 0 H 12.568359 Q 5.3603516,-10.40918 4.5654297,-11.537109 V 0 Z"
           style="font-weight:bold;font-family:Muli;-inkscape-font-specification:'Muli Bold';fill:#ffffff"
           id="path488" />
        <path
           d="m 23.138672,0.24707031 q -1.998047,0 -3.115235,-1.13867187 Q 18.90625,-2.0410156 18.90625,-4.0390625 v -6.9824215 h 2.642578 v 6.9394528 q 0,1.0957031 0.569336,1.6435546 0.569336,0.5371094 1.568359,0.5371094 1.192383,0 1.761719,-0.5908203 0.580078,-0.6015625 0.580078,-1.9228516 v -6.6064449 h 2.664063 v 8.0566402 L 28.821289,0 h -2.75 l -0.04297,-1.6328125 q -0.05371,0.2363281 -0.24707,0.5263672 -0.182617,0.27929686 -0.515625,0.60156249 -0.322266,0.32226562 -0.891602,0.53710937 -0.558593,0.21484375 -1.235351,0.21484375 z"
           style="font-weight:bold;font-family:Muli;-inkscape-font-specification:'Muli Bold';fill:#ffffff"
           id="path490" />
        <path
           d="m 31.96875,0 v -7.4765625 q 0,-1.1386719 -0.107422,-2.3417969 l -0.09668,-1.2031246 h 2.803711 v 1.4394527 q 0.408203,-0.7519527 1.246094,-1.2353517 0.848633,-0.483398 1.836914,-0.483398 1.063477,0 1.944336,0.515625 0.880859,0.515625 1.353516,1.5253904 1.417968,-2.0410154 3.577148,-2.0410154 2.019531,0 3.029297,1.213867 1.020508,1.2138671 1.020508,3.3300781 V 0 h -2.664063 v -6.5957031 q 0,-0.4404297 -0.0752,-0.8486328 -0.0752,-0.4082032 -0.24707,-0.8056641 -0.161133,-0.4082031 -0.494141,-0.6445313 -0.322266,-0.2470703 -0.773437,-0.2470703 -1.181641,0 -1.944336,0.9023438 -0.762696,0.9023437 -0.762696,1.9980469 V 0 h -2.664062 v -6.7353516 q 0,-0.3222656 -0.04297,-0.6123046 -0.03223,-0.3007813 -0.139648,-0.6337891 -0.107422,-0.34375 -0.290039,-0.5908203 -0.171875,-0.2470703 -0.494141,-0.4082032 -0.311523,-0.1611328 -0.719727,-0.1611328 -1.127929,0 -1.879882,0.741211 -0.751954,0.7304687 -0.751954,1.7080078 V 0 Z"
           style="font-weight:bold;font-family:Muli;-inkscape-font-specification:'Muli Bold';fill:#ffffff"
           id="path492" />
        <path
           d="m 54.011719,-6.8320312 h 5.478515 q -0.193359,-1.1708985 -0.870117,-1.7939454 -0.676758,-0.6230468 -1.654297,-0.6230468 -1.149414,0 -1.922851,0.6445312 -0.773438,0.6445313 -1.03125,1.772461 z m 3.147461,7.07910151 q -2.782227,0 -4.393555,-1.58984371 Q 51.165039,-2.9326172 51.165039,-5.5 q 0,-1.1601562 0.386719,-2.2021484 0.386719,-1.0419922 1.084961,-1.8476563 0.708984,-0.8056643 1.783203,-1.2783203 1.084961,-0.472656 2.395508,-0.472656 1.310547,0 2.288086,0.451172 0.977539,0.451171 1.546875,1.2675777 0.569336,0.8056641 0.83789,1.8154297 0.279297,1.0097657 0.279297,2.234375 0,0.3115235 -0.05371,0.4726563 h -7.734375 q 0.06445,1.6113281 0.977539,2.3847656 0.923828,0.7734375 2.449219,0.7734375 1.783203,0 3.480469,-1.1816406 l 0.719726,1.9335937 q -1.041992,0.7197266 -2.105468,1.0634766 -1.052735,0.33300781 -2.341798,0.33300781 z m -1.052735,-12.77246131 2.835938,-3.115234 h 3.416015 l -3.802734,3.115234 z"
           style="font-weight:bold;font-family:Muli;-inkscape-font-specification:'Muli Bold';fill:#ffffff"
           id="path494" />
        <path
           d="m 64.700195,0 v -8.2285156 q 0,-0.6445313 -0.05371,-1.3427735 -0.05371,-0.6982419 -0.107422,-1.0742189 l -0.05371,-0.375976 h 2.835937 v 1.4501949 q 0.655273,-0.8593749 1.299805,-1.2890629 0.655273,-0.440429 1.471679,-0.440429 0.483399,0 1.095704,0.161133 v 2.3310542 q -0.719727,-0.2363281 -1.332032,-0.2363281 -1.106445,0 -1.804687,0.7197266 -0.698242,0.7197266 -0.698242,2.0839844 V 0 Z"
           style="font-weight:bold;font-family:Muli;-inkscape-font-specification:'Muli Bold';fill:#ffffff"
           id="path496" />
        <path
           d="m 72.864258,-13.298828 v -2.341797 h 2.578125 v 2.341797 z M 72.875,0 v -11.021484 h 2.567383 V 0 Z"
           style="font-weight:bold;font-family:Muli;-inkscape-font-specification:'Muli Bold';fill:#ffffff"
           id="path498" />
        <path
           d="m 83.649414,-1.9013672 q 0.966797,0 1.611328,-0.515625 0.644531,-0.5263672 0.913086,-1.2998047 0.268555,-0.7841797 0.268555,-1.7724609 0,-1.6005859 -0.708985,-2.6210938 -0.708984,-1.03125 -2.105468,-1.03125 -0.934571,0 -1.579102,0.5048828 -0.633789,0.5048829 -0.913086,1.2890626 -0.268555,0.7841796 -0.268555,1.8046875 0,0.7412109 0.150391,1.375 0.161133,0.633789 0.472656,1.1601562 0.322266,0.515625 0.870118,0.8164062 0.558593,0.2900391 1.289062,0.2900391 z m 2.642578,6.1445313 v -5.12402348 q -1.417969,1.12792969 -3.018555,1.12792969 -1.03125,0 -1.890625,-0.32226562 -0.859375,-0.33300782 -1.460937,-0.89160157 -0.601563,-0.56933592 -1.020508,-1.33203122 -0.418945,-0.7626953 -0.612305,-1.6113282 -0.193359,-0.8486328 -0.193359,-1.7617187 0,-1.1171875 0.34375,-2.1269531 0.34375,-1.0097657 0.977539,-1.7939453 0.644531,-0.7841796 1.643555,-1.2460936 0.999023,-0.461914 2.234375,-0.461914 0.773437,0 1.579101,0.365234 0.805664,0.365234 1.439454,1.0957032 v -1.1816402 h 2.717773 q -0.107422,1.4501949 -0.107422,3.1796871 v 12.084961 z"
           style="font-weight:bold;font-family:Muli;-inkscape-font-specification:'Muli Bold';fill:#ffffff"
           id="path500" />
        <path
           d="m 96.024414,0.24707031 q -1.998047,0 -3.115234,-1.13867187 -1.117188,-1.14941404 -1.117188,-3.14746094 v -6.9824215 h 2.642578 v 6.9394528 q 0,1.0957031 0.569336,1.6435546 0.569336,0.5371094 1.56836,0.5371094 1.192382,0 1.761718,-0.5908203 0.580078,-0.6015625 0.580078,-1.9228516 v -6.6064449 h 2.664068 v 8.0566402 L 101.70703,0 h -2.749999 l -0.04297,-1.6328125 q -0.05371,0.2363281 -0.24707,0.5263672 -0.182617,0.27929686 -0.515625,0.60156249 -0.322265,0.32226562 -0.891601,0.53710937 -0.558594,0.21484375 -1.235351,0.21484375 z"
           style="font-weight:bold;font-family:Muli;-inkscape-font-specification:'Muli Bold';fill:#ffffff"
           id="path502" />
        <path
           d="m 107.14258,-6.8320312 h 5.47851 q -0.19336,-1.1708985 -0.87011,-1.7939454 -0.67676,-0.6230468 -1.6543,-0.6230468 -1.14941,0 -1.92285,0.6445312 -0.77344,0.6445313 -1.03125,1.772461 z m 3.14746,7.07910151 q -2.78223,0 -4.39356,-1.58984371 Q 104.2959,-2.9326172 104.2959,-5.5 q 0,-1.1601562 0.38672,-2.2021484 0.38672,-1.0419922 1.08496,-1.8476563 0.70898,-0.8056643 1.7832,-1.2783203 1.08496,-0.472656 2.39551,-0.472656 1.31055,0 2.28809,0.451172 0.97753,0.451171 1.54687,1.2675777 0.56934,0.8056641 0.83789,1.8154297 0.2793,1.0097657 0.2793,2.234375 0,0.3115235 -0.0537,0.4726563 h -7.73438 q 0.0645,1.6113281 0.97754,2.3847656 0.92383,0.7734375 2.44922,0.7734375 1.7832,0 3.48047,-1.1816406 l 0.71972,1.9335937 q -1.04199,0.7197266 -2.10546,1.0634766 -1.05274,0.33300781 -2.3418,0.33300781 z"
           style="font-weight:bold;font-family:Muli;-inkscape-font-specification:'Muli Bold';fill:#ffffff"
           id="path504" />
      </g>
    </g>
  </g>
</svg>
