<?xml version="1.0" encoding="utf-8"?>
<!-- Generator: Adobe Illustrator 21.1.0, SVG Export Plug-In . SVG Version: 6.00 Build 0)  -->
<svg version="1.1" id="Calque_1" xmlns="http://www.w3.org/2000/svg" xmlns:xlink="http://www.w3.org/1999/xlink" x="0px" y="0px"
	 viewBox="0 0 43 43" enable-background="new 0 0 43 43" xml:space="preserve">
<path fill="#FFFFFF" d="M33.5,2.6H33V0h-3v2.6h-7V0h-3v2.6h-7V0h-3v2.6H9.5C4.3,2.6,0,6.8,0,12v21.7C0,38.8,4.3,43,9.5,43h24
	c5.2,0,9.5-4.2,9.5-9.4V12C43,6.8,38.7,2.6,33.5,2.6z M9.5,5.6H10v2.3h3V5.6h7v2.3h3V5.6h7v2.3h3V5.6h0.5c3.6,0,6.5,2.9,6.5,6.4v3.2
	H3V12C3,8.5,5.9,5.6,9.5,5.6z M33.5,40h-24C5.9,40,3,37.2,3,33.6V18.2h37v15.5C40,37.2,37.1,40,33.5,40z"/>
<path fill="#FFFFFF" d="M21.5,30.6c-2,0-3.8-1.2-4.6-2.9L14.1,29c1.3,2.8,4.2,4.6,7.4,4.6c3.1,0,6-1.8,7.4-4.6l-2.7-1.3
	C25.3,29.5,23.5,30.6,21.5,30.6z"/>
</svg>
