<?xml version="1.0" encoding="UTF-8" standalone="no"?>
<svg
   xmlns:dc="http://purl.org/dc/elements/1.1/"
   xmlns:cc="http://creativecommons.org/ns#"
   xmlns:rdf="http://www.w3.org/1999/02/22-rdf-syntax-ns#"
   xmlns:svg="http://www.w3.org/2000/svg"
   xmlns="http://www.w3.org/2000/svg"
   xmlns:sodipodi="http://sodipodi.sourceforge.net/DTD/sodipodi-0.dtd"
   xmlns:inkscape="http://www.inkscape.org/namespaces/inkscape"
   viewBox="0 0 43 43"
   version="1.1"
   id="svg866"
   sodipodi:docname="logo_small.svg"
   inkscape:version="0.92.4 (5da689c313, 2019-01-14)">
  <metadata
     id="metadata872">
    <rdf:RDF>
      <cc:Work
         rdf:about="">
        <dc:format>image/svg+xml</dc:format>
        <dc:type
           rdf:resource="http://purl.org/dc/dcmitype/StillImage" />
      </cc:Work>
    </rdf:RDF>
  </metadata>
  <defs
     id="defs870" />
  <sodipodi:namedview
     pagecolor="#ffffff"
     bordercolor="#666666"
     borderopacity="1"
     objecttolerance="10"
     gridtolerance="10"
     guidetolerance="10"
     inkscape:pageopacity="0"
     inkscape:pageshadow="2"
     inkscape:window-width="1366"
     inkscape:window-height="704"
     id="namedview868"
     showgrid="true"
     inkscape:zoom="11.930233"
     inkscape:cx="21.5"
     inkscape:cy="21.5"
     inkscape:window-x="0"
     inkscape:window-y="27"
     inkscape:window-maximized="1"
     inkscape:current-layer="svg866">
    <inkscape:grid
       type="xygrid"
       id="grid1174" />
  </sodipodi:namedview>
  <path
     fill="#FFF"
     d="M21.5 30.6c-2 0-3.8-1.2-4.6-2.9L14.1 29c1.3 2.8 4.2 4.6 7.4 4.6 3.1 0 6-1.8 7.4-4.6l-2.7-1.3c-.9 1.8-2.7 2.9-4.7 2.9z"
     id="path864"
     style="fill:#222e5c;fill-opacity:1;opacity:0.99;stroke:#222e5c;stroke-opacity:1" />
  <path
     fill="#FFF"
     d="M33.5 2.6H33V0h-3v2.6h-7V0h-3v2.6h-7V0h-3v2.6h-.5C4.3 2.6 0 6.8 0 12v21.7C0 38.8 4.3 43 9.5 43h24c5.2 0 9.5-4.2 9.5-9.4V12c0-5.2-4.3-9.4-9.5-9.4zm-24 3h.5v2.3h3V5.6h7v2.3h3V5.6h7v2.3h3V5.6h.5c3.6 0 6.5 2.9 6.5 6.4v3.2H3V12c0-3.5 2.9-6.4 6.5-6.4zm24 34.4h-24C5.9 40 3 37.2 3 33.6V18.2h37v15.5c0 3.5-2.9 6.3-6.5 6.3z"
     id="path862"
     style="fill:#222e5c;fill-opacity:1;opacity:1;stroke:#222e5c;stroke-opacity:1;stroke-width:1.0015748;stroke-miterlimit:4;stroke-dasharray:none" />
</svg>
