<?xml version="1.0" standalone="yes"?><svg xmlns="http://www.w3.org/2000/svg" enable-background="new 0 0 82.1 22" viewBox="0 0 22 22" style="zoom: 1;"><g fill="#fff"><path d="M16,1.6 h-.2 v-1.6 h-1.5 v1.6 h-3.4 v-1.6 h-1.4 v1.6 h-3.4 v-1.6 h-1.5 v1.6 h-.2 c-2.4,0 -4.4,2 -4.4,4.4 v11.6 c0,2.4 2,4.4 4.4,4.4 h11.6 c2.4,0 4.4,-2 4.4,-4.4 v-11.6 c0,-2.4 -2,-4.4 -4.4,-4.4 m-11.6,1.4 h.2 v1.1 h1.5 v-1.1 h3.4 v1.1 h1.5 v-1.1 h3.4 v1.1 h1.5 v-1.1 h.1 c1.6,0 3,1.3 3,3 v1.6 h-17.5 v-1.6 c0,-1.6 1.3,-3 2.9,-3 m11.6,17.5 h-11.6 c-1.6,0 -3,-1.3 -3,-3 v-8.5 h17.5 v8.5 c0,1.7 -1.3,3 -2.9,3  z "></path><path d="m10.2 15.9c-1 0-1.8-.6-2.3-1.4l-1.3.6c.7 1.4 2.1 2.3 3.6 2.3s2.9-.9 3.6-2.3l-1.3-.6c-.4.8-1.3 1.4-2.3 1.4z"></path></g></svg>