<?xml version="1.0" encoding="utf-8"?>
<!-- Generator: Adobe Illustrator 25.1.0, SVG Export Plug-In . SVG Version: 6.00 Build 0)  -->
<svg version="1.1" id="Calque_2" xmlns="http://www.w3.org/2000/svg" xmlns:xlink="http://www.w3.org/1999/xlink" x="0px" y="0px"
	 viewBox="0 0 371.9 157.6" style="enable-background:new 0 0 371.9 157.6;" xml:space="preserve">
<style type="text/css">
	.st0{fill:#E1000F;}
	.st1{fill:#FFFFFF;}
	.st2{fill:#000091;}
</style>
<g>
	<g>
		<polygon class="st0" points="46.8,0 0,27 0,81.1 44.3,157.6 49.3,157.6 93.6,81.1 93.6,27 		"/>
		<polygon class="st1" points="60.2,46.3 77.9,46.3 77.9,36.1 46.8,18.1 15.7,36.1 15.7,72 46.8,90 77.9,72 77.9,61.8 60.2,61.8 		
			"/>
		<polygon class="st2" points="60.2,61.8 60.2,46.3 46.8,38.6 33.4,46.3 33.4,61.8 46.8,69.5 		"/>
		<g>
			<path class="st1" d="M149.5,26.2l4.5,3.5c-2.6,3.5-6.8,5.8-12,5.8c-9,0-15.1-6.9-15.1-15c0-8.1,6.1-15,15.1-15
				c5.2,0,9.4,2.3,12,5.8l-4.5,3.5c-1.6-2.3-4.2-3.9-7.4-3.9c-5.4,0-9.2,4.2-9.2,9.6c0,5.4,3.8,9.6,9.2,9.6
				C145.3,30.1,147.9,28.5,149.5,26.2z"/>
			<path class="st1" d="M186.3,20.5c0,8.1-6.1,15-15.1,15c-9,0-15.1-6.9-15.1-15c0-8.1,6.1-15,15.1-15
				C180.2,5.4,186.3,12.3,186.3,20.5z M180.4,20.5c0-5.4-3.8-9.6-9.1-9.6c-5.4,0-9.2,4.2-9.2,9.6c0,5.4,3.8,9.6,9.2,9.6
				C176.6,30.1,180.4,25.9,180.4,20.5z"/>
			<path class="st1" d="M191.3,6.2h7.4l12.7,20.4V6.2h5.8v28.4h-7.4l-12.7-20.4v20.4h-5.8V6.2z"/>
			<path class="st1" d="M226.3,26.9c1.7,2.2,4,3.5,6.3,3.5c2.3,0,3.7-1.2,3.7-3.3c0-5.1-13-3.9-13-13.4c0-4.5,3.7-8.2,9.1-8.2
				c4.3,0,7.6,1.9,10,4.8l-4.2,3.8c-1.7-2.2-3.5-3.5-5.7-3.5c-2,0-3.3,1.3-3.3,3c0,5.1,13,3.9,13,13.5c-0.1,5.3-4.2,8.5-9.4,8.5
				c-4.8,0-8-1.7-10.6-4.8L226.3,26.9z"/>
			<path class="st1" d="M247.7,6.2h16.6v4.9h-10.8v6.6h9.2v4.9h-9.2v7.1h10.8v4.9h-16.6V6.2z"/>
			<path class="st1" d="M270.4,6.2h5.8v28.4h-5.8V6.2z"/>
			<path class="st1" d="M283.7,6.2h5.8v23.2h10.8v5.2h-16.6V6.2z"/>
			<path class="st1" d="M304.8,6.2h5.8v23.2h10.8v5.2h-16.6V6.2z"/>
			<path class="st1" d="M326,6.2h16.6v4.9h-10.8v6.6h9.2v4.9h-9.2v7.1h10.8v4.9H326V6.2z"/>
			<path class="st1" d="M348.7,6.2h8.7c6.3,0,10.1,3.2,10.1,8.5c0,3.4-1.7,6-4.5,7.4l8.9,12.6H365l-7.6-11.5h-3v11.5h-5.8V6.2z
				 M354.5,11.2v7.1h3.2c2.4,0,3.9-1.3,3.9-3.6c0-2.2-1.4-3.5-3.9-3.5H354.5z"/>
		</g>
		<g>
			<path class="st1" d="M127.4,47.2h7.4l12.7,20.4V47.2h5.8v28.4h-7.4l-12.7-20.4v20.4h-5.8V47.2z"/>
			<path class="st1" d="M177.2,47.2h5.8v17.3c0,7.5-4.4,11.9-11.5,11.9c-7.1,0-11.5-4.5-11.5-11.9V47.2h5.8V65
				c0,3.8,2.2,6.1,5.8,6.1c3.5,0,5.7-2.2,5.7-6.1V47.2z"/>
			<path class="st1" d="M189.6,47.2h7.3l6.9,11.7l6.9-11.7h7.3v28.4h-5.8V55.4l-6.3,10.5h-4.1l-6.3-10.5v20.2h-5.8V47.2z"/>
			<path class="st1" d="M225.3,47.2h16.6v4.9h-10.8v6.6h9.2v4.9h-9.2v7.1h10.8v4.9h-16.6V47.2z M230.9,44.8l4.6-5.5h5.9l-5.3,5.5
				H230.9z"/>
			<path class="st1" d="M248.1,47.2h8.7c6.3,0,10.1,3.2,10.1,8.5c0,3.4-1.7,6-4.6,7.4l8.9,12.6h-6.9l-7.6-11.5h-3v11.5h-5.8V47.2z
				 M253.9,52.2v7.1h3.2c2.4,0,3.9-1.3,3.9-3.6c0-2.2-1.4-3.5-3.9-3.5H253.9z"/>
			<path class="st1" d="M274.4,47.2h5.8v28.4h-5.8V47.2z"/>
			<path class="st1" d="M317.4,77.7c0.6,0,1.4-0.1,2-0.3v4.9c-0.9,0.4-1.7,0.5-3,0.5c-3.2,0-6.1-1.3-8.9-3.7l-3.4-3
				c-1.2,0.3-2.5,0.5-3.9,0.5c-9,0-15.1-6.9-15.1-15c0-8.1,6.1-15,15.1-15c8.9,0,15.1,6.9,15.1,15c0,4.8-2.1,9.1-5.6,11.9l1.7,1.6
				C313.7,76.9,315.6,77.7,317.4,77.7z M309.4,61.5c0-5.4-3.8-9.6-9.1-9.6c-5.4,0-9.2,4.2-9.2,9.6s3.8,9.6,9.2,9.6
				C305.6,71.1,309.4,66.9,309.4,61.5z"/>
			<path class="st1" d="M336.8,47.2h5.8v17.3c0,7.5-4.4,11.9-11.5,11.9c-7.1,0-11.5-4.5-11.5-11.9V47.2h5.8V65
				c0,3.8,2.2,6.1,5.8,6.1c3.5,0,5.7-2.2,5.7-6.1V47.2z"/>
			<path class="st1" d="M349.3,47.2h16.6v4.9H355v6.6h9.2v4.9H355v7.1h10.8v4.9h-16.6V47.2z"/>
		</g>
		<g>
			<path class="st1" d="M127.5,89.7h16.6v4.9h-10.8v6.6h9.2v4.9h-9.2v12h-5.8V89.7z"/>
			<path class="st1" d="M147.6,97.7h5.2v2c1.3-1.4,3.1-2.4,5.4-2.4c0.7,0,1.3,0.1,1.8,0.3v5.4c-0.6-0.2-1.3-0.3-2.3-0.3
				c-2.5,0-4.1,1.4-4.9,2.6v12.8h-5.2V97.7z"/>
			<path class="st1" d="M162.1,112.7c0-3.1,2.4-5.5,6.8-6.3l6.2-1.1v-0.5c0-2.2-1.6-3.5-3.9-3.5c-2,0-3.7,0.9-4.6,2.4l-3.8-2.9
				c1.8-2.5,4.9-4.1,8.6-4.1c5.9,0,9,3.5,9,8v13.2h-5.2v-1.9c-1.3,1.6-3.7,2.7-6.1,2.7C164.9,119,162.1,116.6,162.1,112.7z
				 M170.1,114.8c2.3,0,4-1.2,5-2.9v-2.8l-4.8,0.9c-2.2,0.4-3,1.3-3,2.6C167.2,113.8,168.3,114.8,170.1,114.8z"/>
			<path class="st1" d="M185.3,97.7h5.2v1.6c1.4-1.4,3.3-2.4,6.1-2.4c4.4,0,8,3,8,9.1v12.2h-5.2v-12c0-2.7-1.5-4.4-4-4.4
				c-2.6,0-4,1.7-4.8,3v13.4h-5.2V97.7z"/>
			<path class="st1" d="M223.8,111.7l4.1,3.1c-1.9,2.5-4.9,4.1-8.7,4.1c-7.1,0-11.3-5.1-11.3-11c0-6,4.2-11.1,11.3-11.1
				c3.7,0,6.7,1.6,8.7,4.1l-4.1,3.1c-1-1.4-2.5-2.4-4.6-2.4c-3.4,0-5.8,2.6-5.8,6.2c0,3.6,2.5,6.2,5.9,6.2
				C221.3,114.1,222.9,113.1,223.8,111.7z"/>
			<path class="st1" d="M240.8,119c-7.3,0-11.4-5.1-11.4-11c0-6.1,3.8-11.1,10.5-11.1c5.7,0,9.4,3.8,9.4,9.2c0,1.1-0.2,2.2-0.3,2.9
				h-14.3c0.3,3.4,2.7,5.4,6.2,5.4c2.2,0,4.1-1,5.2-2.4l3.7,2.9C247.8,117.4,244.7,119,240.8,119z M235,105.1h9.2
				c-0.1-2-1.6-3.9-4.3-3.9C237.4,101.2,235.7,102.4,235,105.1z"/>
		</g>
		<g>
			<path class="st1" d="M129.2,149.2c1.3,1.6,2.8,2.7,4.7,2.7c1.6,0,2.5-0.9,2.5-2.1c0-3.6-9.5-2.1-9.5-9.5c0-3.6,3-6.3,7.3-6.3
				c3.2,0,6,1.5,7.5,3.5l-3.5,3.1c-1.1-1.3-2.4-2.4-4-2.4c-1.5,0-2.4,0.7-2.4,1.9c0,3.5,9.5,2.1,9.5,9.3c-0.1,4.3-3.5,6.7-7.4,6.7
				c-3.7,0-6.3-1.5-8.2-3.8L129.2,149.2z"/>
			<path class="st1" d="M155.2,156.1c-7.3,0-11.4-5.1-11.4-11c0-6.1,3.8-11.1,10.5-11.1c5.7,0,9.4,3.8,9.4,9.2
				c0,1.1-0.2,2.2-0.3,2.9h-14.3c0.3,3.4,2.7,5.4,6.2,5.4c2.2,0,4.1-1,5.2-2.4l3.7,2.9C162.2,154.5,159.1,156.1,155.2,156.1z
				 M149.4,142.2h9.2c-0.1-2-1.6-3.9-4.3-3.9C151.8,138.3,150.1,139.5,149.4,142.2z"/>
			<path class="st1" d="M167.9,134.8h5.2v2c1.3-1.4,3.1-2.4,5.4-2.4c0.7,0,1.3,0.1,1.8,0.3v5.4c-0.6-0.2-1.3-0.3-2.3-0.3
				c-2.5,0-4.1,1.4-4.9,2.6v12.8h-5.2V134.8z"/>
			<path class="st1" d="M186.6,134.8l5.3,14.6l5.3-14.6h5.6l-7.5,20.5h-6.8l-7.4-20.5H186.6z"/>
			<path class="st1" d="M204.4,127.9c0-1.8,1.5-3.4,3.4-3.4c1.8,0,3.3,1.5,3.3,3.4s-1.5,3.4-3.3,3.4
				C205.9,131.2,204.4,129.7,204.4,127.9z M205.1,134.8h5.2v20.5h-5.2V134.8z"/>
			<path class="st1" d="M230,148.8l4.1,3.1c-1.9,2.5-4.9,4.1-8.7,4.1c-7.1,0-11.3-5.1-11.3-11c0-6,4.2-11.1,11.3-11.1
				c3.7,0,6.7,1.6,8.7,4.1l-4.1,3.1c-1-1.4-2.5-2.4-4.6-2.4c-3.4,0-5.8,2.6-5.8,6.2c0,3.6,2.5,6.2,5.9,6.2
				C227.4,151.2,229,150.3,230,148.8z"/>
			<path class="st1" d="M246.9,156.1c-7.3,0-11.4-5.1-11.4-11c0-6.1,3.8-11.1,10.5-11.1c5.7,0,9.4,3.8,9.4,9.2
				c0,1.1-0.2,2.2-0.3,2.9h-14.3c0.3,3.4,2.7,5.4,6.2,5.4c2.2,0,4.1-1,5.2-2.4l3.7,2.9C254,154.5,250.8,156.1,246.9,156.1z
				 M241.2,142.2h9.2c-0.1-2-1.6-3.9-4.3-3.9C243.6,138.3,241.9,139.5,241.2,142.2z"/>
			<path class="st1" d="M261.2,149.2c1.3,1.6,2.8,2.7,4.7,2.7c1.6,0,2.5-0.9,2.5-2.1c0-3.6-9.5-2.1-9.5-9.5c0-3.6,3-6.3,7.3-6.3
				c3.2,0,6,1.5,7.5,3.5l-3.5,3.1c-1.1-1.3-2.4-2.4-4-2.4c-1.5,0-2.4,0.7-2.4,1.9c0,3.5,9.5,2.1,9.5,9.3c-0.1,4.3-3.5,6.7-7.4,6.7
				c-3.7,0-6.3-1.5-8.2-3.8L261.2,149.2z"/>
		</g>
	</g>
</g>
</svg>
