<?xml version="1.0" encoding="UTF-8"?>
<svg width="62px" height="62px" viewBox="0 0 62 62" version="1.1" xmlns="http://www.w3.org/2000/svg" xmlns:xlink="http://www.w3.org/1999/xlink">
    <title>Slice Copy</title>
    <g id="Page-1" stroke="none" stroke-width="1" fill="none" fill-rule="evenodd">
        <rect id="Rectangle-Copy" fill="#222E5C" x="0" y="0" width="62" height="62" rx="8"></rect>
        <g id="logo-copy" transform="translate(5.000000, 22.000000)" fill="#FFFFFF" fill-rule="nonzero">
            <path d="M15,17.7 L11.6,17.7 L9.3,11.8 C9.1,11.3 8.8,10.9 8.4,10.7 C8,10.5 7.4,10.4 6.8,10.4 L3.6,10.4 L3.6,17.8 L0.4,17.8 L0.4,0 L8,0 C10,0 11.5,0.4 12.6,1.3 C13.6,2.2 14.2,3.4 14.2,5.1 C14.2,6.3 13.9,7.3 13.3,8.1 C12.7,8.9 11.8,9.5 10.6,9.9 C11.6,10.1 12.4,10.8 12.9,12.1 L15,17.7 L15,17.7 Z M7.6,7.8 C8.8,7.8 9.7,7.6 10.3,7.1 C10.9,6.6 11.2,6 11.2,5.1 C11.2,4.2 10.9,3.5 10.3,3.1 C9.7,2.7 8.8,2.4 7.6,2.4 L3.6,2.4 L3.6,7.8 L7.6,7.8 Z M17.9,0 L24.4,0 C27.3,0 29.6,0.8 31.2,2.3 C32.8,3.8 33.6,6 33.6,8.8 C33.6,11.6 32.8,13.8 31.2,15.4 C29.6,17 27.3,17.7 24.4,17.7 L17.9,17.7 L17.9,0 Z M24.3,15.1 C28.4,15.1 30.4,13 30.4,8.8 C30.4,4.6 28.4,2.6 24.3,2.6 L21.2,2.6 L21.2,15.1 L24.3,15.1 Z M49.4,0 L52.7,0 L44.8,17.7 L42.2,17.7 L34.3,0 L37.6,0 L43.5,13.7 L49.4,0 Z" id="Shape"></path>
        </g>
    </g>
</svg>