<?xml version="1.0" encoding="UTF-8"?>
<svg id="TEXT" xmlns="http://www.w3.org/2000/svg" viewBox="0 0 500 500">
  <defs>
    <style>
      .cls-1 {
        stroke-width: 3px;
      }

      .cls-1, .cls-2, .cls-3, .cls-4, .cls-5 {
        stroke-miterlimit: 10;
      }

      .cls-1, .cls-3, .cls-4, .cls-5 {
        fill: none;
      }

      .cls-1, .cls-4 {
        stroke: #86a1db;
      }

      .cls-2 {
        fill: #80a2dd;
        stroke: #80a2dd;
      }

      .cls-3 {
        stroke-width: 10.02px;
      }

      .cls-3, .cls-5 {
        stroke: #b5ccf4;
      }

      .cls-4 {
        stroke-width: 2px;
      }

      .cls-6 {
        fill: #f7eada;
      }

      .cls-6, .cls-7, .cls-8, .cls-9, .cls-10, .cls-11, .cls-12, .cls-13, .cls-14 {
        stroke-width: 0px;
      }

      .cls-7 {
        fill: #86a1db;
      }

      .cls-8 {
        fill: #d0def7;
      }

      .cls-9 {
        fill: #e2654d;
      }

      .cls-10 {
        fill: #b5ccf4;
      }

      .cls-11 {
        fill: #fdffff;
      }

      .cls-12 {
        fill: #ffe3b8;
      }

      .cls-13 {
        fill: #eef2ff;
      }

      .cls-14 {
        fill: #e7a480;
      }

      .cls-5 {
        stroke-width: 5.52px;
      }
    </style>
  </defs>
  <path class="cls-13" d="M59.41,219.98c-5.65,18.07-14.74,34.83-22.61,52.06-14.51,31.78-25.02,66.82-19.94,101.36,6.21,42.15,36.53,79.31,75.66,96.49,39.13,17.18,85.74,14.89,124.3-3.55,18.42-8.81,34.24-23.61,53.98-28.85,42.64-11.32,65.58,39.32,146.29,29.03,27.54-3.51,50.8-24.66,63.16-49.43,12.36-24.77,14.32-53.9,8.77-81.01-3.52-17.17-8.83-63.1-11.29-80.45-4.85-34.14,5.74-68.29,10.86-102.39,5.12-34.1,3.25-72.87-21.02-97.45-14.99-15.18-37.51-22.62-58.64-19.36-23.86,3.68-44.56,19.79-68.55,22.54-28.99,3.32-55.93-13.2-82.74-24.67-27.58-11.8-57.29-18.64-87.27-20.09-17.63-.85-35.63.2-52.24,6.14-27.44,9.81-49.27,32.9-59.54,60.08-8.77,23.19-9.67,49.62-3.35,73.55,2.73,10.34,8.32,17.5,9.16,28.67.95,12.59-1.22,25.32-4.97,37.33Z"/>
  <g>
    <g>
      <path class="cls-7" d="M293.48,57.79h167.92v136.4c0,6.07-4.93,11-11,11h-145.93c-6.07,0-11-4.93-11-11V57.79h0Z"/>
      <path class="cls-11" d="M293.48,55.33h167.92v136.4c0,6.07-4.93,11-11,11h-145.93c-6.07,0-11-4.93-11-11V55.33h0Z"/>
      <path class="cls-7" d="M304.48,40.27h145.93c6.07,0,11,4.93,11,11v4.07h-167.92v-4.07c0-6.07,4.93-11,11-11Z"/>
      <path class="cls-11" d="M315.07,48.04c0,2.71-2.2,4.91-4.91,4.91s-4.91-2.2-4.91-4.91,2.2-4.91,4.91-4.91,4.91,2.2,4.91,4.91Z"/>
      <path class="cls-12" d="M328.4,48.04c0,2.71-2.2,4.91-4.91,4.91s-4.91-2.2-4.91-4.91,2.2-4.91,4.91-4.91,4.91,2.2,4.91,4.91Z"/>
      <path class="cls-14" d="M341.73,48.04c0,2.71-2.2,4.91-4.91,4.91s-4.91-2.2-4.91-4.91,2.2-4.91,4.91-4.91,4.91,2.2,4.91,4.91Z"/>
    </g>
    <g>
      <g>
        <path class="cls-14" d="M364.9,281.93l-5.82,20.27c-5.34,1.45-10.42,3.52-15.13,6.16l-18.67-10.25-16.69,4.65v11.83l10.39,18.43c-2.68,4.65-4.77,9.67-6.24,14.94l-20.53,5.75v23.35l20.53,5.75c1.47,5.27,3.57,10.29,6.24,14.94l-10.39,6.61v11.83l16.69,16.48,18.67-10.25c4.71,2.65,9.79,4.71,15.13,6.16l5.82,20.27h23.66l5.82-20.27c5.34-1.45,10.42-3.52,15.13-6.16l18.67,10.25,16.69-16.48v-11.83l-10.39-6.61c2.68-4.65,4.77-9.67,6.24-14.94l20.53-5.75v-23.35l-20.53-5.75c-1.47-5.27-3.56-10.29-6.24-14.94l10.39-18.43v-11.83l-16.69-4.65-18.67,10.25c-4.71-2.65-9.79-4.71-15.13-6.16l-5.82-20.27h-23.66ZM376.73,314.48c28.4,0,51.57,22.87,51.57,50.91s-23.17,50.91-51.57,50.91-51.57-22.87-51.57-50.91,23.17-50.91,51.57-50.91Z"/>
        <path class="cls-6" d="M364.9,270.1l-5.82,20.27c-5.34,1.45-10.42,3.52-15.13,6.16l-18.67-10.25-16.69,16.48,10.39,18.43c-2.68,4.65-4.77,9.67-6.24,14.94l-20.53,5.75v23.35l20.53,5.75c1.47,5.27,3.57,10.29,6.24,14.94l-10.39,18.43,16.69,16.48,18.67-10.25c4.71,2.65,9.79,4.71,15.13,6.16l5.82,20.27h23.66l5.82-20.27c5.34-1.45,10.42-3.52,15.13-6.16l18.67,10.25,16.69-16.48-10.39-18.43c2.68-4.65,4.77-9.67,6.24-14.94l20.53-5.75v-23.35l-20.53-5.75c-1.47-5.27-3.56-10.29-6.24-14.94l10.39-18.43-16.69-16.48-18.67,10.25c-4.71-2.65-9.79-4.71-15.13-6.16l-5.82-20.27h-23.66ZM376.73,302.65c28.4,0,51.57,22.87,51.57,50.91s-23.17,50.91-51.57,50.91-51.57-22.87-51.57-50.91,23.17-50.91,51.57-50.91Z"/>
      </g>
      <g>
        <path class="cls-10" d="M360,354.25l-13.56,3.93,13.56,3.93v8.54l-22.78-8.28v-8.43l22.78-8.22v8.54Z"/>
        <path class="cls-10" d="M371.72,378.18h-8.64l20.58-40.27h8.64l-20.58,40.27Z"/>
        <path class="cls-10" d="M418.01,353.94v8.43l-22.62,8.28v-8.54l13.41-3.93-13.41-3.93v-8.54l22.62,8.22Z"/>
      </g>
    </g>
    <g>
      <g>
        <circle class="cls-14" cx="426.73" cy="244.42" r="30.27" transform="translate(117.66 626.93) rotate(-80.86)"/>
        <path class="cls-14" d="M409.92,259.75c-3.44,5.52-9.01,9.68-15.29,11.4,8.29.25,16.59-1.43,23.18-6.48"/>
      </g>
      <g>
        <path class="cls-11" d="M417.89,243.91c0,2.56-2.08,4.64-4.64,4.64s-4.64-2.08-4.64-4.64,2.08-4.64,4.64-4.64,4.64,2.08,4.64,4.64Z"/>
        <path class="cls-11" d="M432.2,243.91c0,2.56-2.08,4.64-4.64,4.64s-4.64-2.08-4.64-4.64,2.08-4.64,4.64-4.64,4.64,2.08,4.64,4.64Z"/>
        <path class="cls-11" d="M446.5,243.91c0,2.56-2.08,4.64-4.64,4.64s-4.64-2.08-4.64-4.64,2.08-4.64,4.64-4.64,4.64,2.08,4.64,4.64Z"/>
      </g>
    </g>
    <g>
      <path class="cls-2" d="M198.28,72.49l-10.32-21.25c-2.42-4.99-7.49-8.16-13.03-8.16H57.33c-8,0-14.49,6.49-14.49,14.49v260.9c0,8,6.49,14.49,14.49,14.49h292.83c8,0,14.49-6.49,14.49-14.49V86.99c0-8-6.49-14.49-14.49-14.49h-151.88Z"/>
      <path class="cls-10" d="M198.28,68.08l-10.32-21.25c-2.42-4.99-7.49-8.16-13.03-8.16H57.33c-8,0-14.49,6.49-14.49,14.49v260.9c0,8,6.49,14.49,14.49,14.49h292.83c8,0,14.49-6.49,14.49-14.49V82.57c0-8-6.49-14.49-14.49-14.49h-151.88Z"/>
      <path class="cls-7" d="M187.34,68.08H51.36v-14.24c0-3.31,2.68-5.99,5.99-5.99h117.83c1.89,0,3.61,1.11,4.38,2.84l7.78,17.39Z"/>
      <g>
        <path class="cls-7" d="M54.11,101.83h172.97v70.54c0,6.14-4.99,11.13-11.13,11.13H65.24c-6.14,0-11.13-4.99-11.13-11.13v-70.54h0Z"/>
        <path class="cls-11" d="M54.11,99.34h172.97v70.54c0,6.14-4.99,11.13-11.13,11.13H65.24c-6.14,0-11.13-4.99-11.13-11.13v-70.54h0Z"/>
        <path class="cls-14" d="M65.24,84.09h150.71c6.14,0,11.13,4.99,11.13,11.13v4.12H54.11v-4.12c0-6.14,4.99-11.13,11.13-11.13Z"/>
        <path class="cls-11" d="M75.97,91.96c0,2.75-2.23,4.97-4.97,4.97s-4.97-2.23-4.97-4.97,2.23-4.97,4.97-4.97,4.97,2.23,4.97,4.97Z"/>
        <path class="cls-12" d="M89.46,91.96c0,2.75-2.23,4.97-4.97,4.97s-4.97-2.23-4.97-4.97,2.23-4.97,4.97-4.97,4.97,2.23,4.97,4.97Z"/>
        <path class="cls-7" d="M102.95,91.96c0,2.75-2.23,4.97-4.97,4.97s-4.97-2.23-4.97-4.97,2.23-4.97,4.97-4.97,4.97,2.23,4.97,4.97Z"/>
      </g>
      <g>
        <path class="cls-7" d="M154.61,252.54c0,1.01-.05,2.01-.12,3l19.22.02c.05-1,.08-2.01.08-3.02,0-32.91-26.68-59.59-59.59-59.59v19.18c22.32,0,40.42,18.1,40.42,40.42Z"/>
        <path class="cls-14" d="M114.19,292.96v19.18c12.68,0,24.43-3.97,34.09-10.72l-11.43-15.4c-6.46,4.38-14.26,6.95-22.66,6.95Z"/>
        <path class="cls-11" d="M173.71,255.56l-19.22-.02c-.93,12.68-7.7,23.73-17.64,30.47l11.43,15.4c14.64-10.23,24.48-26.86,25.43-45.85Z"/>
        <path class="cls-14" d="M73.77,252.54c0-12.66,5.83-23.96,14.94-31.37l-11.43-15.4c-13.81,10.91-22.69,27.8-22.69,46.77,0,.97.03,1.92.07,2.88l19.22.02c-.07-.96-.12-1.92-.12-2.9Z"/>
        <path class="cls-14" d="M114.19,212.12v-19.18c-13.94,0-26.76,4.8-36.91,12.82l11.43,15.4c6.95-5.65,15.82-9.05,25.48-9.05Z"/>
        <path class="cls-14" d="M73.88,255.44l-19.22-.02c1.5,31.58,27.57,56.72,59.52,56.72v-19.18c-21.35,0-38.81-16.55-40.3-37.52Z"/>
      </g>
      <g>
        <rect class="cls-11" x="93.99" y="234.36" width="40.4" height="4.04"/>
        <rect class="cls-11" x="93.99" y="245.13" width="40.4" height="4.04"/>
        <rect class="cls-11" x="93.99" y="255.91" width="40.4" height="4.04"/>
        <rect class="cls-11" x="93.99" y="266.68" width="40.4" height="4.04"/>
      </g>
      <g>
        <rect class="cls-7" x="254.51" y="107.12" width="26.26" height="156.9"/>
        <rect class="cls-7" x="254.51" y="268.76" width="26.26" height="8.05"/>
        <rect class="cls-7" x="254.51" y="280.85" width="26.26" height="8.05"/>
        <rect class="cls-7" x="254.51" y="292.94" width="26.26" height="8.05"/>
        <rect class="cls-7" x="254.51" y="305.04" width="26.26" height="8.05"/>
        <polygon class="cls-7" points="235.34 119.21 267.65 86.91 299.95 119.21 235.34 119.21"/>
      </g>
      <g>
        <rect class="cls-11" x="308.8" y="135.98" width="26.26" height="156.9" transform="translate(643.86 428.86) rotate(180)"/>
        <rect class="cls-11" x="308.8" y="123.18" width="26.26" height="8.05" transform="translate(643.86 254.42) rotate(180)"/>
        <rect class="cls-11" x="308.8" y="111.09" width="26.26" height="8.05" transform="translate(643.86 230.24) rotate(180)"/>
        <rect class="cls-11" x="308.8" y="99" width="26.26" height="8.05" transform="translate(643.86 206.05) rotate(180)"/>
        <rect class="cls-11" x="308.8" y="86.91" width="26.26" height="8.05" transform="translate(643.86 181.87) rotate(180)"/>
        <polygon class="cls-11" points="354.23 280.79 321.93 313.09 289.62 280.79 354.23 280.79"/>
      </g>
      <rect class="cls-14" x="189.05" y="199.61" width="9.37" height="107.74"/>
      <rect class="cls-12" x="208.37" y="276.32" width="9.37" height="31.03"/>
      <rect class="cls-11" x="227.69" y="228.3" width="9.37" height="79.05"/>
    </g>
    <g>
      <ellipse class="cls-14" cx="138.3" cy="463.24" rx="74.07" ry="9.23"/>
      <rect class="cls-14" x="64.23" y="356" width="148.14" height="107.24"/>
      <ellipse class="cls-9" cx="138.3" cy="356" rx="74.07" ry="9.23"/>
      <path class="cls-1" d="M212.37,390.34c0,5.1-33.16,9.23-74.07,9.23s-74.07-4.13-74.07-9.23"/>
      <path class="cls-1" d="M212.37,426.57c0,5.1-33.16,9.23-74.07,9.23s-74.07-4.13-74.07-9.23"/>
      <g>
        <path class="cls-11" d="M128.29,389.28c0,1.99-1.61,3.6-3.6,3.6s-3.6-1.61-3.6-3.6,1.61-3.6,3.6-3.6,3.6,1.61,3.6,3.6Z"/>
        <path class="cls-11" d="M141.9,389.28c0,1.99-1.61,3.6-3.6,3.6s-3.6-1.61-3.6-3.6,1.61-3.6,3.6-3.6,3.6,1.61,3.6,3.6Z"/>
        <path class="cls-11" d="M155.52,389.28c0,1.99-1.61,3.6-3.6,3.6s-3.6-1.61-3.6-3.6,1.61-3.6,3.6-3.6,3.6,1.61,3.6,3.6Z"/>
      </g>
      <g>
        <path class="cls-11" d="M128.29,426.13c0,1.99-1.61,3.6-3.6,3.6s-3.6-1.61-3.6-3.6,1.61-3.6,3.6-3.6,3.6,1.61,3.6,3.6Z"/>
        <path class="cls-11" d="M141.9,426.13c0,1.99-1.61,3.6-3.6,3.6s-3.6-1.61-3.6-3.6,1.61-3.6,3.6-3.6,3.6,1.61,3.6,3.6Z"/>
        <circle class="cls-11" cx="151.92" cy="426.13" r="3.6"/>
      </g>
      <g>
        <path class="cls-11" d="M128.29,460.97c0,1.99-1.61,3.6-3.6,3.6s-3.6-1.61-3.6-3.6,1.61-3.6,3.6-3.6,3.6,1.61,3.6,3.6Z"/>
        <path class="cls-11" d="M141.9,460.97c0,1.99-1.61,3.6-3.6,3.6s-3.6-1.61-3.6-3.6,1.61-3.6,3.6-3.6,3.6,1.61,3.6,3.6Z"/>
        <path class="cls-11" d="M155.52,460.97c0,1.99-1.61,3.6-3.6,3.6s-3.6-1.61-3.6-3.6,1.61-3.6,3.6-3.6,3.6,1.61,3.6,3.6Z"/>
      </g>
      <g>
        <path class="cls-8" d="M138.3,363.73c-19.02,0-37.07-.9-50.84-2.53-18.23-2.16-21.25-4.69-21.68-5.2.43-.51,3.44-3.04,21.68-5.2,13.77-1.63,31.82-2.53,50.84-2.53s37.08.9,50.84,2.53c18.23,2.16,21.25,4.69,21.68,5.2-.43.51-3.45,3.04-21.68,5.2-13.77,1.63-31.82,2.53-50.84,2.53Z"/>
        <path class="cls-7" d="M138.3,349.77c18.13,0,35.53.83,49.01,2.33,12.43,1.38,18.05,2.93,20.53,3.9-2.47.97-8.1,2.52-20.53,3.9-13.48,1.5-30.88,2.33-49.01,2.33s-35.53-.83-49.01-2.33c-12.43-1.38-18.05-2.93-20.53-3.9,2.47-.97,8.1-2.52,20.53-3.9,13.48-1.5,30.88-2.33,49.01-2.33M138.3,346.77c-40.91,0-74.07,4.13-74.07,9.23s33.16,9.23,74.07,9.23,74.07-4.13,74.07-9.23-33.16-9.23-74.07-9.23h0Z"/>
      </g>
    </g>
    <g>
      <path class="cls-3" d="M413.88,74.14h0c-8.78,0-15.9,7.12-15.9,15.9v27.82l-5.63,7.06,5.63,7.4v36.09c0,8.78,7.12,15.9,15.9,15.9h0"/>
      <path class="cls-3" d="M420.22,74.14h0c8.78,0,15.9,7.12,15.9,15.9v27.82l5.63,7.06-5.63,7.4v36.09c0,8.78-7.12,15.9-15.9,15.9h0"/>
    </g>
    <g>
      <circle class="cls-5" cx="235.14" cy="411.55" r="47.83"/>
      <ellipse class="cls-5" cx="235.14" cy="411.55" rx="33.16" ry="47.83"/>
      <ellipse class="cls-5" cx="235.14" cy="411.55" rx="16.83" ry="47.83"/>
      <line class="cls-5" x1="282.97" y1="411.55" x2="187.31" y2="411.55"/>
      <line class="cls-5" x1="235.14" y1="459.38" x2="235.14" y2="363.72"/>
    </g>
  </g>
  <g>
    <path class="cls-4" d="M89.2,107.9h15.46l24.63,58.27h-17.19l-4.22-10.33h-22.32l-4.13,10.33h-16.86l24.63-58.27ZM103.25,143.36l-6.45-16.45-6.53,16.45h12.98Z"/>
    <path class="cls-4" d="M134.91,108.31h24.8c14.63,0,24.05,7.52,24.05,20.33v.17c0,13.64-10.5,20.83-24.88,20.83h-7.94v16.53h-16.04v-57.86ZM158.55,137.08c5.7,0,9.17-2.98,9.17-7.52v-.17c0-4.96-3.47-7.6-9.26-7.6h-7.52v15.29h7.6Z"/>
    <path class="cls-4" d="M190.87,108.31h16.12v57.86h-16.12v-57.86Z"/>
  </g>
</svg>