<svg width="156" height="156" viewBox="0 0 156 156" fill="none" xmlns="http://www.w3.org/2000/svg">
<path fill-rule="evenodd" clip-rule="evenodd" d="M141.938 64.3809C140.869 64.3809 140 63.5117 140 62.4434C140 61.3749 140.869 60.5059 141.938 60.5059C143.006 60.5059 143.875 61.3749 143.875 62.4434C143.875 63.5117 143.006 64.3809 141.938 64.3809Z" fill="#ECECFE"/>
<path fill-rule="evenodd" clip-rule="evenodd" d="M23.75 83.7559C22.6817 83.7559 21.8125 82.8867 21.8125 81.8184C21.8125 80.7499 22.6817 79.8809 23.75 79.8809C24.8183 79.8809 25.6875 80.7499 25.6875 81.8184C25.6875 82.8867 24.8183 83.7559 23.75 83.7559Z" fill="#ECECFE"/>
<path fill-rule="evenodd" clip-rule="evenodd" d="M16 12.0684C14.9317 12.0684 14.0625 11.1992 14.0625 10.1309C14.0625 9.06243 14.9317 8.19336 16 8.19336C17.0683 8.19336 17.9375 9.06243 17.9375 10.1309C17.9375 11.1992 17.0683 12.0684 16 12.0684Z" fill="#ECECFE"/>
<path fill-rule="evenodd" clip-rule="evenodd" d="M45.0625 143.818C43.9942 143.818 43.125 142.949 43.125 141.881C43.125 140.812 43.9942 139.943 45.0625 139.943C46.1308 139.943 47 140.812 47 141.881C47 142.949 46.1308 143.818 45.0625 143.818Z" fill="#ECECFE"/>
<path fill-rule="evenodd" clip-rule="evenodd" d="M85.75 15.9434C84.6817 15.9434 83.8125 15.0742 83.8125 14.0059C83.8125 12.9374 84.6817 12.0684 85.75 12.0684C86.8183 12.0684 87.6875 12.9374 87.6875 14.0059C87.6875 15.0742 86.8183 15.9434 85.75 15.9434Z" fill="#ECECFE"/>
<path fill-rule="evenodd" clip-rule="evenodd" d="M138.062 139.943C136.994 139.943 136.125 139.074 136.125 138.006C136.125 136.937 136.994 136.068 138.062 136.068C139.131 136.068 140 136.937 140 138.006C140 139.074 139.131 139.943 138.062 139.943Z" fill="#ECECFE"/>
<path fill-rule="evenodd" clip-rule="evenodd" d="M128.375 27.5684C128.375 28.7514 128.022 29.8519 127.414 30.77C129.718 32.1013 131.281 34.3994 131.281 37.2559C131.281 38.3259 130.414 39.1934 129.344 39.1934C128.274 39.1934 127.406 38.3259 127.406 37.2559C127.406 35.3154 125.646 33.3809 122.562 33.3809C119.52 33.3809 117.719 35.4609 117.719 37.2559C117.719 38.3259 116.851 39.1934 115.781 39.1934C114.711 39.1934 113.844 38.3259 113.844 37.2559C113.844 34.5186 115.41 32.1763 117.733 30.804C117.112 29.8791 116.75 28.7661 116.75 27.5684C116.75 24.3582 119.352 21.7559 122.562 21.7559C125.773 21.7559 128.375 24.3582 128.375 27.5684ZM120.625 27.5684C120.625 26.4983 121.492 25.6309 122.562 25.6309C123.633 25.6309 124.5 26.4983 124.5 27.5684C124.5 28.6384 123.633 29.5059 122.562 29.5059C121.492 29.5059 120.625 28.6384 120.625 27.5684Z" fill="#E1000F"/>
<path fill-rule="evenodd" clip-rule="evenodd" d="M52.8125 37.2559C52.8125 38.4389 52.459 39.5394 51.852 40.4575C54.1551 41.7888 55.7187 44.0868 55.7187 46.9434C55.7187 48.0134 54.8513 48.8809 53.7812 48.8809C52.7112 48.8809 51.8437 48.0134 51.8437 46.9434C51.8437 45.0029 50.0838 43.0684 47 43.0684C43.9576 43.0684 42.1562 45.1484 42.1562 46.9434C42.1562 48.0134 41.2888 48.8809 40.2187 48.8809C39.1487 48.8809 38.2812 48.0134 38.2812 46.9434C38.2812 44.2061 39.8472 41.8638 42.1706 40.4915C41.5497 39.5666 41.1875 38.4536 41.1875 37.2559C41.1875 34.0457 43.7898 31.4434 47 31.4434C50.2102 31.4434 52.8125 34.0457 52.8125 37.2559ZM45.0625 37.2559C45.0625 36.1858 45.9299 35.3184 47 35.3184C48.07 35.3184 48.9375 36.1858 48.9375 37.2559C48.9375 38.3259 48.07 39.1934 47 39.1934C45.9299 39.1934 45.0625 38.3259 45.0625 37.2559Z" fill="#E1000F"/>
<path fill-rule="evenodd" clip-rule="evenodd" d="M73.1562 70.1934C73.1562 72.1789 73.9029 73.9901 75.1308 75.3614C71.0884 77.2908 68.3125 81.1833 68.3125 85.6934C68.3125 86.7634 69.1799 87.6309 70.25 87.6309C71.32 87.6309 72.1875 86.7634 72.1875 85.6934C72.1875 81.6734 75.8231 77.9434 80.9062 77.9434C86.0155 77.9434 89.625 81.5037 89.625 85.6934C89.625 86.7634 90.4924 87.6309 91.5625 87.6309C92.6325 87.6309 93.5 86.7634 93.5 85.6934C93.5 81.044 90.727 77.2209 86.7042 75.3361C87.9187 73.9679 88.6562 72.1668 88.6562 70.1934C88.6562 65.9132 85.1865 62.4434 80.9062 62.4434C76.626 62.4434 73.1562 65.9132 73.1562 70.1934ZM80.9062 66.3184C78.7661 66.3184 77.0312 68.0533 77.0312 70.1934C77.0312 72.3335 78.7661 74.0684 80.9062 74.0684L80.913 74.0684C83.05 74.0647 84.7812 72.3312 84.7812 70.1934C84.7812 68.0533 83.0463 66.3184 80.9062 66.3184Z" fill="#E1000F"/>
<path fill-rule="evenodd" clip-rule="evenodd" d="M91.5625 122.506C91.5625 123.689 91.2091 124.789 90.602 125.708C92.9051 127.039 94.4687 129.337 94.4687 132.193C94.4687 133.263 93.6013 134.131 92.5312 134.131C91.4612 134.131 90.5937 133.263 90.5937 132.193C90.5937 130.254 88.8365 128.321 85.757 128.318L85.75 128.318L85.7432 128.318C82.7049 128.321 80.9062 130.4 80.9062 132.193C80.9062 133.263 80.0388 134.131 78.9687 134.131C77.8987 134.131 77.0312 133.263 77.0312 132.193C77.0312 129.456 78.5972 127.114 80.9206 125.742C80.2997 124.817 79.9375 123.704 79.9375 122.506C79.9375 119.296 82.5398 116.693 85.75 116.693C88.9601 116.693 91.5625 119.296 91.5625 122.506ZM83.8125 122.506C83.8125 121.436 84.6799 120.568 85.75 120.568C86.82 120.568 87.6875 121.436 87.6875 122.506C87.6875 123.576 86.82 124.443 85.75 124.443L85.7451 124.443C84.6773 124.441 83.8125 123.574 83.8125 122.506Z" fill="#E1000F"/>
<path fill-rule="evenodd" clip-rule="evenodd" d="M130.312 79.8809C127.102 79.8809 124.5 82.4832 124.5 85.6934C124.5 86.8911 124.862 88.0041 125.483 88.929C123.16 90.3013 121.594 92.6436 121.594 95.3809C121.594 96.4509 122.461 97.3184 123.531 97.3184C124.601 97.3184 125.469 96.4509 125.469 95.3809C125.469 93.5859 127.27 91.5059 130.312 91.5059C133.396 91.5059 135.156 93.4404 135.156 95.3809C135.156 96.4509 136.024 97.3184 137.094 97.3184C138.164 97.3184 139.031 96.4509 139.031 95.3809C139.031 92.5244 137.468 90.2263 135.164 88.895C135.772 87.9769 136.125 86.8764 136.125 85.6934C136.125 82.4832 133.523 79.8809 130.312 79.8809ZM128.375 85.6934C128.375 84.6233 129.242 83.7559 130.312 83.7559C131.383 83.7559 132.25 84.6233 132.25 85.6934C132.25 86.7634 131.383 87.6309 130.312 87.6309C129.242 87.6309 128.375 86.7634 128.375 85.6934Z" fill="#E1000F"/>
<path fill-rule="evenodd" clip-rule="evenodd" d="M33.4375 112.818C33.4375 114.001 33.0841 115.102 32.477 116.02C34.7801 117.351 36.3437 119.649 36.3437 122.506C36.3437 123.576 35.4763 124.443 34.4062 124.443C33.3362 124.443 32.4687 123.576 32.4687 122.506C32.4687 120.565 30.7088 118.631 27.625 118.631C24.5826 118.631 22.7812 120.711 22.7812 122.506C22.7812 123.576 21.9138 124.443 20.8437 124.443C19.7737 124.443 18.9062 123.576 18.9062 122.506C18.9062 119.769 20.4722 117.426 22.7957 116.054C22.1747 115.129 21.8125 114.016 21.8125 112.818C21.8125 109.608 24.4148 107.006 27.625 107.006C30.8352 107.006 33.4375 109.608 33.4375 112.818ZM25.6875 112.818C25.6875 111.748 26.5549 110.881 27.625 110.881C28.6951 110.881 29.5625 111.748 29.5625 112.818C29.5625 113.888 28.6951 114.756 27.625 114.756C26.5549 114.756 25.6875 113.888 25.6875 112.818Z" fill="#E1000F"/>
<path d="M23.75 50.8184C24.8201 50.8184 25.6875 49.9509 25.6875 48.8809C25.6875 47.8108 24.8201 46.9434 23.75 46.9434C22.6799 46.9434 21.8125 47.8108 21.8125 48.8809C21.8125 49.9509 22.6799 50.8184 23.75 50.8184Z" fill="#E1000F"/>
<path fill-rule="evenodd" clip-rule="evenodd" d="M130.313 76.0059C122.822 76.0059 116.75 82.078 116.75 89.5684C116.75 97.0587 122.822 103.131 130.313 103.131C137.803 103.131 143.875 97.0587 143.875 89.5684C143.875 82.078 137.803 76.0059 130.313 76.0059ZM112.875 89.5684C112.875 79.9379 120.682 72.1309 130.313 72.1309C139.943 72.1309 147.75 79.9379 147.75 89.5684C147.75 99.1988 139.943 107.006 130.313 107.006C120.682 107.006 112.875 99.1988 112.875 89.5684Z" fill="#000091"/>
<path fill-rule="evenodd" clip-rule="evenodd" d="M26.5273 53.0968C27.4091 52.4906 28.6154 52.7139 29.2216 53.5957C31.1122 56.3457 33.9149 58.4815 37.2102 60.1292C38.1673 60.6077 38.5552 61.7715 38.0767 62.7286C37.5982 63.6857 36.4344 64.0736 35.4773 63.5951C31.7976 61.7552 28.4003 59.241 26.0284 55.791C25.4222 54.9092 25.6456 53.703 26.5273 53.0968Z" fill="#000091"/>
<path fill-rule="evenodd" clip-rule="evenodd" d="M47 27.5684C39.5096 27.5684 33.4375 33.6405 33.4375 41.1309C33.4375 48.6212 39.5096 54.6934 47 54.6934C54.4904 54.6934 60.5625 48.6212 60.5625 41.1309C60.5625 33.6405 54.4904 27.5684 47 27.5684ZM29.5625 41.1309C29.5625 31.5004 37.3695 23.6934 47 23.6934C56.6305 23.6934 64.4375 31.5004 64.4375 41.1309C64.4375 50.7613 56.6305 58.5684 47 58.5684C37.3695 58.5684 29.5625 50.7613 29.5625 41.1309Z" fill="#000091"/>
<path fill-rule="evenodd" clip-rule="evenodd" d="M27.625 103.131C20.1346 103.131 14.0625 109.203 14.0625 116.693C14.0625 124.184 20.1346 130.256 27.625 130.256C35.1154 130.256 41.1875 124.184 41.1875 116.693C41.1875 109.203 35.1154 103.131 27.625 103.131ZM10.1875 116.693C10.1875 107.063 17.9945 99.2559 27.625 99.2559C37.2555 99.2559 45.0625 107.063 45.0625 116.693C45.0625 126.324 37.2555 134.131 27.625 134.131C17.9945 134.131 10.1875 126.324 10.1875 116.693Z" fill="#000091"/>
<path fill-rule="evenodd" clip-rule="evenodd" d="M105.125 31.4434C105.125 21.8483 112.967 14.0059 122.562 14.0059C125.196 14.0059 127.817 14.6606 130.016 15.7604C130.974 16.2389 131.361 17.4028 130.883 18.3598C130.404 19.3169 129.241 19.7049 128.284 19.2263C126.608 18.3886 124.579 17.8809 122.562 17.8809C115.108 17.8809 109 23.9884 109 31.4434C109 38.8983 115.108 45.0059 122.562 45.0059C130.017 45.0059 136.125 38.8983 136.125 31.4434C136.125 30.3733 136.992 29.5059 138.062 29.5059C139.133 29.5059 140 30.3733 140 31.4434C140 41.0384 132.158 48.8809 122.562 48.8809C112.967 48.8809 105.125 41.0384 105.125 31.4434Z" fill="#000091"/>
<path fill-rule="evenodd" clip-rule="evenodd" d="M132.637 20.2058C133.28 19.3498 134.494 19.1763 135.35 19.8183C135.546 19.9651 135.706 20.121 135.821 20.239C135.931 20.353 136.036 20.471 136.111 20.555C136.114 20.5586 136.117 20.5621 136.12 20.5655C136.206 20.6627 136.259 20.7211 136.305 20.7688C136.322 20.7859 136.332 20.7964 136.338 20.8017C137.177 21.4475 137.343 22.65 136.706 23.4996C136.064 24.3556 134.85 24.5291 133.994 23.8871C133.798 23.7403 133.638 23.5844 133.523 23.4664C133.413 23.3524 133.308 23.2344 133.233 23.1504C133.23 23.1469 133.227 23.1434 133.224 23.1399C133.137 23.0428 133.085 22.9843 133.039 22.9366C133.022 22.9195 133.011 22.909 133.006 22.9037C132.166 22.258 132 21.0554 132.637 20.2058Z" fill="#000091"/>
<path fill-rule="evenodd" clip-rule="evenodd" d="M68.3125 126.381C68.3125 116.786 76.1549 108.943 85.75 108.943C95.345 108.943 103.188 116.786 103.188 126.381C103.188 135.976 95.3451 143.818 85.75 143.818C83.1166 143.818 80.4956 143.164 78.296 142.064C77.3389 141.585 76.951 140.421 77.4295 139.464C77.9081 138.507 79.0719 138.119 80.029 138.598C81.7044 139.436 83.7334 139.943 85.75 139.943C93.2049 139.943 99.3125 133.836 99.3125 126.381C99.3125 118.926 93.2049 112.818 85.75 112.818C78.2951 112.818 72.1875 118.926 72.1875 126.381C72.1875 127.451 71.3201 128.318 70.25 128.318C69.1799 128.318 68.3125 127.451 68.3125 126.381Z" fill="#000091"/>
<path fill-rule="evenodd" clip-rule="evenodd" d="M72.575 134.906C73.217 134.05 74.4314 133.876 75.2875 134.518C75.4832 134.665 75.6437 134.821 75.7581 134.939C75.8686 135.053 75.9735 135.171 76.0481 135.255C76.0513 135.259 76.0544 135.262 76.0575 135.266C76.1439 135.363 76.1962 135.421 76.2425 135.469C76.2591 135.486 76.27 135.496 76.2756 135.502C77.1149 136.147 77.2809 137.35 76.6438 138.2C76.0017 139.056 74.7873 139.229 73.9313 138.587C73.7356 138.44 73.5751 138.284 73.4606 138.166C73.3501 138.052 73.2453 137.934 73.1706 137.85C73.1674 137.847 73.1643 137.843 73.1613 137.84C73.0749 137.743 73.0225 137.684 72.9763 137.637C72.9597 137.62 72.9488 137.609 72.9432 137.604C72.1039 136.958 71.9378 135.755 72.575 134.906Z" fill="#000091"/>
<path fill-rule="evenodd" clip-rule="evenodd" d="M80.9062 58.5684C70.7408 58.5684 62.5 66.8091 62.5 76.9746C62.5 87.1401 70.7408 95.3809 80.9062 95.3809C91.0717 95.3809 99.3125 87.1401 99.3125 76.9746C99.3125 66.8091 91.0717 58.5684 80.9062 58.5684ZM58.625 76.9746C58.625 64.669 68.6007 54.6934 80.9062 54.6934C93.2118 54.6934 103.188 64.669 103.188 76.9746C103.188 89.2802 93.2118 99.2559 80.9062 99.2559C68.6007 99.2559 58.625 89.2802 58.625 76.9746Z" fill="#000091"/>
<path fill-rule="evenodd" clip-rule="evenodd" d="M112.308 41.6984C113.064 42.455 113.064 43.6818 112.308 44.4384L94.87 61.8759C94.1134 62.6326 92.8866 62.6326 92.13 61.8759C91.3733 61.1193 91.3733 59.8925 92.13 59.1359L109.567 41.6984C110.324 40.9417 111.551 40.9417 112.308 41.6984Z" fill="#000091"/>
<path fill-rule="evenodd" clip-rule="evenodd" d="M99.3622 83.3202C99.6028 82.2775 100.643 81.6274 101.686 81.868L114.279 84.7742C115.322 85.0148 115.972 86.0551 115.732 87.0978C115.491 88.1404 114.451 88.7906 113.408 88.55L100.814 85.6437C99.7717 85.4031 99.1216 84.3628 99.3622 83.3202Z" fill="#000091"/>
<path fill-rule="evenodd" clip-rule="evenodd" d="M83.6516 96.3563C84.7179 96.2674 85.6544 97.0598 85.7433 98.1262L86.7121 109.751C86.8009 110.818 86.0085 111.754 84.9422 111.843C83.8758 111.932 82.9393 111.139 82.8505 110.073L81.8817 98.448C81.7928 97.3816 82.5852 96.4452 83.6516 96.3563Z" fill="#000091"/>
<path fill-rule="evenodd" clip-rule="evenodd" d="M56.2863 52.3546C57.0429 51.598 58.2697 51.598 59.0263 52.3546L67.745 61.0733C68.5017 61.83 68.5017 63.0567 67.745 63.8134C66.9884 64.57 65.7617 64.57 65.005 63.8134L56.2863 55.0946C55.5296 54.338 55.5296 53.1112 56.2863 52.3546Z" fill="#000091"/>
<path fill-rule="evenodd" clip-rule="evenodd" d="M65.0268 89.3855C65.6629 90.246 65.4809 91.4592 64.6204 92.0952L42.3391 108.564C41.4786 109.2 40.2654 109.018 39.6294 108.158C38.9934 107.297 39.1754 106.084 40.0359 105.448L62.3171 88.979C63.1776 88.343 64.3908 88.525 65.0268 89.3855Z" fill="#000091"/>
</svg>


