<?xml version="1.0" encoding="UTF-8" standalone="no"?>
<svg
   width="547"
   height="325"
   viewBox="0 0 547 325"
   fill="none"
   version="1.1"
   id="svg393"
   sodipodi:docname="image_1.svg"
   inkscape:version="1.2.2 (b0a8486541, 2022-12-01)"
   xmlns:inkscape="http://www.inkscape.org/namespaces/inkscape"
   xmlns:sodipodi="http://sodipodi.sourceforge.net/DTD/sodipodi-0.dtd"
   xmlns="http://www.w3.org/2000/svg"
   xmlns:svg="http://www.w3.org/2000/svg">
  <sodipodi:namedview
     id="namedview395"
     pagecolor="#ffffff"
     bordercolor="#000000"
     borderopacity="0.25"
     inkscape:showpageshadow="2"
     inkscape:pageopacity="0.0"
     inkscape:pagecheckerboard="0"
     inkscape:deskcolor="#d1d1d1"
     showgrid="false"
     inkscape:zoom="0.72615385"
     inkscape:cx="161.12288"
     inkscape:cy="162.5"
     inkscape:window-width="1500"
     inkscape:window-height="931"
     inkscape:window-x="0"
     inkscape:window-y="32"
     inkscape:window-maximized="1"
     inkscape:current-layer="svg393" />
  <g
     clip-path="url(#clip0_230_35102)"
     id="g386"
     transform="translate(32,10)">
    <path
       d="M 308.87,272.581 C 247.481,241.762 237.283,254.579 186.093,281.289 130.588,310.25 80.1828,265.928 73.6124,228.309 54.833,121.027 112.789,24.117 182.366,3.76634 c 40.06,-11.69186 117.874,1.51652 123.66,71.66776 2.599,31.8959 -11.327,60.9539 23.143,72.9889 35.647,12.425 90.024,-16.34 105.224,43.636 15.053,59.389 -68.106,109.385 -125.474,80.522 z"
       fill="#f0f8ff"
       id="path182" />
    <path
       d="M 187.515,19.274 H 386.88 c 5.002,0 9.071,4.0603 9.071,9.0502 V 153.07 c 0,4.99 -4.069,9.05 -9.071,9.05 H 187.515 c -5.002,0 -9.071,-4.06 -9.071,-9.05 V 28.3242 c 0,-4.9899 4.069,-9.0502 9.071,-9.0502 z"
       fill="#e1f3f9"
       id="path184" />
    <path
       d="M 187.515,19.274 H 386.88 c 5.002,0 9.071,4.0603 9.071,9.0502 V 45.1526 H 178.444 V 28.3242 c 0,-4.9899 4.069,-9.0502 9.071,-9.0502 z"
       fill="#b7d9f7"
       id="path186" />
    <path
       d="m 373.936,32.2867 c 0,2.4949 2.01,4.5006 4.511,4.5006 2.501,0 4.511,-2.0057 4.511,-4.5006 0,-2.4949 -2.01,-4.5006 -4.511,-4.5006 -2.501,0 -4.511,2.0057 -4.511,4.5006 z"
       fill="#ffffff"
       id="path188" />
    <path
       d="m 362.56,32.2867 c 0,2.4949 2.011,4.5006 4.511,4.5006 2.501,0 4.511,-2.0057 4.511,-4.5006 0,-2.4949 -2.01,-4.5006 -4.511,-4.5006 -2.5,0 -4.511,2.0057 -4.511,4.5006 z"
       fill="#ffffff"
       id="path190" />
    <path
       d="m 351.577,32.2867 c 0,2.4949 2.01,4.5006 4.511,4.5006 2.501,0 4.511,-2.0057 4.511,-4.5006 0,-2.4949 -2.01,-4.5006 -4.511,-4.5006 -2.501,0 -4.511,2.0057 -4.511,4.5006 z"
       fill="#ffffff"
       id="path192" />
    <path
       d="m 196.291,19.274 h 199.366 c 5.001,0 9.071,4.0603 9.071,9.0502 V 153.07 c 0,4.99 -4.07,9.05 -9.071,9.05 H 196.291 c -5.001,0 -9.071,-4.06 -9.071,-9.05 V 28.3242 c 0,-4.9899 4.07,-9.0502 9.071,-9.0502 z"
       fill="#ffffff"
       id="path194" />
    <path
       d="m 196.291,19.274 h 199.366 c 5.001,0 9.071,4.0603 9.071,9.0502 V 45.1526 H 187.22 V 28.3242 c 0,-4.9899 4.07,-9.0502 9.071,-9.0502 z"
       fill="#c1e3fb"
       id="path196" />
    <path
       d="m 382.713,32.2867 c 0,2.4949 2.01,4.5006 4.511,4.5006 2.5,0 4.511,-2.0057 4.511,-4.5006 0,-2.4949 -2.011,-4.5006 -4.511,-4.5006 -2.501,0 -4.511,2.0057 -4.511,4.5006 z"
       fill="#ffffff"
       id="path198" />
    <path
       d="m 371.337,32.2867 c 0,2.4949 2.01,4.5006 4.511,4.5006 2.501,0 4.511,-2.0057 4.511,-4.5006 0,-2.4949 -2.01,-4.5006 -4.511,-4.5006 -2.501,0 -4.511,2.0057 -4.511,4.5006 z"
       fill="#ffffff"
       id="path200" />
    <path
       d="m 360.354,32.2867 c 0,2.4949 2.01,4.5006 4.511,4.5006 2.501,0 4.511,-2.0057 4.511,-4.5006 0,-2.4949 -2.01,-4.5006 -4.511,-4.5006 -2.501,0 -4.511,2.0057 -4.511,4.5006 z"
       fill="#ffffff"
       id="path202" />
    <path
       d="M 378.055,54.6431 H 212.178 c -5.416,0 -9.807,4.3805 -9.807,9.784 v 33.8526 c 0,5.4033 4.391,9.7843 9.807,9.7843 h 165.877 c 5.416,0 9.806,-4.381 9.806,-9.7843 V 64.4271 c 0,-5.4035 -4.39,-9.784 -9.806,-9.784 z"
       fill="#e1f3f9"
       id="path204" />
    <path
       d="m 386.341,114.277 h -183.97 v 5.136 h 183.97 z"
       fill="#a9d1ea"
       id="path206" />
    <path
       d="m 386.341,126.262 h -183.97 v 5.137 h 183.97 z"
       fill="#a9d1ea"
       id="path208" />
    <path
       d="m 431.353,289.459 c 16.573,4.501 -34.813,10.567 -201.278,9.05 -225.89245,-2.055 -188.922,-9.49 -199.0717,-10.077 -52.2195,-2.985 68.3511,-5.871 196.7667,-5.871 128.416,0 197.012,5.137 203.583,6.947 z"
       fill="#d3e5f2"
       id="path210" />
    <path
       d="M 98.2757,91.2352 H 57.5298 V 287.404 h 40.7459 z"
       fill="#fdd95f"
       id="path212" />
    <path
       d="M 210.756,91.2352 H 98.2757 V 287.404 H 210.756 Z"
       fill="#feb824"
       id="path214" />
    <path
       d="m 92.7841,119.853 c 0,10.029 -6.8155,18.199 -15.2001,18.199 -8.3845,0 -15.2,-8.121 -15.2,-18.199 0,-10.077 6.8155,-18.198 15.2,-18.198 8.3846,0 15.2001,8.121 15.2001,18.198 z"
       fill="#feb824"
       id="path216" />
    <path
       d="M 92.7841,146.857 H 62.384 v 133.894 h 30.4001 z"
       fill="#ffeaae"
       id="path218" />
    <path
       d="M 147.602,91.2352 H 106.856 V 287.404 h 40.746 z"
       fill="#feb0be"
       id="path220" />
    <path
       d="M 260.083,91.2352 H 147.602 V 287.404 h 112.481 z"
       fill="#ff95a9"
       id="path222" />
    <path
       d="m 142.062,119.853 c 0,10.029 -6.816,18.199 -15.2,18.199 -8.385,0 -15.2,-8.121 -15.2,-18.199 0,-10.077 6.815,-18.198 15.2,-18.198 8.384,0 15.2,8.121 15.2,18.198 z"
       fill="#ff95a9"
       id="path224" />
    <path
       d="m 142.062,146.857 h -30.4 v 133.894 h 30.4 z"
       fill="#ffd9e1"
       id="path226" />
    <path
       d="m 428.705,109.923 h -243.74 c -2.708,0 -4.903,2.19 -4.903,4.892 v 156.152 c 0,2.702 2.195,4.892 4.903,4.892 h 243.74 c 2.708,0 4.903,-2.19 4.903,-4.892 V 114.815 c 0,-2.702 -2.195,-4.892 -4.903,-4.892 z"
       fill="#9bc3ea"
       id="path228" />
    <path
       d="M 413.946,128.463 H 200.508 c -2.708,0 -4.903,2.191 -4.903,4.892 v 120.833 c 0,2.701 2.195,4.892 4.903,4.892 h 213.438 c 2.708,0 4.904,-2.191 4.904,-4.892 V 133.355 c 0,-2.701 -2.196,-4.892 -4.904,-4.892 z"
       fill="#d9ecff"
       id="path230" />
    <path
       d="m 212.521,102.78 h -4.315 c -2.085,0 -3.775,1.687 -3.775,3.767 v 29.792 c 0,2.081 1.69,3.767 3.775,3.767 h 4.315 c 2.085,0 3.776,-1.686 3.776,-3.767 v -29.792 c 0,-2.08 -1.691,-3.767 -3.776,-3.767 z"
       fill="#b4a4f5"
       id="path232" />
    <path
       d="m 239.734,102.78 h -4.315 c -2.085,0 -3.775,1.687 -3.775,3.767 v 29.792 c 0,2.081 1.69,3.767 3.775,3.767 h 4.315 c 2.085,0 3.776,-1.686 3.776,-3.767 v -29.792 c 0,-2.08 -1.691,-3.767 -3.776,-3.767 z"
       fill="#b4a4f5"
       id="path234" />
    <path
       d="m 266.947,102.78 h -4.315 c -2.085,0 -3.775,1.687 -3.775,3.767 v 29.792 c 0,2.081 1.69,3.767 3.775,3.767 h 4.315 c 2.085,0 3.776,-1.686 3.776,-3.767 v -29.792 c 0,-2.08 -1.691,-3.767 -3.776,-3.767 z"
       fill="#b4a4f5"
       id="path236" />
    <path
       d="m 294.16,102.78 h -4.315 c -2.085,0 -3.775,1.687 -3.775,3.767 v 29.792 c 0,2.081 1.69,3.767 3.775,3.767 h 4.315 c 2.085,0 3.776,-1.686 3.776,-3.767 v -29.792 c 0,-2.08 -1.691,-3.767 -3.776,-3.767 z"
       fill="#b4a4f5"
       id="path238" />
    <path
       d="m 321.373,102.78 h -4.315 c -2.085,0 -3.775,1.687 -3.775,3.767 v 29.792 c 0,2.081 1.69,3.767 3.775,3.767 h 4.315 c 2.085,0 3.776,-1.686 3.776,-3.767 v -29.792 c 0,-2.08 -1.691,-3.767 -3.776,-3.767 z"
       fill="#b4a4f5"
       id="path240" />
    <path
       d="m 348.586,102.78 h -4.315 c -2.085,0 -3.775,1.687 -3.775,3.767 v 29.792 c 0,2.081 1.69,3.767 3.775,3.767 h 4.315 c 2.085,0 3.776,-1.686 3.776,-3.767 v -29.792 c 0,-2.08 -1.691,-3.767 -3.776,-3.767 z"
       fill="#b4a4f5"
       id="path242" />
    <path
       d="m 375.848,102.78 h -4.315 c -2.085,0 -3.775,1.687 -3.775,3.767 v 29.792 c 0,2.081 1.69,3.767 3.775,3.767 h 4.315 c 2.085,0 3.776,-1.686 3.776,-3.767 v -29.792 c 0,-2.08 -1.691,-3.767 -3.776,-3.767 z"
       fill="#b4a4f5"
       id="path244" />
    <path
       d="m 403.061,102.78 h -4.315 c -2.085,0 -3.775,1.687 -3.775,3.767 v 29.792 c 0,2.081 1.69,3.767 3.775,3.767 h 4.315 c 2.085,0 3.776,-1.686 3.776,-3.767 v -29.792 c 0,-2.08 -1.691,-3.767 -3.776,-3.767 z"
       fill="#b4a4f5"
       id="path246" />
    <path
       d="m 233.115,149.45 h -20.054 c -2.708,0 -4.904,2.19 -4.904,4.892 v 20.008 c 0,2.702 2.196,4.892 4.904,4.892 h 20.054 c 2.708,0 4.903,-2.19 4.903,-4.892 v -20.008 c 0,-2.702 -2.195,-4.892 -4.903,-4.892 z"
       fill="#9bc3ea"
       id="path248" />
    <path
       d="m 267.388,149.45 h -20.054 c -2.708,0 -4.903,2.19 -4.903,4.892 v 20.008 c 0,2.702 2.195,4.892 4.903,4.892 h 20.054 c 2.708,0 4.904,-2.19 4.904,-4.892 v -20.008 c 0,-2.702 -2.196,-4.892 -4.904,-4.892 z"
       fill="#9bc3ea"
       id="path250" />
    <path
       d="m 301.613,149.45 h -20.054 c -2.708,0 -4.903,2.19 -4.903,4.892 v 20.008 c 0,2.702 2.195,4.892 4.903,4.892 h 20.054 c 2.708,0 4.903,-2.19 4.903,-4.892 v -20.008 c 0,-2.702 -2.195,-4.892 -4.903,-4.892 z"
       fill="#9bc3ea"
       id="path252" />
    <path
       d="m 335.887,149.45 h -20.055 c -2.708,0 -4.903,2.19 -4.903,4.892 v 20.008 c 0,2.702 2.195,4.892 4.903,4.892 h 20.055 c 2.708,0 4.903,-2.19 4.903,-4.892 v -20.008 c 0,-2.702 -2.195,-4.892 -4.903,-4.892 z"
       fill="#9bc3ea"
       id="path254" />
    <path
       d="m 370.111,149.45 h -20.054 c -2.708,0 -4.903,2.19 -4.903,4.892 v 20.008 c 0,2.702 2.195,4.892 4.903,4.892 h 20.054 c 2.708,0 4.904,-2.19 4.904,-4.892 v -20.008 c 0,-2.702 -2.196,-4.892 -4.904,-4.892 z"
       fill="#9bc3ea"
       id="path256" />
    <path
       d="m 404.385,149.45 h -20.054 c -2.708,0 -4.904,2.19 -4.904,4.892 v 20.008 c 0,2.702 2.196,4.892 4.904,4.892 h 20.054 c 2.708,0 4.903,-2.19 4.903,-4.892 v -20.008 c 0,-2.702 -2.195,-4.892 -4.903,-4.892 z"
       fill="#9bc3ea"
       id="path258" />
    <path
       d="m 233.115,185.651 h -20.054 c -2.708,0 -4.904,2.19 -4.904,4.892 v 20.008 c 0,2.702 2.196,4.892 4.904,4.892 h 20.054 c 2.708,0 4.903,-2.19 4.903,-4.892 v -20.008 c 0,-2.702 -2.195,-4.892 -4.903,-4.892 z"
       fill="#9bc3ea"
       id="path260" />
    <path
       d="m 267.388,185.651 h -20.054 c -2.708,0 -4.903,2.19 -4.903,4.892 v 20.008 c 0,2.702 2.195,4.892 4.903,4.892 h 20.054 c 2.708,0 4.904,-2.19 4.904,-4.892 v -20.008 c 0,-2.702 -2.196,-4.892 -4.904,-4.892 z"
       fill="#9bc3ea"
       id="path262" />
    <path
       d="m 301.613,185.651 h -20.054 c -2.708,0 -4.903,2.19 -4.903,4.892 v 20.008 c 0,2.702 2.195,4.892 4.903,4.892 h 20.054 c 2.708,0 4.903,-2.19 4.903,-4.892 v -20.008 c 0,-2.702 -2.195,-4.892 -4.903,-4.892 z"
       fill="#9bc3ea"
       id="path264" />
    <path
       d="m 335.887,185.651 h -20.055 c -2.708,0 -4.903,2.19 -4.903,4.892 v 20.008 c 0,2.702 2.195,4.892 4.903,4.892 h 20.055 c 2.708,0 4.903,-2.19 4.903,-4.892 v -20.008 c 0,-2.702 -2.195,-4.892 -4.903,-4.892 z"
       fill="#9bc3ea"
       id="path266" />
    <path
       d="m 370.111,185.651 h -20.054 c -2.708,0 -4.903,2.19 -4.903,4.892 v 20.008 c 0,2.702 2.195,4.892 4.903,4.892 h 20.054 c 2.708,0 4.904,-2.19 4.904,-4.892 v -20.008 c 0,-2.702 -2.196,-4.892 -4.904,-4.892 z"
       fill="#9bc3ea"
       id="path268" />
    <path
       d="m 404.385,185.651 h -20.054 c -2.708,0 -4.904,2.19 -4.904,4.892 v 20.008 c 0,2.702 2.196,4.892 4.904,4.892 h 20.054 c 2.708,0 4.903,-2.19 4.903,-4.892 v -20.008 c 0,-2.702 -2.195,-4.892 -4.903,-4.892 z"
       fill="#9bc3ea"
       id="path270" />
    <path
       d="m 233.115,221.9 h -20.054 c -2.708,0 -4.904,2.191 -4.904,4.892 v 20.009 c 0,2.701 2.196,4.892 4.904,4.892 h 20.054 c 2.708,0 4.903,-2.191 4.903,-4.892 v -20.009 c 0,-2.701 -2.195,-4.892 -4.903,-4.892 z"
       fill="#9bc3ea"
       id="path272" />
    <path
       d="m 267.388,221.9 h -20.054 c -2.708,0 -4.903,2.191 -4.903,4.892 v 20.009 c 0,2.701 2.195,4.892 4.903,4.892 h 20.054 c 2.708,0 4.904,-2.191 4.904,-4.892 v -20.009 c 0,-2.701 -2.196,-4.892 -4.904,-4.892 z"
       fill="#9bc3ea"
       id="path274" />
    <path
       d="m 301.613,221.9 h -20.054 c -2.708,0 -4.903,2.191 -4.903,4.892 v 20.009 c 0,2.701 2.195,4.892 4.903,4.892 h 20.054 c 2.708,0 4.903,-2.191 4.903,-4.892 v -20.009 c 0,-2.701 -2.195,-4.892 -4.903,-4.892 z"
       fill="#9bc3ea"
       id="path276" />
    <path
       d="m 335.887,221.9 h -20.055 c -2.708,0 -4.903,2.191 -4.903,4.892 v 20.009 c 0,2.701 2.195,4.892 4.903,4.892 h 20.055 c 2.708,0 4.903,-2.191 4.903,-4.892 v -20.009 c 0,-2.701 -2.195,-4.892 -4.903,-4.892 z"
       fill="#9bc3ea"
       id="path278" />
    <path
       d="m 370.111,221.9 h -20.054 c -2.708,0 -4.903,2.191 -4.903,4.892 v 20.009 c 0,2.701 2.195,4.892 4.903,4.892 h 20.054 c 2.708,0 4.904,-2.191 4.904,-4.892 v -20.009 c 0,-2.701 -2.196,-4.892 -4.904,-4.892 z"
       fill="#9bc3ea"
       id="path280" />
    <path
       d="m 404.385,221.9 h -20.054 c -2.708,0 -4.904,2.191 -4.904,4.892 v 20.009 c 0,2.701 2.196,4.892 4.904,4.892 h 20.054 c 2.708,0 4.903,-2.191 4.903,-4.892 v -20.009 c 0,-2.701 -2.195,-4.892 -4.903,-4.892 z"
       fill="#9bc3ea"
       id="path282" />
    <path
       d="m 165.842,216.47 c -6.57,-4.941 -19.024,-4.5 -22.407,0 -1.864,2.446 3.334,8.855 5.491,12.328 3.776,6.066 19.368,18.101 32.116,22.503 4.658,1.615 14.122,-6.751 8.63,-13.159 -7.208,-8.463 -16.622,-16.242 -23.83,-21.623 z"
       fill="#4c6ef4"
       id="path284" />
    <path
       d="m 211.246,288.872 c 0,0 1.667,7.925 7.061,9.784 5.394,1.859 8.188,1.908 12.601,-0.93 1.962,-1.223 -1.618,-2.69 -5.148,-3.766 -8.924,-2.789 -8.924,-8.708 -8.924,-8.708 z"
       fill="#fbb99d"
       id="path286" />
    <path
       d="m 213.257,294.106 c 0,0 12.503,6.604 14.513,0.538 0,0 4.266,0.098 3.825,2.691 -0.491,2.593 -5.59,3.962 -9.512,3.131 -5.786,-1.223 -5.149,-1.174 -6.031,-1.614 -3.433,-1.566 -2.795,-4.746 -2.795,-4.746 z"
       fill="#e8a32b"
       id="path288" />
    <path
       d="m 184.426,247.339 c 0,0 -20.006,37.717 -26.331,42.169 -4.952,3.473 -19.269,7.974 -24.761,-5.675 -5.541,-13.746 40.55,-62.666 55.799,-56.062 13.827,5.968 -4.658,19.568 -4.658,19.568 z"
       fill="#242236"
       id="path290" />
    <path
       d="m 220.415,286.279 c -4.216,-13.11 -23.584,-57.236 -30.792,-59.095 -11.081,-2.838 -11.817,10.322 -4.854,23.628 4.511,8.659 20.544,33.951 25.399,41.435 1.176,1.81 11.473,-2.201 10.296,-5.968 z"
       fill="#242236"
       id="path292" />
    <path
       d="m 192.859,297.09 c 0,0 2.746,7.779 8.875,9.295 6.129,1.517 9.267,1.419 13.827,-1.614 2.011,-1.321 -2.108,-2.544 -6.129,-3.473 -10.15,-2.3 -10.836,-8.121 -10.836,-8.121 l -5.786,3.913 z"
       fill="#fbb99d"
       id="path294" />
    <path
       d="m 195.703,302.129 c 0,0 14.514,5.822 16.083,-0.293 0,0 4.756,-0.147 4.511,2.446 -0.245,2.592 -5.737,4.207 -10.101,3.62 -6.521,-0.93 -5.786,-0.881 -6.815,-1.223 -3.923,-1.37 -3.629,-4.55 -3.629,-4.55 z"
       fill="#e8a32b"
       id="path296" />
    <path
       d="m 118.575,266.515 c 0,0 -9.218,11.007 -3.432,23.824 5.786,12.769 7.502,-12.523 7.502,-12.523 0,0 1.373,-7.632 -4.07,-11.252 z"
       fill="#2d2c44"
       id="path298" />
    <path
       d="m 160.498,215.052 c -6.129,-6.017 -32.803,-5.675 -37.951,3.473 0,0 0.686,5.283 0.098,10.322 2.108,4.599 0.147,13.649 -0.294,19.128 -1.324,15.214 -5.835,13.746 -4.462,18.247 2.5,8.121 21.084,11.398 33.587,8.072 4.413,-1.174 12.013,-12.866 10.885,-14.97 -10.101,-18.443 6.717,-11.007 5.639,-20.791 -0.589,-5.283 -5.002,-21.084 -7.453,-23.481 z"
       fill="#4c6ef4"
       id="path300" />
    <path
       d="m 167.755,239.903 c -0.393,0.978 -1.471,2.446 -2.55,3.229 -3.285,2.348 -7.257,0.587 -10.297,-1.321 -0.637,-0.391 -1.177,0.636 -0.539,1.027 3.285,2.055 7.502,3.767 11.081,1.517 1.52,-0.93 2.746,-2.495 3.383,-4.158 0.245,-0.685 -0.833,-0.979 -1.127,-0.294 z"
       fill="#2f7edd"
       id="path302" />
    <path
       d="m 150.838,241.811 c -4.216,4.403 -10.051,4.354 -14.219,-0.196 -0.49,-0.538 -1.275,0.294 -0.784,0.832 4.56,5.039 11.13,5.039 15.837,0.147 0.49,-0.539 -0.343,-1.321 -0.834,-0.783 z"
       fill="#e08b03"
       id="path304" />
    <path
       d="m 170.353,252.475 c 0,0 -24.075,37.962 -31.331,42.903 -5.639,3.816 -18.191,8.414 -24.369,-6.506 -6.228,-15.019 43.835,-64.966 61.143,-57.824 15.69,6.458 -5.443,21.427 -5.443,21.427 z"
       fill="#2d2c44"
       id="path306" />
    <path
       d="m 202.47,295.623 c -2.648,-13.502 -17.652,-61.248 -25.301,-64.281 -11.719,-4.745 -14.514,7.974 -8.875,22.21 3.628,9.197 18.583,37.668 22.751,45.838 1.03,1.956 12.209,0.195 11.425,-3.718 z"
       fill="#2d2c44"
       id="path308" />
    <path
       d="m 136.913,250.616 c 1.03,1.175 7.845,16.78 12.994,17.269 3.726,0.392 7.943,-10.909 7.943,-10.909 0,0 -5.099,0.538 -9.267,-12.768 -3.53,-11.203 -11.67,6.36 -11.67,6.36 z"
       fill="#e9b79c"
       id="path310" />
    <path
       d="m 151.329,267.983 c 8.58,0.098 32.557,-9.393 32.557,-9.393 l -4.56,-3.424 -29.37,2.446 c 0,0 -7.208,10.224 1.373,10.322 z"
       fill="#e9b79c"
       id="path312" />
    <path
       d="m 177.953,254.579 c 0.344,-0.489 0.393,-1.272 0.589,-1.81 0.392,-1.125 1.177,-2.055 1.912,-2.935 0.392,-0.49 0.686,-2.055 1.52,-2.006 1.373,0.049 0.196,2.495 0.098,3.131 -0.049,0.587 0.147,1.223 0.687,1.419 0.343,0.146 0.735,0.048 1.078,0 1.128,-0.343 2.207,-0.832 3.285,-1.272 0.589,-0.245 1.128,-0.441 1.717,-0.636 0.441,-0.147 0.98,-0.49 1.421,-0.538 0.344,0 0.736,0.244 0.687,0.684 -0.049,0.343 -0.392,0.392 -0.687,0.539 -0.588,0.342 -1.176,0.684 -1.765,1.027 -0.147,0.098 -0.784,0.342 -0.784,0.489 -0.098,0.783 1.618,0.098 1.863,0 0.686,-0.245 1.422,-0.489 2.157,-0.245 0.099,0 0.197,0.049 0.246,0.147 0.049,0.147 -0.098,0.294 -0.197,0.392 -0.784,0.538 -1.716,0.782 -2.451,1.32 -0.098,0.098 -0.245,0.196 -0.245,0.392 0.098,0.587 1.275,0.391 1.667,0.342 0.245,0 0.588,0 0.686,0.196 0.098,0.147 0,0.342 -0.098,0.44 -0.098,0.147 -0.245,0.196 -0.441,0.245 -0.441,0.195 -0.883,0.44 -1.373,0.587 -0.245,0.049 -0.932,0.195 -0.883,0.538 0,0.049 0.049,0.098 0.098,0.147 0.197,0.146 0.442,0.146 0.687,0.146 0.245,0 0.49,0.098 0.588,0.343 0.098,0.293 -0.147,0.538 -0.392,0.685 -0.883,0.538 -1.961,0.782 -2.942,1.027 -1.03,0.294 -2.108,0.489 -3.187,0.685 -2.01,0.342 -4.119,0.245 -6.08,0.783 -0.294,0.098 -0.588,0.146 -0.883,0.195 -0.588,0 -1.127,-0.342 -1.569,-0.733 -0.784,-0.734 -1.323,-1.859 -1.274,-2.985 0,-0.342 0,-1.076 0.343,-1.271 0.196,-0.147 0.735,-0.098 0.98,-0.147 0.393,-0.049 0.736,-0.098 1.079,-0.196 0.638,-0.196 1.226,-0.538 1.716,-1.125 z"
       fill="#fbb99d"
       id="path314" />
    <path
       d="m 134.609,222.781 c -3.678,-4.745 -8.875,-7.876 -13.141,-4.941 -2.403,1.663 -3.432,7.485 -2.255,11.154 2.206,7.093 10.542,22.405 20.593,30.232 3.678,2.838 14.71,-1.908 11.817,-9.343 -3.825,-9.784 -11.817,-20.4 -17.014,-27.102 z"
       fill="#305dde"
       id="path316" />
    <path
       d="m 202.371,252.378 c -0.245,0.097 -0.588,0.195 -0.784,0 -0.147,-0.196 -0.049,-0.441 0,-0.636 0.098,-0.196 0.245,-0.392 0.245,-0.587 0,-0.049 0,-0.147 -0.049,-0.147 -0.245,-0.196 -0.735,0.293 -0.882,0.44 -0.344,0.294 -0.785,0.538 -1.177,0.783 -0.147,0.098 -0.294,0.147 -0.442,0.195 -0.147,0 -0.343,0 -0.441,-0.146 -0.098,-0.196 0,-0.441 0.196,-0.636 0.245,-0.294 1.03,-1.174 0.589,-1.517 -0.098,-0.098 -0.295,-0.049 -0.442,0 -0.833,0.294 -1.52,0.93 -2.353,1.272 -0.147,0.049 -0.343,0.098 -0.441,0 -0.049,-0.098 0,-0.196 0,-0.293 0.245,-0.685 0.784,-1.174 1.372,-1.566 0.246,-0.147 1.668,-1.174 0.981,-1.516 -0.147,-0.049 -0.686,0.293 -0.833,0.342 -0.589,0.294 -1.177,0.587 -1.766,0.881 -0.245,0.146 -0.441,0.391 -0.784,0.244 -0.343,-0.146 -0.392,-0.636 -0.147,-0.88 0.245,-0.343 0.833,-0.587 1.177,-0.832 0.441,-0.342 0.931,-0.734 1.421,-1.076 0.932,-0.636 1.913,-1.223 2.746,-1.957 0.294,-0.245 0.54,-0.489 0.589,-0.832 0.098,-0.538 -0.295,-1.027 -0.785,-1.272 -0.539,-0.293 -3.089,-0.587 -2.451,-1.712 0.343,-0.538 1.225,-0.293 1.912,-0.195 1.667,2.984 3.432,6.31 5.148,9.833 -0.098,0.097 -0.196,0.195 -0.294,0.293 -0.735,0.636 -1.471,1.37 -2.354,1.81 z"
       fill="#e9b79c"
       id="path318" />
    <path
       d="m 205.068,250.274 c 0,0 3.923,-6.409 1.471,-9.001 -2.402,-2.593 -6.717,-0.538 -6.717,-0.538 0,0 0.735,0.587 1.961,3.13 0.932,1.957 2.108,5.92 3.285,6.409 z"
       fill="#e9b79c"
       id="path320" />
    <path
       d="m 153.878,179.585 c 0,0 -9.855,-6.898 -18.043,1.712 -8.189,8.61 -0.442,24.558 8.482,27.591 0.834,0.293 -3.53,-12.23 -2.01,-15.459 0.147,-0.342 0.441,-0.636 0.588,-0.978 0.098,-0.245 0.098,-0.539 0.196,-0.783 0.196,-0.685 0.442,-1.37 0.687,-2.006 0.49,-1.272 1.128,-2.495 1.912,-3.669 1.177,-1.81 2.599,-3.473 4.315,-4.794 0.637,-0.489 1.373,-0.978 2.108,-1.272 0.344,-0.147 1.422,-0.587 1.814,-0.342 z"
       fill="#53424d"
       id="path322" />
    <path
       d="m 140.051,195.63 c 0,0 12.602,4.648 11.572,5.724 -1.03,1.125 -0.196,3.963 -0.686,6.457 -0.491,2.691 0.49,5.871 2.108,9.002 1.128,2.201 -1.079,3.962 -3.53,4.011 -10.64,0.147 -14.465,-7.876 -14.465,-7.876 4.952,-4.403 5.001,-17.269 5.001,-17.269 z"
       fill="#e9b79c"
       id="path324" />
    <path
       d="m 150.986,207.811 c 0.49,-2.494 -0.344,-5.332 0.686,-6.457 1.03,-1.125 -11.572,-5.724 -11.572,-5.724 0,0 1.373,2.887 0.981,6.898 4.07,4.501 6.668,6.164 10.101,8.561 -0.245,-1.174 -0.344,-2.299 -0.147,-3.278 z"
       fill="#c58063"
       id="path326" />
    <path
       d="m 141.915,183.694 c 0,0 -2.746,-15.703 -13.877,-13.942 -11.13,1.761 -9.12,-15.361 -28.6345,-13.747 -6.8646,0.587 -14.1214,9.637 -11.3756,17.758 2.1084,6.311 17.8481,15.068 38.0001,11.692 20.201,-3.375 13.386,2.788 13.386,2.788 l 2.452,-4.549 z"
       fill="#53424d"
       id="path328" />
    <path
       d="m 153.78,180.857 c 3.629,4.256 10.591,21.378 1.815,27.297 -3.727,2.495 -12.602,-3.033 -16.573,-10.958 -1.618,-3.278 -0.834,-9.931 2.942,-15.312 1.716,-2.446 7.649,-5.968 11.816,-0.978 z"
       fill="#e9b79c"
       id="path330" />
    <path
       d="m 153.535,184.477 c 0,0 -5.982,13.061 -16.328,11.104 0,0 -1.814,-12.67 8.777,-17.415 0,0 14.906,-2.984 15.298,16.144 0,0 -7.158,-0.098 -7.747,-9.882 z"
       fill="#53424d"
       id="path332" />
    <path
       d="m 143.435,196.462 c 0,0 -2.109,-3.865 -4.168,-3.718 -2.06,0.147 -1.373,5.724 2.5,6.36 3.825,0.636 2.403,-1.566 1.668,-2.642 z"
       fill="#e9b79c"
       id="path334" />
    <path
       d="m 139.61,207.811 v -0.733 0.391 l -0.392,-0.098 c 0,0 0.294,-2.593 0.49,-4.696 0.147,-1.37 0.294,-2.74 0.392,-3.767 0,-0.196 0.196,-0.342 0.393,-0.342 0,0 0.343,0.195 0.343,0.391 -0.098,1.027 -0.245,2.446 -0.392,3.767 -0.327,3.392 -0.622,5.087 -0.883,5.087 z"
       fill="#e8a32b"
       id="path336" />
    <path
       d="m 137.305,207.176 c 0,0 -0.147,0 -0.245,-0.098 -0.147,-0.147 -0.147,-0.392 0,-0.538 0.785,-0.783 1.275,-1.81 1.667,-3.18 0.148,-0.538 0.246,-1.125 0.393,-1.664 0.147,-0.635 0.245,-1.32 0.441,-1.956 0.098,-0.294 0.196,-0.685 0.441,-0.979 0.098,-0.146 0.344,-0.195 0.54,-0.098 0.196,0.098 0.245,0.343 0.098,0.49 -0.147,0.244 -0.245,0.538 -0.344,0.782 -0.196,0.636 -0.294,1.272 -0.441,1.908 -0.098,0.587 -0.245,1.125 -0.392,1.712 -0.392,1.517 -0.981,2.642 -1.863,3.523 -0.098,0.098 -0.196,0.146 -0.295,0.098 z"
       fill="#e8a32b"
       id="path338" />
    <path
       d="m 142.405,206.54 -0.392,-0.636 0.196,0.342 -0.393,0.098 c 0,0 0,-0.147 -0.098,-0.294 -0.392,-1.174 -1.618,-4.794 -1.716,-6.848 0,-0.196 0.147,-0.392 0.343,-0.392 0.197,0 0.393,0.147 0.393,0.343 0.049,1.32 0.588,3.571 1.667,6.653 0.147,0.44 0.196,0.587 -0.049,0.734 z"
       fill="#e8a32b"
       id="path340" />
    <path
       d="m 141.669,199.006 c 0.049,-0.734 -0.49,-1.419 -1.274,-1.468 -0.785,-0.098 -1.471,0.489 -1.52,1.223 -0.099,0.734 0.49,1.419 1.274,1.468 0.785,0.049 1.471,-0.489 1.52,-1.223 z"
       fill="#e8a32b"
       id="path342" />
    <path
       d="m 148.142,196.707 c 0,0 0.098,0.049 0.147,0.049 0.147,0.048 0.294,0.146 0.441,0.146 0.588,0.147 0.932,-0.244 1.177,-0.733 0.147,-0.294 0.637,-0.049 0.49,0.244 -0.49,1.076 -1.618,1.272 -2.599,0.587 -0.294,-0.196 0.098,-0.587 0.393,-0.391 z"
       fill="#1e100c"
       id="path344" />
    <path
       d="m 154.173,195.435 c 0,0 0.294,0.293 0.49,0.391 0.588,0.343 0.932,0 1.226,-0.489 0.147,-0.294 0.686,0 0.49,0.244 -0.343,0.588 -0.882,1.077 -1.667,0.832 -0.392,-0.147 -0.785,-0.44 -1.03,-0.734 -0.196,-0.244 0.245,-0.538 0.491,-0.293 z"
       fill="#1e100c"
       id="path346" />
    <path
       d="m 155.497,192.842 c -0.883,-0.294 -1.668,0 -2.109,0.832 -0.196,0.391 -0.784,0 -0.539,-0.343 0.588,-1.027 1.667,-1.516 2.844,-1.125 0.392,0.147 0.196,0.734 -0.196,0.636 z"
       fill="#552b19"
       id="path348" />
    <path
       d="m 149.956,194.31 c -0.736,-0.539 -1.618,-0.392 -2.256,0.244 -0.294,0.294 -0.735,-0.196 -0.441,-0.489 0.834,-0.832 2.059,-0.978 3.04,-0.294 0.343,0.245 0,0.783 -0.343,0.539 z"
       fill="#552b19"
       id="path350" />
    <path
       d="m 152.162,194.701 c -0.196,0.587 -0.294,1.223 -0.147,1.81 0.245,0.832 1.177,1.223 1.716,1.957 0.687,0.978 0,1.516 -1.225,1.81 -0.295,0.049 -0.393,-0.294 -0.148,-0.343 2.648,-0.636 -0.392,-2.054 -0.735,-3.13 -0.245,-0.685 -0.147,-1.468 0.098,-2.104 0.098,-0.245 0.539,-0.147 0.441,0.098 z"
       fill="#bd7c64"
       id="path352" />
    <path
       d="m 153.633,205.121 c 0,0 1.275,-1.81 -0.343,-2.789 -1.618,-0.978 -2.844,0.636 -2.844,0.636 z"
       fill="#f8ffff"
       id="path354" />
    <path
       d="m 146.72,200.62 c 0.196,0.685 0.931,1.028 1.618,0.832 0.686,-0.196 1.078,-0.93 0.833,-1.566 -0.196,-0.684 -0.931,-1.027 -1.618,-0.831 -0.686,0.195 -1.078,0.929 -0.833,1.565 z"
       fill="#c0775d"
       id="path356" />
    <path
       d="m 157.605,197.832 c -0.539,-0.44 -1.373,-0.392 -1.863,0.147 -0.491,0.538 -0.393,1.32 0.147,1.81 0.539,0.44 1.373,0.391 1.863,-0.147 0.49,-0.538 0.392,-1.321 -0.147,-1.81 z"
       fill="#c0775d"
       id="path358" />
    <path
       d="m 383.84,225.129 c 47.309,0 85.66,-38.263 85.66,-85.463 0,-47.2 -38.351,-85.4632 -85.66,-85.4632 -47.308,0 -85.659,38.2632 -85.659,85.4632 0,47.2 38.351,85.463 85.659,85.463 z"
       fill="#b5d6fc"
       id="path360" />
    <path
       d="m 462.586,139.862 c 0,43.392 -35.254,78.565 -78.746,78.565 -43.491,0 -78.746,-35.173 -78.746,-78.565 0,-43.3923 35.255,-78.5658 78.746,-78.5658 43.492,0 78.746,35.1735 78.746,78.5658 z"
       fill="#f3faff"
       id="path362" />
    <path
       d="m 383.84,68.1939 h -5.884 v 18.0026 h 5.884 z"
       fill="#b5d6fc"
       id="path364" />
    <path
       d="m 341.803,87.7661 -3.027,3.1361 9.713,9.3318 3.027,-3.1362 z"
       fill="#b5d6fc"
       id="path366" />
    <path
       d="m 430.969,173.926 -3.028,3.135 9.709,9.335 3.028,-3.135 z"
       fill="#b5d6fc"
       id="path368" />
    <path
       d="m 433.46,94.2956 -10.583,8.3364 2.704,3.417 10.583,-8.3362 z"
       fill="#b5d6fc"
       id="path370" />
    <path
       d="m 344.567,174.245 -10.581,8.34 2.705,3.416 10.581,-8.34 z"
       fill="#b5d6fc"
       id="path372" />
    <path
       d="m 383.84,191.276 h -5.884 v 18.003 h 5.884 z"
       fill="#b5d6fc"
       id="path374" />
    <path
       d="m 313.569,133.403 -0.191,5.868 18.035,0.584 0.191,-5.867 z"
       fill="#b5d6fc"
       id="path376" />
    <path
       d="m 437.6,136.633 -0.194,5.867 18.034,0.594 0.194,-5.867 z"
       fill="#b5d6fc"
       id="path378" />
    <path
       d="m 388.498,138.345 c 0,2.593 -2.108,4.696 -4.707,4.696 -2.598,0 -4.707,-2.103 -4.707,-4.696 0,-2.593 2.109,-4.696 4.707,-4.696 2.599,0 4.707,2.103 4.707,4.696 z"
       fill="#191d3a"
       id="path380" />
    <path
       d="M 381.193,136.633 434.295,95.5402 383.84,139.862 Z"
       fill="#191d3a"
       id="path382" />
    <path
       d="m 380.653,139.275 35.402,34.831 -31.724,-38.06 z"
       fill="#191d3a"
       id="path384" />
  </g>
  <defs
     id="defs391">
    <clipPath
       id="clip0_230_35102">
      <rect
         width="451"
         height="308"
         fill="#ffffff"
         transform="translate(18.5,-4.88281e-4)"
         id="rect388"
         x="0"
         y="0" />
    </clipPath>
  </defs>
</svg>
