<svg width="388" height="386" viewBox="0 0 388 386" fill="none" xmlns="http://www.w3.org/2000/svg">
<path d="M368.527 260.064C328.527 348.386 227.074 384.553 148.351 376.37C126.856 374.136 83.6087 369.641 50.4535 336.942C-13.2188 274.145 -0.517829 145.944 63.2569 71.6476C71.4697 62.0798 128.273 -1.98594 214.637 0.700902C277.868 2.66804 321.509 39.3261 326.813 43.8902C333.514 49.6559 348.273 63.3326 361.382 84.8134C392.184 135.286 393.523 204.871 368.527 260.064Z" fill="url(#paint0_linear_957_15067)"/>
<path d="M103.98 228.414C103.98 228.414 105.144 179.472 82.6013 166.373C60.0591 153.274 17.198 145.084 15.5914 74.8074C14.6508 33.6642 13.6328 15.6757 12.9504 7.83213C12.6843 4.77233 15.4032 2.30268 18.4213 2.87123C39.7708 6.89314 109.126 23.4475 123.667 70.7856C140.905 126.905 103.98 228.414 103.98 228.414Z" fill="#91B3FA"/>
<path d="M34.9325 22.4242C58.3679 43.3252 85.4665 80.3157 99.9104 117.306C101.764 123.403 107.188 136.367 109.543 159.401C111.646 178.612 110.601 198.913 108.05 212.35C107.889 213.2 107.069 213.758 106.22 213.596C104.759 213.319 104.953 211.748 104.967 211.798C107.88 188.839 106.67 160.263 99.9958 134.479C91.4684 102.82 72.4488 72.1247 52.7765 46.091L50.7521 43.5274C35.5106 23.9541 32.3019 23.8099 33.7268 22.4455C34.0633 22.1232 34.59 22.1203 34.9325 22.4242Z" fill="#7D97F4"/>
<path d="M140.206 322.513C143.256 324.009 111.333 283.865 101.333 220.816C96.6204 191.106 96.5588 153.882 79.6346 139.537C65.5491 127.598 17.618 135.135 1.93496 138C-0.0247964 138.358 -0.684456 140.833 0.841053 142.114C8.36188 148.431 24.4505 163.329 28.6425 178.344C34.1679 198.135 52.9833 210.723 69.828 214.13C86.6727 217.536 96.043 220.842 104.249 247.781C112.455 274.719 131.54 318.264 140.206 322.513Z" fill="#7D97F4"/>
<path d="M23.9924 146.362C44.0015 147.2 65.4799 156.327 76.3794 173.448L77.4081 175.082C79.7841 178.913 93.2501 206.146 100.729 228.72C100.822 229.002 100.67 229.306 100.388 229.399C99.9103 229.557 99.6708 229.031 99.7163 229.078C94.5056 216.325 87.0217 200.156 81.0611 188.065C74.669 174.871 70.1957 165.936 55.6157 157.377C39.3877 148.16 23.8842 147.211 23.9307 147.22C23.6942 147.196 23.5218 146.985 23.5461 146.748C23.5692 146.521 23.767 146.352 23.9924 146.362Z" fill="#91B3FA"/>
<path d="M126.521 327.794C128.331 328.748 116.326 308.086 115.405 289.882C114.484 271.678 110.377 240.608 94.679 222.022C78.9808 203.436 61.7898 201.741 40.1281 218.637C22.0768 232.717 10.8169 239.823 4.21331 241.143C2.57816 241.47 1.74366 243.317 2.53943 244.782C6.77491 252.582 18.7494 270.498 38.8552 269.236C64.5015 267.627 95.5829 250.955 105.056 264.863C114.529 278.771 113.313 286.553 113.604 293.144C113.895 299.736 114.544 321.479 126.521 327.794Z" fill="#91B3FA"/>
<path d="M47.4053 240.953C55.262 233.421 68.0578 226.019 79.2408 227.399C93.7907 229.743 103.483 239.459 108.77 253.923C110.837 260.064 111.687 263.342 112.909 270.87C113.007 271.471 112.12 271.651 111.972 271.064C111.083 267.528 110.202 263.826 108.885 259.997C101.216 235.292 84.8449 231.964 84.2081 231.459C82.9704 231.581 75.4674 225.964 57.6638 235.544C54.3393 237.354 51.1032 239.419 48.065 241.698L48.0481 241.71C47.8283 241.875 47.5165 241.831 47.3515 241.611C47.1991 241.407 47.226 241.125 47.4053 240.953Z" fill="#7D97F4"/>
<path d="M103.314 30.0834C94.2074 30.8753 87.2255 38.5019 87.1996 47.6427C87.0411 103.542 86.7796 296.354 90.423 364.598C90.809 371.828 96.7362 377.508 103.976 377.586C139.784 377.971 242.785 378.68 301.259 374.939C313.439 374.16 322.916 364.073 322.901 351.869C322.83 293.201 321.893 128.205 313.856 52.7874C312.893 43.7513 305.63 36.698 296.57 35.9921C257.515 32.9492 153.806 25.6922 103.314 30.0834Z" fill="url(#paint1_linear_957_15067)"/>
<path d="M101.573 62.2922C100.87 110.109 98.868 269.176 102.363 327.885C102.874 336.466 109.54 343.241 117.77 343.528C151.657 344.709 238.556 346.994 288.072 341.546C296.989 340.564 303.803 332.836 304.041 323.478C305.279 274.681 308.625 126.528 305.228 68.476C304.686 59.215 297.611 51.8254 288.742 51.2279C252.05 48.7554 157.829 43.0538 115.722 46.5602C107.818 47.2185 101.695 54.0139 101.573 62.2922Z" fill="url(#paint2_linear_957_15067)"/>
<path d="M183.449 38.3975C183.478 39.7185 184.532 40.7855 185.853 40.8256C192.373 41.0237 210.741 41.586 218.952 41.8818C220.57 41.9401 221.807 40.4589 221.466 38.8756C221.438 38.8257 221.227 36.7955 219.154 36.6514C213.6 36.2653 196.845 35.2241 185.773 35.8629C183.499 35.994 183.376 38.5798 183.449 38.3975Z" fill="url(#paint3_linear_957_15067)"/>
<path d="M193.92 36.5907C194.152 36.5825 194.386 36.6342 194.615 36.7444L206.727 42.5777C207.598 42.9973 208.569 43.201 209.535 43.167C210.501 43.133 211.456 42.8615 212.295 42.3817L223.967 35.7108C224.187 35.5849 224.417 35.5169 224.649 35.5086C225.076 35.4936 225.51 35.6828 225.811 36.0144C226.015 36.2395 226.241 36.6265 226.165 37.1921L224.36 50.5139C224.095 52.4672 224.808 54.4243 226.267 55.7494L236.218 64.7887C236.832 65.3461 236.721 66.0238 236.645 66.2894C236.569 66.5549 236.304 67.1885 235.489 67.3365L222.261 69.7367C220.322 70.0885 218.681 71.3713 217.871 73.1685L212.349 85.4258C212.009 86.1817 211.33 86.2859 211.054 86.2957C210.778 86.3053 210.093 86.2492 209.701 85.519L203.33 73.6805C202.396 71.9448 200.669 70.7805 198.71 70.5661L185.346 69.1023C184.522 69.012 184.213 68.3986 184.119 68.1391C184.024 67.8795 183.866 67.2112 184.439 66.6122L193.73 56.8953C195.092 55.4708 195.665 53.4684 195.264 51.5387L192.527 38.3767C192.41 37.8181 192.609 37.416 192.797 37.1771C193.073 36.8249 193.493 36.6058 193.92 36.5907Z" fill="url(#paint4_linear_957_15067)"/>
<path opacity="0.67" d="M222.537 53.8007C222.679 53.7957 222.815 53.8818 222.866 54.0231C223.303 55.222 224.034 56.3095 224.979 57.1679L228.764 60.6067C228.902 60.7323 228.913 60.9463 228.787 61.0845C228.662 61.2227 228.448 61.233 228.309 61.1074L224.524 57.6686C223.498 56.7368 222.705 55.5563 222.231 54.2546C222.167 54.0792 222.257 53.885 222.433 53.8211C222.467 53.8085 222.502 53.8019 222.537 53.8007Z" fill="white"/>
<path opacity="0.67" d="M214.964 43.1081C215.086 43.1038 215.205 43.1655 215.27 43.2784C215.363 43.4405 215.306 43.6473 215.144 43.7399L213.582 44.6329C212.379 45.3203 211.011 45.7096 209.626 45.7582C208.242 45.8069 206.85 45.5149 205.602 44.9137C205.433 44.8327 205.363 44.6304 205.444 44.4623C205.525 44.2938 205.727 44.2232 205.895 44.3043C207.045 44.8581 208.327 45.1272 209.603 45.0822C210.878 45.0374 212.138 44.6789 213.246 44.0457L214.809 43.1527C214.858 43.1244 214.911 43.1099 214.964 43.1081Z" fill="white"/>
<path opacity="0.67" d="M198.32 41.0042C198.586 40.9949 198.854 41.0246 199.118 41.0953C199.299 41.1437 199.406 41.329 199.358 41.5094C199.309 41.6899 199.124 41.7971 198.944 41.7489C198.251 41.5639 197.52 41.7539 196.988 42.2577C196.454 42.7625 196.234 43.4669 196.384 44.1903L197.803 51.011C198.378 53.7763 197.556 56.6459 195.604 58.6872L190.789 63.7226C190.23 64.3081 190.061 65.1123 190.338 65.8735C190.615 66.6349 191.262 67.142 192.067 67.2302L198.992 67.9887C201.8 68.2961 204.275 69.9645 205.614 72.4519L208.915 78.5866C209.299 79.3002 210.011 79.7091 210.821 79.6805C211.631 79.652 212.313 79.194 212.645 78.4553L215.507 72.1034C216.667 69.5282 219.019 67.6896 221.798 67.1856L228.652 65.9418C229.061 65.8675 229.43 65.6822 229.719 65.4055C229.854 65.2764 230.068 65.281 230.197 65.416C230.326 65.5508 230.321 65.765 230.187 65.8941C229.802 66.2629 229.313 66.5096 228.773 66.6074L221.918 67.8512C219.359 68.3156 217.192 70.0091 216.123 72.3815L213.262 78.7332C212.828 79.6973 211.901 80.3194 210.845 80.3566C209.788 80.3938 208.82 79.8385 208.319 78.9073L205.018 72.7726C203.785 70.4812 201.505 68.9443 198.918 68.6612L191.993 67.9026C190.942 67.7876 190.064 67.0986 189.702 66.1052C189.34 65.1114 189.57 64.0195 190.3 63.2552L195.115 58.2199C196.913 56.3396 197.67 53.696 197.14 51.1488L195.722 44.3282C195.525 43.3839 195.825 42.4261 196.523 41.7663C197.025 41.2912 197.662 41.0275 198.32 41.0042Z" fill="white"/>
<path d="M132.247 59.2885C132.424 59.2822 132.603 59.3218 132.778 59.4059L142.037 63.8654C142.703 64.1861 143.446 64.3419 144.184 64.316C144.923 64.2899 145.653 64.0823 146.294 63.7157L155.218 58.6157C155.386 58.5195 155.561 58.4675 155.739 58.4612C156.065 58.4497 156.397 58.5943 156.627 58.8478C156.783 59.02 156.956 59.3159 156.898 59.7484L155.518 69.9328C155.316 71.426 155.861 72.9222 156.976 73.9352L164.583 80.8457C165.053 81.2717 164.968 81.7898 164.91 81.9928C164.852 82.1958 164.649 82.6802 164.025 82.7933L153.913 84.6282C152.431 84.8971 151.176 85.8779 150.557 87.2518L146.336 96.6223C146.075 97.2002 145.556 97.2799 145.345 97.2874C145.135 97.2948 144.611 97.2518 144.311 96.6937L139.441 87.6433C138.727 86.3163 137.406 85.4264 135.909 85.2624L125.692 84.1433C125.062 84.0743 124.826 83.6054 124.754 83.407C124.682 83.2086 124.561 82.6977 124.999 82.2396L132.101 74.8113C133.143 73.7223 133.581 72.1915 133.274 70.7163L131.181 60.6541C131.093 60.2269 131.245 59.9196 131.388 59.7369C131.599 59.4676 131.92 59.2999 132.247 59.2885Z" fill="url(#paint5_linear_957_15067)"/>
<path opacity="0.67" d="M154.124 72.4455C154.233 72.4416 154.337 72.5075 154.376 72.6154C154.71 73.532 155.268 74.3634 155.991 75.0196L158.885 77.6486C158.991 77.7446 158.999 77.908 158.903 78.0138C158.807 78.1195 158.643 78.1273 158.537 78.0313L155.643 75.4023C154.859 74.69 154.253 73.7875 153.89 72.7924C153.841 72.6582 153.911 72.5098 154.045 72.4609C154.071 72.4515 154.098 72.4463 154.124 72.4455Z" fill="white"/>
<path opacity="0.67" d="M148.335 64.2709C148.428 64.2676 148.519 64.3148 148.569 64.401C148.64 64.525 148.597 64.683 148.473 64.7538L147.278 65.4364C146.359 65.9619 145.313 66.2594 144.254 66.2967C143.196 66.334 142.132 66.1107 141.177 65.6511C141.049 65.5891 140.995 65.4346 141.057 65.306C141.118 65.1773 141.273 65.1233 141.402 65.1852C142.281 65.6086 143.261 65.8143 144.236 65.78C145.211 65.7457 146.174 65.4717 147.021 64.9876L148.216 64.3049C148.254 64.2833 148.294 64.2723 148.335 64.2709Z" fill="white"/>
<path opacity="0.67" d="M135.611 62.6625C135.813 62.6554 136.019 62.6781 136.221 62.7322C136.359 62.7691 136.441 62.9108 136.404 63.0487C136.367 63.1866 136.225 63.2687 136.087 63.2318C135.558 63.0904 134.999 63.2357 134.592 63.6207C134.184 64.0068 134.015 64.5452 134.131 65.0983L135.215 70.3126C135.655 72.4266 135.026 74.6204 133.534 76.181L129.854 80.0306C129.425 80.4782 129.296 81.0929 129.508 81.675C129.72 82.257 130.215 82.6447 130.83 82.7122L136.124 83.292C138.271 83.5269 140.163 84.8026 141.187 86.7041L143.71 91.3941C144.004 91.9395 144.549 92.2521 145.168 92.2304C145.787 92.2086 146.308 91.8584 146.562 91.2936L148.75 86.4377C149.637 84.4689 151.435 83.0634 153.559 82.678L158.799 81.7271C159.112 81.6704 159.394 81.5287 159.615 81.3171C159.718 81.2183 159.882 81.2219 159.98 81.325C160.079 81.4281 160.075 81.5918 159.972 81.6904C159.678 81.9722 159.304 82.1609 158.892 82.2357L153.651 83.1865C151.695 83.5415 150.038 84.8362 149.221 86.6498L147.034 91.5056C146.702 92.2428 145.994 92.7184 145.186 92.7468C144.378 92.7752 143.638 92.3506 143.255 91.6388L140.731 86.9489C139.788 85.1973 138.045 84.0223 136.068 83.8058L130.774 83.2258C129.97 83.1378 129.299 82.6113 129.023 81.8516C128.746 81.0919 128.921 80.2571 129.48 79.6728L133.16 75.8234C134.535 74.3858 135.114 72.365 134.709 70.4177L133.624 65.2034C133.474 64.4814 133.703 63.7493 134.237 63.2449C134.621 62.8819 135.108 62.6804 135.611 62.6625Z" fill="white"/>
<path d="M107.352 106.227C107.463 106.223 107.574 106.248 107.684 106.3L113.478 109.091C113.895 109.292 114.36 109.389 114.822 109.373C115.284 109.357 115.741 109.227 116.142 108.997L121.726 105.806C121.831 105.746 121.941 105.713 122.052 105.709C122.257 105.702 122.464 105.793 122.608 105.951C122.706 106.059 122.814 106.244 122.777 106.515L121.914 112.888C121.787 113.822 122.128 114.758 122.826 115.392L127.587 119.717C127.88 119.983 127.827 120.308 127.791 120.435C127.755 120.562 127.628 120.865 127.238 120.936L120.91 122.084C119.982 122.252 119.197 122.866 118.81 123.726L116.168 129.589C116.005 129.951 115.681 130.001 115.548 130.006C115.417 130.01 115.089 129.983 114.901 129.634L111.854 123.971C111.407 123.14 110.58 122.583 109.643 122.481L103.25 121.78C102.856 121.737 102.708 121.444 102.663 121.32C102.618 121.195 102.542 120.876 102.816 120.589L107.261 115.941C107.912 115.259 108.187 114.301 107.995 113.378L106.685 107.081C106.629 106.814 106.725 106.622 106.814 106.507C106.947 106.339 107.147 106.234 107.352 106.227Z" fill="url(#paint6_linear_957_15067)"/>
<path opacity="0.67" d="M121.042 114.46C121.11 114.458 121.175 114.499 121.199 114.567C121.408 115.14 121.758 115.66 122.21 116.071L124.021 117.716C124.087 117.776 124.092 117.878 124.032 117.945C123.972 118.011 123.869 118.016 123.803 117.956L121.992 116.31C121.502 115.865 121.122 115.3 120.895 114.677C120.865 114.593 120.908 114.5 120.992 114.47C121.008 114.464 121.025 114.461 121.042 114.46Z" fill="white"/>
<path opacity="0.67" d="M117.419 109.345C117.477 109.343 117.535 109.372 117.565 109.426C117.61 109.504 117.583 109.603 117.505 109.647L116.758 110.074C116.182 110.403 115.528 110.589 114.866 110.612C114.203 110.636 113.537 110.496 112.94 110.208C112.859 110.17 112.826 110.073 112.865 109.993C112.903 109.912 113 109.878 113.08 109.917C113.631 110.182 114.244 110.311 114.854 110.289C115.464 110.268 116.067 110.096 116.597 109.793L117.344 109.366C117.368 109.353 117.394 109.346 117.419 109.345Z" fill="white"/>
<path opacity="0.67" d="M109.457 108.338C109.583 108.334 109.712 108.348 109.838 108.382C109.925 108.405 109.976 108.494 109.953 108.58C109.93 108.666 109.841 108.718 109.755 108.694C109.424 108.606 109.074 108.697 108.819 108.938C108.564 109.179 108.458 109.516 108.53 109.862L109.209 113.125C109.484 114.448 109.091 115.821 108.157 116.798L105.854 119.207C105.586 119.487 105.505 119.871 105.638 120.236C105.771 120.6 106.08 120.842 106.465 120.885L109.778 121.247C111.121 121.394 112.305 122.193 112.946 123.383L114.525 126.317C114.709 126.659 115.05 126.855 115.437 126.841C115.824 126.827 116.151 126.608 116.31 126.255L117.679 123.216C118.234 121.984 119.359 121.105 120.688 120.863L123.967 120.268C124.163 120.233 124.339 120.144 124.478 120.012C124.542 119.95 124.645 119.952 124.706 120.017C124.768 120.081 124.766 120.184 124.701 120.245C124.517 120.422 124.283 120.54 124.025 120.587L120.746 121.182C119.521 121.404 118.485 122.214 117.974 123.349L116.605 126.388C116.397 126.849 115.954 127.147 115.448 127.164C114.943 127.182 114.48 126.916 114.24 126.471L112.661 123.536C112.071 122.44 110.98 121.705 109.743 121.569L106.43 121.206C105.927 121.151 105.507 120.822 105.334 120.346C105.161 119.871 105.27 119.349 105.62 118.983L107.923 116.574C108.784 115.674 109.146 114.41 108.892 113.191L108.214 109.928C108.12 109.477 108.263 109.018 108.597 108.703C108.837 108.475 109.142 108.349 109.457 108.338Z" fill="white"/>
<path d="M285.423 66.3472C285.245 66.3464 285.068 66.3912 284.896 66.4808L275.777 71.2206C275.121 71.5615 274.383 71.7398 273.644 71.7363C272.905 71.7329 272.17 71.5476 271.517 71.2007L262.442 66.3752C262.271 66.2841 262.094 66.2375 261.917 66.2367C261.59 66.2352 261.262 66.3898 261.041 66.6502C260.89 66.827 260.726 67.1281 260.798 67.5585L262.487 77.6961C262.735 79.1825 262.236 80.6946 261.152 81.7412L253.759 88.8804C253.303 89.3205 253.403 89.8358 253.467 90.037C253.532 90.2382 253.749 90.7162 254.376 90.8102L264.539 92.336C266.029 92.5596 267.313 93.5017 267.974 94.8559L272.479 104.093C272.757 104.663 273.278 104.727 273.489 104.728C273.7 104.729 274.222 104.67 274.505 104.103L279.097 94.9082C279.77 93.56 281.063 92.6302 282.555 92.4207L292.732 90.9906C293.36 90.9024 293.582 90.4264 293.648 90.2261C293.714 90.0256 293.819 89.5112 293.367 89.0667L286.042 81.8583C284.968 80.8016 284.483 79.2848 284.744 77.8009L286.529 67.6796C286.605 67.2499 286.444 66.9474 286.295 66.7692C286.076 66.5064 285.75 66.3487 285.423 66.3472Z" fill="url(#paint7_linear_957_15067)"/>
<path opacity="0.67" d="M263.957 80.1653C263.848 80.1647 263.746 80.2337 263.71 80.3428C263.404 81.2692 262.872 82.1173 262.17 82.795L259.357 85.5111C259.254 85.6103 259.251 85.7739 259.351 85.8767C259.45 85.9794 259.613 85.9823 259.716 85.8831L262.529 83.167C263.291 82.4311 263.869 81.5105 264.201 80.5048C264.246 80.3692 264.172 80.2231 264.037 80.1782C264.011 80.1696 263.983 80.1654 263.957 80.1653Z" fill="white"/>
<path opacity="0.67" d="M269.494 71.8181C269.402 71.8177 269.311 71.8676 269.265 71.9553C269.198 72.0814 269.245 72.238 269.372 72.305L270.586 72.9509C271.521 73.4481 272.576 73.7136 273.635 73.7187C274.694 73.7237 275.751 73.468 276.691 72.9795C276.817 72.9137 276.867 72.7575 276.801 72.6309C276.735 72.5041 276.579 72.4548 276.452 72.5207C275.586 72.9707 274.613 73.2061 273.637 73.2015C272.662 73.1969 271.69 72.9524 270.829 72.4944L269.614 71.8485C269.576 71.828 269.535 71.8183 269.494 71.8181Z" fill="white"/>
<path opacity="0.67" d="M282.164 69.8224C281.961 69.8214 281.756 69.8504 281.556 69.9106C281.419 69.9517 281.342 70.0959 281.383 70.2326C281.424 70.3694 281.568 70.447 281.705 70.4059C282.229 70.2484 282.793 70.3766 283.211 70.749C283.631 71.1224 283.816 71.6554 283.717 72.2118L282.792 77.4568C282.417 79.5832 283.112 81.7568 284.651 83.2713L288.448 87.0067C288.889 87.4411 289.037 88.0516 288.843 88.6398C288.649 89.228 288.167 89.6306 287.553 89.7167L282.279 90.4577C280.141 90.758 278.288 92.0908 277.323 94.0226L274.944 98.7873C274.667 99.3415 274.132 99.6706 273.513 99.6676C272.894 99.6647 272.362 99.3306 272.09 98.7739L269.756 93.987C268.809 92.0462 266.969 90.6961 264.834 90.3758L259.567 89.5852C259.253 89.538 258.967 89.4049 258.74 89.2003C258.633 89.1047 258.47 89.1132 258.374 89.2194C258.279 89.3254 258.287 89.4889 258.393 89.5845C258.696 89.8573 259.075 90.0344 259.49 90.0966L264.757 90.8872C266.724 91.1825 268.419 92.426 269.291 94.214L271.625 99.0009C271.98 99.7274 272.702 100.181 273.51 100.185C274.319 100.189 275.045 99.7419 275.407 99.0187L277.786 94.254C278.675 92.4743 280.381 91.2468 282.351 90.9701L287.625 90.229C288.425 90.1166 289.08 89.5697 289.334 88.8021C289.587 88.0343 289.387 87.2053 288.81 86.6383L285.014 82.9028C283.596 81.5078 282.956 79.5056 283.301 77.5468L284.226 72.3018C284.354 71.5757 284.103 70.8507 283.555 70.3628C283.16 70.0116 282.667 69.8249 282.164 69.8224Z" fill="white"/>
<path d="M307.78 103.17C307.67 103.17 307.559 103.198 307.451 103.254L301.744 106.22C301.334 106.433 300.872 106.545 300.41 106.543C299.947 106.541 299.487 106.425 299.079 106.208L293.4 103.188C293.293 103.131 293.182 103.102 293.071 103.101C292.867 103.1 292.662 103.197 292.523 103.36C292.429 103.471 292.326 103.659 292.371 103.929L293.428 110.272C293.583 111.202 293.271 112.149 292.593 112.804L287.966 117.271C287.681 117.547 287.744 117.869 287.784 117.995C287.824 118.121 287.96 118.42 288.352 118.479L294.712 119.433C295.645 119.573 296.448 120.163 296.861 121.01L299.681 126.791C299.855 127.147 300.181 127.187 300.313 127.188C300.445 127.188 300.771 127.152 300.949 126.797L303.822 121.043C304.243 120.2 305.052 119.618 305.986 119.487L312.355 118.592C312.747 118.537 312.886 118.239 312.928 118.113C312.969 117.988 313.035 117.666 312.752 117.388L308.168 112.877C307.496 112.216 307.192 111.266 307.356 110.338L308.473 104.004C308.52 103.735 308.419 103.546 308.326 103.435C308.189 103.27 307.985 103.171 307.78 103.17Z" fill="url(#paint8_linear_957_15067)"/>
<path opacity="0.67" d="M294.348 111.817C294.28 111.817 294.216 111.86 294.194 111.928C294.002 112.508 293.669 113.039 293.229 113.463L291.469 115.163C291.405 115.225 291.403 115.327 291.465 115.391C291.527 115.456 291.63 115.457 291.694 115.395L293.454 113.696C293.931 113.235 294.293 112.659 294.501 112.03C294.529 111.945 294.483 111.853 294.398 111.825C294.381 111.82 294.364 111.817 294.348 111.817Z" fill="white"/>
<path opacity="0.67" d="M297.813 106.594C297.755 106.594 297.698 106.625 297.669 106.68C297.627 106.759 297.657 106.857 297.736 106.899L298.496 107.303C299.081 107.614 299.741 107.78 300.404 107.783C301.067 107.786 301.728 107.626 302.316 107.321C302.395 107.279 302.426 107.182 302.385 107.103C302.344 107.023 302.246 106.992 302.167 107.034C301.625 107.315 301.016 107.463 300.406 107.46C299.795 107.457 299.187 107.304 298.648 107.017L297.888 106.613C297.864 106.6 297.838 106.594 297.813 106.594Z" fill="white"/>
<path opacity="0.67" d="M305.741 105.345C305.614 105.344 305.486 105.363 305.361 105.4C305.275 105.426 305.227 105.516 305.252 105.602C305.278 105.687 305.368 105.736 305.454 105.71C305.782 105.611 306.134 105.692 306.397 105.925C306.659 106.159 306.775 106.492 306.713 106.84L306.134 110.122C305.9 111.453 306.335 112.813 307.298 113.761L309.674 116.098C309.95 116.37 310.042 116.752 309.921 117.12C309.799 117.488 309.497 117.74 309.114 117.794L305.813 118.258C304.475 118.446 303.316 119.28 302.712 120.489L301.223 123.47C301.05 123.817 300.715 124.023 300.328 124.021C299.94 124.019 299.607 123.81 299.437 123.462L297.976 120.466C297.384 119.252 296.233 118.407 294.897 118.207L291.601 117.712C291.404 117.682 291.225 117.599 291.083 117.471C291.016 117.411 290.914 117.416 290.854 117.483C290.795 117.549 290.8 117.652 290.866 117.711C291.056 117.882 291.293 117.993 291.553 118.032L294.849 118.527C296.079 118.711 297.14 119.489 297.686 120.608L299.147 123.604C299.368 124.058 299.82 124.342 300.326 124.345C300.832 124.347 301.287 124.067 301.513 123.615L303.002 120.633C303.558 119.52 304.626 118.751 305.859 118.578L309.159 118.115C309.66 118.044 310.069 117.702 310.228 117.222C310.387 116.741 310.261 116.222 309.9 115.868L307.525 113.53C306.638 112.657 306.237 111.404 306.453 110.178L307.032 106.896C307.112 106.442 306.955 105.988 306.612 105.683C306.365 105.463 306.056 105.347 305.741 105.345Z" fill="white"/>
<path d="M291.472 317.366H114.218C112.857 317.366 111.753 316.262 111.753 314.901V142.758C111.753 141.396 112.857 140.292 114.218 140.292H291.472C292.834 140.292 293.937 141.396 293.937 142.758V314.901C293.937 316.262 292.834 317.366 291.472 317.366Z" fill="#7D97F4"/>
<path d="M248.71 159.662H165.713C165.234 159.662 164.846 159.273 164.846 158.794V149.699C164.846 149.22 165.234 148.832 165.713 148.832H248.71C249.189 148.832 249.577 149.22 249.577 149.699V158.794C249.577 159.273 249.189 159.662 248.71 159.662Z" fill="#BDD0FB"/>
<path d="M284.939 181.94H123.145C122.666 181.94 122.278 181.552 122.278 181.073V172.906C122.278 172.427 122.666 172.039 123.145 172.039H284.939C285.417 172.039 285.806 172.427 285.806 172.906V181.073C285.806 181.552 285.418 181.94 284.939 181.94Z" fill="#BDD0FB"/>
<path d="M225.403 204.218H122.639C122.16 204.218 121.772 203.83 121.772 203.351V195.184C121.772 194.705 122.16 194.317 122.639 194.317H225.403C225.882 194.317 226.27 194.705 226.27 195.184V203.351C226.271 203.83 225.882 204.218 225.403 204.218Z" fill="#BDD0FB"/>
<path d="M280.22 226.827H123.398C122.919 226.827 122.531 226.439 122.531 225.96V217.793C122.531 217.314 122.919 216.926 123.398 216.926H280.22C280.699 216.926 281.087 217.314 281.087 217.793V225.96C281.087 226.439 280.699 226.827 280.22 226.827Z" fill="#BDD0FB"/>
<path d="M252.544 249.106H122.892C122.413 249.106 122.025 248.718 122.025 248.239V240.072C122.025 239.593 122.413 239.204 122.892 239.204H252.544C253.023 239.204 253.411 239.593 253.411 240.072V248.239C253.411 248.718 253.023 249.106 252.544 249.106Z" fill="#BDD0FB"/>
<path d="M285.445 272.936H123.652C123.173 272.936 122.784 272.548 122.784 272.069V263.902C122.784 263.423 123.173 263.035 123.652 263.035H285.445C285.924 263.035 286.312 263.423 286.312 263.902V272.069C286.312 272.548 285.924 272.936 285.445 272.936Z" fill="#BDD0FB"/>
<path d="M218.027 295.215H123.145C122.666 295.215 122.278 294.826 122.278 294.347V286.18C122.278 285.701 122.666 285.313 123.145 285.313H218.027C218.505 285.313 218.894 285.701 218.894 286.18V294.347C218.894 294.826 218.506 295.215 218.027 295.215Z" fill="#BDD0FB"/>
<path d="M300.711 383.056C304.858 383.415 312.054 383.997 317.728 384.247C321.138 384.397 323.102 384.063 324.233 383.61C324.231 383.738 324.227 383.858 324.222 383.97C324.195 384.567 323.71 385.045 323.107 385.078C312.387 385.677 303.861 385.285 300.826 385.1C300.198 385.062 299.824 384.38 300.145 383.845C300.306 383.578 300.5 383.315 300.711 383.056Z" fill="url(#paint9_linear_957_15067)"/>
<path d="M317.728 384.247C312.054 383.997 304.858 383.415 300.711 383.056C304.788 378.055 317.728 374.683 317.728 374.683H321.383C323.896 378.307 324.26 381.756 324.233 383.61C323.102 384.063 321.138 384.397 317.728 384.247Z" fill="url(#paint10_linear_957_15067)"/>
<path d="M321.998 368.717L321.656 375.485C321.619 376.218 321.07 376.833 320.336 376.938C319.606 377.043 318.628 377.056 317.591 376.711C316.953 376.499 316.479 375.961 316.362 375.305L315.18 368.717H321.998Z" fill="url(#paint11_linear_957_15067)"/>
<path d="M369.467 384.196C371.265 383.945 372.079 383.011 372.42 382.012C372.422 382.022 372.424 382.03 372.427 382.039C372.691 383.093 372.078 384.185 370.852 384.704C369.37 385.331 367.749 385.438 366.491 385.387C365.142 385.331 363.903 384.772 363.222 383.879L363.212 383.865C364.566 384.535 366.468 384.614 369.467 384.196Z" fill="url(#paint12_linear_957_15067)"/>
<path d="M360.989 368.673H364.003C368.594 368.58 371.477 378.263 372.42 382.012C372.079 383.011 371.265 383.945 369.467 384.196C366.468 384.614 364.567 384.535 363.212 383.865C360.732 380.601 359.502 375.821 358.911 373.031C358.239 369.859 360.989 368.673 360.989 368.673Z" fill="url(#paint13_linear_957_15067)"/>
<path d="M363.615 362.392L365.289 369.049C365.494 369.865 365.104 370.709 364.349 371.096C363.413 371.576 362.095 372.081 360.883 371.935C360.314 371.866 359.84 371.465 359.652 370.929L357.195 363.926L363.615 362.392Z" fill="url(#paint14_linear_957_15067)"/>
<path d="M365.612 364.316C363.529 366.163 356.757 366.407 356.757 366.407C332.36 307.854 322.381 299.535 322.381 299.535C325.903 321.636 322.949 370.564 322.949 370.564C318.923 372.341 313.733 370.564 313.733 370.564C313.406 334.382 307.844 302.828 301.275 277.952C317.764 277.581 326.532 271.939 329.395 269.674C343.14 291.833 365.612 364.316 365.612 364.316Z" fill="url(#paint15_linear_957_15067)"/>
<path d="M325.208 202.338C328.329 217.906 327.21 245.769 326.476 258.478C326.269 262.05 328.763 267.002 330.778 270.38C331.094 270.91 330.899 271.589 330.35 271.871C326.976 273.605 315.544 278.98 302.294 279.649C301.411 279.693 300.622 279.092 300.393 278.237C290.565 241.54 279.15 218.091 279.15 218.091C291.753 197.965 325.208 202.338 325.208 202.338Z" fill="url(#paint16_linear_957_15067)"/>
<path d="M320.716 298.149C320.855 298.149 320.995 298.112 321.122 298.035C321.49 297.81 321.607 297.33 321.383 296.962C321.252 296.746 318.096 291.645 311.71 288.564C311.322 288.378 310.855 288.539 310.667 288.928C310.479 289.317 310.642 289.784 311.031 289.971C316.984 292.844 320.018 297.726 320.048 297.775C320.196 298.016 320.453 298.149 320.716 298.149Z" fill="url(#paint17_linear_957_15067)"/>
<path d="M344.784 247.017C343.781 254.269 340.82 262.179 334.894 270.582L332.642 268.745C332.642 268.745 335.242 258.196 333.764 246.224C337.419 245.511 341.736 246.246 344.784 247.017Z" fill="url(#paint18_linear_957_15067)"/>
<path d="M321.722 221.546L325.208 202.338C325.208 202.338 348.499 220.141 344.784 247.017C341.736 246.246 337.419 245.511 333.764 246.224C332.699 237.599 329.519 228.237 321.722 221.546Z" fill="url(#paint19_linear_957_15067)"/>
<path d="M279.15 218.091L288.14 237.453C286.687 249.142 280.407 254.197 273.636 256.135C273.214 250.808 271.867 246.504 270.617 243.526C279.268 234.594 279.15 218.091 279.15 218.091Z" fill="url(#paint20_linear_957_15067)"/>
<path d="M270.617 243.526C271.867 246.504 273.214 250.808 273.636 256.135C255.572 263.144 250.792 249.551 250.792 249.551L254.131 248.962C261.67 249.757 266.937 247.326 270.617 243.526Z" fill="url(#paint21_linear_957_15067)"/>
<path d="M287.433 194.187L291.773 210.142C292.261 211.935 294.2 212.897 295.925 212.208C297.786 211.463 300.147 210.448 302.18 209.35C304.35 208.179 305.029 205.387 303.656 203.339L294.632 189.884L287.433 194.187Z" fill="url(#paint22_linear_957_15067)"/>
<path d="M277.938 182.065C277.898 182.339 281.558 200.272 281.558 200.272L291.753 197.965L290.81 180.453C290.81 180.453 278.599 177.478 277.938 182.065Z" fill="url(#paint23_linear_957_15067)"/>
<path d="M288.517 184.355L289.735 193.535C289.751 193.653 289.75 193.769 289.734 193.887C289.631 194.606 289.096 197.056 286.623 196.355C284.379 195.72 282.321 195.173 280.9 195.608C280.262 195.803 279.877 196.449 280.011 197.103C280.344 198.732 281.162 202.39 282.357 205.459C282.6 206.082 283.282 206.409 283.924 206.222C285.857 205.658 289.902 204.355 292.911 202.545C293.318 202.299 293.561 201.856 293.541 201.381C293.443 199.063 293.172 192.018 293.4 190.044C293.615 188.19 295.889 187.08 296.878 186.681C297.202 186.551 297.456 186.296 297.585 185.971C298.043 184.824 298.674 182.17 295.329 181.083C294.629 180.855 294.26 180.1 294.509 179.408C295.004 178.029 295.213 175.924 292.626 174.764C289.996 173.586 288.032 174.988 286.972 176.127C286.543 176.588 285.855 176.658 285.323 176.322C285.02 176.13 284.63 176.068 284.158 176.361C283.523 176.757 282.682 176.487 282.354 175.815C281.724 174.522 280.44 173.137 277.866 173.578C273.297 174.361 272.78 179.423 273.985 182.39C275.19 185.357 280.095 184.227 282.556 182.731C284.427 181.594 286.854 182.786 287.909 183.423C288.244 183.624 288.465 183.968 288.517 184.355Z" fill="url(#paint24_linear_957_15067)"/>
<path d="M293.811 193.391C293.811 193.391 291.933 188.131 293.862 186.843C295.792 185.555 298.65 186.224 298.021 190.034C297.238 194.773 293.811 193.391 293.811 193.391Z" fill="url(#paint25_linear_957_15067)"/>
<path d="M252.132 252.038C251.222 252.749 248.107 251.266 246.201 250.24C245.272 249.741 244.822 248.654 245.141 247.649C245.6 246.202 246.364 244.335 247.306 244.099C248.869 243.709 255.879 249.111 252.132 252.038Z" fill="url(#paint26_linear_957_15067)"/>
<path d="M382.812 286.149L198.226 230.355L189.91 257.488L374.52 315.088C378.441 316.311 382.666 314.541 384.56 310.896C386.505 307.152 388.257 301.365 387.969 292.836C387.864 289.735 385.782 287.047 382.812 286.149Z" fill="url(#paint27_linear_957_15067)"/>
<path d="M141.751 226.168L166.967 228.037C167.107 231.489 166.192 236.007 162.615 241.312L141.015 228.511C139.868 227.831 140.422 226.069 141.751 226.168Z" fill="url(#paint28_linear_957_15067)"/>
<path d="M198.226 230.355C200.18 247.013 189.91 257.488 189.91 257.488L162.615 241.312C166.192 236.007 167.107 231.489 166.967 228.037L198.226 230.355Z" fill="url(#paint29_linear_957_15067)"/>
<path d="M380.955 294.436C381.175 294.425 381.374 294.279 381.44 294.056C381.526 293.773 381.365 293.476 381.083 293.391L204.502 240.401C204.219 240.316 203.921 240.476 203.837 240.759C203.752 241.041 203.913 241.339 204.195 241.423L380.776 294.414C380.836 294.432 380.896 294.439 380.955 294.436Z" fill="url(#paint30_linear_957_15067)"/>
<path d="M378.464 305.044C378.684 305.033 378.883 304.887 378.95 304.664C379.035 304.381 378.874 304.083 378.592 303.999L202.011 251.008C201.728 250.924 201.431 251.083 201.347 251.366C201.261 251.648 201.422 251.946 201.704 252.031L378.285 305.022C378.345 305.039 378.405 305.046 378.464 305.044Z" fill="url(#paint31_linear_957_15067)"/>
<path d="M333.571 268.425L323.057 267.569L318.504 271.766C318.504 271.766 319.581 273.255 322.949 272.399C326.317 271.543 330.93 271.333 330.93 271.333C330.93 271.333 335.579 273.429 335.636 269.507L333.571 268.425Z" fill="url(#paint32_linear_957_15067)"/>
<defs>
<linearGradient id="paint0_linear_957_15067" x1="403.612" y1="431.559" x2="132.412" y2="126.216" gradientUnits="userSpaceOnUse">
<stop stop-color="#DAE3FE"/>
<stop offset="1" stop-color="#E9EFFD"/>
</linearGradient>
<linearGradient id="paint1_linear_957_15067" x1="223.264" y1="-67.0526" x2="193.032" y2="376.033" gradientUnits="userSpaceOnUse">
<stop stop-color="#09005D"/>
<stop offset="1" stop-color="#1A0F91"/>
</linearGradient>
<linearGradient id="paint2_linear_957_15067" x1="100.363" y1="195.237" x2="306.708" y2="195.237" gradientUnits="userSpaceOnUse">
<stop stop-color="#DAE3FE"/>
<stop offset="1" stop-color="#E9EFFD"/>
</linearGradient>
<linearGradient id="paint3_linear_957_15067" x1="183.435" y1="38.7718" x2="221.523" y2="38.7718" gradientUnits="userSpaceOnUse">
<stop stop-color="#4F52FF"/>
<stop offset="1" stop-color="#4042E2"/>
</linearGradient>
<linearGradient id="paint4_linear_957_15067" x1="186.479" y1="97.9679" x2="232.329" y2="22.9789" gradientUnits="userSpaceOnUse">
<stop stop-color="#FF928E"/>
<stop offset="1" stop-color="#FE7062"/>
</linearGradient>
<linearGradient id="paint5_linear_957_15067" x1="124.256" y1="48.2189" x2="158.265" y2="95.69" gradientUnits="userSpaceOnUse">
<stop stop-color="#FF928E"/>
<stop offset="1" stop-color="#FE7062"/>
</linearGradient>
<linearGradient id="paint6_linear_957_15067" x1="94.6951" y1="102.069" x2="135.789" y2="128.993" gradientUnits="userSpaceOnUse">
<stop stop-color="#FF928E"/>
<stop offset="1" stop-color="#FE7062"/>
</linearGradient>
<linearGradient id="paint7_linear_957_15067" x1="239.747" y1="107.392" x2="295.479" y2="64.6367" gradientUnits="userSpaceOnUse">
<stop stop-color="#FF928E"/>
<stop offset="1" stop-color="#FE7062"/>
</linearGradient>
<linearGradient id="paint8_linear_957_15067" x1="278.505" y1="132.586" x2="316.123" y2="98.7448" gradientUnits="userSpaceOnUse">
<stop stop-color="#FF928E"/>
<stop offset="1" stop-color="#FE7062"/>
</linearGradient>
<linearGradient id="paint9_linear_957_15067" x1="324.233" y1="384.227" x2="300.028" y2="384.227" gradientUnits="userSpaceOnUse">
<stop stop-color="#4F52FF"/>
<stop offset="1" stop-color="#4042E2"/>
</linearGradient>
<linearGradient id="paint10_linear_957_15067" x1="324.234" y1="379.483" x2="300.711" y2="379.483" gradientUnits="userSpaceOnUse">
<stop stop-color="#09005D"/>
<stop offset="1" stop-color="#1A0F91"/>
</linearGradient>
<linearGradient id="paint11_linear_957_15067" x1="321.998" y1="372.86" x2="315.18" y2="372.86" gradientUnits="userSpaceOnUse">
<stop stop-color="#FEBBBA"/>
<stop offset="1" stop-color="#FF928E"/>
</linearGradient>
<linearGradient id="paint12_linear_957_15067" x1="372.487" y1="383.705" x2="363.212" y2="383.705" gradientUnits="userSpaceOnUse">
<stop stop-color="#4F52FF"/>
<stop offset="1" stop-color="#4042E2"/>
</linearGradient>
<linearGradient id="paint13_linear_957_15067" x1="372.42" y1="376.563" x2="358.805" y2="376.563" gradientUnits="userSpaceOnUse">
<stop stop-color="#09005D"/>
<stop offset="1" stop-color="#1A0F91"/>
</linearGradient>
<linearGradient id="paint14_linear_957_15067" x1="365.343" y1="367.177" x2="357.195" y2="367.177" gradientUnits="userSpaceOnUse">
<stop stop-color="#FEBBBA"/>
<stop offset="1" stop-color="#FF928E"/>
</linearGradient>
<linearGradient id="paint15_linear_957_15067" x1="437.261" y1="268.596" x2="384.122" y2="295.52" gradientUnits="userSpaceOnUse">
<stop stop-color="#4F52FF"/>
<stop offset="1" stop-color="#4042E2"/>
</linearGradient>
<linearGradient id="paint16_linear_957_15067" x1="-2039.63" y1="-2325.85" x2="-1966.89" y2="-2246.49" gradientUnits="userSpaceOnUse">
<stop stop-color="#FF928E"/>
<stop offset="1" stop-color="#FE7062"/>
</linearGradient>
<linearGradient id="paint17_linear_957_15067" x1="337.884" y1="337.001" x2="333.98" y2="329.192" gradientUnits="userSpaceOnUse">
<stop stop-color="#53D8FF"/>
<stop offset="1" stop-color="#3840F7"/>
</linearGradient>
<linearGradient id="paint18_linear_957_15067" x1="328.012" y1="248.405" x2="357.019" y2="274.091" gradientUnits="userSpaceOnUse">
<stop stop-color="#FEBBBA"/>
<stop offset="1" stop-color="#FF928E"/>
</linearGradient>
<linearGradient id="paint19_linear_957_15067" x1="-2022.3" y1="-2341.73" x2="-1949.56" y2="-2262.37" gradientUnits="userSpaceOnUse">
<stop stop-color="#FF928E"/>
<stop offset="1" stop-color="#FE7062"/>
</linearGradient>
<linearGradient id="paint20_linear_957_15067" x1="-2057.76" y1="-2309.24" x2="-1985.01" y2="-2229.88" gradientUnits="userSpaceOnUse">
<stop stop-color="#FF928E"/>
<stop offset="1" stop-color="#FE7062"/>
</linearGradient>
<linearGradient id="paint21_linear_957_15067" x1="273.636" y1="250.835" x2="250.793" y2="250.835" gradientUnits="userSpaceOnUse">
<stop stop-color="#FEBBBA"/>
<stop offset="1" stop-color="#FF928E"/>
</linearGradient>
<linearGradient id="paint22_linear_957_15067" x1="295.841" y1="189.788" x2="296.09" y2="232.447" gradientUnits="userSpaceOnUse">
<stop stop-color="#FEBBBA"/>
<stop offset="1" stop-color="#FF928E"/>
</linearGradient>
<linearGradient id="paint23_linear_957_15067" x1="281.999" y1="182.773" x2="298.814" y2="213.265" gradientUnits="userSpaceOnUse">
<stop stop-color="#FEBBBA"/>
<stop offset="1" stop-color="#FF928E"/>
</linearGradient>
<linearGradient id="paint24_linear_957_15067" x1="242.492" y1="123.605" x2="314.838" y2="229.647" gradientUnits="userSpaceOnUse">
<stop stop-color="#09005D"/>
<stop offset="1" stop-color="#1A0F91"/>
</linearGradient>
<linearGradient id="paint25_linear_957_15067" x1="309.295" y1="208.938" x2="295.094" y2="189.431" gradientUnits="userSpaceOnUse">
<stop stop-color="#FEBBBA"/>
<stop offset="1" stop-color="#FF928E"/>
</linearGradient>
<linearGradient id="paint26_linear_957_15067" x1="253.22" y1="248.152" x2="245.039" y2="248.152" gradientUnits="userSpaceOnUse">
<stop stop-color="#FEBBBA"/>
<stop offset="1" stop-color="#FF928E"/>
</linearGradient>
<linearGradient id="paint27_linear_957_15067" x1="192.99" y1="210.181" x2="465.458" y2="389.52" gradientUnits="userSpaceOnUse">
<stop stop-color="#09005D"/>
<stop offset="1" stop-color="#1A0F91"/>
</linearGradient>
<linearGradient id="paint28_linear_957_15067" x1="185.818" y1="253.364" x2="149.695" y2="224.897" gradientUnits="userSpaceOnUse">
<stop stop-color="#09005D"/>
<stop offset="1" stop-color="#1A0F91"/>
</linearGradient>
<linearGradient id="paint29_linear_957_15067" x1="153.374" y1="210.59" x2="288.102" y2="336.338" gradientUnits="userSpaceOnUse">
<stop stop-color="#FF928E"/>
<stop offset="1" stop-color="#FE7062"/>
</linearGradient>
<linearGradient id="paint30_linear_957_15067" x1="231.847" y1="210.667" x2="353.431" y2="324.147" gradientUnits="userSpaceOnUse">
<stop stop-color="#FF928E"/>
<stop offset="1" stop-color="#FE7062"/>
</linearGradient>
<linearGradient id="paint31_linear_957_15067" x1="229.356" y1="221.275" x2="350.94" y2="334.755" gradientUnits="userSpaceOnUse">
<stop stop-color="#FF928E"/>
<stop offset="1" stop-color="#FE7062"/>
</linearGradient>
<linearGradient id="paint32_linear_957_15067" x1="316.558" y1="261.341" x2="345.564" y2="287.026" gradientUnits="userSpaceOnUse">
<stop stop-color="#FEBBBA"/>
<stop offset="1" stop-color="#FF928E"/>
</linearGradient>
</defs>
</svg>

