<svg width="488" height="325" viewBox="0 0 488 325" fill="none" xmlns="http://www.w3.org/2000/svg">
<g clip-path="url(#clip0_230_35102)">
<path d="M308.87 272.581C247.481 241.762 237.283 254.579 186.093 281.289C130.588 310.25 80.1828 265.928 73.6124 228.309C54.833 121.027 112.789 24.117 182.366 3.76634C222.426 -7.92552 300.24 5.28286 306.026 75.4341C308.625 107.33 294.699 136.388 329.169 148.423C364.816 160.848 419.193 132.083 434.393 192.059C449.446 251.448 366.287 301.444 308.919 272.581H308.87Z" fill="#F0F8FF"/>
<path d="M187.515 19.274H386.88C391.882 19.274 395.951 23.3343 395.951 28.3242V153.07C395.951 158.06 391.882 162.12 386.88 162.12H187.515C182.513 162.12 178.444 158.06 178.444 153.07V28.3242C178.444 23.3343 182.513 19.274 187.515 19.274Z" fill="#E1F3F9"/>
<path d="M187.515 19.274H386.88C391.882 19.274 395.951 23.3343 395.951 28.3242V45.1526H178.444V28.3242C178.444 23.3343 182.513 19.274 187.515 19.274Z" fill="#B7D9F7"/>
<path d="M373.936 32.2867C373.936 34.7816 375.946 36.7873 378.447 36.7873C380.948 36.7873 382.958 34.7816 382.958 32.2867C382.958 29.7918 380.948 27.7861 378.447 27.7861C375.946 27.7861 373.936 29.7918 373.936 32.2867Z" fill="white"/>
<path d="M362.56 32.2867C362.56 34.7816 364.571 36.7873 367.071 36.7873C369.572 36.7873 371.582 34.7816 371.582 32.2867C371.582 29.7918 369.572 27.7861 367.071 27.7861C364.571 27.7861 362.56 29.7918 362.56 32.2867Z" fill="white"/>
<path d="M351.577 32.2867C351.577 34.7816 353.587 36.7873 356.088 36.7873C358.589 36.7873 360.599 34.7816 360.599 32.2867C360.599 29.7918 358.589 27.7861 356.088 27.7861C353.587 27.7861 351.577 29.7918 351.577 32.2867Z" fill="white"/>
<path d="M196.291 19.274H395.657C400.658 19.274 404.728 23.3343 404.728 28.3242V153.07C404.728 158.06 400.658 162.12 395.657 162.12H196.291C191.29 162.12 187.22 158.06 187.22 153.07V28.3242C187.22 23.3343 191.29 19.274 196.291 19.274Z" fill="white"/>
<path d="M196.291 19.274H395.657C400.658 19.274 404.728 23.3343 404.728 28.3242V45.1526H187.22V28.3242C187.22 23.3343 191.29 19.274 196.291 19.274Z" fill="#C1E3FB"/>
<path d="M382.713 32.2867C382.713 34.7816 384.723 36.7873 387.224 36.7873C389.724 36.7873 391.735 34.7816 391.735 32.2867C391.735 29.7918 389.724 27.7861 387.224 27.7861C384.723 27.7861 382.713 29.7918 382.713 32.2867Z" fill="white"/>
<path d="M371.337 32.2867C371.337 34.7816 373.347 36.7873 375.848 36.7873C378.349 36.7873 380.359 34.7816 380.359 32.2867C380.359 29.7918 378.349 27.7861 375.848 27.7861C373.347 27.7861 371.337 29.7918 371.337 32.2867Z" fill="white"/>
<path d="M360.354 32.2867C360.354 34.7816 362.364 36.7873 364.865 36.7873C367.366 36.7873 369.376 34.7816 369.376 32.2867C369.376 29.7918 367.366 27.7861 364.865 27.7861C362.364 27.7861 360.354 29.7918 360.354 32.2867Z" fill="white"/>
<path d="M378.055 54.6431H212.178C206.762 54.6431 202.371 59.0236 202.371 64.4271V98.2797C202.371 103.683 206.762 108.064 212.178 108.064H378.055C383.471 108.064 387.861 103.683 387.861 98.2797V64.4271C387.861 59.0236 383.471 54.6431 378.055 54.6431Z" fill="#E1F3F9"/>
<path d="M386.341 114.277H202.371V119.413H386.341V114.277Z" fill="#A9D1EA"/>
<path d="M386.341 126.262H202.371V131.399H386.341V126.262Z" fill="#A9D1EA"/>
<path d="M431.353 289.459C447.926 293.96 396.54 300.026 230.075 298.509C4.18255 296.454 41.153 289.019 31.0033 288.432C-21.2162 285.447 99.3544 282.561 227.77 282.561C356.186 282.561 424.782 287.698 431.353 289.508V289.459Z" fill="#D3E5F2"/>
<path d="M98.2757 91.2352H57.5298V287.404H98.2757V91.2352Z" fill="#FDD95F"/>
<path d="M210.756 91.2352H98.2757V287.404H210.756V91.2352Z" fill="#FEB824"/>
<path d="M92.7841 119.853C92.7841 129.882 85.9686 138.052 77.584 138.052C69.1995 138.052 62.384 129.931 62.384 119.853C62.384 109.776 69.1995 101.655 77.584 101.655C85.9686 101.655 92.7841 109.776 92.7841 119.853Z" fill="#FEB824"/>
<path d="M92.7841 146.857H62.384V280.751H92.7841V146.857Z" fill="#FFEAAE"/>
<path d="M147.602 91.2352H106.856V287.404H147.602V91.2352Z" fill="#FEB0BE"/>
<path d="M260.083 91.2352H147.602V287.404H260.083V91.2352Z" fill="#FF95A9"/>
<path d="M142.062 119.853C142.062 129.882 135.246 138.052 126.862 138.052C118.477 138.052 111.662 129.931 111.662 119.853C111.662 109.776 118.477 101.655 126.862 101.655C135.246 101.655 142.062 109.776 142.062 119.853Z" fill="#FF95A9"/>
<path d="M142.062 146.857H111.662V280.751H142.062V146.857Z" fill="#FFD9E1"/>
<path d="M428.705 109.923H184.965C182.257 109.923 180.062 112.113 180.062 114.815V270.967C180.062 273.669 182.257 275.859 184.965 275.859H428.705C431.413 275.859 433.608 273.669 433.608 270.967V114.815C433.608 112.113 431.413 109.923 428.705 109.923Z" fill="#9BC3EA"/>
<path d="M413.946 128.463H200.508C197.8 128.463 195.605 130.654 195.605 133.355V254.188C195.605 256.889 197.8 259.08 200.508 259.08H413.946C416.654 259.08 418.85 256.889 418.85 254.188V133.355C418.85 130.654 416.654 128.463 413.946 128.463Z" fill="#D9ECFF"/>
<path d="M212.521 102.78H208.206C206.121 102.78 204.431 104.467 204.431 106.547V136.339C204.431 138.42 206.121 140.106 208.206 140.106H212.521C214.606 140.106 216.297 138.42 216.297 136.339V106.547C216.297 104.467 214.606 102.78 212.521 102.78Z" fill="#B4A4F5"/>
<path d="M239.734 102.78H235.419C233.334 102.78 231.644 104.467 231.644 106.547V136.339C231.644 138.42 233.334 140.106 235.419 140.106H239.734C241.819 140.106 243.51 138.42 243.51 136.339V106.547C243.51 104.467 241.819 102.78 239.734 102.78Z" fill="#B4A4F5"/>
<path d="M266.947 102.78H262.632C260.547 102.78 258.857 104.467 258.857 106.547V136.339C258.857 138.42 260.547 140.106 262.632 140.106H266.947C269.032 140.106 270.723 138.42 270.723 136.339V106.547C270.723 104.467 269.032 102.78 266.947 102.78Z" fill="#B4A4F5"/>
<path d="M294.16 102.78H289.845C287.76 102.78 286.07 104.467 286.07 106.547V136.339C286.07 138.42 287.76 140.106 289.845 140.106H294.16C296.245 140.106 297.936 138.42 297.936 136.339V106.547C297.936 104.467 296.245 102.78 294.16 102.78Z" fill="#B4A4F5"/>
<path d="M321.373 102.78H317.058C314.973 102.78 313.283 104.467 313.283 106.547V136.339C313.283 138.42 314.973 140.106 317.058 140.106H321.373C323.458 140.106 325.149 138.42 325.149 136.339V106.547C325.149 104.467 323.458 102.78 321.373 102.78Z" fill="#B4A4F5"/>
<path d="M348.586 102.78H344.271C342.186 102.78 340.496 104.467 340.496 106.547V136.339C340.496 138.42 342.186 140.106 344.271 140.106H348.586C350.671 140.106 352.362 138.42 352.362 136.339V106.547C352.362 104.467 350.671 102.78 348.586 102.78Z" fill="#B4A4F5"/>
<path d="M375.848 102.78H371.533C369.448 102.78 367.758 104.467 367.758 106.547V136.339C367.758 138.42 369.448 140.106 371.533 140.106H375.848C377.933 140.106 379.624 138.42 379.624 136.339V106.547C379.624 104.467 377.933 102.78 375.848 102.78Z" fill="#B4A4F5"/>
<path d="M403.061 102.78H398.746C396.661 102.78 394.971 104.467 394.971 106.547V136.339C394.971 138.42 396.661 140.106 398.746 140.106H403.061C405.146 140.106 406.837 138.42 406.837 136.339V106.547C406.837 104.467 405.146 102.78 403.061 102.78Z" fill="#B4A4F5"/>
<path d="M233.115 149.45H213.061C210.353 149.45 208.157 151.64 208.157 154.342V174.35C208.157 177.052 210.353 179.242 213.061 179.242H233.115C235.823 179.242 238.018 177.052 238.018 174.35V154.342C238.018 151.64 235.823 149.45 233.115 149.45Z" fill="#9BC3EA"/>
<path d="M267.388 149.45H247.334C244.626 149.45 242.431 151.64 242.431 154.342V174.35C242.431 177.052 244.626 179.242 247.334 179.242H267.388C270.096 179.242 272.292 177.052 272.292 174.35V154.342C272.292 151.64 270.096 149.45 267.388 149.45Z" fill="#9BC3EA"/>
<path d="M301.613 149.45H281.559C278.851 149.45 276.656 151.64 276.656 154.342V174.35C276.656 177.052 278.851 179.242 281.559 179.242H301.613C304.321 179.242 306.516 177.052 306.516 174.35V154.342C306.516 151.64 304.321 149.45 301.613 149.45Z" fill="#9BC3EA"/>
<path d="M335.887 149.45H315.832C313.124 149.45 310.929 151.64 310.929 154.342V174.35C310.929 177.052 313.124 179.242 315.832 179.242H335.887C338.595 179.242 340.79 177.052 340.79 174.35V154.342C340.79 151.64 338.595 149.45 335.887 149.45Z" fill="#9BC3EA"/>
<path d="M370.111 149.45H350.057C347.349 149.45 345.154 151.64 345.154 154.342V174.35C345.154 177.052 347.349 179.242 350.057 179.242H370.111C372.819 179.242 375.015 177.052 375.015 174.35V154.342C375.015 151.64 372.819 149.45 370.111 149.45Z" fill="#9BC3EA"/>
<path d="M404.385 149.45H384.331C381.623 149.45 379.427 151.64 379.427 154.342V174.35C379.427 177.052 381.623 179.242 384.331 179.242H404.385C407.093 179.242 409.288 177.052 409.288 174.35V154.342C409.288 151.64 407.093 149.45 404.385 149.45Z" fill="#9BC3EA"/>
<path d="M233.115 185.651H213.061C210.353 185.651 208.157 187.841 208.157 190.543V210.551C208.157 213.253 210.353 215.443 213.061 215.443H233.115C235.823 215.443 238.018 213.253 238.018 210.551V190.543C238.018 187.841 235.823 185.651 233.115 185.651Z" fill="#9BC3EA"/>
<path d="M267.388 185.651H247.334C244.626 185.651 242.431 187.841 242.431 190.543V210.551C242.431 213.253 244.626 215.443 247.334 215.443H267.388C270.096 215.443 272.292 213.253 272.292 210.551V190.543C272.292 187.841 270.096 185.651 267.388 185.651Z" fill="#9BC3EA"/>
<path d="M301.613 185.651H281.559C278.851 185.651 276.656 187.841 276.656 190.543V210.551C276.656 213.253 278.851 215.443 281.559 215.443H301.613C304.321 215.443 306.516 213.253 306.516 210.551V190.543C306.516 187.841 304.321 185.651 301.613 185.651Z" fill="#9BC3EA"/>
<path d="M335.887 185.651H315.832C313.124 185.651 310.929 187.841 310.929 190.543V210.551C310.929 213.253 313.124 215.443 315.832 215.443H335.887C338.595 215.443 340.79 213.253 340.79 210.551V190.543C340.79 187.841 338.595 185.651 335.887 185.651Z" fill="#9BC3EA"/>
<path d="M370.111 185.651H350.057C347.349 185.651 345.154 187.841 345.154 190.543V210.551C345.154 213.253 347.349 215.443 350.057 215.443H370.111C372.819 215.443 375.015 213.253 375.015 210.551V190.543C375.015 187.841 372.819 185.651 370.111 185.651Z" fill="#9BC3EA"/>
<path d="M404.385 185.651H384.331C381.623 185.651 379.427 187.841 379.427 190.543V210.551C379.427 213.253 381.623 215.443 384.331 215.443H404.385C407.093 215.443 409.288 213.253 409.288 210.551V190.543C409.288 187.841 407.093 185.651 404.385 185.651Z" fill="#9BC3EA"/>
<path d="M233.115 221.9H213.061C210.353 221.9 208.157 224.091 208.157 226.792V246.801C208.157 249.502 210.353 251.693 213.061 251.693H233.115C235.823 251.693 238.018 249.502 238.018 246.801V226.792C238.018 224.091 235.823 221.9 233.115 221.9Z" fill="#9BC3EA"/>
<path d="M267.388 221.9H247.334C244.626 221.9 242.431 224.091 242.431 226.792V246.801C242.431 249.502 244.626 251.693 247.334 251.693H267.388C270.096 251.693 272.292 249.502 272.292 246.801V226.792C272.292 224.091 270.096 221.9 267.388 221.9Z" fill="#9BC3EA"/>
<path d="M301.613 221.9H281.559C278.851 221.9 276.656 224.091 276.656 226.792V246.801C276.656 249.502 278.851 251.693 281.559 251.693H301.613C304.321 251.693 306.516 249.502 306.516 246.801V226.792C306.516 224.091 304.321 221.9 301.613 221.9Z" fill="#9BC3EA"/>
<path d="M335.887 221.9H315.832C313.124 221.9 310.929 224.091 310.929 226.792V246.801C310.929 249.502 313.124 251.693 315.832 251.693H335.887C338.595 251.693 340.79 249.502 340.79 246.801V226.792C340.79 224.091 338.595 221.9 335.887 221.9Z" fill="#9BC3EA"/>
<path d="M370.111 221.9H350.057C347.349 221.9 345.154 224.091 345.154 226.792V246.801C345.154 249.502 347.349 251.693 350.057 251.693H370.111C372.819 251.693 375.015 249.502 375.015 246.801V226.792C375.015 224.091 372.819 221.9 370.111 221.9Z" fill="#9BC3EA"/>
<path d="M404.385 221.9H384.331C381.623 221.9 379.427 224.091 379.427 226.792V246.801C379.427 249.502 381.623 251.693 384.331 251.693H404.385C407.093 251.693 409.288 249.502 409.288 246.801V226.792C409.288 224.091 407.093 221.9 404.385 221.9Z" fill="#9BC3EA"/>
<path d="M165.842 216.47C159.272 211.529 146.818 211.97 143.435 216.47C141.571 218.916 146.769 225.325 148.926 228.798C152.702 234.864 168.294 246.899 181.042 251.301C185.7 252.916 195.164 244.55 189.672 238.142C182.464 229.679 173.05 221.9 165.842 216.519V216.47Z" fill="#4C6EF4"/>
<path d="M211.246 288.872C211.246 288.872 212.913 296.797 218.307 298.656C223.701 300.515 226.495 300.564 230.908 297.726C232.87 296.503 229.29 295.036 225.76 293.96C216.836 291.171 216.836 285.252 216.836 285.252L211.246 288.872Z" fill="#FBB99D"/>
<path d="M213.257 294.106C213.257 294.106 225.76 300.71 227.77 294.644C227.77 294.644 232.036 294.742 231.595 297.335C231.104 299.928 226.005 301.297 222.083 300.466C216.297 299.243 216.934 299.292 216.052 298.852C212.619 297.286 213.257 294.106 213.257 294.106Z" fill="#E8A32B"/>
<path d="M184.426 247.339C184.426 247.339 164.42 285.056 158.095 289.508C153.143 292.981 138.826 297.482 133.334 283.833C127.793 270.087 173.884 221.167 189.133 227.771C202.96 233.739 184.475 247.339 184.475 247.339H184.426Z" fill="#242236"/>
<path d="M220.415 286.279C216.199 273.169 196.831 229.043 189.623 227.184C178.542 224.346 177.806 237.506 184.769 250.812C189.28 259.471 205.313 284.763 210.168 292.247C211.344 294.057 221.641 290.046 220.464 286.279H220.415Z" fill="#242236"/>
<path d="M192.859 297.09C192.859 297.09 195.605 304.869 201.734 306.385C207.863 307.902 211.001 307.804 215.561 304.771C217.572 303.45 213.453 302.227 209.432 301.298C199.282 298.998 198.596 293.177 198.596 293.177L192.81 297.09H192.859Z" fill="#FBB99D"/>
<path d="M195.703 302.129C195.703 302.129 210.217 307.951 211.786 301.836C211.786 301.836 216.542 301.689 216.297 304.282C216.052 306.874 210.56 308.489 206.196 307.902C199.675 306.972 200.41 307.021 199.381 306.679C195.458 305.309 195.752 302.129 195.752 302.129H195.703Z" fill="#E8A32B"/>
<path d="M118.575 266.515C118.575 266.515 109.357 277.522 115.143 290.339C120.929 303.108 122.645 277.816 122.645 277.816C122.645 277.816 124.018 270.184 118.575 266.564V266.515Z" fill="#2D2C44"/>
<path d="M160.498 215.052C154.369 209.035 127.695 209.377 122.547 218.525C122.547 218.525 123.233 223.808 122.645 228.847C124.753 233.446 122.792 242.496 122.351 247.975C121.027 263.189 116.516 261.721 117.889 266.222C120.389 274.343 138.973 277.62 151.476 274.294C155.889 273.12 163.489 261.428 162.361 259.324C152.26 240.881 169.078 248.317 168 238.533C167.411 233.25 162.998 217.449 160.547 215.052H160.498Z" fill="#4C6EF4"/>
<path d="M167.755 239.903C167.362 240.881 166.284 242.349 165.205 243.132C161.92 245.48 157.948 243.719 154.908 241.811C154.271 241.42 153.731 242.447 154.369 242.838C157.654 244.893 161.871 246.605 165.45 244.355C166.97 243.425 168.196 241.86 168.833 240.197C169.078 239.512 168 239.218 167.706 239.903H167.755Z" fill="#2F7EDD"/>
<path d="M150.838 241.811C146.622 246.214 140.787 246.165 136.619 241.615C136.129 241.077 135.344 241.909 135.835 242.447C140.395 247.486 146.965 247.486 151.672 242.594C152.162 242.055 151.329 241.273 150.838 241.811Z" fill="#E08B03"/>
<path d="M170.353 252.475C170.353 252.475 146.278 290.437 139.022 295.378C133.383 299.194 120.831 303.792 114.653 288.872C108.425 273.853 158.488 223.906 175.796 231.048C191.486 237.506 170.353 252.475 170.353 252.475Z" fill="#2D2C44"/>
<path d="M202.47 295.623C199.822 282.121 184.818 234.375 177.169 231.342C165.45 226.597 162.655 239.316 168.294 253.552C171.922 262.749 186.877 291.22 191.045 299.39C192.075 301.346 203.254 299.585 202.47 295.672V295.623Z" fill="#2D2C44"/>
<path d="M136.913 250.616C137.943 251.791 144.758 267.396 149.907 267.885C153.633 268.277 157.85 256.976 157.85 256.976C157.85 256.976 152.751 257.514 148.583 244.208C145.053 233.005 136.913 250.568 136.913 250.568V250.616Z" fill="#E9B79C"/>
<path d="M151.329 267.983C159.909 268.081 183.886 258.59 183.886 258.59L179.326 255.166L149.956 257.612C149.956 257.612 142.748 267.836 151.329 267.934V267.983Z" fill="#E9B79C"/>
<path d="M177.953 254.579C178.297 254.09 178.346 253.307 178.542 252.769C178.934 251.644 179.719 250.714 180.454 249.834C180.846 249.344 181.14 247.779 181.974 247.828C183.347 247.877 182.17 250.323 182.072 250.959C182.023 251.546 182.219 252.182 182.759 252.378C183.102 252.524 183.494 252.426 183.837 252.378C184.965 252.035 186.044 251.546 187.122 251.106C187.711 250.861 188.25 250.665 188.839 250.47C189.28 250.323 189.819 249.98 190.26 249.932C190.604 249.932 190.996 250.176 190.947 250.616C190.898 250.959 190.555 251.008 190.26 251.155C189.672 251.497 189.084 251.839 188.495 252.182C188.348 252.28 187.711 252.524 187.711 252.671C187.613 253.454 189.329 252.769 189.574 252.671C190.26 252.426 190.996 252.182 191.731 252.426C191.83 252.426 191.928 252.475 191.977 252.573C192.026 252.72 191.879 252.867 191.78 252.965C190.996 253.503 190.064 253.747 189.329 254.285C189.231 254.383 189.084 254.481 189.084 254.677C189.182 255.264 190.359 255.068 190.751 255.019C190.996 255.019 191.339 255.019 191.437 255.215C191.535 255.362 191.437 255.557 191.339 255.655C191.241 255.802 191.094 255.851 190.898 255.9C190.457 256.095 190.015 256.34 189.525 256.487C189.28 256.536 188.593 256.682 188.642 257.025C188.642 257.074 188.691 257.123 188.74 257.172C188.937 257.318 189.182 257.318 189.427 257.318C189.672 257.318 189.917 257.416 190.015 257.661C190.113 257.954 189.868 258.199 189.623 258.346C188.74 258.884 187.662 259.128 186.681 259.373C185.651 259.667 184.573 259.862 183.494 260.058C181.484 260.4 179.375 260.303 177.414 260.841C177.12 260.939 176.826 260.987 176.531 261.036C175.943 261.036 175.404 260.694 174.962 260.303C174.178 259.569 173.639 258.444 173.688 257.318C173.688 256.976 173.688 256.242 174.031 256.047C174.227 255.9 174.766 255.949 175.011 255.9C175.404 255.851 175.747 255.802 176.09 255.704C176.728 255.508 177.316 255.166 177.806 254.579H177.953Z" fill="#FBB99D"/>
<path d="M134.609 222.781C130.931 218.036 125.734 214.905 121.468 217.84C119.065 219.503 118.036 225.325 119.213 228.994C121.419 236.087 129.755 251.399 139.806 259.226C143.484 262.064 154.516 257.318 151.623 249.883C147.798 240.099 139.806 229.483 134.609 222.781Z" fill="#305DDE"/>
<path d="M202.371 252.378C202.126 252.475 201.783 252.573 201.587 252.378C201.44 252.182 201.538 251.937 201.587 251.742C201.685 251.546 201.832 251.35 201.832 251.155C201.832 251.106 201.832 251.008 201.783 251.008C201.538 250.812 201.048 251.301 200.901 251.448C200.557 251.742 200.116 251.986 199.724 252.231C199.577 252.329 199.43 252.378 199.282 252.426C199.135 252.426 198.939 252.426 198.841 252.28C198.743 252.084 198.841 251.839 199.037 251.644C199.282 251.35 200.067 250.47 199.626 250.127C199.528 250.029 199.331 250.078 199.184 250.127C198.351 250.421 197.664 251.057 196.831 251.399C196.684 251.448 196.488 251.497 196.39 251.399C196.341 251.301 196.39 251.203 196.39 251.106C196.635 250.421 197.174 249.932 197.762 249.54C198.008 249.393 199.43 248.366 198.743 248.024C198.596 247.975 198.057 248.317 197.91 248.366C197.321 248.66 196.733 248.953 196.144 249.247C195.899 249.393 195.703 249.638 195.36 249.491C195.017 249.345 194.968 248.855 195.213 248.611C195.458 248.268 196.046 248.024 196.39 247.779C196.831 247.437 197.321 247.045 197.811 246.703C198.743 246.067 199.724 245.48 200.557 244.746C200.851 244.501 201.097 244.257 201.146 243.914C201.244 243.376 200.851 242.887 200.361 242.642C199.822 242.349 197.272 242.055 197.91 240.93C198.253 240.392 199.135 240.637 199.822 240.735C201.489 243.719 203.254 247.045 204.97 250.568C204.872 250.665 204.774 250.763 204.676 250.861C203.941 251.497 203.205 252.231 202.322 252.671L202.371 252.378Z" fill="#E9B79C"/>
<path d="M205.068 250.274C205.068 250.274 208.991 243.865 206.539 241.273C204.137 238.68 199.822 240.735 199.822 240.735C199.822 240.735 200.557 241.322 201.783 243.865C202.715 245.822 203.891 249.785 205.068 250.274Z" fill="#E9B79C"/>
<path d="M153.878 179.585C153.878 179.585 144.023 172.687 135.835 181.297C127.646 189.907 135.393 205.855 144.317 208.888C145.151 209.181 140.787 196.658 142.307 193.429C142.454 193.087 142.748 192.793 142.895 192.451C142.993 192.206 142.993 191.912 143.091 191.668C143.287 190.983 143.533 190.298 143.778 189.662C144.268 188.39 144.906 187.167 145.69 185.993C146.867 184.183 148.289 182.52 150.005 181.199C150.642 180.71 151.378 180.221 152.113 179.927C152.457 179.78 153.535 179.34 153.927 179.585H153.878Z" fill="#53424D"/>
<path d="M140.051 195.63C140.051 195.63 152.653 200.278 151.623 201.354C150.593 202.479 151.427 205.317 150.937 207.811C150.446 210.502 151.427 213.682 153.045 216.813C154.173 219.014 151.966 220.775 149.515 220.824C138.875 220.971 135.05 212.948 135.05 212.948C140.002 208.545 140.051 195.679 140.051 195.679V195.63Z" fill="#E9B79C"/>
<path d="M150.986 207.811C151.476 205.317 150.642 202.479 151.672 201.354C152.702 200.229 140.1 195.63 140.1 195.63C140.1 195.63 141.473 198.517 141.081 202.528C145.151 207.029 147.749 208.692 151.182 211.089C150.937 209.915 150.838 208.79 151.035 207.811H150.986Z" fill="#C58063"/>
<path d="M141.915 183.694C141.915 183.694 139.169 167.991 128.038 169.752C116.908 171.513 118.918 154.391 99.4035 156.005C92.5389 156.592 85.2821 165.642 88.0279 173.763C90.1363 180.074 105.876 188.831 126.028 185.455C146.229 182.08 139.414 188.243 139.414 188.243L141.866 183.694H141.915Z" fill="#53424D"/>
<path d="M153.78 180.857C157.409 185.113 164.371 202.235 155.595 208.154C151.868 210.649 142.993 205.121 139.022 197.196C137.404 193.918 138.188 187.265 141.964 181.884C143.68 179.438 149.613 175.916 153.78 180.906V180.857Z" fill="#E9B79C"/>
<path d="M153.535 184.477C153.535 184.477 147.553 197.538 137.207 195.581C137.207 195.581 135.393 182.911 145.984 178.166C145.984 178.166 160.89 175.182 161.282 194.31C161.282 194.31 154.124 194.212 153.535 184.428V184.477Z" fill="#53424D"/>
<path d="M143.435 196.462C143.435 196.462 141.326 192.597 139.267 192.744C137.207 192.891 137.894 198.468 141.767 199.104C145.592 199.74 144.17 197.538 143.435 196.462Z" fill="#E9B79C"/>
<path d="M139.61 207.811V207.078V207.469L139.218 207.371C139.218 207.371 139.512 204.778 139.708 202.675C139.855 201.305 140.002 199.935 140.1 198.908C140.1 198.712 140.296 198.566 140.493 198.566C140.493 198.566 140.836 198.761 140.836 198.957C140.738 199.984 140.591 201.403 140.444 202.724C140.117 206.116 139.822 207.811 139.561 207.811H139.61Z" fill="#E8A32B"/>
<path d="M137.305 207.176C137.305 207.176 137.158 207.176 137.06 207.078C136.913 206.931 136.913 206.686 137.06 206.54C137.845 205.757 138.335 204.73 138.727 203.36C138.875 202.822 138.973 202.235 139.12 201.696C139.267 201.061 139.365 200.376 139.561 199.74C139.659 199.446 139.757 199.055 140.002 198.761C140.1 198.615 140.346 198.566 140.542 198.663C140.738 198.761 140.787 199.006 140.64 199.153C140.493 199.397 140.395 199.691 140.296 199.935C140.1 200.571 140.002 201.207 139.855 201.843C139.757 202.43 139.61 202.968 139.463 203.555C139.071 205.072 138.482 206.197 137.6 207.078C137.502 207.176 137.404 207.224 137.305 207.176Z" fill="#E8A32B"/>
<path d="M142.405 206.54L142.013 205.904L142.209 206.246L141.816 206.344C141.816 206.344 141.816 206.197 141.718 206.05C141.326 204.876 140.1 201.256 140.002 199.202C140.002 199.006 140.149 198.81 140.345 198.81C140.542 198.81 140.738 198.957 140.738 199.153C140.787 200.473 141.326 202.724 142.405 205.806C142.552 206.246 142.601 206.393 142.356 206.54H142.405Z" fill="#E8A32B"/>
<path d="M141.669 199.006C141.718 198.272 141.179 197.587 140.395 197.538C139.61 197.44 138.924 198.027 138.875 198.761C138.776 199.495 139.365 200.18 140.149 200.229C140.934 200.278 141.62 199.74 141.669 199.006Z" fill="#E8A32B"/>
<path d="M148.142 196.707C148.142 196.707 148.24 196.756 148.289 196.756C148.436 196.804 148.583 196.902 148.73 196.902C149.318 197.049 149.662 196.658 149.907 196.169C150.054 195.875 150.544 196.12 150.397 196.413C149.907 197.489 148.779 197.685 147.798 197C147.504 196.804 147.896 196.413 148.191 196.609L148.142 196.707Z" fill="#1E100C"/>
<path d="M154.173 195.435C154.173 195.435 154.467 195.728 154.663 195.826C155.251 196.169 155.595 195.826 155.889 195.337C156.036 195.043 156.575 195.337 156.379 195.581C156.036 196.169 155.497 196.658 154.712 196.413C154.32 196.266 153.927 195.973 153.682 195.679C153.486 195.435 153.927 195.141 154.173 195.386V195.435Z" fill="#1E100C"/>
<path d="M155.497 192.842C154.614 192.548 153.829 192.842 153.388 193.674C153.192 194.065 152.604 193.674 152.849 193.331C153.437 192.304 154.516 191.815 155.693 192.206C156.085 192.353 155.889 192.94 155.497 192.842Z" fill="#552B19"/>
<path d="M149.956 194.31C149.22 193.771 148.338 193.918 147.7 194.554C147.406 194.848 146.965 194.358 147.259 194.065C148.093 193.233 149.318 193.087 150.299 193.771C150.642 194.016 150.299 194.554 149.956 194.31Z" fill="#552B19"/>
<path d="M152.162 194.701C151.966 195.288 151.868 195.924 152.015 196.511C152.26 197.343 153.192 197.734 153.731 198.468C154.418 199.446 153.731 199.984 152.506 200.278C152.211 200.327 152.113 199.984 152.358 199.935C155.006 199.299 151.966 197.881 151.623 196.805C151.378 196.12 151.476 195.337 151.721 194.701C151.819 194.456 152.26 194.554 152.162 194.799V194.701Z" fill="#BD7C64"/>
<path d="M153.633 205.121C153.633 205.121 154.908 203.311 153.29 202.332C151.672 201.354 150.446 202.968 150.446 202.968L153.633 205.121Z" fill="#F8FFFF"/>
<path d="M146.72 200.62C146.916 201.305 147.651 201.648 148.338 201.452C149.024 201.256 149.416 200.522 149.171 199.886C148.975 199.202 148.24 198.859 147.553 199.055C146.867 199.25 146.475 199.984 146.72 200.62Z" fill="#C0775D"/>
<path d="M157.605 197.832C157.066 197.392 156.232 197.44 155.742 197.979C155.251 198.517 155.349 199.299 155.889 199.789C156.428 200.229 157.262 200.18 157.752 199.642C158.242 199.104 158.144 198.321 157.605 197.832Z" fill="#C0775D"/>
<path d="M383.84 225.129C431.149 225.129 469.5 186.866 469.5 139.666C469.5 92.466 431.149 54.2028 383.84 54.2028C336.532 54.2028 298.181 92.466 298.181 139.666C298.181 186.866 336.532 225.129 383.84 225.129Z" fill="#B5D6FC"/>
<path d="M462.586 139.862C462.586 183.254 427.332 218.427 383.84 218.427C340.349 218.427 305.094 183.254 305.094 139.862C305.094 96.4697 340.349 61.2962 383.84 61.2962C427.332 61.2962 462.586 96.4697 462.586 139.862Z" fill="#F3FAFF"/>
<path d="M383.84 68.1939H377.956V86.1965H383.84V68.1939Z" fill="#B5D6FC"/>
<path d="M341.803 87.7661L338.776 90.9022L348.489 100.234L351.516 97.0978L341.803 87.7661Z" fill="#B5D6FC"/>
<path d="M430.969 173.926L427.941 177.061L437.65 186.396L440.678 183.261L430.969 173.926Z" fill="#B5D6FC"/>
<path d="M433.46 94.2956L422.877 102.632L425.581 106.049L436.164 97.7128L433.46 94.2956Z" fill="#B5D6FC"/>
<path d="M344.567 174.245L333.986 182.585L336.691 186.001L347.272 177.661L344.567 174.245Z" fill="#B5D6FC"/>
<path d="M383.84 191.276H377.956V209.279H383.84V191.276Z" fill="#B5D6FC"/>
<path d="M313.569 133.403L313.378 139.271L331.413 139.855L331.604 133.988L313.569 133.403Z" fill="#B5D6FC"/>
<path d="M437.6 136.633L437.406 142.5L455.44 143.094L455.634 137.227L437.6 136.633Z" fill="#B5D6FC"/>
<path d="M388.498 138.345C388.498 140.938 386.39 143.041 383.791 143.041C381.193 143.041 379.084 140.938 379.084 138.345C379.084 135.752 381.193 133.649 383.791 133.649C386.39 133.649 388.498 135.752 388.498 138.345Z" fill="#191D3A"/>
<path d="M381.193 136.633L434.295 95.5402L383.84 139.862L381.193 136.633Z" fill="#191D3A"/>
<path d="M380.653 139.275L416.055 174.106L384.331 136.046L380.653 139.275Z" fill="#191D3A"/>
</g>
<defs>
<clipPath id="clip0_230_35102">
<rect width="451" height="308" fill="white" transform="translate(18.5 -0.000488281)"/>
</clipPath>
</defs>
</svg>

