<svg width="156" height="156" viewBox="0 0 156 156" fill="none" xmlns="http://www.w3.org/2000/svg">
<path fill-rule="evenodd" clip-rule="evenodd" d="M12.125 66.8184C13.1906 66.8184 14.0625 65.9465 14.0625 64.8809C14.0625 63.8152 13.1906 62.9434 12.125 62.9434C11.0594 62.9434 10.1875 63.8152 10.1875 64.8809C10.1875 65.9465 11.0594 66.8184 12.125 66.8184Z" fill="#ECECFE"/>
<path fill-rule="evenodd" clip-rule="evenodd" d="M89.625 12.5684C90.6906 12.5684 91.5625 11.6965 91.5625 10.6309C91.5625 9.56523 90.6906 8.69336 89.625 8.69336C88.5594 8.69336 87.6875 9.56523 87.6875 10.6309C87.6875 11.6965 88.5594 12.5684 89.625 12.5684Z" fill="#ECECFE"/>
<path fill-rule="evenodd" clip-rule="evenodd" d="M128.375 121.068C129.441 121.068 130.312 120.196 130.312 119.131C130.312 118.065 129.441 117.193 128.375 117.193C127.309 117.193 126.438 118.065 126.438 119.131C126.438 120.196 127.309 121.068 128.375 121.068Z" fill="#ECECFE"/>
<path fill-rule="evenodd" clip-rule="evenodd" d="M143.875 59.0684C144.941 59.0684 145.812 58.1965 145.812 57.1309C145.812 56.0652 144.941 55.1934 143.875 55.1934C142.809 55.1934 141.938 56.0652 141.938 57.1309C141.938 58.1965 142.809 59.0684 143.875 59.0684Z" fill="#ECECFE"/>
<path fill-rule="evenodd" clip-rule="evenodd" d="M70.25 142.381C71.3156 142.381 72.1875 141.509 72.1875 140.443C72.1875 139.378 71.3156 138.506 70.25 138.506C69.1844 138.506 68.3125 139.378 68.3125 140.443C68.3125 141.509 69.1844 142.381 70.25 142.381Z" fill="#ECECFE"/>
<path fill-rule="evenodd" clip-rule="evenodd" d="M77.9998 51.8808C66.5934 51.8808 57.3518 61.1224 57.3518 72.5288C57.3518 73.2799 57.3989 74.0576 57.4792 74.8122C57.4819 74.8376 57.4841 74.863 57.4858 74.8883C58.6531 85.1701 67.3922 93.1767 77.9998 93.1767C89.4062 93.1767 98.6478 83.9352 98.6478 72.5288C98.6478 61.1224 89.4062 51.8808 77.9998 51.8808ZM53.6186 75.1526C53.6206 75.1839 53.6233 75.2153 53.6267 75.2468C54.9779 87.5014 65.3708 97.0517 77.9998 97.0517C91.5463 97.0517 102.523 86.0753 102.523 72.5288C102.523 58.9823 91.5463 48.0058 77.9998 48.0058C64.4533 48.0058 53.4768 58.9823 53.4768 72.5288C53.4768 73.4124 53.5304 74.3037 53.6186 75.1526Z" fill="#E1000F"/>
<path fill-rule="evenodd" clip-rule="evenodd" d="M78 97.0518C60.372 97.0518 46.0679 111.34 46.0679 128.984C46.0679 130.054 45.2004 130.921 44.1304 130.921C43.0603 130.921 42.1929 130.054 42.1929 128.984C42.1929 109.199 58.2332 93.1768 78 93.1768C97.7674 93.1768 113.807 109.216 113.807 128.984C113.807 130.054 112.94 130.921 111.87 130.921C110.799 130.921 109.932 130.054 109.932 128.984C109.932 111.357 95.6273 97.0518 78 97.0518Z" fill="#E1000F"/>
<path d="M111.701 42.953C113.841 42.953 115.576 41.2181 115.576 39.078C115.576 36.9379 113.841 35.203 111.701 35.203C109.561 35.203 107.826 36.9379 107.826 39.078C107.826 41.2181 109.561 42.953 111.701 42.953Z" fill="#E1000F"/>
<path fill-rule="evenodd" clip-rule="evenodd" d="M124.586 67.3772C125.656 67.3859 126.517 68.2603 126.508 69.3303L126.37 86.3688C126.361 87.4388 125.487 88.2992 124.417 88.2905C123.347 88.2819 122.486 87.4074 122.495 86.3374L122.633 69.2989C122.642 68.2289 123.516 67.3685 124.586 67.3772Z" fill="#000091"/>
<path fill-rule="evenodd" clip-rule="evenodd" d="M28.7439 24.7631C29.1102 24.3956 29.6086 24.1904 30.1275 24.1934L124.893 24.7464C125.408 24.7494 125.9 24.9568 126.261 25.323C126.622 25.6893 126.823 26.1841 126.819 26.6986L126.56 60.7928C126.552 61.8628 125.678 62.7237 124.608 62.7155C123.538 62.7074 122.677 61.8334 122.685 60.7633L122.93 28.61L32.0717 28.0798L32.6066 86.3353C32.6164 87.4053 31.757 88.2807 30.687 88.2905C29.617 88.3003 28.7416 87.4409 28.7318 86.3709L28.1788 26.1486C28.174 25.6298 28.3776 25.1307 28.7439 24.7631Z" fill="#000091"/>
<path fill-rule="evenodd" clip-rule="evenodd" d="M29.2808 85.0014C29.6456 84.6268 30.1462 84.4155 30.669 84.4155H47.7075C48.7775 84.4155 49.645 85.2829 49.645 86.353C49.645 87.423 48.7775 88.2905 47.7075 88.2905H31.4867L18.6532 101.471H37.5121C38.5821 101.471 39.4496 102.339 39.4496 103.409C39.4496 104.479 38.5821 105.346 37.5121 105.346H14.0626C13.2836 105.346 12.5804 104.88 12.2775 104.162C11.9746 103.445 12.131 102.615 12.6744 102.057L29.2808 85.0014Z" fill="#000091"/>
<path d="M39.24 103.409C39.24 104.363 38.4663 105.137 37.512 105.137C36.5576 105.137 35.7839 104.363 35.7839 103.409C35.7839 102.455 36.5576 101.681 37.512 101.681C38.4663 101.681 39.24 102.455 39.24 103.409Z" fill="#000091"/>
<path d="M39.24 103.409C39.24 104.363 38.4663 105.137 37.512 105.137C36.5576 105.137 35.7839 104.363 35.7839 103.409C35.7839 102.455 36.5576 101.681 37.512 101.681C38.4663 101.681 39.24 102.455 39.24 103.409Z" fill="#000091"/>
<path d="M39.24 103.409C39.24 104.363 38.4663 105.137 37.512 105.137C36.5576 105.137 35.7839 104.363 35.7839 103.409C35.7839 102.455 36.5576 101.681 37.512 101.681C38.4663 101.681 39.24 102.455 39.24 103.409Z" fill="#000091"/>
<path d="M39.24 103.409C39.24 104.363 38.4663 105.137 37.512 105.137C36.5576 105.137 35.7839 104.363 35.7839 103.409C35.7839 102.455 36.5576 101.681 37.512 101.681C38.4663 101.681 39.24 102.455 39.24 103.409Z" fill="#000091"/>
<path d="M39.24 103.409C39.24 104.363 38.4663 105.137 37.512 105.137C36.5576 105.137 35.7839 104.363 35.7839 103.409C35.7839 102.455 36.5576 101.681 37.512 101.681C38.4663 101.681 39.24 102.455 39.24 103.409Z" fill="#000091"/>
<path fill-rule="evenodd" clip-rule="evenodd" d="M44.0938 103.409C44.0938 102.339 44.9612 101.471 46.0312 101.471H48.1567C49.2268 101.471 50.0942 102.339 50.0942 103.409C50.0942 104.479 49.2268 105.346 48.1567 105.346H46.0312C44.9612 105.346 44.0938 104.479 44.0938 103.409Z" fill="#000091"/>
<path fill-rule="evenodd" clip-rule="evenodd" d="M105.457 86.353C105.457 85.2829 106.324 84.4155 107.394 84.4155H124.433C124.938 84.4155 125.423 84.6128 125.785 84.9653L143.29 102.021C143.854 102.571 144.029 103.408 143.732 104.139C143.435 104.869 142.726 105.346 141.938 105.346H107.843C106.773 105.346 105.906 104.479 105.906 103.409C105.906 102.339 106.773 101.471 107.843 101.471H137.173L123.645 88.2905H107.394C106.324 88.2905 105.457 87.423 105.457 86.353Z" fill="#000091"/>
<path fill-rule="evenodd" clip-rule="evenodd" d="M37.7002 35.203C37.7002 34.133 38.5676 33.2655 39.6377 33.2655H90.7877C91.8578 33.2655 92.7252 34.133 92.7252 35.203C92.7252 36.2731 91.8578 37.1405 90.7877 37.1405H39.6377C38.5676 37.1405 37.7002 36.2731 37.7002 35.203Z" fill="#000091"/>
<path fill-rule="evenodd" clip-rule="evenodd" d="M37.7002 43.7396C37.7002 42.6696 38.5676 41.8021 39.6377 41.8021H56.6935C57.7635 41.8021 58.631 42.6696 58.631 43.7396C58.631 44.8097 57.7635 45.6771 56.6935 45.6771H39.6377C38.5676 45.6771 37.7002 44.8097 37.7002 43.7396Z" fill="#000091"/>
<path fill-rule="evenodd" clip-rule="evenodd" d="M37.7002 52.2588C37.7002 51.1887 38.5676 50.3213 39.6377 50.3213H48.1569C49.227 50.3213 50.0944 51.1887 50.0944 52.2588C50.0944 53.3288 49.227 54.1963 48.1569 54.1963H39.6377C38.5676 54.1963 37.7002 53.3288 37.7002 52.2588Z" fill="#000091"/>
</svg>

