<?xml version="1.0" encoding="utf-8"?>
<!-- Generator: Adobe Illustrator 21.1.0, SVG Export Plug-In . SVG Version: 6.00 Build 0)  -->
<svg version="1.1" id="Calque_1" xmlns="http://www.w3.org/2000/svg" xmlns:xlink="http://www.w3.org/1999/xlink" x="0px" y="0px"
	 viewBox="0 0 835.4 123.3" enable-background="new 0 0 835.4 123.3" xml:space="preserve">
<g>
	<g>
		<rect width="89.6" height="21.8"/>
		<rect y="100.2" width="89.6" height="21.8"/>
		<rect y="50.1" opacity="0.4" width="69.7" height="21.8"/>
	</g>
	<g>
		<path d="M101.8,29.5l23.7-0.2l24.3,70.8l23.8-70.8h22.8l-35.5,93h-23.3L101.8,29.5z"/>
		<path d="M278.4,41.4c7.5,8.5,11.2,20.3,11.2,35.7c0,3-0.1,5.3-0.2,6.8h-68.7c1.5,6.6,4.6,11.8,9.3,15.6c4.7,3.8,10.5,5.7,17.3,5.7
			c4.8,0,9.3-0.9,13.7-2.7c4.3-1.8,8.1-4.4,11.4-7.7l12.2,12.7c-4.6,5.1-10.3,9-17,11.8c-6.7,2.8-14.1,4.2-22.2,4.2
			c-9.5,0-17.9-2-25.1-5.9c-7.2-3.9-12.8-9.5-16.8-16.6c-3.9-7.1-5.9-15.3-5.9-24.6c0-9.3,2-17.5,6-24.7c4-7.2,9.6-12.8,16.8-16.8
			c7.2-4,15.4-6,24.5-6C259.8,28.7,270.9,32.9,278.4,41.4z M268.9,68.7c-0.2-6.8-2.5-12.3-6.8-16.3c-4.3-4.1-10-6.1-17-6.1
			c-6.6,0-12.1,2-16.6,6c-4.5,4-7.2,9.5-8.3,16.4H268.9z"/>
		<path d="M358.9,50.5c-9.5-0.6-17.1,1.6-22.8,6.6c-5.7,5-8.5,11.7-8.5,20.2v44.5h-22.4V29.6h22.4v17.7c3.1-6,7.3-10.5,12.7-13.7
			c5.3-3.2,11.6-4.8,18.7-4.9"/>
		<g>
			<path d="M529,34.8c7.3,3.9,13,9.4,17.1,16.5c4.1,7.1,6.1,15.2,6.1,24.4c0,9.3-2,17.5-6.1,24.6c-4.1,7.1-9.8,12.6-17.1,16.5
				c-7.3,3.9-15.7,5.9-25.2,5.9c-9.6,0-18.2-2-25.5-5.9c-7.4-3.9-13.1-9.4-17.1-16.5c-4.1-7.1-6.1-15.3-6.1-24.6
				c0-9.2,2-17.3,6.1-24.4c4.1-7.1,9.8-12.5,17.1-16.5c7.4-3.9,15.9-5.9,25.5-5.9C513.3,28.9,521.7,30.9,529,34.8z M484.8,55.8
				c-4.8,5.2-7.2,11.9-7.2,20.2c0,8.3,2.4,15,7.2,20.2c4.8,5.2,11.1,7.8,19,7.8c7.6,0,13.8-2.6,18.6-7.8c4.8-5.2,7.2-11.9,7.2-20.2
				c0-8.3-2.4-15-7.2-20.2c-4.8-5.2-11-7.8-18.6-7.8C496,48.1,489.6,50.6,484.8,55.8z"/>
		</g>
		<path d="M654.8,29.6v92.2h-22.6v-17.1c-6.2,11.9-16.9,17.9-32,17.9c-10.3,0-18.5-3.2-24.5-9.5c-6-6.3-9-14.9-9-25.8V29.6h22.6
			v51.2c0,6.4,1.8,11.5,5.3,15.2c3.5,3.7,8.4,5.5,14.6,5.5c7.1-0.1,12.8-2.6,16.9-7.6c4.1-4.9,6.2-11.2,6.2-18.8V29.6H654.8z"/>
		<g>
			<path d="M751.1,38.3c6.1,6.4,9.1,15,9.1,25.9v57.5h-22.6v-51c0-6.4-1.8-11.5-5.5-15.2c-3.7-3.7-8.7-5.6-15-5.6
				c-7.5,0.1-13.4,2.6-17.7,7.6c-4.3,4.9-6.5,11.3-6.5,19v45.3h-22.4V29.6h22.4v17.2c6.3-11.8,17.3-17.9,33.1-18.1
				C736.7,28.8,745.1,31.9,751.1,38.3z"/>
		</g>
		<path d="M439,93.3c-5.5,6.7-13.5,10-24.1,10c-7.5,0-13.5-2.5-18.2-7.6c-4.7-5.1-7-11.7-7-20c0-8,2.3-14.6,7-19.6
			c4.7-5.1,10.7-7.6,18.2-7.6c9.8,0,17.8,3.3,24,10c1.5-6.9,4-13.3,7.5-19.3c-2.9-2.4-6.2-4.4-9.8-6c-6.6-2.9-14.1-4.4-22.5-4.4
			c-9.2,0-17.3,2-24.4,5.9c-7.1,3.9-12.6,9.4-16.5,16.5c-4,7.1-5.9,15.3-5.9,24.6c0,9.2,2,17.3,5.9,24.4c3.9,7.1,9.4,12.6,16.5,16.5
			c7.1,3.9,15.1,5.9,24.2,5.9c9,0,16.8-1.6,23.6-4.8c3.3-1.6,6.3-3.5,9-5.7C442.9,106.3,440.5,100,439,93.3z"/>
		<path d="M830.2,99.2c-5.3,2.5-9.6,3.8-13.1,3.8c-3.2,0-5.6-0.9-7.2-2.7c-1.6-1.8-2.4-4.8-2.4-9V49.8h26.4V33.4h-26.4V8.1h-22.2
			v25.3h-20c3.5,4.8,5.9,10.3,7.4,16.4h12.6v45.5c0,9.1,2.5,15.9,7.6,20.6c5.1,4.7,11.5,7,19.5,7c8,0,15.7-2.2,23.1-6.7L830.2,99.2z
			"/>
	</g>
</g>
</svg>
