<svg enable-background="new 0 0 835.4 123.3" viewBox="0 0 835.4 123.3" xmlns="http://www.w3.org/2000/svg"><path d="m0 0h89.6v21.8h-89.6z" fill="#7b8fea"/><path d="m0 100.2h89.6v21.8h-89.6z" fill="#fb677b"/><path d="m0 50.1h69.7v21.8h-69.7z" fill="#fdb91b"/><g fill="#3c3e47"><path d="m101.8 29.5 23.7-.2 24.3 70.8 23.8-70.8h22.8l-35.5 93h-23.3z"/><path d="m278.4 41.4c7.5 8.5 11.2 20.3 11.2 35.7 0 3-.1 5.3-.2 6.8h-68.7c1.5 6.6 4.6 11.8 9.3 15.6s10.5 5.7 17.3 5.7c4.8 0 9.3-.9 13.7-2.7 4.3-1.8 8.1-4.4 11.4-7.7l12.2 12.7c-4.6 5.1-10.3 9-17 11.8s-14.1 4.2-22.2 4.2c-9.5 0-17.9-2-25.1-5.9s-12.8-9.5-16.8-16.6c-3.9-7.1-5.9-15.3-5.9-24.6s2-17.5 6-24.7 9.6-12.8 16.8-16.8 15.4-6 24.5-6c14.9-.2 26 4 33.5 12.5zm-9.5 27.3c-.2-6.8-2.5-12.3-6.8-16.3-4.3-4.1-10-6.1-17-6.1-6.6 0-12.1 2-16.6 6s-7.2 9.5-8.3 16.4z"/><path d="m358.9 50.5c-9.5-.6-17.1 1.6-22.8 6.6s-8.5 11.7-8.5 20.2v44.5h-22.4v-92.2h22.4v17.7c3.1-6 7.3-10.5 12.7-13.7 5.3-3.2 11.6-4.8 18.7-4.9"/><path d="m529 34.8c7.3 3.9 13 9.4 17.1 16.5s6.1 15.2 6.1 24.4c0 9.3-2 17.5-6.1 24.6s-9.8 12.6-17.1 16.5-15.7 5.9-25.2 5.9c-9.6 0-18.2-2-25.5-5.9-7.4-3.9-13.1-9.4-17.1-16.5-4.1-7.1-6.1-15.3-6.1-24.6 0-9.2 2-17.3 6.1-24.4s9.8-12.5 17.1-16.5c7.4-3.9 15.9-5.9 25.5-5.9 9.5 0 17.9 2 25.2 5.9zm-44.2 21c-4.8 5.2-7.2 11.9-7.2 20.2s2.4 15 7.2 20.2 11.1 7.8 19 7.8c7.6 0 13.8-2.6 18.6-7.8s7.2-11.9 7.2-20.2-2.4-15-7.2-20.2-11-7.8-18.6-7.8c-7.8.1-14.2 2.6-19 7.8z"/><path d="m654.8 29.6v92.2h-22.6v-17.1c-6.2 11.9-16.9 17.9-32 17.9-10.3 0-18.5-3.2-24.5-9.5s-9-14.9-9-25.8v-57.7h22.6v51.2c0 6.4 1.8 11.5 5.3 15.2s8.4 5.5 14.6 5.5c7.1-.1 12.8-2.6 16.9-7.6 4.1-4.9 6.2-11.2 6.2-18.8v-45.5z"/><path d="m751.1 38.3c6.1 6.4 9.1 15 9.1 25.9v57.5h-22.6v-51c0-6.4-1.8-11.5-5.5-15.2s-8.7-5.6-15-5.6c-7.5.1-13.4 2.6-17.7 7.6-4.3 4.9-6.5 11.3-6.5 19v45.3h-22.4v-92.2h22.4v17.2c6.3-11.8 17.3-17.9 33.1-18.1 10.7.1 19.1 3.2 25.1 9.6z"/><path d="m439 93.3c-5.5 6.7-13.5 10-24.1 10-7.5 0-13.5-2.5-18.2-7.6s-7-11.7-7-20c0-8 2.3-14.6 7-19.6 4.7-5.1 10.7-7.6 18.2-7.6 9.8 0 17.8 3.3 24 10 1.5-6.9 4-13.3 7.5-19.3-2.9-2.4-6.2-4.4-9.8-6-6.6-2.9-14.1-4.4-22.5-4.4-9.2 0-17.3 2-24.4 5.9s-12.6 9.4-16.5 16.5c-4 7.1-5.9 15.3-5.9 24.6 0 9.2 2 17.3 5.9 24.4s9.4 12.6 16.5 16.5 15.1 5.9 24.2 5.9c9 0 16.8-1.6 23.6-4.8 3.3-1.6 6.3-3.5 9-5.7-3.6-5.8-6-12.1-7.5-18.8z"/><path d="m830.2 99.2c-5.3 2.5-9.6 3.8-13.1 3.8-3.2 0-5.6-.9-7.2-2.7s-2.4-4.8-2.4-9v-41.5h26.4v-16.4h-26.4v-25.3h-22.2v25.3h-20c3.5 4.8 5.9 10.3 7.4 16.4h12.6v45.5c0 9.1 2.5 15.9 7.6 20.6s11.5 7 19.5 7 15.7-2.2 23.1-6.7z"/></g></svg>