<svg enable-background="new 0 0 81 81" height="81" viewBox="0 0 81 81" width="81" xmlns="http://www.w3.org/2000/svg"><g stroke="#7b8fea" stroke-linecap="round" stroke-linejoin="round" stroke-miterlimit="10"><path d="m74 .5h-57.8c-3.2 0-5.9 2.7-5.9 5.9v56.3" fill="none"/><path d="m66.9 37.6v-28.6-2.4c0-3.3 2.7-5.9 5.9-5.9h1.8c3.2 0 5.9 2.7 5.9 5.9v18.7h-13.6" fill="none"/><path d="m54.3 80.5c-3.2 0-5.9-2.7-5.9-5.9v-11.9h-47.9v11.9c0 3.3 2.7 5.9 5.9 5.9h6.3 1.7 43.1 1.7 1.8c3.2 0 5.9-2.7 5.9-5.9" fill="none"/><path d="m66.2 69.9 13.9-31.2c.9-1.9 0-4.2-1.9-5.1l-1.1-.5c-1.9-.9-4.2 0-5.1 1.9l-13.9 31.3.6 9.6z" fill="#ebeefc"/><g fill="none"><path d="m58 66.1 8.1 3.6"/><path d="m71.1 37.2 8.1 3.6"/><path d="m60.9 8.9c-.8-.7-1.7-1.2-2.7-1.6s-2.1-.6-3.2-.6c-1.4 0-2.8.3-4 .9s-2.3 1.5-3.1 2.6-1.4 2.3-1.6 3.6l-.1.5c0 .4-.1.8-.1 1 0 .5 0 1 .1 1.4l.1.5c.3 1.3.9 2.4 1.7 3.5.8 1 1.9 1.9 3.1 2.4 1.2.6 2.5.9 3.9.9 1.1 0 2.2-.2 3.2-.6s1.9-.9 2.7-1.6"/><path d="m43.3 14.4h11.5"/><path d="m43.3 17.4h11.5"/><path d="m17.1 9.7h21.2"/><path d="m17.1 17h21.2"/><path d="m17.1 24.3h21.2"/><path d="m17.1 53.6h21.2"/><path d="m17.1 31.6h44.7"/><path d="m17.1 46.3h44.7"/><path d="m17.1 39h35.4"/></g></g></svg>