<svg enable-background="new 0 0 81 81" height="81" viewBox="0 0 81 81" width="81" xmlns="http://www.w3.org/2000/svg"><g stroke="#7b8fea" stroke-linecap="round" stroke-linejoin="round" stroke-miterlimit="10"><g fill="none"><path d="m80.5 8.5c0-4.4-3.6-8-8-8h-64c-4.4 0-8 3.6-8 8v4h80z"/><circle cx="8.5" cy="6.5" r="3"/><circle cx="17.5" cy="6.5" r="3"/><circle cx="26.5" cy="6.5" r="3"/><path d="m.5 12.5v60c0 4.4 3.6 8 8 8h64c4.4 0 8-3.6 8-8v-60z"/><path d="m6.5 18h29v24h-29z"/><path d="m44.5 18h29v24h-29z"/></g><circle cx="58.5" cy="29.5" fill="#ebeefc" r="9"/><path d="m58.5 20.5v9l7.4-5.1" fill="none"/><path d="m58.5 29.5h9" fill="none"/><path d="m10.5 41.5v-19.5h4.6v19.5" fill="#ebeefc"/><path d="m18.5 41.5v-11.5h4.6v11.5" fill="#ebeefc"/><path d="m26.5 41.5v-15.5h4.6v15.5" fill="#ebeefc"/><path d="m6.5 56.5v-7h67v13" fill="none"/><path d="m73.5 63-8-8.5-8 14-14-16-8 8-5-5-10 14-14-13.6v17.6h67z" fill="#ebeefc"/></g></svg>