<svg enable-background="new 0 0 80.4 81" height="81" viewBox="0 0 80.4 81" width="80.4" xmlns="http://www.w3.org/2000/svg"><g stroke-linecap="round" stroke-linejoin="round" stroke-miterlimit="10"><g stroke="#7b8fea"><path d="m59.4 52.5-2.6-2.8-2.9 2.9 5.4 5.4 9.2-9.1-2.1-2.2z" fill="none"/><path d="m67.1 12.6.9-.2c1.1-.3 2.2.4 2.4 1.5l1 4.4c.3 1.1-.4 2.2-1.5 2.4l-.8.2" fill="none"/><path d="m69.6 24.3 1.1-.3c1.1-.3 2.2.4 2.4 1.5l1 4.4c.3 1.1-.4 2.2-1.5 2.4l-1 .2" fill="none"/><path d="m72.4 35.9 1-.2c1.1-.3 2.2.4 2.4 1.5l1 4.4c.3 1.1-.4 2.2-1.5 2.4l-.9.2" fill="none"/><path d="m75.3 47.7 1-.2c1.1-.3 2.2.4 2.4 1.5l1 4.4c.3 1.1-.4 2.2-1.5 2.4l-1 .2" fill="none"/><path d="m78.3 60.3 1.5 6.3c.3 1.1-.4 2.2-1.5 2.4l-47.4 11.4c-1.1.3-2.2-.4-2.4-1.5l-1-4.3" fill="none"/><path d="m25.3 65.7 2.1 8.9.4-.1 49-11.8c1.1-.3 1.8-1.4 1.5-2.4l-.3-1.2-13.7-56.8c-.3-1.1-1.4-1.8-2.4-1.5l-47.4 11.3c-1.1.3-1.8 1.4-1.5 2.4l1.8 7.3" fill="none"/><path d="m22.9 55.6 1.7 7" fill="none"/><path d="m20.4 45.4 1.7 7" fill="none"/><path d="m18 35.2 1.7 7" fill="none"/><path d="m15.5 25.1 1.7 7" fill="none"/><path d="m76 62.9.5 2c.2.9-.4 1.9-1.5 2.1l-44.3 10.7-.8-3.7" fill="none"/><path d="m17.3 24.6-3.2.8c-.9.2-1.7-.3-1.9-1.2-.2-.9.3-1.7 1.2-1.9l3.2-.8c.9-.2 1.7.3 1.9 1.2.2.8-.3 1.7-1.2 1.9z" fill="none"/><path d="m19.8 34.8-3.2.8c-.9.2-1.7-.3-1.9-1.2-.2-.9.3-1.7 1.2-1.9l3.2-.8c.9-.2 1.7.3 1.9 1.2.2.8-.4 1.7-1.2 1.9z" fill="none"/><path d="m22.2 45-3.2.7c-.9.2-1.7-.3-1.9-1.2-.2-.9.3-1.7 1.2-1.9l3.2-.8c.9-.2 1.7.3 1.9 1.2.2.9-.3 1.8-1.2 2z" fill="none"/><path d="m24.7 55.1-3.2.8c-.9.2-1.7-.3-1.9-1.2-.2-.9.3-1.7 1.2-1.9l3.2-.8c.9-.2 1.7.3 1.9 1.2.2.8-.4 1.7-1.2 1.9z" fill="none"/><path d="m27.1 65.3-3.2.8c-.9.2-1.7-.3-1.9-1.2-.2-.9.3-1.7 1.2-1.9l3.2-.8c.9-.2 1.7.3 1.9 1.2.2.8-.3 1.7-1.2 1.9z" fill="none"/><path d="m62.2 42.7-28.8 6.9" fill="none"/><path d="m62.5 56.2-26.1 6.3" fill="none"/><path d="m55.8 51-20.9 5" fill="none"/><ellipse cx="43.1" cy="27" fill="#ebeefc" rx="11.4" ry="11.4" transform="matrix(.9723 -.2338 .2338 .9723 -5.1122 10.8354)"/><ellipse cx="42.3" cy="23.4" fill="none" rx="4.5" ry="4.5" transform="matrix(.9723 -.2338 .2338 .9723 -4.3052 10.5372)"/><path d="m45.8 38c4.2-1 7.3-4.2 8.3-8.1-2.6-1-6.4-1.1-10.3-.1-4 1-7.3 2.8-9.1 4.8 2.7 3 6.9 4.4 11.1 3.4z" fill="none"/></g><path d="m3.2 10.9v2.2" fill="none" stroke="#ebeefc"/><path d="m3.2 15.2v2.2" fill="none" stroke="#ebeefc"/><path d="m6.5 14.2h-2.2" fill="none" stroke="#ebeefc"/><path d="m2.2 14.2h-2.2" fill="none" stroke="#ebeefc"/><path d="m8.2 26.9-1.5 1.5" fill="none" stroke="#ebeefc"/><path d="m5.2 30-1.6 1.5" fill="none" stroke="#ebeefc"/><path d="m8.2 31.5-1.5-1.5" fill="none" stroke="#ebeefc"/><path d="m5.2 28.4-1.6-1.5" fill="none" stroke="#ebeefc"/><path d="m16.3.5-1.5 1.5" fill="none" stroke="#ebeefc"/><path d="m13.3 3.6-1.6 1.5" fill="none" stroke="#ebeefc"/><path d="m16.3 5.1-1.5-1.5" fill="none" stroke="#ebeefc"/><path d="m13.3 2-1.6-1.5" fill="none" stroke="#ebeefc"/></g></svg>