<svg xmlns="http://www.w3.org/2000/svg" viewBox="0 0 80 80"><path fill="#66D9CE" d="M80 80H0V26L40 0l40 26z"/><path fill="#CEF3EF" d="M80 26L0 80h80z"/><path fill="#FFF" d="M70.8 34L40 53 9.2 32V12H71z"/><path fill="#1EA69B" d="M17 20.9h12.4v3H17z"/><path fill="#222E5C" d="M17 28h44v3H17zM52.4 35.2H17v2.1l1.2.9h34.2zM45.4 45.2v-3H24.1l4.4 3z"/><g><ellipse transform="rotate(-69.336 65 14.27)" fill="#FF7D00" cx="65" cy="14.3" rx="14.2" ry="14.2"/><path fill="#FFF" d="M71 21l-.5 1.4-14.9-5.6.5-1.4c.4-1 1.1-1.7 2-2.1l2-.9c.9-.4 1.6-1.2 2-2.1l.6-1.7c.8-2.2 3.2-3.2 5.4-2.4 2.2.8 3.2 3.2 2.4 5.4l-.7 1.7c-.4 1-.3 2 .1 2.9l.9 2c.5.8.5 1.9.2 2.8zM60.9 18.8l-.3.7c-.4 1.2.2 2.5 1.3 2.9 1.2.4 2.5-.2 2.9-1.3l.3-.7"/></g><path fill="#CEF3EF" d="M80 26L0 80h80z"/></svg>