<svg xmlns="http://www.w3.org/2000/svg" viewBox="0 0 80 80"><path fill="#FFF" d="M0 0h80v80H0z"/><path fill="#66D9CE" d="M0 0h80v20H0z"/><circle fill="#FF7D00" cx="9" cy="35" r="9"/><path fill="#FFF" d="M8.9 40.2l-4.5-4.5 1.4-1.4L8.5 37l3.5-6.1 1.7 1z"/><path fill="#FF7D00" d="M24 26h56v18H24z"/><path fill="#CEF3EF" d="M24 50h56v12H24z"/><g fill="#222E5C"><path d="M6.7 58.8h1.9v1.5H2.9v-1.5h1.9v-5.1l-1.8 1V53l2.6-1.5h1.1v7.3zM14.1 58.8H16v1.5h-5.7v-1.5h1.9v-5.1l-1.8 1V53l2.6-1.5h1.1v7.3z"/></g><g><path fill="#CEF3EF" d="M24 68h56v12H24z"/><g fill="#222E5C"><path d="M6.7 76.9h1.9v1.5H2.9v-1.5h1.9v-5.1l-1.8 1v-1.7l2.6-1.5h1.1v7.3zM15.8 76.9v1.5h-6V77l2.9-3.1c.6-.7.9-1.3.9-1.8 0-.3-.1-.6-.3-.8-.2-.2-.5-.3-.9-.3-.7 0-1.5.3-2.3.8l-.6-1.4c.4-.3.8-.5 1.4-.7s1.1-.3 1.7-.3c.9 0 1.6.2 2.2.7.5.4.8 1 .8 1.8 0 .5-.1 1-.3 1.4-.2.4-.6.9-1.1 1.4l-2 2.1h3.6z"/></g></g><g><g fill="#222E5C"><path d="M28.5 14.2c.3 0 .6.1.9.1.4 0 .7-.1.8-.3.1-.2.2-.5.2-1V4.8h1.9V13c0 1-.2 1.7-.6 2.1-.4.5-1 .7-2 .7-.4 0-.8 0-1.3-.1v-1.5zM39.9 7.3v6.2h-1.8v-.9c-.2.3-.5.6-.8.7-.3.2-.7.3-1.1.3-.8 0-1.4-.2-1.7-.7-.4-.4-.6-1.1-.6-2V7.3h1.9V11c0 .8.3 1.1 1 1.1.4 0 .7-.1.9-.4s.4-.6.4-1V7.3h1.8zM41.3 4.4h2v1.7h-2V4.4zm.1 9.1V7.3h1.9v6.2h-1.9zM50.8 9.8v3.8h-1.9V9.9c0-.4-.1-.8-.2-1-.2-.2-.4-.3-.8-.3s-.7.1-1 .4c-.2.3-.4.6-.4 1.1v3.5h-1.9V9.1c0-.7 0-1.3-.1-1.8h1.7l.1 1c.2-.4.5-.7.9-.8.4-.2.8-.3 1.2-.3 1.6 0 2.4.8 2.4 2.6z"/></g></g></svg>