<svg xmlns="http://www.w3.org/2000/svg" viewBox="0 0 80 80"><circle fill="#CEF3EF" cx="40" cy="40" r="40"/><path fill="#222E5C" d="M70.7 68.9L80 79.8h-7.7L67 73.4l-5.3 6.5H54L63.3 69l-8.7-10.3h7.7l4.7 5.9 4.7-5.9h7.7l-8.7 10.2zM50.4 67.5v12.2H2.5V68.5l23.2-24.7c4.8-5.2 7.2-10 7.2-14.3 0-2.7-.8-4.8-2.4-6.2-1.6-1.4-3.9-2.1-7-2.1-5.9 0-12.1 2.3-18.5 6.8L.2 17C3 14.6 6.6 12.7 11 11.3c4.4-1.4 8.8-2.1 13.3-2.1 7.2 0 13 1.7 17.3 5.2 4.3 3.5 6.4 8.2 6.4 14 0 4-.8 7.8-2.5 11.2C43.8 43 41 46.8 37.1 51L21.3 67.5h29.1z"/></svg>