<svg xmlns="http://www.w3.org/2000/svg" viewBox="0 0 80 80"><path fill="#CEF3EF" d="M80 80V22.9H0V80z"/><path fill="#FFF" d="M79.4 22.9h.6v49.9H21.5L0 51.1V22.9h.5z"/><path fill="#66D9CE" d="M80 8.8v14.1H0V8.8z"/><g fill="#1EA69B"><path d="M55.1 0h8.2v15.6h-8.2zM36 0h8.2v15.6H36zM17.5 0h8.2v15.6h-8.2z"/></g><path fill="#CEF3EF" d="M72.73 44.602h-16.3v-16.3h16.3zM48.2 44.602H31.9v-16.3h16.3z"/><path fill="#FF7D00" d="M23.569 44.602h-16.3v-16.3h16.3z"/><g fill="#CEF3EF"><path d="M72.765 67.18h-16.3v-16.3h16.3zM48.134 67.18h-16.3v-16.3h16.3z"/></g><path fill="#66D9CE" d="M21.5 72.9V51.5H.4z"/><g fill="#222E5C"><path d="M12.2 35.5l4.6 27.3 7.6-9.2 11.3-3.7z"/><path d="M34.1 64.8l-2.9 1.9-10.3-15.3 2.8-1.9z"/></g></svg>