<svg xmlns="http://www.w3.org/2000/svg" viewBox="0 0 80 80"><circle fill="#66D9CE" cx="40" cy="40" r="40"/><path fill="#222E5C" d="M70.8 68.9L80 79.8h-7.7L67 73.4l-5.3 6.5H54L63.3 69l-8.7-10.3h7.7l4.7 5.9 4.7-5.9h7.7l-8.6 10.2zM47.5 49.4c2.2 2.9 3.3 6.5 3.3 10.7 0 6.1-2.3 11-6.9 14.5-4.6 3.5-10.9 5.3-18.9 5.3-4.8 0-9.5-.7-13.9-2.1C6.6 76.3 3 74.4.2 72l4.9-11c6.2 4.5 12.6 6.8 19.1 6.8 4.2 0 7.3-.7 9.2-2.2 1.9-1.5 2.9-3.8 2.9-7 0-3.1-1-5.3-2.9-6.7-1.9-1.4-5-2.1-9.2-2.1h-10V37.9h8.3c4 0 7-.7 9-2.1 2-1.4 2.9-3.5 2.9-6.4 0-2.9-.9-5.1-2.6-6.6-1.7-1.5-4.2-2.3-7.4-2.3-3 0-6.1.6-9.2 1.7-3.1 1.1-6.2 2.8-9.2 5l-4.9-11C4 13.9 7.6 12 12 10.6c4.4-1.4 8.9-2.1 13.5-2.1 4.7 0 8.8.8 12.4 2.3s6.3 3.8 8.2 6.6c1.9 2.8 2.9 6.1 2.9 9.9 0 3.8-.9 7.1-2.8 9.8-1.9 2.8-4.6 4.8-8 6.1 4 1.2 7.1 3.3 9.3 6.2z"/></svg>
