<?xml version="1.0" encoding="UTF-8"?>
<!-- Generator: Adobe Illustrator 21.1.0, SVG Export Plug-In . SVG Version: 6.00 Build 0)  -->
<svg version="1.1" id="Calque_1" xmlns="http://www.w3.org/2000/svg" xmlns:xlink="http://www.w3.org/1999/xlink" x="0px" y="0px" viewBox="0 0 80 80" enable-background="new 0 0 80 80" xml:space="preserve">
<g>
	<rect fill="#FFFFFF" width="80" height="80"/>
</g>
<rect fill="#66D9CE" width="80" height="20"/>
<g>
	<g>
		<circle fill="#FF7D00" cx="9" cy="35" r="9"/>
		<polygon fill="#FFFFFF" points="8.9,40.2 4.4,35.7 5.8,34.3 8.5,37 12,30.9 13.7,31.9   "/>
	</g>
	<rect x="24" y="26" fill="#FF7D00" width="56" height="18"/>
</g>
<g>
	<rect x="24" y="50" fill="#CEF3EF" width="56" height="12"/>
	<g>
		<g>
			<path fill="#222E5C" d="M6.7,58.8h1.9v1.5H2.9v-1.5h1.9v-5.1l-1.8,1v-1.7l2.6-1.5h1.1V58.8z"/>
			<path fill="#222E5C" d="M14.1,58.8H16v1.5h-5.7v-1.5h1.9v-5.1l-1.8,1v-1.7l2.6-1.5h1.1V58.8z"/>
		</g>
	</g>
</g>
<g>
	<rect x="24" y="68" fill="#CEF3EF" width="56" height="12"/>
	<g>
		<g>
			<path fill="#222E5C" d="M6.7,76.9h1.9v1.5H2.9v-1.5h1.9v-5.1l-1.8,1v-1.7l2.6-1.5h1.1V76.9z"/>
			<path fill="#222E5C" d="M15.8,76.9v1.5h-6V77l2.9-3.1c0.6-0.7,0.9-1.3,0.9-1.8c0-0.3-0.1-0.6-0.3-0.8c-0.2-0.2-0.5-0.3-0.9-0.3     c-0.7,0-1.5,0.3-2.3,0.8l-0.6-1.4c0.4-0.3,0.8-0.5,1.4-0.7s1.1-0.3,1.7-0.3c0.9,0,1.6,0.2,2.2,0.7c0.5,0.4,0.8,1,0.8,1.8     c0,0.5-0.1,1-0.3,1.4c-0.2,0.4-0.6,0.9-1.1,1.4l-2,2.1H15.8z"/>
		</g>
	</g>
</g>
<g>
	<g>
		<path fill="#222E5C" d="M28.5,14.2c0.3,0,0.6,0.1,0.9,0.1c0.4,0,0.7-0.1,0.8-0.3c0.1-0.2,0.2-0.5,0.2-1V4.8h1.9V13    c0,1-0.2,1.7-0.6,2.1c-0.4,0.5-1,0.7-2,0.7c-0.4,0-0.8,0-1.3-0.1V14.2z"/>
		<path fill="#222E5C" d="M39.9,7.3v6.2h-1.8v-0.9c-0.2,0.3-0.5,0.6-0.8,0.7c-0.3,0.2-0.7,0.3-1.1,0.3c-0.8,0-1.4-0.2-1.7-0.7    c-0.4-0.4-0.6-1.1-0.6-2V7.3h1.9v3.7c0,0.8,0.3,1.1,1,1.1c0.4,0,0.7-0.1,0.9-0.4s0.4-0.6,0.4-1V7.3H39.9z"/>
		<path fill="#222E5C" d="M41.3,4.4h2v1.7h-2V4.4z M41.4,13.5V7.3h1.9v6.2H41.4z"/>
		<path fill="#222E5C" d="M50.8,9.8v3.8h-1.9V9.9c0-0.4-0.1-0.8-0.2-1c-0.2-0.2-0.4-0.3-0.8-0.3c-0.4,0-0.7,0.1-1,0.4    c-0.2,0.3-0.4,0.6-0.4,1.1v3.5h-1.9V9.1c0-0.7,0-1.3-0.1-1.8h1.7l0.1,1c0.2-0.4,0.5-0.7,0.9-0.8c0.4-0.2,0.8-0.3,1.2-0.3    C50,7.2,50.8,8,50.8,9.8z"/>
	</g>
</g>
</svg>