<?xml version="1.0" encoding="UTF-8"?>
<!-- Generator: Adobe Illustrator 21.1.0, SVG Export Plug-In . SVG Version: 6.00 Build 0)  -->
<svg version="1.1" id="Calque_1" xmlns="http://www.w3.org/2000/svg" xmlns:xlink="http://www.w3.org/1999/xlink" x="0px" y="0px" viewBox="0 0 80 80" enable-background="new 0 0 80 80" xml:space="preserve">
<circle fill="#CEF3EF" cx="40" cy="40" r="40"/>
<g>
	<path fill="#222E5C" d="M70.8,68.9L80,79.8h-7.7L67,73.4l-5.3,6.5H54l9.3-10.9l-8.7-10.3h7.7l4.7,5.9l4.7-5.9h7.7L70.8,68.9z"/>
</g>
<g>
	<path fill="#222E5C" d="M47.5,49.4c2.2,2.9,3.3,6.5,3.3,10.7c0,6.1-2.3,11-6.9,14.5c-4.6,3.5-10.9,5.3-18.9,5.3   c-4.8,0-9.5-0.7-13.9-2.1C6.6,76.3,3,74.4,0.2,72l4.9-11c6.2,4.5,12.6,6.8,19.1,6.8c4.2,0,7.3-0.7,9.2-2.2c1.9-1.5,2.9-3.8,2.9-7   c0-3.1-1-5.3-2.9-6.7c-1.9-1.4-5-2.1-9.2-2.1h-10V37.9h8.3c4,0,7-0.7,9-2.1c2-1.4,2.9-3.5,2.9-6.4c0-2.9-0.9-5.1-2.6-6.6   c-1.7-1.5-4.2-2.3-7.4-2.3c-3,0-6.1,0.6-9.2,1.7c-3.1,1.1-6.2,2.8-9.2,5l-4.9-11C4,13.9,7.6,12,12,10.6c4.4-1.4,8.9-2.1,13.5-2.1   c4.7,0,8.8,0.8,12.4,2.3s6.3,3.8,8.2,6.6c1.9,2.8,2.9,6.1,2.9,9.9c0,3.8-0.9,7.1-2.8,9.8c-1.9,2.8-4.6,4.8-8,6.1   C42.2,44.4,45.3,46.5,47.5,49.4z"/>
</g>
</svg>