<?xml version="1.0" encoding="UTF-8"?>
<!-- Generator: Adobe Illustrator 21.1.0, SVG Export Plug-In . SVG Version: 6.00 Build 0)  -->
<svg version="1.1" id="Calque_1" xmlns="http://www.w3.org/2000/svg" xmlns:xlink="http://www.w3.org/1999/xlink" x="0px" y="0px" viewBox="0 0 80 80" enable-background="new 0 0 80 80" xml:space="preserve">
<circle fill="#CEF3EF" cx="40" cy="40" r="40"/>
<g>
	<path fill="#222E5C" d="M70.7,68.9L80,79.8h-7.7L67,73.4l-5.3,6.5H54l9.3-10.9l-8.7-10.3h7.7l4.7,5.9l4.7-5.9h7.7L70.7,68.9z"/>
</g>
<g>
	<path fill="#222E5C" d="M50.4,67.5v12.2H2.5V68.5l23.2-24.7c4.8-5.2,7.2-10,7.2-14.3c0-2.7-0.8-4.8-2.4-6.2c-1.6-1.4-3.9-2.1-7-2.1   c-5.9,0-12.1,2.3-18.5,6.8L0.2,17C3,14.6,6.6,12.7,11,11.3c4.4-1.4,8.8-2.1,13.3-2.1c7.2,0,13,1.7,17.3,5.2c4.3,3.5,6.4,8.2,6.4,14   c0,4-0.8,7.8-2.5,11.2c-1.7,3.4-4.5,7.2-8.4,11.4L21.3,67.5H50.4z"/>
</g>
</svg>