<?xml version="1.0" encoding="UTF-8"?>
<!-- Generator: Adobe Illustrator 21.1.0, SVG Export Plug-In . SVG Version: 6.00 Build 0)  -->
<svg version="1.1" id="Calque_1" xmlns="http://www.w3.org/2000/svg" xmlns:xlink="http://www.w3.org/1999/xlink" x="0px" y="0px" viewBox="0 0 80 80" enable-background="new 0 0 80 80" xml:space="preserve">
<polygon fill="#66D9CE" points="80,80 0,80 0,26 40,0 80,26 "/>
<polygon fill="#CEF3EF" points="80,26 0,80 80,80 "/>
<g>
	<polygon fill="#FFFFFF" points="70.8,34 40,53 9.2,32 9.2,12 71,12  "/>
</g>
<g>
	<rect x="17" y="20.9" fill="#1EA69B" width="12.4" height="3"/>
	<rect x="17" y="28" fill="#222E5C" width="44" height="3"/>
	<polygon fill="#222E5C" points="52.4,35.2 17,35.2 17,37.3 18.2,38.2 52.4,38.2  "/>
	<polygon fill="#222E5C" points="45.4,45.2 45.4,42.2 24.1,42.2 28.5,45.2  "/>
</g>
<g>
	<ellipse transform="matrix(0.3529 -0.9357 0.9357 0.3529 28.7112 70.055)" fill="#FF7D00" cx="65" cy="14.3" rx="14.2" ry="14.2"/>
	<g id="Bell_3_">
		<g>
			<path fill="#FFFFFF" d="M71,21l-0.5,1.4l-14.9-5.6l0.5-1.4c0.4-1,1.1-1.7,2-2.1l2-0.9c0.9-0.4,1.6-1.2,2-2.1l0.6-1.7     c0.8-2.2,3.2-3.2,5.4-2.4l0,0c2.2,0.8,3.2,3.2,2.4,5.4l-0.7,1.7c-0.4,1-0.3,2,0.1,2.9l0.9,2C71.3,19,71.3,20.1,71,21z"/>
		</g>
		<path fill="#FFFFFF" d="M60.9,18.8l-0.3,0.7c-0.4,1.2,0.2,2.5,1.3,2.9l0,0c1.2,0.4,2.5-0.2,2.9-1.3l0.3-0.7"/>
	</g>
</g>
<polygon fill="#CEF3EF" points="80,26 0,80 80,80 "/>
</svg>