<?xml version="1.0" encoding="UTF-8"?>
<svg width="80px" height="80px" viewBox="0 0 80 80" version="1.1" xmlns="http://www.w3.org/2000/svg" xmlns:xlink="http://www.w3.org/1999/xlink">
    <!-- Generator: Sketch 59.1 (86144) - https://sketch.com -->
    <title>illu</title>
    <desc>Created with Sketch.</desc>
    <g id="Homepage-particuliers" stroke="none" stroke-width="1" fill="none" fill-rule="evenodd">
        <g id="1A-D-HPparticuliers" transform="translate(-81.000000, -431.000000)">
            <g id="How-it-works-" transform="translate(15.000000, 377.000000)">
                <g id="1" transform="translate(0.000000, 54.000000)">
                    <g id="illu" transform="translate(66.000000, 0.000000)">
                        <path d="M80,40 C80,62.092 62.092,80 40,80 C17.909,80 0,62.092 0,40 C0,17.908 17.909,0 40,0 C62.092,0 80,17.908 80,40" id="Fill-1" fill="#CEF3EF"></path>
                        <path d="M21.3867,26.6855 L12.8027,10.6795 C6.5537,16.4785 2.1687,24.2475 0.6227,32.9995 L17.5127,32.9995 L21.3867,26.6855 Z" id="Fill-3" fill="#66D9CE"></path>
                        <path d="M37.7119,0.0693 C30.6269,0.4693 24.0409,2.7163 18.4139,6.3323 L25.6249,19.7763 L37.7119,0.0693 Z" id="Fill-5" fill="#66D9CE"></path>
                        <path d="M76.7666,24.2305 C75.7096,21.7705 74.4116,19.4405 72.9046,17.2635 L69.0246,28.3825 L76.7666,24.2305 Z" id="Fill-7" fill="#66D9CE"></path>
                        <path d="M0.623,47 C1.182,50.166 2.11,53.202 3.367,56.063 L8.926,47 L0.623,47 Z" id="Fill-9" fill="#66D9CE"></path>
                        <path d="M79.377,33 C79.258,32.325 79.122,31.656 78.969,30.993 L75.227,33 L79.377,33 Z" id="Fill-11" fill="#66D9CE"></path>
                        <path d="M62.5293,47 L53.7393,72.193 L51.6153,78.281 C53.1553,77.814 54.6543,77.254 56.1093,76.612 C68.1213,71.319 77.0293,60.295 79.3773,47 L62.5293,47 Z" id="Fill-13" fill="#66D9CE"></path>
                        <path d="M7.3052,63.0312 L8.7162,60.7302 L6.5342,61.9002 C6.7842,62.2822 7.0422,62.6582 7.3052,63.0312" id="Fill-15" fill="#71C3DA"></path>
                        <polygon id="Fill-17" fill="#71C3DA" points="24.7739 33 25.2179 33.827 25.7249 33"></polygon>
                        <polygon id="Fill-19" fill="#66D9CE" points="33.6992 20 29.4552 26.919 32.7172 33 52.5862 33 57.1222 20"></polygon>
                        <path d="M59.2148,14 L61.8348,6.492 C57.0678,3.379 51.5988,1.255 45.7128,0.413 L37.3798,14 L59.2148,14 Z" id="Fill-21" fill="#66D9CE"></path>
                        <path d="M15.4858,49.6934 L8.7158,60.7304 L7.3048,63.0314 C8.4128,64.6004 9.6298,66.0864 10.9468,67.4774 C17.4318,74.3324 26.3108,78.8944 36.2508,79.8194 L40.2578,68.3354 L15.4858,49.6934 Z" id="Fill-23" fill="#66D9CE"></path>
                        <polygon id="Fill-25" fill="#66D9CE" points="42.333 62.3877 44.756 55.4447 47.374 47.9397 47.701 46.9997 40.226 46.9997 34.315 46.9997 32.283 46.9997 21.885 46.9997"></polygon>
                        <polygon id="Fill-27" fill="#222E5C" points="15.4033 79.5479 15.4033 27.1249 1.3093 35.4439 1.3093 22.0349 21.7653 10.0939 30.6723 10.0939 30.6723 79.5479"></polygon>
                        <path d="M70.3047,4.9492 C63.6407,-1.6378 53.1217,-1.4398 46.6027,5.1562 L46.5347,5.2242 C40.0157,11.8202 40.4717,19.7412 46.6727,28.9272 L58.6637,46.8902 L70.5117,28.7202 C76.2687,20.1472 76.9697,11.5362 70.3047,4.9492" id="Fill-29" fill="#FF7D00"></path>
                        <path d="M58.6006,24.3995136 C54.7296,24.4214 51.5646,21.2464 51.5414847,17.3744 C51.5196,13.5034 54.6476,10.3864 58.5186,10.3642739 C62.3906,10.3414 65.5546,13.4684 65.5777154,17.3404 C65.5996,21.2124 62.4726,24.3774 58.6006,24.3995136" id="Fill-31" fill="#FFFFFF"></path>
                    </g>
                </g>
            </g>
        </g>
    </g>
</svg>