<svg enable-background="new 0 0 81 81" height="81" viewBox="0 0 81 81" width="81" xmlns="http://www.w3.org/2000/svg"><g stroke="#7b8fea" stroke-linecap="round" stroke-linejoin="round" stroke-miterlimit="10"><path d="m55.2 63 15.7 15.6c2.2 2.2 5.9 2.2 8-.1 2.2-2.3 2.1-6-.1-8.2l-15.7-15.6z" fill="#ebeefc"/><path d="m59.1 58.8-6-6" fill="none"/><path d="m31 .5c-16.8 0-30.5 13.9-30.5 31s13.6 31 30.5 31c16.8 0 30.5-13.9 30.5-31s-13.7-31-30.5-31zm0 55.3c-13.2 0-24-10.9-24-24.4s10.7-24.3 24-24.3 24 10.9 24 24.4-10.8 24.3-24 24.3z" fill="#ebeefc"/><g fill="none"><path d="m35.4 13.3c6.2 2.6 11.2 7.4 14.2 13.5"/><ellipse cx="50.1" cy="73.9" rx="7" ry="2.5"/><path d="m43.1 73.4v4.6c0 1.4 3.1 2.5 7 2.5s7-1.1 7-2.5v-4.6"/><path d="m34.5 53.6c-1.8-.6-3-1.4-3-2.3 0-1.7 3.8-3.1 8.5-3.1 1.8 0 3.4.2 4.8.5"/><path d="m33.1 67.3v4.6c0 1.4 3.1 2.5 7 2.5"/><path d="m33.1 65.3v1.5c0 1.4 3.1 2.5 7 2.5s7-1.1 7-2.5v-4.6"/><path d="m35.6 63.7c1.2.4 2.8.6 4.5.6 3.9 0 7-1.1 7-2.5v-1.5"/><path d="m31.6 51.9v1.2"/><ellipse cx="19.6" cy="35.3" rx="8.5" ry="3.1"/><path d="m11.1 68.3v4.6c0 1.4 3.1 2.5 7 2.5s7-1.1 7-2.5v-4.6"/><path d="m11.1 63.2v4.6c0 1.4 3.1 2.5 7 2.5s7-1.1 7-2.5v-1.5"/><path d="m11.1 59.4v3.3c0 1.4 3.1 2.5 7 2.5 1.4 0 2.8-.2 3.9-.4"/><path d="m28.1 53.1v-4.8"/><path d="m22.7 50.6c3.2-.4 5.5-1.6 5.5-2.9v-5.6"/><path d="m15.1 44.1c1.3.3 2.9.5 4.5.5 4.7 0 8.5-1.4 8.5-3.1v-5.6"/><path d="m11.1 35.9v2.5"/><path d="m48.4 37.4c-.5 1.5-4.3 1.7-8.5.3-4.2-1.3-7.3-3.7-6.8-5.2s4.3-1.7 8.5-.3 7.3 3.7 6.8 5.2z"/><path d="m33.3 32-1.5 5c-.5 1.5 2.6 3.9 6.8 5.2s8 1.2 8.5-.3l1.5-5"/><path d="m31.2 17.7c.4 1.6-2.7 3.8-7 4.9-4.3 1.2-8.1.9-8.5-.7s2.7-3.8 7-4.9c4.3-1.2 8.1-.8 8.5.7z"/><path d="m15.6 21.4 1.3 5.1c.4 1.6 4.2 1.9 8.5.7s7.4-3.4 7-4.9l-1.3-5.1"/></g></g></svg>