<svg enable-background="new 0 0 366 277" height="277" viewBox="0 0 366 277" width="366" xmlns="http://www.w3.org/2000/svg"><path d="m0 277h366v-277z" fill="#f6f7fb"/><path d="m29 118s-10 62 49 62c22.4 0 38.1-45.3 18.2-45.3s-10.8 77.8 94.1 3c-.5.5 94.2-100.9 5.8-120.4-92.1-20.3-76.4 104.6-13.2 104.6 29.8 0 78 23.8 127.7-37.9" style="fill:none;stroke:#e5e7ea;stroke-width:2;stroke-linecap:round;stroke-linejoin:round;stroke-miterlimit:10;stroke-dasharray:2 6"/><path d="m64.5 259.4c-6.8.1-12.9.8-17.3 2.2-9.3 3-12.5 9.3-12.6 15.8 7.1-1.5 19.7-5.7 29.9-18z" fill="#455b96"/><path d="m129.6 266.2s-38.5-7.3-65.1-6.8c-9.4 11.3-20.8 15.8-28.1 17.6h116.4z" fill="#5166af"/><path d="m298.9 259.4c6.8.1 12.9.8 17.3 2.2 9.3 3 12.5 9.3 12.6 15.8-7.1-1.5-19.7-5.7-29.9-18z" fill="#455b96"/><path d="m298.9 259.4c-26.6-.5-65.1 6.8-65.1 6.8l-23.2 10.8h116.4c-7.3-1.8-18.7-6.3-28.1-17.6z" fill="#5166af"/><path d="m230.7 275.2c3.3-1.6 4.1-8.9 4.1-8.9l-.8-61s3.8 9.3 8 18.4c-.9 4.6.1 6.8.1 6.8l2.4 1.6s-1.6 4.1 0 6.5 4.9 3.3 4.9 3.3l1.3-1.9 16.6-24.9c2.4-2.4-.5-3.3-.5-3.3s1.4-2.4.5-4.1c-.8-1.6-2.4-2-2.4-2-8.6-32.7-19.4-57-25.3-61.4-6.5-4.9-25.2-5.7-34.2-6.5 0 0-2.5-8.1-5.1-8.9-2-.6-4.4-.8-5.4-.8h-.1v7.3l-12.2 13-12.2-13v-7.3h-.1c-1 0-3.5.2-5.4.8-2.5.8-5.1 8.9-5.1 8.9-8.9.8-27.7 1.6-34.2 6.5-6 4.5-16.7 28.7-25.3 61.4s-1.5.4-2.4 2c-.8 1.6.5 4.1.5 4.1s-3 .8-.5 3.3l16.6 24.9 1.3 1.9s3.3-.8 4.9-3.3c1.6-2.4 0-6.5 0-6.5l2.4-1.6s1.1-2.3.1-6.8c4.2-9.1 8-18.4 8-18.4l-.8 61s.8 7.3 4.1 8.9c.5.3 2.2.9 4.5 1.8h86.9c2.6-.9 4.3-1.6 4.8-1.8z" fill="#fdb91b"/><path d="m45.2 249.1-13-5.7s-1.6 5.7 6.5 8.9l-11.4 8.1 5.7 3.3c2.4-6.4 12.2-14.6 12.2-14.6z" fill="#cd6d52"/><path d="m9.4 267h9.8l-5.7-3.3c0 .1-3.3.1-4.1 3.3z" fill="#cd6d52"/><path d="m45.2 249.1s-9.8 8.1-12.2 14.6l-5.7-3.3h-5.7s-5.7-4.9-12.2-1.6l4.1 4.9 5.7 3.3s.8 1.6 3.3 2.4c2.4.8 7.3-1.6 7.3-1.6s2.4 1.6 4.9 1.6 15.5-9.8 18.7-10.6 54.2-12.4 61.4-19l-16.7-24.8s-48 30.9-52.9 34.1z" fill="#df8866"/><path d="m101.3 213.3 17.9 16.3-12.2-18.7" style="opacity:.6;fill:none;stroke:#dd9c19;stroke-width:2;stroke-linecap:round;stroke-linejoin:round;stroke-miterlimit:10"/><path d="m170.9 156.4-11-18.7 11 25.2 11.8-14.7z" fill="#dd9c19" opacity=".6"/><path d="m23.2 262.1 4.9 4.1" style="opacity:.6;fill:none;stroke:#cd6d52;stroke-width:2;stroke-linecap:round;stroke-linejoin:round;stroke-miterlimit:10"/><path d="m14.3 259.7 9 7.3" style="opacity:.6;fill:none;stroke:#cd6d52;stroke-width:2;stroke-linecap:round;stroke-linejoin:round;stroke-miterlimit:10"/><path d="m320.2 249.1 13-5.7s1.6 5.7-6.5 8.9l11.4 8.1-5.7 3.3c-2.4-6.4-12.2-14.6-12.2-14.6z" fill="#cd6d52"/><path d="m356 267h-9.8l5.7-3.3c0 .1 3.3.1 4.1 3.3z" fill="#cd6d52"/><path d="m320.2 249.1s9.8 8.1 12.2 14.6l5.7-3.3h5.7s5.7-4.9 12.2-1.6l-4.1 4.9-5.7 3.3s-.8 1.6-3.3 2.4c-2.4.8-7.3-1.6-7.3-1.6s-2.4 1.6-4.9 1.6-15.5-9.8-18.7-10.6-54.2-12.4-61.4-19l16.6-24.9c.1.1 48.1 31 53 34.2z" fill="#df8866"/><path d="m195 119.6-12.3.1-12.3-.1v8.3h.1v7.3l12.2 13 12.2-13v-7.3h.1z" fill="#df8866"/><path d="m264.1 213.3-17.9 16.3 12.2-18.7" style="opacity:.6;fill:none;stroke:#dd9c19;stroke-width:2;stroke-linecap:round;stroke-linejoin:round;stroke-miterlimit:10"/><path d="m194.5 156.4 11-18.7-11 25.2-11.8-14.7z" fill="#dd9c19" opacity=".6"/><g fill="none" stroke-linecap="round" stroke-linejoin="round" stroke-miterlimit="10" stroke-width="2"><path d="m342.2 262.1-4.9 4.1" opacity=".6" stroke="#cd6d52"/><path d="m351.1 259.7-8.9 7.3" opacity=".6" stroke="#cd6d52"/><path d="m182.7 159.6v100.4" opacity=".6" stroke="#dd9c19"/><circle cx="189.2" cy="195.7" opacity=".6" r="2.4" stroke="#dd9c19"/><circle cx="189.2" cy="215.6" opacity=".6" r="2.4" stroke="#dd9c19"/><circle cx="189.2" cy="235.5" opacity=".6" r="2.4" stroke="#dd9c19"/></g><path d="m195 127.9v-8.3l-12.3.1-12.3-.1v8.1c3.6 3.9 9 9.1 13.5 9.1 3.6 0 7.6-4.8 11-8.1l.1-.8c-.1 0 0 0 0 0z" fill="#cd6d52"/><g style="opacity:.6;fill:none;stroke:#dd9c19;stroke-width:2;stroke-linecap:round;stroke-linejoin:round;stroke-miterlimit:10"><path d="m222.4 188.1v16.3c0 1.8-1.5 3.3-3.3 3.3h-11.4c-1.8 0-3.3-1.5-3.3-3.3v-16.3z"/><path d="m204.5 193.6h17.9"/></g><path d="m201.9 107.7c4 0 6.5-5.8 6.5-10.7s-5.7-3.3-5.7-3.3z" fill="#df8866"/><path d="m203.1 97.2s2.8-.8 2.8 1.6-1.2 5.3-3.2 5.3" style="opacity:.6;fill:none;stroke:#cd6d52;stroke-width:2;stroke-linecap:round;stroke-linejoin:round;stroke-miterlimit:10"/><path d="m162 107.7c-4 0-6.5-5.8-6.5-10.7s5.7-3.3 5.7-3.3z" fill="#df8866"/><path d="m160.8 97.2s-2.8-.8-2.8 1.6 1.2 5.3 3.2 5.3" style="opacity:.6;fill:none;stroke:#cd6d52;stroke-width:2;stroke-linecap:round;stroke-linejoin:round;stroke-miterlimit:10"/><path d="m181.9 62-21.2 16.3v22s1.6 13 4.1 15.5c2.4 2.4 10.6 13 17.1 13s14.6-10.6 17.1-13c2.4-2.4 4.1-15.5 4.1-15.5v-22z" fill="#df8866"/><path d="m203 93.7c.4-.1 1.4-.3 2.4-.2 4.2-14.8 2.1-26.3 2.1-26.3l-11.2 7c1.1 4.4 6.6 9.8 6.6 9.8z" fill="#455b96"/><path d="m207.5 51.7c-4.8-7.7-22.8-11.6-22.8 4.4 0 0-12 1-15.3.8-3.9-.3-20.4-1.8-10.6 36.6 1.2-.1 2.3.3 2.3.3h.2l.5-7.3s5.7-5.8 5.7-11.5c0 0 14.3 5.1 28.7.3s16.1-16 11.3-23.6z" fill="#5166af"/><circle cx="170.1" cy="93.7" r="8.9" style="fill:none;stroke:#5166af;stroke-width:2;stroke-linecap:round;stroke-linejoin:round;stroke-miterlimit:10"/><circle cx="193.7" cy="93.7" r="8.9" style="fill:none;stroke:#5166af;stroke-width:2;stroke-linecap:round;stroke-linejoin:round;stroke-miterlimit:10"/><path d="m166.1 94c.7 1.1 2.2 1.9 4.1 1.9 1.8 0 3.4-.8 4.1-1.9" style="fill:none;stroke:#5166af;stroke-width:2;stroke-linecap:round;stroke-linejoin:round;stroke-miterlimit:10"/><path d="m189.7 94c.7 1.1 2.2 1.9 4.1 1.9 1.8 0 3.4-.8 4.1-1.9" style="fill:none;stroke:#5166af;stroke-width:2;stroke-linecap:round;stroke-linejoin:round;stroke-miterlimit:10"/><path d="m177.5 92.9h8.9" style="fill:none;stroke:#5166af;stroke-width:2;stroke-linecap:round;stroke-linejoin:round;stroke-miterlimit:10"/><path d="m115.8 61.8s1.5-7.9 2.3-9.4 2.7-6 7.6-8.9c4.9-3 7.9-3.5 8.6-6.2s-1.8-4.6-4.7-9.5c-3-4.9-2.6-9.8-2.6-11.4 0-1.7 2.3-9.4 2.3-9.4l28.8 7.1s-1.5 7.9-2.3 9.4-2.7 6-7.6 8.9-7.9 3.5-8.6 6.2 1.8 4.6 4.7 9.5 2.6 9.8 2.6 11.4c0 1.7-2.3 9.4-2.3 9.4z" fill="#f6f7fb"/><path d="m158.6 14.2-29.8-7.3c-1-.2-1.5-1.2-1.3-2.2l.3-1.2c.2-1 1.2-1.5 2.2-1.3l29.8 7.3c1 .2 1.5 1.2 1.3 2.2l-.3 1.2c-.2.9-1.2 1.5-2.2 1.3z" fill="#e5e7ea"/><path d="m144 73.7-29.8-7.3c-1-.2-1.5-1.2-1.3-2.2l.3-1.2c.2-1 1.2-1.5 2.2-1.3l29.8 7.3c1 .2 1.5 1.2 1.3 2.2l-.3 1.2c-.3.9-1.2 1.5-2.2 1.3z" fill="#e5e7ea"/><path d="m140.2 25c-5.1-1.3-8.7-.1-8.7-.1s4 9.3 5.9 9.8l.8.2c2 .5 9.8-5.9 9.8-5.9s-2.7-2.7-7.8-4" fill="#fdb91b"/><path d="m140 67.9s-4.9-9.5-7.2-10.1l-.9-.2c-2.3-.6-11 5.6-11 5.6" fill="#fdb91b"/><circle cx="310.4" cy="57" fill="none" r="27.6" stroke="#fdb91b" stroke-miterlimit="10" stroke-width="2"/><circle cx="310.4" cy="57" fill="#fefefe" r="12"/><circle cx="310.4" cy="57" fill="#455b96" r="2.2"/><path d="m297.4 41 13 16 13.8-12.3" style="fill:none;stroke:#455b96;stroke-width:2;stroke-linecap:round;stroke-linejoin:round;stroke-miterlimit:10"/><path d="m8.7 92.8 16 9.6 35.3-37.5z" fill="#f6f7fb"/><path d="m36.8 108 16.3 8 6.9-49.3z" fill="#f6f7fb"/><path d="m24.7 102.4 3.9 13.6 8.2-8 23.2-43.1z" fill="#e5e7ea"/></svg>