<?xml version="1.0" encoding="utf-8"?>
<!-- Generator: Adobe Illustrator 21.1.0, SVG Export Plug-In . SVG Version: 6.00 Build 0)  -->
<svg version="1.1" id="Calque_1" xmlns="http://www.w3.org/2000/svg" xmlns:xlink="http://www.w3.org/1999/xlink" x="0px" y="0px"
	 width="366px" height="277px" viewBox="0 0 366 277" style="enable-background:new 0 0 366 277;" xml:space="preserve">
<style type="text/css">
	.st0{fill:#F6F7FB;}
	.st1{fill:none;stroke:#E5E7EA;stroke-width:2;stroke-linecap:round;stroke-linejoin:round;}
	.st2{fill:none;stroke:#E5E7EA;stroke-width:2;stroke-linecap:round;stroke-linejoin:round;stroke-dasharray:1.9988,5.9963;}
	.st3{fill:#DD9C19;}
	.st4{fill:#FDB91B;}
	.st5{fill:#E5E7EA;}
	
		.st6{fill:none;stroke:#E5E7EA;stroke-width:2;stroke-linecap:round;stroke-linejoin:round;stroke-miterlimit:10;stroke-dasharray:2,6;}
	.st7{fill:none;stroke:#E5E7EA;stroke-width:2;stroke-linecap:round;stroke-linejoin:round;stroke-miterlimit:10;}
	.st8{fill:#CD6D52;}
	.st9{fill:#DF8866;}
	.st10{fill:none;stroke:#5166AF;stroke-width:2;stroke-linecap:round;stroke-linejoin:round;stroke-miterlimit:10;}
	.st11{fill:#5166AF;}
	.st12{opacity:0.6;fill:none;stroke:#CD6D52;stroke-width:2;stroke-linecap:round;stroke-linejoin:round;stroke-miterlimit:10;}
	.st13{fill:#B8BBC1;}
	.st14{fill:#D4D7DE;}
	.st15{opacity:0.6;fill:none;stroke:#B8BBC1;stroke-width:2;stroke-linecap:round;stroke-linejoin:round;stroke-miterlimit:10;}
	.st16{opacity:0.6;fill:none;stroke:#DD9C19;stroke-width:2;stroke-linecap:round;stroke-linejoin:round;stroke-miterlimit:10;}
</style>
<polygon class="st0" points="366,277 0,277 0,0 "/>
<g>
	<g>
		<g>
			<g>
				<g>
					<path class="st1" d="M250.6,190c0,0,0.2-0.3,0.5-0.9"/>
					<path class="st2" d="M253.7,183.7c3.1-7.3,7.1-19.6,4-30.4c-3.9-13.7-14.2-18.9-7.1-30.8c7.1-11.8,61.6-23.7,54.5,7.1
						c-3.7,16.1-47.5,3.1-53.3-26c-3.6-17.8,0-72.2,72.2-43.8c0,0,25.3,13.1,39.9-13"/>
					<path class="st1" d="M365.3,44.1c0.1-0.3,0.3-0.6,0.4-0.9"/>
				</g>
			</g>
			<g>
				<path class="st3" d="M302.9,62.7l-3.6,5.5c-1.1,1.7-6.8-0.1-12.6-3.9c-5.9-3.9-9.7-8.3-8.6-10l3.6-5.5"/>
				
					<ellipse transform="matrix(0.5484 -0.8362 0.8362 0.5484 86.0729 269.5754)" class="st4" cx="292.6" cy="55.1" rx="3.7" ry="12.7"/>
			</g>
			<g>
				<path class="st3" d="M261.8,94.5l1.8,6.3c0.5,1.9-4.5,5.1-11.3,7c-6.8,1.9-12.7,1.9-13.2-0.1l-1.8-6.3"/>
				
					<ellipse transform="matrix(0.9623 -0.272 0.272 0.9623 -17.054 71.4845)" class="st4" cx="249.4" cy="97.3" rx="12.7" ry="3.7"/>
			</g>
			<g>
				<path class="st3" d="M266.9,150.5l-2,6.3c-0.6,1.9-6.5,1.7-13.2-0.4c-6.7-2.2-11.6-5.5-11-7.4l2-6.3"/>
				
					<ellipse transform="matrix(0.3076 -0.9515 0.9515 0.3076 37.804 343.6472)" class="st4" cx="255" cy="145.8" rx="3.7" ry="12.7"/>
			</g>
		</g>
		<g>
			<g>
				<polygon class="st0" points="190.5,43.8 171.9,55 130.8,11.4 				"/>
				<polygon class="st0" points="157.8,61.6 138.8,70.9 130.8,13.4 				"/>
				<polygon class="st5" points="171.9,55 167.3,70.9 157.8,61.6 130.8,11.4 				"/>
			</g>
			<path class="st6" d="M219.5,207c0,0-32-16.3-32-46s7-62.3,25-51.7s-19,32.6-27,4.8s-9-40.2-20-43.1"/>
		</g>
		<g>
			<g>
				<path class="st7" d="M245,254.6h76.1c5.8,0,10.5,4.7,10.5,10.5l0,0c0,5.8-4.7,10.5-10.5,10.5H245"/>
				<g>
					<line class="st7" x1="248.2" y1="258.4" x2="302.8" y2="258.4"/>
					<line class="st7" x1="245.6" y1="262.9" x2="319.3" y2="262.9"/>
					<line class="st7" x1="248.2" y1="267.3" x2="287.5" y2="267.3"/>
					<line class="st7" x1="245.6" y1="271.8" x2="316.8" y2="271.8"/>
				</g>
				<line class="st7" x1="248.2" y1="255.3" x2="248.2" y2="275.6"/>
			</g>
			<g>
				<path class="st7" d="M250.8,216.2h63.2c4.8,0,8.7,3.9,8.7,8.7l0,0c0,4.8-3.9,8.7-8.7,8.7h-63.2"/>
				<g>
					<line class="st7" x1="241.3" y1="220" x2="302.4" y2="220"/>
					<line class="st7" x1="263.4" y1="224.7" x2="296.1" y2="224.7"/>
					<line class="st7" x1="251.3" y1="229.4" x2="310.3" y2="229.4"/>
				</g>
				<line class="st7" x1="253.4" y1="216.7" x2="253.4" y2="233.6"/>
			</g>
			<g>
				<polyline class="st7" points="308.4,254.6 232.2,254.6 232.2,233.7 308.4,233.7 				"/>
				<path class="st7" d="M308.7,254.6"/>
				<path class="st7" d="M232.5,254.6"/>
				<path class="st7" d="M232.5,233.7"/>
				<path class="st7" d="M308.7,233.7"/>
				<g>
					<line class="st7" x1="308" y1="241.9" x2="234.4" y2="241.9"/>
					<line class="st7" x1="308" y1="248.8" x2="236.9" y2="248.8"/>
				</g>
				<line class="st7" x1="305.5" y1="234.3" x2="305.5" y2="254.6"/>
			</g>
		</g>
		<path class="st4" d="M106.6,171c0,0,19.6-1,23.7,2.1c4.1,3.1,24.7,31.9,24.7,31.9l-14.4,61.8l-20.6,1l-85.4-14.4l19.6-66.9
			l25.7-11.3L106.6,171z"/>
		<path class="st8" d="M100.9,159.7l-3.1,15.4c0,0-22.6-4.1-26.8-10.3l5.1-27.8L100.9,159.7z"/>
		<path class="st4" d="M72.6,155c0,0-11.3,0.5-12.4,16c-1,15.4-1,15.4-1,15.4l38.1-11.3L72.6,155z"/>
		<path class="st4" d="M99.8,163.8c0,0,7.8,1,7.8,7.2l-9.8,4.1"/>
		<g>
			<path class="st9" d="M78,101.1c0,0-3.5,9.8-7.2,19c-1.8,4.5-1.8,6.6,4.4,15l0,0c0,0,0.1,7.6,1.9,9.4c1.8,1.8,16.3,10.8,21.5,14.1
				c0,0,0,0,0,0c4.7,4,10.2,2.2,10.2,2.2c18.1-18.1,16.1-53,16.1-53L78,101.1z"/>
			<g>
				<path class="st8" d="M80.8,109.2c2.2-3.6,30.3,2.3,44.6,3.1c-0.2-2.3-0.4-4.5-0.4-4.5L78,101.1"/>
			</g>
			<g>
				<line class="st10" x1="91.6" y1="119.2" x2="79" y2="121.9"/>
				<ellipse class="st10" cx="122.3" cy="120.1" rx="7" ry="9"/>
				<ellipse class="st10" cx="100.6" cy="120.1" rx="8.8" ry="9.9"/>
				<g>
					<path class="st10" d="M96.7,122.2c0.7-1.2,2.2-2.1,4-2.1c1.8,0,3.3,0.9,4,2.1"/>
				</g>
				<g>
					<path class="st10" d="M118.8,121.2c0.6-0.7,1.5-1.1,2.6-1.1c1,0,1.8,0.4,2.4,1"/>
				</g>
				<line class="st10" x1="107.9" y1="120.1" x2="116" y2="120.1"/>
			</g>
			<path class="st11" d="M81.7,130.9c0,0-2.7-20.8,0-25.3c2.7-4.5,41.5,6.4,51.5,0.9c9.9-5.4,18.1-24.4-26.2-24.4
				c0,0-8.1-9-21.4-5.1c-13.4,3.9-19.3,18.7-14.8,43.1c0,0,2.7-4.5,5.4-1.8C79,121,75.3,130.9,81.7,130.9z"/>
			<path class="st12" d="M75.3,129.1c0,0,0-9-1.4-8.1"/>
		</g>
		<g>
			<path class="st4" d="M40.7,172.1c8.9-3.1,25.6-3.1,25.6-3.1l-3.3,38.8L44,249.7c-14.3,0-27.2,19-31.7,26.5
				c-6.3-1-10.8-3-11.7-6.5C-4.4,250.6,23.3,178.2,40.7,172.1z"/>
			<path class="st9" d="M44,249.7c5.6,0,18.9,6.3,28.9,7.3c1,0.1,2.1,0.2,3.2,0.2c3.5,0.1,7.3,0,11.2-0.2c6.9-0.4,13.9-1.1,19-1.1
				c8.9,0,23.4,11.5,23.4,11.5l-46,1.5l-11.2,1.4l-2.9,0.4c0,0-37.5,8.6-57.3,5.4C16.8,268.7,29.7,249.7,44,249.7z"/>
		</g>
		<g>
			<path class="st13" d="M37.5,277h138c2.2,0,4-1.8,4-4v-4c0-2.2-1.8-4-4-4h-138c-2.2,0-4,1.8-4,4v4C33.5,275.2,35.3,277,37.5,277z"
				/>
			<path class="st14" d="M138.5,277h129c2.2,0,4.2-1.8,4.4-4l7.3-80c0.2-2.2-1.4-4-3.6-4h-129c-2.2,0-4.2,1.8-4.4,4l-7.3,80
				C134.7,275.2,136.3,277,138.5,277z"/>
			<circle class="st15" cx="207.5" cy="233" r="7"/>
		</g>
		<path class="st16" d="M62.3,178.2l11.3-7.2l21.6,8.2c0,0,4.1,41.2,4.1,52.5"/>
		<path class="st16" d="M15,250.2c5.1-8.2,25.7-7.2,25.7-7.2s7.9-36.4,9.6-39.8"/>
		<circle class="st16" cx="88" cy="199.8" r="3.1"/>
		<circle class="st16" cx="89.1" cy="215.2" r="3.1"/>
		<circle class="st16" cx="89.1" cy="229.6" r="3.1"/>
	</g>
</g>
</svg>
