<svg width="80" height="80" viewBox="0 0 80 80" xmlns="http://www.w3.org/2000/svg" xmlns:xlink="http://www.w3.org/1999/xlink"><title>illu</title><defs><path id="a" d="M0 80h80V0H0z"/></defs><g fill="none" fill-rule="evenodd"><path d="M80 40c0 22.092-17.908 40-40 40S0 62.092 0 40 17.908 0 40 0s40 17.908 40 40" fill="#C2F0EB"/><path d="M52.92 28.7c.042.04.122.08.162.12l-.08.161-1.37 2.417-.886 1.612-.644 1.208-.08.201h.2l2.619-.363a13.186 13.186 0 0 0 4.39-2.053l1.047-.806a.548.548 0 0 1 .162-.12c.08 0 .12.04.202.04l2.417.2h.04c7.774 0 14.098-6.324 14.098-14.179C75.197 9.284 68.873 3 61.099 3c-7.775 0-14.1 6.324-14.1 14.178 0 4.311 1.935 8.178 4.956 10.756l.966.765z" fill="#FFF"/><mask id="b" fill="#fff"><use xlink:href="#a"/></mask><path fill="#FF7D00" mask="url(#b)" d="M54 11.853h5.226v-3H54z"/><path fill="#222E5C" mask="url(#b)" d="M54 19.003h17.716v-3H54zM54 26.153h12v-3H54zM47.509 49.077c2.186 2.903 3.278 6.477 3.278 10.717 0 6.135-2.316 10.963-6.95 14.486-4.633 3.524-10.93 5.285-18.89 5.285-4.828 0-9.46-.702-13.897-2.104-4.438-1.403-8.026-3.31-10.767-5.726l4.895-10.962c6.197 4.502 12.56 6.753 19.085 6.753 4.24 0 7.324-.734 9.249-2.202 1.924-1.468 2.888-3.8 2.888-6.998 0-3.066-.964-5.3-2.888-6.705-1.925-1.402-5.008-2.104-9.25-2.104H14.28v-11.94h8.32c4.045 0 7.047-.7 9.004-2.105 1.957-1.403 2.936-3.539 2.936-6.412 0-2.87-.866-5.055-2.594-6.556-1.73-1.5-4.193-2.252-7.39-2.252-3.001 0-6.068.572-9.2 1.713-3.131 1.142-6.2 2.823-9.2 5.041L1.262 16.043c2.805-2.412 6.394-4.32 10.767-5.725a43.92 43.92 0 0 1 13.506-2.105c4.699 0 8.825.783 12.38 2.35 3.558 1.566 6.298 3.752 8.224 6.557 1.924 2.806 2.887 6.103 2.887 9.886 0 3.785-.947 7.063-2.838 9.836-1.894 2.774-4.57 4.812-8.027 6.117 4.045 1.175 7.16 3.215 9.348 6.118"/><path d="M63.176 75.045c.095 0 .19-.096.285-.096.095.096.19.096.19.19l1.423 1.139c2.183 1.519 4.46 2.373 6.169 2.847l3.607.475h.285l-.096-.284-.76-1.614-1.233-2.183-1.897-3.322-.095-.19c.095-.095.189-.095.189-.19l1.329-1.043c4.27-3.607 6.928-9.016 6.928-15.09 0-10.914-8.826-19.931-19.74-19.931-10.82 0-19.741 8.826-19.741 19.836 0 11.009 8.826 19.93 19.74 19.93h.096c.853-.19 3.32-.474 3.32-.474" fill="#FF7D00" mask="url(#b)"/><path d="M57.249 65.958c0-1.033.826-1.859 1.859-1.859 1.034 0 1.861.826 1.861 1.859 0 1.034-.827 1.809-1.861 1.809-1.033 0-1.859-.827-1.859-1.809zm-.052-6.51c-.052-1.964 1.395-3.203 2.635-4.547.981-1.033 1.963-2.118 1.963-3.513 0-1.55-1.033-2.428-2.48-2.428-1.188 0-2.377.62-3.152 1.653l-2.893-2.686c1.395-1.757 3.772-2.842 6.355-2.842 3.462 0 6.562 1.963 6.562 6.045 0 2.428-1.343 4.03-2.738 5.373-1.292 1.188-2.48 2.118-2.584 3.255l-.052 1.24h-3.616v-1.55z" fill="#FFF" mask="url(#b)"/></g></svg>