<?xml version="1.0" encoding="UTF-8"?>
<svg width="202px" height="135px" viewBox="0 0 202 135" version="1.1" xmlns="http://www.w3.org/2000/svg" xmlns:xlink="http://www.w3.org/1999/xlink">
    <!-- Generator: Sketch 53.2 (72643) - https://sketchapp.com -->
    <title>illu</title>
    <desc>Created with Sketch.</desc>
    <defs>
        <polygon id="path-1" points="0 200.041237 263.998639 200.041237 263.998639 169.596277 263.998639 0.23814433 0 0.23814433"></polygon>
    </defs>
    <g id="Product" stroke="none" stroke-width="1" fill="none" fill-rule="evenodd">
        <g id="D-Product-Evercount" transform="translate(-627.000000, -155.000000)">
            <g id="Presentation" transform="translate(150.000000, 89.000000)">
                <g id="illu" transform="translate(438.000000, 0.000000)">
                    <path d="M230.744845,148.790742 L239.504474,148.790742" id="Stroke-2" stroke="#FDB91B" stroke-width="2" stroke-linecap="round" stroke-linejoin="round"></path>
                    <path d="M230.744845,156.090614 L239.504474,156.090614" id="Stroke-3" stroke="#FDB91B" stroke-width="2" stroke-linecap="round" stroke-linejoin="round"></path>
                    <path d="M230.744845,163.876845 L239.504474,163.876845" id="Stroke-4" stroke="#FDB91B" stroke-width="2" stroke-linecap="round" stroke-linejoin="round"></path>
                    <path d="M230.744845,171.663076 L239.504474,171.663076" id="Stroke-5" stroke="#FDB91B" stroke-width="2" stroke-linecap="round" stroke-linejoin="round"></path>
                    <polygon id="Fill-6" fill="#DD9C19" points="148.014186 175.799711 231.718515 175.799711 231.718515 144.653155 148.014186 144.653155"></polygon>
                    <g id="Group-36" transform="translate(0.000000, 0.122680)">
                        <path d="M209.10188,174.4248 C200.244272,167.782614 174.78052,166.674903 162.601138,165.567192 L100.601963,165.567192 C88.4225814,166.674903 62.9588289,167.782614 54.1025814,174.4248 C50.216066,177.339687 44.8380866,186.447687 38.9974268,200.040965 L224.207035,200.040965 C218.366375,186.447687 212.987035,177.339687 209.10188,174.4248" id="Fill-7" fill="#5166AF"></path>
                        <mask id="mask-2" fill="white">
                            <use xlink:href="#path-1"></use>
                        </mask>
                        <g id="Clip-10"></g>
                        <polygon id="Fill-9" fill="#F6F7FB" mask="url(#mask-2)" points="107.505155 200.041237 156.494845 200.041237 156.494845 163.298969 107.505155 163.298969"></polygon>
                        <polygon id="Fill-11" fill="#455B96" mask="url(#mask-2)" points="151.051546 165.975711 159.811175 165.975711 159.811175 162.082392 151.051546 162.082392"></polygon>
                        <path d="M157.864924,162.082392 L160.054491,162.082392 L167.597542,162.082392 C168.667151,162.082392 169.544882,162.958763 169.544882,164.029732 L169.544882,171.572784 L169.544882,187.388289 L169.544882,190.550845 C169.544882,195.770969 165.273254,200.041237 160.054491,200.041237 L155.917584,200.041237 L155.917584,187.388289 L155.917584,164.029732 L155.917584,162.082392 L157.864924,162.082392 Z" id="Fill-12" fill="#455B96" mask="url(#mask-2)"></path>
                        <polygon id="Fill-13" fill="#455B96" mask="url(#mask-2)" points="103.630887 165.975711 112.390515 165.975711 112.390515 162.082392 103.630887 162.082392"></polygon>
                        <path d="M105.576866,162.082392 L103.387299,162.082392 L95.8442474,162.082392 C94.7732784,162.082392 93.8969072,162.958763 93.8969072,164.029732 L93.8969072,171.572784 L93.8969072,187.388289 L93.8969072,190.550845 C93.8969072,195.770969 98.1685361,200.041237 103.387299,200.041237 L107.524206,200.041237 L107.524206,187.388289 L107.524206,164.029732 L107.524206,162.082392 L105.576866,162.082392 Z" id="Fill-14" fill="#455B96" mask="url(#mask-2)"></path>
                        <path d="M115.194359,159.696866 C115.194359,159.069526 115.280091,157.09633 115.406647,156.494845 L115.194359,156.494845 L111.588173,156.494845 L111.588173,175.346351 C111.588173,182.972412 120.470276,189.154639 131.426276,189.154639 C142.382276,189.154639 151.26574,182.972412 151.26574,175.346351 L151.26574,156.494845 L147.466318,156.494845 L147.445905,157.85567 C147.572462,158.457155 147.658194,157.708701 147.658194,158.336041" id="Fill-15" fill="#FDB91B" mask="url(#mask-2)"></path>
                        <path d="M131.319588,172.630689 L131.319588,172.630689 C122.120412,172.630689 114.595052,165.103967 114.595052,155.904792 L114.595052,151.44673 C114.595052,142.247555 122.120412,134.722194 131.319588,134.722194 C140.518763,134.722194 148.044124,142.247555 148.044124,151.44673 L148.044124,155.904792 C148.044124,165.103967 140.518763,172.630689 131.319588,172.630689" id="Fill-16" fill="#DF8866" mask="url(#mask-2)"></path>
                        <path d="M131.601278,141.729761 L114.593691,141.536524 L114.593691,154.411287 C119.858722,159.998833 127.13233,166.677761 133.383959,166.677761 C138.123711,166.677761 143.449979,160.880647 148.045485,156.226627 L148.045485,141.543328 L131.601278,141.729761 Z" id="Fill-17" fill="#CD6D52" mask="url(#mask-2)"></path>
                        <path d="M157.661616,131.583315 C163.156627,131.583315 166.56141,123.657872 166.56141,117.014326 C166.56141,110.37214 158.811513,112.586202 158.811513,112.586202 L157.661616,131.583315 Z" id="Fill-18" fill="#DF8866" mask="url(#mask-2)"></path>
                        <path d="M159.377344,117.312619 C159.377344,117.312619 163.19854,116.221237 163.19854,119.495381 C163.19854,122.770887 161.519282,126.677814 158.811241,126.677814" id="Stroke-19" stroke="#CD6D52" stroke-width="2" stroke-linecap="round" stroke-linejoin="round" mask="url(#mask-2)"></path>
                        <path d="M103.454524,131.583315 C97.9595134,131.583315 94.5547299,123.657872 94.5547299,117.014326 C94.5547299,110.37214 102.304627,112.586202 102.304627,112.586202 L103.454524,131.583315 Z" id="Fill-20" fill="#DF8866" mask="url(#mask-2)"></path>
                        <path d="M101.738932,117.312619 C101.738932,117.312619 97.9177361,116.221237 97.9177361,119.495381 C97.9177361,122.770887 99.5969938,126.677814 102.305035,126.677814" id="Stroke-21" stroke="#CD6D52" stroke-width="2" stroke-linecap="round" stroke-linejoin="round" mask="url(#mask-2)"></path>
                        <path d="M130.536841,69.4080495 L101.752676,91.5500289 L101.752676,121.443266 C101.752676,121.443266 103.966738,139.157122 107.287151,142.478895 C110.607563,145.800668 121.679233,160.192751 130.536841,160.192751 C139.394449,160.192751 150.46612,145.800668 153.787893,142.478895 C157.108305,139.157122 159.322367,121.443266 159.322367,121.443266 L159.322367,91.5500289 L130.536841,69.4080495 Z" id="Fill-22" fill="#DF8866" mask="url(#mask-2)"></path>
                        <path d="M152.033654,115.838165 C150.887839,113.96567 148.273695,112.655196 145.22953,112.655196 C142.186726,112.655196 139.572581,113.96567 138.425406,115.838165" id="Stroke-23" stroke="#5166AF" stroke-width="2" stroke-linecap="round" stroke-linejoin="round" mask="url(#mask-2)"></path>
                        <path d="M122.648276,115.838165 C121.502462,113.96567 118.888318,112.655196 115.844153,112.655196 C112.799988,112.655196 110.187204,113.96567 109.040029,115.838165" id="Stroke-24" stroke="#5166AF" stroke-width="2" stroke-linecap="round" stroke-linejoin="round" mask="url(#mask-2)"></path>
                        <path d="M113.604915,97.1952742 C124.046524,111.222656 137.251967,109.314779 144.522854,101.260058 C146.388544,99.1943258 147.70174,96.2318103 148.330441,93.0338722 L135.568627,97.1952742 L113.604915,97.1952742 Z" id="Fill-25" fill="#5166AF" mask="url(#mask-2)"></path>
                        <path d="M100.011365,128.933518 L96.6759835,128.933518 C95.1477773,128.933518 93.8971794,127.68292 93.8971794,126.154713 L93.8971794,103.921559 C93.8971794,102.393353 95.1477773,101.141394 96.6759835,101.141394 L100.011365,101.141394" id="Fill-26" fill="#DF8866" mask="url(#mask-2)"></path>
                        <path d="M162.26379,128.933518 L165.599171,128.933518 C167.127377,128.933518 168.377975,127.68292 168.377975,126.154713 L168.377975,103.921559 C168.377975,102.393353 167.127377,101.141394 165.599171,101.141394 L162.26379,101.141394" id="Fill-27" fill="#DF8866" mask="url(#mask-2)"></path>
                        <path d="M162.26379,91.6929155 L160.558676,91.6929155 L160.595419,90.5811216 C160.595419,77.3811216 147.407666,66.6809567 131.137645,66.6809567 C114.867625,66.6809567 101.678511,77.3811216 101.678511,90.5811216 L101.716614,91.6929155 L100.011501,91.6929155 C99.3991299,91.6929155 98.8997072,92.193699 98.8997072,92.8047093 L98.8997072,144.496998 C98.8997072,145.108008 99.3991299,145.608792 100.011501,145.608792 L101.934346,145.608792 C102.545357,145.608792 103.04614,145.108008 103.04614,144.496998 L103.04614,101.895019 C103.658511,100.168132 105.307831,98.9188948 107.23612,98.9188948 L127.247047,98.9188948 L135.028243,98.9188948 L155.03781,98.9188948 C156.96746,98.9188948 158.616779,100.168132 159.229151,101.895019 L159.229151,144.496998 C159.229151,145.108008 159.729934,145.608792 160.340944,145.608792 L162.26379,145.608792 C162.876161,145.608792 163.375584,145.108008 163.375584,144.496998 L163.375584,92.8047093 C163.375584,92.193699 162.876161,91.6929155 162.26379,91.6929155" id="Fill-28" fill="#CD6D52" mask="url(#mask-2)"></path>
                        <path d="M161.708301,95.1141649 L100.566445,95.1141649 C98.7252495,95.1141649 97.2324247,93.6213402 97.2324247,91.7787835 C97.2324247,89.9375876 98.7252495,88.4447629 100.566445,88.4447629 L161.708301,88.4447629 C163.550858,88.4447629 165.042322,89.9375876 165.042322,91.7787835 C165.042322,93.6213402 163.550858,95.1141649 161.708301,95.1141649" id="Fill-29" fill="#DF8866" mask="url(#mask-2)"></path>
                        <path d="M126.927526,91.7791918 C126.927526,97.0864082 122.624598,101.387975 117.317381,101.387975 C112.011526,101.387975 107.709959,97.0864082 107.709959,91.7791918 C107.709959,86.4733361 112.011526,82.1704082 117.317381,82.1704082 C122.624598,82.1704082 126.927526,86.4733361 126.927526,91.7791918" id="Fill-30" fill="#FFFFFF" mask="url(#mask-2)"></path>
                        <path d="M126.927526,91.7791918 C126.927526,97.0864082 122.624598,101.387975 117.317381,101.387975 C112.011526,101.387975 107.709959,97.0864082 107.709959,91.7791918 C107.709959,86.4733361 112.011526,82.1704082 117.317381,82.1704082 C122.624598,82.1704082 126.927526,86.4733361 126.927526,91.7791918 Z" id="Stroke-31" stroke="#DF8866" stroke-width="2" stroke-linecap="round" stroke-linejoin="round" mask="url(#mask-2)"></path>
                        <path d="M113.270016,95.3872825 L120.657934,87.9980041" id="Stroke-32" stroke="#E5E7EA" stroke-width="2" stroke-linecap="round" stroke-linejoin="round" mask="url(#mask-2)"></path>
                        <path d="M154.144021,91.7791918 C154.144021,97.0864082 149.841093,101.387975 144.533876,101.387975 C139.228021,101.387975 134.926454,97.0864082 134.926454,91.7791918 C134.926454,86.4733361 139.228021,82.1704082 144.533876,82.1704082 C149.841093,82.1704082 154.144021,86.4733361 154.144021,91.7791918" id="Fill-33" fill="#FFFFFF" mask="url(#mask-2)"></path>
                        <path d="M154.144021,91.7791918 C154.144021,97.0864082 149.841093,101.387975 144.533876,101.387975 C139.228021,101.387975 134.926454,97.0864082 134.926454,91.7791918 C134.926454,86.4733361 139.228021,82.1704082 144.533876,82.1704082 C149.841093,82.1704082 154.144021,86.4733361 154.144021,91.7791918 Z" id="Stroke-34" stroke="#DF8866" stroke-width="2" stroke-linecap="round" stroke-linejoin="round" mask="url(#mask-2)"></path>
                        <path d="M140.486511,95.3872825 L147.874429,87.9980041" id="Stroke-35" stroke="#E5E7EA" stroke-width="2" stroke-linecap="round" stroke-linejoin="round" mask="url(#mask-2)"></path>
                    </g>
                </g>
            </g>
        </g>
    </g>
</svg>