<svg enable-background="new 0 0 81 81.4" height="81.4" viewBox="0 0 81 81.4" width="81" xmlns="http://www.w3.org/2000/svg"><g stroke="#7b8fea" stroke-linecap="round" stroke-linejoin="round" stroke-miterlimit="10"><g fill="none"><path d="m59.9 24.7v-15.3-2.5c0-3.4 2.8-6.2 6.2-6.2h1.9c3.4 0 6.2 2.8 6.2 6.2v9.6h-14.3"/><path d="m67.5.5h-60.8c-3.4 0-6.2 2.8-6.2 6.2v74h49.6"/><path d="m53.7 9.3c-.8-.7-1.8-1.3-2.9-1.7-1-.4-2.1-.6-3.3-.6-1.5 0-2.9.3-4.2 1-1.3.6-2.4 1.5-3.3 2.7-.9 1.1-1.4 2.4-1.7 3.8l-.1.6c0 .4-.1.8-.1 1 0 .5 0 1 .1 1.4l.1.6c.3 1.3.9 2.6 1.8 3.6.9 1.1 2 1.9 3.2 2.6 1.3.6 2.6.9 4.1.9 1.2 0 2.3-.2 3.4-.6s2-1 2.9-1.7"/><path d="m35.2 15.1h12"/><path d="m35.2 18.2h12"/><path d="m7.6 10.2h22.4"/><path d="m7.6 17.9h22.4"/><path d="m7.6 25.5h22.4"/><path d="m7.6 56.2h25.5"/><path d="m7.6 33.2h25"/><path d="m7.6 48.5h25"/><path d="m7.6 40.9h19.8"/><path d="m7.6 63.9h16.5"/><path d="m59.5 80.9s-21-7.5-21-29.2v-17.2l21-4.4 21 4.4v17.2c0 21.9-21 29.2-21 29.2z"/></g><path d="m59.5 74.2s-15.5-5.5-15.5-21.5v-12.7l15.5-3.3 15.5 3.3v12.7c0 16.2-15.5 21.5-15.5 21.5z" fill="#ebeefc"/><path d="m59.9 48.5v-18.1" fill="none"/><path d="m59.9 79.7v-17.3" fill="none"/><path d="m59.5 53.4-2.6-2.8-2.9 2.9 5.4 5.4 9.2-9.1-2.1-2.2z" fill="none"/></g></svg>